G04 #@! TF.GenerationSoftware,KiCad,Pcbnew,(5.1.5)-3*
G04 #@! TF.CreationDate,2020-02-18T21:35:31-05:00*
G04 #@! TF.ProjectId,Keyboard PCB,4b657962-6f61-4726-9420-5043422e6b69,rev?*
G04 #@! TF.SameCoordinates,Original*
G04 #@! TF.FileFunction,Copper,L2,Bot*
G04 #@! TF.FilePolarity,Positive*
%FSLAX46Y46*%
G04 Gerber Fmt 4.6, Leading zero omitted, Abs format (unit mm)*
G04 Created by KiCad (PCBNEW (5.1.5)-3) date 2020-02-18 21:35:31*
%MOMM*%
%LPD*%
G04 APERTURE LIST*
%ADD10C,2.250000*%
%ADD11C,2.250000*%
%ADD12R,0.600000X2.450000*%
%ADD13R,0.300000X2.450000*%
%ADD14O,1.000000X2.100000*%
%ADD15O,1.000000X1.600000*%
%ADD16C,0.100000*%
%ADD17R,1.500000X0.550000*%
%ADD18R,0.550000X1.500000*%
%ADD19R,1.800000X2.100000*%
%ADD20R,1.100000X1.800000*%
%ADD21R,1.200000X0.900000*%
%ADD22C,0.800000*%
%ADD23C,0.254000*%
%ADD24C,0.381000*%
G04 APERTURE END LIST*
D10*
X41950000Y119093750D03*
D11*
X40640000Y117633750D02*
X41950002Y119093750D01*
D10*
X46990000Y120173750D03*
D11*
X46950000Y119593750D02*
X46990000Y120173750D01*
D12*
X37898000Y117849000D03*
X31448000Y117849000D03*
X37123000Y117849000D03*
X32223000Y117849000D03*
D13*
X32923000Y117849000D03*
X36423000Y117849000D03*
X33423000Y117849000D03*
X35923000Y117849000D03*
X33923000Y117849000D03*
X35423000Y117849000D03*
X34923000Y117849000D03*
X34423000Y117849000D03*
D14*
X30353000Y119264000D03*
X38993000Y119264000D03*
D15*
X30353000Y123444000D03*
X38993000Y123444000D03*
G04 #@! TA.AperFunction,SMDPad,CuDef*
D16*
G36*
X33494505Y113712796D02*
G01*
X33518773Y113709196D01*
X33542572Y113703235D01*
X33565671Y113694970D01*
X33587850Y113684480D01*
X33608893Y113671868D01*
X33628599Y113657253D01*
X33646777Y113640777D01*
X33663253Y113622599D01*
X33677868Y113602893D01*
X33690480Y113581850D01*
X33700970Y113559671D01*
X33709235Y113536572D01*
X33715196Y113512773D01*
X33718796Y113488505D01*
X33720000Y113464001D01*
X33720000Y112813999D01*
X33718796Y112789495D01*
X33715196Y112765227D01*
X33709235Y112741428D01*
X33700970Y112718329D01*
X33690480Y112696150D01*
X33677868Y112675107D01*
X33663253Y112655401D01*
X33646777Y112637223D01*
X33628599Y112620747D01*
X33608893Y112606132D01*
X33587850Y112593520D01*
X33565671Y112583030D01*
X33542572Y112574765D01*
X33518773Y112568804D01*
X33494505Y112565204D01*
X33470001Y112564000D01*
X32569999Y112564000D01*
X32545495Y112565204D01*
X32521227Y112568804D01*
X32497428Y112574765D01*
X32474329Y112583030D01*
X32452150Y112593520D01*
X32431107Y112606132D01*
X32411401Y112620747D01*
X32393223Y112637223D01*
X32376747Y112655401D01*
X32362132Y112675107D01*
X32349520Y112696150D01*
X32339030Y112718329D01*
X32330765Y112741428D01*
X32324804Y112765227D01*
X32321204Y112789495D01*
X32320000Y112813999D01*
X32320000Y113464001D01*
X32321204Y113488505D01*
X32324804Y113512773D01*
X32330765Y113536572D01*
X32339030Y113559671D01*
X32349520Y113581850D01*
X32362132Y113602893D01*
X32376747Y113622599D01*
X32393223Y113640777D01*
X32411401Y113657253D01*
X32431107Y113671868D01*
X32452150Y113684480D01*
X32474329Y113694970D01*
X32497428Y113703235D01*
X32521227Y113709196D01*
X32545495Y113712796D01*
X32569999Y113714000D01*
X33470001Y113714000D01*
X33494505Y113712796D01*
G37*
G04 #@! TD.AperFunction*
G04 #@! TA.AperFunction,SMDPad,CuDef*
G36*
X33494505Y115762796D02*
G01*
X33518773Y115759196D01*
X33542572Y115753235D01*
X33565671Y115744970D01*
X33587850Y115734480D01*
X33608893Y115721868D01*
X33628599Y115707253D01*
X33646777Y115690777D01*
X33663253Y115672599D01*
X33677868Y115652893D01*
X33690480Y115631850D01*
X33700970Y115609671D01*
X33709235Y115586572D01*
X33715196Y115562773D01*
X33718796Y115538505D01*
X33720000Y115514001D01*
X33720000Y114863999D01*
X33718796Y114839495D01*
X33715196Y114815227D01*
X33709235Y114791428D01*
X33700970Y114768329D01*
X33690480Y114746150D01*
X33677868Y114725107D01*
X33663253Y114705401D01*
X33646777Y114687223D01*
X33628599Y114670747D01*
X33608893Y114656132D01*
X33587850Y114643520D01*
X33565671Y114633030D01*
X33542572Y114624765D01*
X33518773Y114618804D01*
X33494505Y114615204D01*
X33470001Y114614000D01*
X32569999Y114614000D01*
X32545495Y114615204D01*
X32521227Y114618804D01*
X32497428Y114624765D01*
X32474329Y114633030D01*
X32452150Y114643520D01*
X32431107Y114656132D01*
X32411401Y114670747D01*
X32393223Y114687223D01*
X32376747Y114705401D01*
X32362132Y114725107D01*
X32349520Y114746150D01*
X32339030Y114768329D01*
X32330765Y114791428D01*
X32324804Y114815227D01*
X32321204Y114839495D01*
X32320000Y114863999D01*
X32320000Y115514001D01*
X32321204Y115538505D01*
X32324804Y115562773D01*
X32330765Y115586572D01*
X32339030Y115609671D01*
X32349520Y115631850D01*
X32362132Y115652893D01*
X32376747Y115672599D01*
X32393223Y115690777D01*
X32411401Y115707253D01*
X32431107Y115721868D01*
X32452150Y115734480D01*
X32474329Y115744970D01*
X32497428Y115753235D01*
X32521227Y115759196D01*
X32545495Y115762796D01*
X32569999Y115764000D01*
X33470001Y115764000D01*
X33494505Y115762796D01*
G37*
G04 #@! TD.AperFunction*
G04 #@! TA.AperFunction,SMDPad,CuDef*
G36*
X37304505Y113730796D02*
G01*
X37328773Y113727196D01*
X37352572Y113721235D01*
X37375671Y113712970D01*
X37397850Y113702480D01*
X37418893Y113689868D01*
X37438599Y113675253D01*
X37456777Y113658777D01*
X37473253Y113640599D01*
X37487868Y113620893D01*
X37500480Y113599850D01*
X37510970Y113577671D01*
X37519235Y113554572D01*
X37525196Y113530773D01*
X37528796Y113506505D01*
X37530000Y113482001D01*
X37530000Y112831999D01*
X37528796Y112807495D01*
X37525196Y112783227D01*
X37519235Y112759428D01*
X37510970Y112736329D01*
X37500480Y112714150D01*
X37487868Y112693107D01*
X37473253Y112673401D01*
X37456777Y112655223D01*
X37438599Y112638747D01*
X37418893Y112624132D01*
X37397850Y112611520D01*
X37375671Y112601030D01*
X37352572Y112592765D01*
X37328773Y112586804D01*
X37304505Y112583204D01*
X37280001Y112582000D01*
X36379999Y112582000D01*
X36355495Y112583204D01*
X36331227Y112586804D01*
X36307428Y112592765D01*
X36284329Y112601030D01*
X36262150Y112611520D01*
X36241107Y112624132D01*
X36221401Y112638747D01*
X36203223Y112655223D01*
X36186747Y112673401D01*
X36172132Y112693107D01*
X36159520Y112714150D01*
X36149030Y112736329D01*
X36140765Y112759428D01*
X36134804Y112783227D01*
X36131204Y112807495D01*
X36130000Y112831999D01*
X36130000Y113482001D01*
X36131204Y113506505D01*
X36134804Y113530773D01*
X36140765Y113554572D01*
X36149030Y113577671D01*
X36159520Y113599850D01*
X36172132Y113620893D01*
X36186747Y113640599D01*
X36203223Y113658777D01*
X36221401Y113675253D01*
X36241107Y113689868D01*
X36262150Y113702480D01*
X36284329Y113712970D01*
X36307428Y113721235D01*
X36331227Y113727196D01*
X36355495Y113730796D01*
X36379999Y113732000D01*
X37280001Y113732000D01*
X37304505Y113730796D01*
G37*
G04 #@! TD.AperFunction*
G04 #@! TA.AperFunction,SMDPad,CuDef*
G36*
X37304505Y115780796D02*
G01*
X37328773Y115777196D01*
X37352572Y115771235D01*
X37375671Y115762970D01*
X37397850Y115752480D01*
X37418893Y115739868D01*
X37438599Y115725253D01*
X37456777Y115708777D01*
X37473253Y115690599D01*
X37487868Y115670893D01*
X37500480Y115649850D01*
X37510970Y115627671D01*
X37519235Y115604572D01*
X37525196Y115580773D01*
X37528796Y115556505D01*
X37530000Y115532001D01*
X37530000Y114881999D01*
X37528796Y114857495D01*
X37525196Y114833227D01*
X37519235Y114809428D01*
X37510970Y114786329D01*
X37500480Y114764150D01*
X37487868Y114743107D01*
X37473253Y114723401D01*
X37456777Y114705223D01*
X37438599Y114688747D01*
X37418893Y114674132D01*
X37397850Y114661520D01*
X37375671Y114651030D01*
X37352572Y114642765D01*
X37328773Y114636804D01*
X37304505Y114633204D01*
X37280001Y114632000D01*
X36379999Y114632000D01*
X36355495Y114633204D01*
X36331227Y114636804D01*
X36307428Y114642765D01*
X36284329Y114651030D01*
X36262150Y114661520D01*
X36241107Y114674132D01*
X36221401Y114688747D01*
X36203223Y114705223D01*
X36186747Y114723401D01*
X36172132Y114743107D01*
X36159520Y114764150D01*
X36149030Y114786329D01*
X36140765Y114809428D01*
X36134804Y114833227D01*
X36131204Y114857495D01*
X36130000Y114881999D01*
X36130000Y115532001D01*
X36131204Y115556505D01*
X36134804Y115580773D01*
X36140765Y115604572D01*
X36149030Y115627671D01*
X36159520Y115649850D01*
X36172132Y115670893D01*
X36186747Y115690599D01*
X36203223Y115708777D01*
X36221401Y115725253D01*
X36241107Y115739868D01*
X36262150Y115752480D01*
X36284329Y115762970D01*
X36307428Y115771235D01*
X36331227Y115777196D01*
X36355495Y115780796D01*
X36379999Y115782000D01*
X37280001Y115782000D01*
X37304505Y115780796D01*
G37*
G04 #@! TD.AperFunction*
D10*
X22900000Y119093750D03*
D11*
X21590000Y117633750D02*
X22900002Y119093750D01*
D10*
X27940000Y120173750D03*
D11*
X27900000Y119593750D02*
X27940000Y120173750D01*
D10*
X315793750Y38131250D03*
D11*
X314483750Y36671250D02*
X315793752Y38131250D01*
D10*
X320833750Y39211250D03*
D11*
X320793750Y38631250D02*
X320833750Y39211250D01*
D10*
X320556750Y61943750D03*
D11*
X319246750Y60483750D02*
X320556752Y61943750D01*
D10*
X325596750Y63023750D03*
D11*
X325556750Y62443750D02*
X325596750Y63023750D01*
D10*
X103862500Y61943750D03*
D11*
X102552500Y60483750D02*
X103862502Y61943750D01*
D10*
X108902500Y63023750D03*
D11*
X108862500Y62443750D02*
X108902500Y63023750D01*
D10*
X84812500Y61943750D03*
D11*
X83502500Y60483750D02*
X84812502Y61943750D01*
D10*
X89852500Y63023750D03*
D11*
X89812500Y62443750D02*
X89852500Y63023750D01*
D10*
X122912500Y61943750D03*
D11*
X121602500Y60483750D02*
X122912502Y61943750D01*
D10*
X127952500Y63023750D03*
D11*
X127912500Y62443750D02*
X127952500Y63023750D01*
D10*
X144343750Y42893750D03*
D11*
X143033750Y41433750D02*
X144343752Y42893750D01*
D10*
X149383750Y43973750D03*
D11*
X149343750Y43393750D02*
X149383750Y43973750D01*
D17*
X110943750Y43484250D03*
X110943750Y42684250D03*
X110943750Y41884250D03*
X110943750Y41084250D03*
X110943750Y40284250D03*
X110943750Y39484250D03*
X110943750Y38684250D03*
X110943750Y37884250D03*
X110943750Y37084250D03*
X110943750Y36284250D03*
X110943750Y35484250D03*
D18*
X112643750Y33784250D03*
X113443750Y33784250D03*
X114243750Y33784250D03*
X115043750Y33784250D03*
X115843750Y33784250D03*
X116643750Y33784250D03*
X117443750Y33784250D03*
X118243750Y33784250D03*
X119043750Y33784250D03*
X119843750Y33784250D03*
X120643750Y33784250D03*
D17*
X122343750Y35484250D03*
X122343750Y36284250D03*
X122343750Y37084250D03*
X122343750Y37884250D03*
X122343750Y38684250D03*
X122343750Y39484250D03*
X122343750Y40284250D03*
X122343750Y41084250D03*
X122343750Y41884250D03*
X122343750Y42684250D03*
X122343750Y43484250D03*
D18*
X120643750Y45184250D03*
X119843750Y45184250D03*
X119043750Y45184250D03*
X118243750Y45184250D03*
X117443750Y45184250D03*
X116643750Y45184250D03*
X115843750Y45184250D03*
X115043750Y45184250D03*
X114243750Y45184250D03*
X113443750Y45184250D03*
X112643750Y45184250D03*
D10*
X277747750Y38130750D03*
D11*
X276437750Y36670750D02*
X277747752Y38130750D01*
D10*
X282787750Y39210750D03*
D11*
X282747750Y38630750D02*
X282787750Y39210750D01*
D19*
X129250750Y37754250D03*
X129250750Y40654250D03*
X126950750Y40654250D03*
X126950750Y37754250D03*
D20*
X135612750Y46978500D03*
X131912750Y40778500D03*
X131912750Y46978500D03*
X135612750Y40778500D03*
G04 #@! TA.AperFunction,SMDPad,CuDef*
D16*
G36*
X108075255Y34419296D02*
G01*
X108099523Y34415696D01*
X108123322Y34409735D01*
X108146421Y34401470D01*
X108168600Y34390980D01*
X108189643Y34378368D01*
X108209349Y34363753D01*
X108227527Y34347277D01*
X108244003Y34329099D01*
X108258618Y34309393D01*
X108271230Y34288350D01*
X108281720Y34266171D01*
X108289985Y34243072D01*
X108295946Y34219273D01*
X108299546Y34195005D01*
X108300750Y34170501D01*
X108300750Y33520499D01*
X108299546Y33495995D01*
X108295946Y33471727D01*
X108289985Y33447928D01*
X108281720Y33424829D01*
X108271230Y33402650D01*
X108258618Y33381607D01*
X108244003Y33361901D01*
X108227527Y33343723D01*
X108209349Y33327247D01*
X108189643Y33312632D01*
X108168600Y33300020D01*
X108146421Y33289530D01*
X108123322Y33281265D01*
X108099523Y33275304D01*
X108075255Y33271704D01*
X108050751Y33270500D01*
X107150749Y33270500D01*
X107126245Y33271704D01*
X107101977Y33275304D01*
X107078178Y33281265D01*
X107055079Y33289530D01*
X107032900Y33300020D01*
X107011857Y33312632D01*
X106992151Y33327247D01*
X106973973Y33343723D01*
X106957497Y33361901D01*
X106942882Y33381607D01*
X106930270Y33402650D01*
X106919780Y33424829D01*
X106911515Y33447928D01*
X106905554Y33471727D01*
X106901954Y33495995D01*
X106900750Y33520499D01*
X106900750Y34170501D01*
X106901954Y34195005D01*
X106905554Y34219273D01*
X106911515Y34243072D01*
X106919780Y34266171D01*
X106930270Y34288350D01*
X106942882Y34309393D01*
X106957497Y34329099D01*
X106973973Y34347277D01*
X106992151Y34363753D01*
X107011857Y34378368D01*
X107032900Y34390980D01*
X107055079Y34401470D01*
X107078178Y34409735D01*
X107101977Y34415696D01*
X107126245Y34419296D01*
X107150749Y34420500D01*
X108050751Y34420500D01*
X108075255Y34419296D01*
G37*
G04 #@! TD.AperFunction*
G04 #@! TA.AperFunction,SMDPad,CuDef*
G36*
X108075255Y36469296D02*
G01*
X108099523Y36465696D01*
X108123322Y36459735D01*
X108146421Y36451470D01*
X108168600Y36440980D01*
X108189643Y36428368D01*
X108209349Y36413753D01*
X108227527Y36397277D01*
X108244003Y36379099D01*
X108258618Y36359393D01*
X108271230Y36338350D01*
X108281720Y36316171D01*
X108289985Y36293072D01*
X108295946Y36269273D01*
X108299546Y36245005D01*
X108300750Y36220501D01*
X108300750Y35570499D01*
X108299546Y35545995D01*
X108295946Y35521727D01*
X108289985Y35497928D01*
X108281720Y35474829D01*
X108271230Y35452650D01*
X108258618Y35431607D01*
X108244003Y35411901D01*
X108227527Y35393723D01*
X108209349Y35377247D01*
X108189643Y35362632D01*
X108168600Y35350020D01*
X108146421Y35339530D01*
X108123322Y35331265D01*
X108099523Y35325304D01*
X108075255Y35321704D01*
X108050751Y35320500D01*
X107150749Y35320500D01*
X107126245Y35321704D01*
X107101977Y35325304D01*
X107078178Y35331265D01*
X107055079Y35339530D01*
X107032900Y35350020D01*
X107011857Y35362632D01*
X106992151Y35377247D01*
X106973973Y35393723D01*
X106957497Y35411901D01*
X106942882Y35431607D01*
X106930270Y35452650D01*
X106919780Y35474829D01*
X106911515Y35497928D01*
X106905554Y35521727D01*
X106901954Y35545995D01*
X106900750Y35570499D01*
X106900750Y36220501D01*
X106901954Y36245005D01*
X106905554Y36269273D01*
X106911515Y36293072D01*
X106919780Y36316171D01*
X106930270Y36338350D01*
X106942882Y36359393D01*
X106957497Y36379099D01*
X106973973Y36397277D01*
X106992151Y36413753D01*
X107011857Y36428368D01*
X107032900Y36440980D01*
X107055079Y36451470D01*
X107078178Y36459735D01*
X107101977Y36465696D01*
X107126245Y36469296D01*
X107150749Y36470500D01*
X108050751Y36470500D01*
X108075255Y36469296D01*
G37*
G04 #@! TD.AperFunction*
G04 #@! TA.AperFunction,SMDPad,CuDef*
G36*
X125220255Y47636296D02*
G01*
X125244523Y47632696D01*
X125268322Y47626735D01*
X125291421Y47618470D01*
X125313600Y47607980D01*
X125334643Y47595368D01*
X125354349Y47580753D01*
X125372527Y47564277D01*
X125389003Y47546099D01*
X125403618Y47526393D01*
X125416230Y47505350D01*
X125426720Y47483171D01*
X125434985Y47460072D01*
X125440946Y47436273D01*
X125444546Y47412005D01*
X125445750Y47387501D01*
X125445750Y46737499D01*
X125444546Y46712995D01*
X125440946Y46688727D01*
X125434985Y46664928D01*
X125426720Y46641829D01*
X125416230Y46619650D01*
X125403618Y46598607D01*
X125389003Y46578901D01*
X125372527Y46560723D01*
X125354349Y46544247D01*
X125334643Y46529632D01*
X125313600Y46517020D01*
X125291421Y46506530D01*
X125268322Y46498265D01*
X125244523Y46492304D01*
X125220255Y46488704D01*
X125195751Y46487500D01*
X124295749Y46487500D01*
X124271245Y46488704D01*
X124246977Y46492304D01*
X124223178Y46498265D01*
X124200079Y46506530D01*
X124177900Y46517020D01*
X124156857Y46529632D01*
X124137151Y46544247D01*
X124118973Y46560723D01*
X124102497Y46578901D01*
X124087882Y46598607D01*
X124075270Y46619650D01*
X124064780Y46641829D01*
X124056515Y46664928D01*
X124050554Y46688727D01*
X124046954Y46712995D01*
X124045750Y46737499D01*
X124045750Y47387501D01*
X124046954Y47412005D01*
X124050554Y47436273D01*
X124056515Y47460072D01*
X124064780Y47483171D01*
X124075270Y47505350D01*
X124087882Y47526393D01*
X124102497Y47546099D01*
X124118973Y47564277D01*
X124137151Y47580753D01*
X124156857Y47595368D01*
X124177900Y47607980D01*
X124200079Y47618470D01*
X124223178Y47626735D01*
X124246977Y47632696D01*
X124271245Y47636296D01*
X124295749Y47637500D01*
X125195751Y47637500D01*
X125220255Y47636296D01*
G37*
G04 #@! TD.AperFunction*
G04 #@! TA.AperFunction,SMDPad,CuDef*
G36*
X125220255Y45586296D02*
G01*
X125244523Y45582696D01*
X125268322Y45576735D01*
X125291421Y45568470D01*
X125313600Y45557980D01*
X125334643Y45545368D01*
X125354349Y45530753D01*
X125372527Y45514277D01*
X125389003Y45496099D01*
X125403618Y45476393D01*
X125416230Y45455350D01*
X125426720Y45433171D01*
X125434985Y45410072D01*
X125440946Y45386273D01*
X125444546Y45362005D01*
X125445750Y45337501D01*
X125445750Y44687499D01*
X125444546Y44662995D01*
X125440946Y44638727D01*
X125434985Y44614928D01*
X125426720Y44591829D01*
X125416230Y44569650D01*
X125403618Y44548607D01*
X125389003Y44528901D01*
X125372527Y44510723D01*
X125354349Y44494247D01*
X125334643Y44479632D01*
X125313600Y44467020D01*
X125291421Y44456530D01*
X125268322Y44448265D01*
X125244523Y44442304D01*
X125220255Y44438704D01*
X125195751Y44437500D01*
X124295749Y44437500D01*
X124271245Y44438704D01*
X124246977Y44442304D01*
X124223178Y44448265D01*
X124200079Y44456530D01*
X124177900Y44467020D01*
X124156857Y44479632D01*
X124137151Y44494247D01*
X124118973Y44510723D01*
X124102497Y44528901D01*
X124087882Y44548607D01*
X124075270Y44569650D01*
X124064780Y44591829D01*
X124056515Y44614928D01*
X124050554Y44638727D01*
X124046954Y44662995D01*
X124045750Y44687499D01*
X124045750Y45337501D01*
X124046954Y45362005D01*
X124050554Y45386273D01*
X124056515Y45410072D01*
X124064780Y45433171D01*
X124075270Y45455350D01*
X124087882Y45476393D01*
X124102497Y45496099D01*
X124118973Y45514277D01*
X124137151Y45530753D01*
X124156857Y45545368D01*
X124177900Y45557980D01*
X124200079Y45568470D01*
X124223178Y45576735D01*
X124246977Y45582696D01*
X124271245Y45586296D01*
X124295749Y45587500D01*
X125195751Y45587500D01*
X125220255Y45586296D01*
G37*
G04 #@! TD.AperFunction*
G04 #@! TA.AperFunction,SMDPad,CuDef*
G36*
X37304505Y111081796D02*
G01*
X37328773Y111078196D01*
X37352572Y111072235D01*
X37375671Y111063970D01*
X37397850Y111053480D01*
X37418893Y111040868D01*
X37438599Y111026253D01*
X37456777Y111009777D01*
X37473253Y110991599D01*
X37487868Y110971893D01*
X37500480Y110950850D01*
X37510970Y110928671D01*
X37519235Y110905572D01*
X37525196Y110881773D01*
X37528796Y110857505D01*
X37530000Y110833001D01*
X37530000Y110182999D01*
X37528796Y110158495D01*
X37525196Y110134227D01*
X37519235Y110110428D01*
X37510970Y110087329D01*
X37500480Y110065150D01*
X37487868Y110044107D01*
X37473253Y110024401D01*
X37456777Y110006223D01*
X37438599Y109989747D01*
X37418893Y109975132D01*
X37397850Y109962520D01*
X37375671Y109952030D01*
X37352572Y109943765D01*
X37328773Y109937804D01*
X37304505Y109934204D01*
X37280001Y109933000D01*
X36379999Y109933000D01*
X36355495Y109934204D01*
X36331227Y109937804D01*
X36307428Y109943765D01*
X36284329Y109952030D01*
X36262150Y109962520D01*
X36241107Y109975132D01*
X36221401Y109989747D01*
X36203223Y110006223D01*
X36186747Y110024401D01*
X36172132Y110044107D01*
X36159520Y110065150D01*
X36149030Y110087329D01*
X36140765Y110110428D01*
X36134804Y110134227D01*
X36131204Y110158495D01*
X36130000Y110182999D01*
X36130000Y110833001D01*
X36131204Y110857505D01*
X36134804Y110881773D01*
X36140765Y110905572D01*
X36149030Y110928671D01*
X36159520Y110950850D01*
X36172132Y110971893D01*
X36186747Y110991599D01*
X36203223Y111009777D01*
X36221401Y111026253D01*
X36241107Y111040868D01*
X36262150Y111053480D01*
X36284329Y111063970D01*
X36307428Y111072235D01*
X36331227Y111078196D01*
X36355495Y111081796D01*
X36379999Y111083000D01*
X37280001Y111083000D01*
X37304505Y111081796D01*
G37*
G04 #@! TD.AperFunction*
G04 #@! TA.AperFunction,SMDPad,CuDef*
G36*
X37304505Y109031796D02*
G01*
X37328773Y109028196D01*
X37352572Y109022235D01*
X37375671Y109013970D01*
X37397850Y109003480D01*
X37418893Y108990868D01*
X37438599Y108976253D01*
X37456777Y108959777D01*
X37473253Y108941599D01*
X37487868Y108921893D01*
X37500480Y108900850D01*
X37510970Y108878671D01*
X37519235Y108855572D01*
X37525196Y108831773D01*
X37528796Y108807505D01*
X37530000Y108783001D01*
X37530000Y108132999D01*
X37528796Y108108495D01*
X37525196Y108084227D01*
X37519235Y108060428D01*
X37510970Y108037329D01*
X37500480Y108015150D01*
X37487868Y107994107D01*
X37473253Y107974401D01*
X37456777Y107956223D01*
X37438599Y107939747D01*
X37418893Y107925132D01*
X37397850Y107912520D01*
X37375671Y107902030D01*
X37352572Y107893765D01*
X37328773Y107887804D01*
X37304505Y107884204D01*
X37280001Y107883000D01*
X36379999Y107883000D01*
X36355495Y107884204D01*
X36331227Y107887804D01*
X36307428Y107893765D01*
X36284329Y107902030D01*
X36262150Y107912520D01*
X36241107Y107925132D01*
X36221401Y107939747D01*
X36203223Y107956223D01*
X36186747Y107974401D01*
X36172132Y107994107D01*
X36159520Y108015150D01*
X36149030Y108037329D01*
X36140765Y108060428D01*
X36134804Y108084227D01*
X36131204Y108108495D01*
X36130000Y108132999D01*
X36130000Y108783001D01*
X36131204Y108807505D01*
X36134804Y108831773D01*
X36140765Y108855572D01*
X36149030Y108878671D01*
X36159520Y108900850D01*
X36172132Y108921893D01*
X36186747Y108941599D01*
X36203223Y108959777D01*
X36221401Y108976253D01*
X36241107Y108990868D01*
X36262150Y109003480D01*
X36284329Y109013970D01*
X36307428Y109022235D01*
X36331227Y109028196D01*
X36355495Y109031796D01*
X36379999Y109033000D01*
X37280001Y109033000D01*
X37304505Y109031796D01*
G37*
G04 #@! TD.AperFunction*
G04 #@! TA.AperFunction,SMDPad,CuDef*
G36*
X33494505Y111063796D02*
G01*
X33518773Y111060196D01*
X33542572Y111054235D01*
X33565671Y111045970D01*
X33587850Y111035480D01*
X33608893Y111022868D01*
X33628599Y111008253D01*
X33646777Y110991777D01*
X33663253Y110973599D01*
X33677868Y110953893D01*
X33690480Y110932850D01*
X33700970Y110910671D01*
X33709235Y110887572D01*
X33715196Y110863773D01*
X33718796Y110839505D01*
X33720000Y110815001D01*
X33720000Y110164999D01*
X33718796Y110140495D01*
X33715196Y110116227D01*
X33709235Y110092428D01*
X33700970Y110069329D01*
X33690480Y110047150D01*
X33677868Y110026107D01*
X33663253Y110006401D01*
X33646777Y109988223D01*
X33628599Y109971747D01*
X33608893Y109957132D01*
X33587850Y109944520D01*
X33565671Y109934030D01*
X33542572Y109925765D01*
X33518773Y109919804D01*
X33494505Y109916204D01*
X33470001Y109915000D01*
X32569999Y109915000D01*
X32545495Y109916204D01*
X32521227Y109919804D01*
X32497428Y109925765D01*
X32474329Y109934030D01*
X32452150Y109944520D01*
X32431107Y109957132D01*
X32411401Y109971747D01*
X32393223Y109988223D01*
X32376747Y110006401D01*
X32362132Y110026107D01*
X32349520Y110047150D01*
X32339030Y110069329D01*
X32330765Y110092428D01*
X32324804Y110116227D01*
X32321204Y110140495D01*
X32320000Y110164999D01*
X32320000Y110815001D01*
X32321204Y110839505D01*
X32324804Y110863773D01*
X32330765Y110887572D01*
X32339030Y110910671D01*
X32349520Y110932850D01*
X32362132Y110953893D01*
X32376747Y110973599D01*
X32393223Y110991777D01*
X32411401Y111008253D01*
X32431107Y111022868D01*
X32452150Y111035480D01*
X32474329Y111045970D01*
X32497428Y111054235D01*
X32521227Y111060196D01*
X32545495Y111063796D01*
X32569999Y111065000D01*
X33470001Y111065000D01*
X33494505Y111063796D01*
G37*
G04 #@! TD.AperFunction*
G04 #@! TA.AperFunction,SMDPad,CuDef*
G36*
X33494505Y109013796D02*
G01*
X33518773Y109010196D01*
X33542572Y109004235D01*
X33565671Y108995970D01*
X33587850Y108985480D01*
X33608893Y108972868D01*
X33628599Y108958253D01*
X33646777Y108941777D01*
X33663253Y108923599D01*
X33677868Y108903893D01*
X33690480Y108882850D01*
X33700970Y108860671D01*
X33709235Y108837572D01*
X33715196Y108813773D01*
X33718796Y108789505D01*
X33720000Y108765001D01*
X33720000Y108114999D01*
X33718796Y108090495D01*
X33715196Y108066227D01*
X33709235Y108042428D01*
X33700970Y108019329D01*
X33690480Y107997150D01*
X33677868Y107976107D01*
X33663253Y107956401D01*
X33646777Y107938223D01*
X33628599Y107921747D01*
X33608893Y107907132D01*
X33587850Y107894520D01*
X33565671Y107884030D01*
X33542572Y107875765D01*
X33518773Y107869804D01*
X33494505Y107866204D01*
X33470001Y107865000D01*
X32569999Y107865000D01*
X32545495Y107866204D01*
X32521227Y107869804D01*
X32497428Y107875765D01*
X32474329Y107884030D01*
X32452150Y107894520D01*
X32431107Y107907132D01*
X32411401Y107921747D01*
X32393223Y107938223D01*
X32376747Y107956401D01*
X32362132Y107976107D01*
X32349520Y107997150D01*
X32339030Y108019329D01*
X32330765Y108042428D01*
X32324804Y108066227D01*
X32321204Y108090495D01*
X32320000Y108114999D01*
X32320000Y108765001D01*
X32321204Y108789505D01*
X32324804Y108813773D01*
X32330765Y108837572D01*
X32339030Y108860671D01*
X32349520Y108882850D01*
X32362132Y108903893D01*
X32376747Y108923599D01*
X32393223Y108941777D01*
X32411401Y108958253D01*
X32431107Y108972868D01*
X32452150Y108985480D01*
X32474329Y108995970D01*
X32497428Y109004235D01*
X32521227Y109010196D01*
X32545495Y109013796D01*
X32569999Y109015000D01*
X33470001Y109015000D01*
X33494505Y109013796D01*
G37*
G04 #@! TD.AperFunction*
D10*
X320556250Y81011250D03*
D11*
X319246250Y79551250D02*
X320556252Y81011250D01*
D10*
X325596250Y82091250D03*
D11*
X325556250Y81511250D02*
X325596250Y82091250D01*
D10*
X320556250Y100061250D03*
D11*
X319246250Y98601250D02*
X320556252Y100061250D01*
D10*
X325596250Y101141250D03*
D11*
X325556250Y100561250D02*
X325596250Y101141250D01*
D10*
X320556250Y119111250D03*
D11*
X319246250Y117651250D02*
X320556252Y119111250D01*
D10*
X325596250Y120191250D03*
D11*
X325556250Y119611250D02*
X325596250Y120191250D01*
D10*
X296743750Y38131250D03*
D11*
X295433750Y36671250D02*
X296743752Y38131250D01*
D10*
X301783750Y39211250D03*
D11*
X301743750Y38631250D02*
X301783750Y39211250D01*
D10*
X296743750Y57130750D03*
D11*
X295433750Y55670750D02*
X296743752Y57130750D01*
D10*
X301783750Y58210750D03*
D11*
X301743750Y57630750D02*
X301783750Y58210750D01*
D10*
X261025000Y100043750D03*
D11*
X259715000Y98583750D02*
X261025002Y100043750D01*
D10*
X266065000Y101123750D03*
D11*
X266025000Y100543750D02*
X266065000Y101123750D01*
D10*
X251500000Y119093750D03*
D11*
X250190000Y117633750D02*
X251500002Y119093750D01*
D10*
X256540000Y120173750D03*
D11*
X256500000Y119593750D02*
X256540000Y120173750D01*
D10*
X277693750Y80993750D03*
D11*
X276383750Y79533750D02*
X277693752Y80993750D01*
D10*
X282733750Y82073750D03*
D11*
X282693750Y81493750D02*
X282733750Y82073750D01*
D10*
X284837500Y100043750D03*
D11*
X283527500Y98583750D02*
X284837502Y100043750D01*
D10*
X289877500Y101123750D03*
D11*
X289837500Y100543750D02*
X289877500Y101123750D01*
D10*
X280075000Y119093750D03*
D11*
X278765000Y117633750D02*
X280075002Y119093750D01*
D10*
X285115000Y120173750D03*
D11*
X285075000Y119593750D02*
X285115000Y120173750D01*
D10*
X263406250Y61943750D03*
D11*
X262096250Y60483750D02*
X263406252Y61943750D01*
D10*
X268446250Y63023750D03*
D11*
X268406250Y62443750D02*
X268446250Y63023750D01*
D10*
X246737500Y80993750D03*
D11*
X245427500Y79533750D02*
X246737502Y80993750D01*
D10*
X251777500Y82073750D03*
D11*
X251737500Y81493750D02*
X251777500Y82073750D01*
D10*
X241975000Y100043750D03*
D11*
X240665000Y98583750D02*
X241975002Y100043750D01*
D10*
X247015000Y101123750D03*
D11*
X246975000Y100543750D02*
X247015000Y101123750D01*
D10*
X232450000Y119093750D03*
D11*
X231140000Y117633750D02*
X232450002Y119093750D01*
D10*
X237490000Y120173750D03*
D11*
X237450000Y119593750D02*
X237490000Y120173750D01*
D10*
X239593750Y42893750D03*
D11*
X238283750Y41433750D02*
X239593752Y42893750D01*
D10*
X244633750Y43973750D03*
D11*
X244593750Y43393750D02*
X244633750Y43973750D01*
D10*
X237212500Y61943750D03*
D11*
X235902500Y60483750D02*
X237212502Y61943750D01*
D10*
X242252500Y63023750D03*
D11*
X242212500Y62443750D02*
X242252500Y63023750D01*
D10*
X227687500Y80993750D03*
D11*
X226377500Y79533750D02*
X227687502Y80993750D01*
D10*
X232727500Y82073750D03*
D11*
X232687500Y81493750D02*
X232727500Y82073750D01*
D10*
X222925000Y100043750D03*
D11*
X221615000Y98583750D02*
X222925002Y100043750D01*
D10*
X227965000Y101123750D03*
D11*
X227925000Y100543750D02*
X227965000Y101123750D01*
D10*
X213400000Y119093750D03*
D11*
X212090000Y117633750D02*
X213400002Y119093750D01*
D10*
X218440000Y120173750D03*
D11*
X218400000Y119593750D02*
X218440000Y120173750D01*
D10*
X215781250Y42893750D03*
D11*
X214471250Y41433750D02*
X215781252Y42893750D01*
D10*
X220821250Y43973750D03*
D11*
X220781250Y43393750D02*
X220821250Y43973750D01*
D10*
X218162500Y61943750D03*
D11*
X216852500Y60483750D02*
X218162502Y61943750D01*
D10*
X223202500Y63023750D03*
D11*
X223162500Y62443750D02*
X223202500Y63023750D01*
D10*
X208637500Y80993750D03*
D11*
X207327500Y79533750D02*
X208637502Y80993750D01*
D10*
X213677500Y82073750D03*
D11*
X213637500Y81493750D02*
X213677500Y82073750D01*
D10*
X203875000Y100043750D03*
D11*
X202565000Y98583750D02*
X203875002Y100043750D01*
D10*
X208915000Y101123750D03*
D11*
X208875000Y100543750D02*
X208915000Y101123750D01*
D10*
X194350000Y119093750D03*
D11*
X193040000Y117633750D02*
X194350002Y119093750D01*
D10*
X199390000Y120173750D03*
D11*
X199350000Y119593750D02*
X199390000Y120173750D01*
D10*
X199112500Y61943750D03*
D11*
X197802500Y60483750D02*
X199112502Y61943750D01*
D10*
X204152500Y63023750D03*
D11*
X204112500Y62443750D02*
X204152500Y63023750D01*
D10*
X189587500Y80993750D03*
D11*
X188277500Y79533750D02*
X189587502Y80993750D01*
D10*
X194627500Y82073750D03*
D11*
X194587500Y81493750D02*
X194627500Y82073750D01*
D10*
X184825000Y100043750D03*
D11*
X183515000Y98583750D02*
X184825002Y100043750D01*
D10*
X189865000Y101123750D03*
D11*
X189825000Y100543750D02*
X189865000Y101123750D01*
D10*
X175300000Y119093750D03*
D11*
X173990000Y117633750D02*
X175300002Y119093750D01*
D10*
X180340000Y120173750D03*
D11*
X180300000Y119593750D02*
X180340000Y120173750D01*
D10*
X180062500Y61943750D03*
D11*
X178752500Y60483750D02*
X180062502Y61943750D01*
D10*
X185102500Y63023750D03*
D11*
X185062500Y62443750D02*
X185102500Y63023750D01*
D10*
X170537500Y80993750D03*
D11*
X169227500Y79533750D02*
X170537502Y80993750D01*
D10*
X175577500Y82073750D03*
D11*
X175537500Y81493750D02*
X175577500Y82073750D01*
D10*
X165775000Y100043750D03*
D11*
X164465000Y98583750D02*
X165775002Y100043750D01*
D10*
X170815000Y101123750D03*
D11*
X170775000Y100543750D02*
X170815000Y101123750D01*
D10*
X156250000Y119093750D03*
D11*
X154940000Y117633750D02*
X156250002Y119093750D01*
D10*
X161290000Y120173750D03*
D11*
X161250000Y119593750D02*
X161290000Y120173750D01*
D10*
X161012500Y61943750D03*
D11*
X159702500Y60483750D02*
X161012502Y61943750D01*
D10*
X166052500Y63023750D03*
D11*
X166012500Y62443750D02*
X166052500Y63023750D01*
D10*
X151487500Y80993750D03*
D11*
X150177500Y79533750D02*
X151487502Y80993750D01*
D10*
X156527500Y82073750D03*
D11*
X156487500Y81493750D02*
X156527500Y82073750D01*
D10*
X146725000Y100043750D03*
D11*
X145415000Y98583750D02*
X146725002Y100043750D01*
D10*
X151765000Y101123750D03*
D11*
X151725000Y100543750D02*
X151765000Y101123750D01*
D10*
X137200000Y119093750D03*
D11*
X135890000Y117633750D02*
X137200002Y119093750D01*
D10*
X142240000Y120173750D03*
D11*
X142200000Y119593750D02*
X142240000Y120173750D01*
D10*
X142089500Y61943750D03*
D11*
X140779500Y60483750D02*
X142089502Y61943750D01*
D10*
X147129500Y63023750D03*
D11*
X147089500Y62443750D02*
X147129500Y63023750D01*
D10*
X132437500Y80993750D03*
D11*
X131127500Y79533750D02*
X132437502Y80993750D01*
D10*
X137477500Y82073750D03*
D11*
X137437500Y81493750D02*
X137477500Y82073750D01*
D10*
X127675000Y100043750D03*
D11*
X126365000Y98583750D02*
X127675002Y100043750D01*
D10*
X132715000Y101123750D03*
D11*
X132675000Y100543750D02*
X132715000Y101123750D01*
D10*
X118150000Y119093750D03*
D11*
X116840000Y117633750D02*
X118150002Y119093750D01*
D10*
X123190000Y120173750D03*
D11*
X123150000Y119593750D02*
X123190000Y120173750D01*
D10*
X113387500Y80993750D03*
D11*
X112077500Y79533750D02*
X113387502Y80993750D01*
D10*
X118427500Y82073750D03*
D11*
X118387500Y81493750D02*
X118427500Y82073750D01*
D10*
X108625000Y100043750D03*
D11*
X107315000Y98583750D02*
X108625002Y100043750D01*
D10*
X113665000Y101123750D03*
D11*
X113625000Y100543750D02*
X113665000Y101123750D01*
D10*
X99100000Y119093750D03*
D11*
X97790000Y117633750D02*
X99100002Y119093750D01*
D10*
X104140000Y120173750D03*
D11*
X104100000Y119593750D02*
X104140000Y120173750D01*
D10*
X94337500Y80993750D03*
D11*
X93027500Y79533750D02*
X94337502Y80993750D01*
D10*
X99377500Y82073750D03*
D11*
X99337500Y81493750D02*
X99377500Y82073750D01*
D10*
X89575000Y100043750D03*
D11*
X88265000Y98583750D02*
X89575002Y100043750D01*
D10*
X94615000Y101123750D03*
D11*
X94575000Y100543750D02*
X94615000Y101123750D01*
D10*
X80050000Y119093750D03*
D11*
X78740000Y117633750D02*
X80050002Y119093750D01*
D10*
X85090000Y120173750D03*
D11*
X85050000Y119593750D02*
X85090000Y120173750D01*
D10*
X72906250Y42893750D03*
D11*
X71596250Y41433750D02*
X72906252Y42893750D01*
D10*
X77946250Y43973750D03*
D11*
X77906250Y43393750D02*
X77946250Y43973750D01*
D10*
X75287500Y80993750D03*
D11*
X73977500Y79533750D02*
X75287502Y80993750D01*
D10*
X80327500Y82073750D03*
D11*
X80287500Y81493750D02*
X80327500Y82073750D01*
D10*
X70525000Y100043750D03*
D11*
X69215000Y98583750D02*
X70525002Y100043750D01*
D10*
X75565000Y101123750D03*
D11*
X75525000Y100543750D02*
X75565000Y101123750D01*
D10*
X61000000Y119093750D03*
D11*
X59690000Y117633750D02*
X61000002Y119093750D01*
D10*
X66040000Y120173750D03*
D11*
X66000000Y119593750D02*
X66040000Y120173750D01*
D10*
X49093750Y42893750D03*
D11*
X47783750Y41433750D02*
X49093752Y42893750D01*
D10*
X54133750Y43973750D03*
D11*
X54093750Y43393750D02*
X54133750Y43973750D01*
D10*
X65762500Y61943750D03*
D11*
X64452500Y60483750D02*
X65762502Y61943750D01*
D10*
X70802500Y63023750D03*
D11*
X70762500Y62443750D02*
X70802500Y63023750D01*
D10*
X56237500Y80993750D03*
D11*
X54927500Y79533750D02*
X56237502Y80993750D01*
D10*
X61277500Y82073750D03*
D11*
X61237500Y81493750D02*
X61277500Y82073750D01*
D10*
X51475000Y100043750D03*
D11*
X50165000Y98583750D02*
X51475002Y100043750D01*
D10*
X56515000Y101123750D03*
D11*
X56475000Y100543750D02*
X56515000Y101123750D01*
D10*
X25281250Y42893750D03*
D11*
X23971250Y41433750D02*
X25281252Y42893750D01*
D10*
X30321250Y43973750D03*
D11*
X30281250Y43393750D02*
X30321250Y43973750D01*
D10*
X34806250Y61943750D03*
D11*
X33496250Y60483750D02*
X34806252Y61943750D01*
D10*
X39846250Y63023750D03*
D11*
X39806250Y62443750D02*
X39846250Y63023750D01*
D10*
X30043750Y80993750D03*
D11*
X28733750Y79533750D02*
X30043752Y80993750D01*
D10*
X35083750Y82073750D03*
D11*
X35043750Y81493750D02*
X35083750Y82073750D01*
D10*
X27662500Y100043750D03*
D11*
X26352500Y98583750D02*
X27662502Y100043750D01*
D10*
X32702500Y101123750D03*
D11*
X32662500Y100543750D02*
X32702500Y101123750D01*
G04 #@! TA.AperFunction,SMDPad,CuDef*
D16*
G36*
X44972504Y111582296D02*
G01*
X44996773Y111578696D01*
X45020571Y111572735D01*
X45043671Y111564470D01*
X45065849Y111553980D01*
X45086893Y111541367D01*
X45106598Y111526753D01*
X45124777Y111510277D01*
X45141253Y111492098D01*
X45155867Y111472393D01*
X45168480Y111451349D01*
X45178970Y111429171D01*
X45187235Y111406071D01*
X45193196Y111382273D01*
X45196796Y111358004D01*
X45198000Y111333500D01*
X45198000Y110408500D01*
X45196796Y110383996D01*
X45193196Y110359727D01*
X45187235Y110335929D01*
X45178970Y110312829D01*
X45168480Y110290651D01*
X45155867Y110269607D01*
X45141253Y110249902D01*
X45124777Y110231723D01*
X45106598Y110215247D01*
X45086893Y110200633D01*
X45065849Y110188020D01*
X45043671Y110177530D01*
X45020571Y110169265D01*
X44996773Y110163304D01*
X44972504Y110159704D01*
X44948000Y110158500D01*
X43698000Y110158500D01*
X43673496Y110159704D01*
X43649227Y110163304D01*
X43625429Y110169265D01*
X43602329Y110177530D01*
X43580151Y110188020D01*
X43559107Y110200633D01*
X43539402Y110215247D01*
X43521223Y110231723D01*
X43504747Y110249902D01*
X43490133Y110269607D01*
X43477520Y110290651D01*
X43467030Y110312829D01*
X43458765Y110335929D01*
X43452804Y110359727D01*
X43449204Y110383996D01*
X43448000Y110408500D01*
X43448000Y111333500D01*
X43449204Y111358004D01*
X43452804Y111382273D01*
X43458765Y111406071D01*
X43467030Y111429171D01*
X43477520Y111451349D01*
X43490133Y111472393D01*
X43504747Y111492098D01*
X43521223Y111510277D01*
X43539402Y111526753D01*
X43559107Y111541367D01*
X43580151Y111553980D01*
X43602329Y111564470D01*
X43625429Y111572735D01*
X43649227Y111578696D01*
X43673496Y111582296D01*
X43698000Y111583500D01*
X44948000Y111583500D01*
X44972504Y111582296D01*
G37*
G04 #@! TD.AperFunction*
G04 #@! TA.AperFunction,SMDPad,CuDef*
G36*
X44972504Y108607296D02*
G01*
X44996773Y108603696D01*
X45020571Y108597735D01*
X45043671Y108589470D01*
X45065849Y108578980D01*
X45086893Y108566367D01*
X45106598Y108551753D01*
X45124777Y108535277D01*
X45141253Y108517098D01*
X45155867Y108497393D01*
X45168480Y108476349D01*
X45178970Y108454171D01*
X45187235Y108431071D01*
X45193196Y108407273D01*
X45196796Y108383004D01*
X45198000Y108358500D01*
X45198000Y107433500D01*
X45196796Y107408996D01*
X45193196Y107384727D01*
X45187235Y107360929D01*
X45178970Y107337829D01*
X45168480Y107315651D01*
X45155867Y107294607D01*
X45141253Y107274902D01*
X45124777Y107256723D01*
X45106598Y107240247D01*
X45086893Y107225633D01*
X45065849Y107213020D01*
X45043671Y107202530D01*
X45020571Y107194265D01*
X44996773Y107188304D01*
X44972504Y107184704D01*
X44948000Y107183500D01*
X43698000Y107183500D01*
X43673496Y107184704D01*
X43649227Y107188304D01*
X43625429Y107194265D01*
X43602329Y107202530D01*
X43580151Y107213020D01*
X43559107Y107225633D01*
X43539402Y107240247D01*
X43521223Y107256723D01*
X43504747Y107274902D01*
X43490133Y107294607D01*
X43477520Y107315651D01*
X43467030Y107337829D01*
X43458765Y107360929D01*
X43452804Y107384727D01*
X43449204Y107408996D01*
X43448000Y107433500D01*
X43448000Y108358500D01*
X43449204Y108383004D01*
X43452804Y108407273D01*
X43458765Y108431071D01*
X43467030Y108454171D01*
X43477520Y108476349D01*
X43490133Y108497393D01*
X43504747Y108517098D01*
X43521223Y108535277D01*
X43539402Y108551753D01*
X43559107Y108566367D01*
X43580151Y108578980D01*
X43602329Y108589470D01*
X43625429Y108597735D01*
X43649227Y108603696D01*
X43673496Y108607296D01*
X43698000Y108608500D01*
X44948000Y108608500D01*
X44972504Y108607296D01*
G37*
G04 #@! TD.AperFunction*
D21*
X326263000Y35560000D03*
X326263000Y32260000D03*
X330835000Y59561000D03*
X330835000Y56261000D03*
X330835000Y78486000D03*
X330835000Y75186000D03*
X330962000Y97661000D03*
X330962000Y94361000D03*
X330708000Y116457000D03*
X330708000Y113157000D03*
X307340000Y35558000D03*
X307340000Y32258000D03*
X307181250Y54768750D03*
X307181250Y51468750D03*
X271462500Y97631250D03*
X271462500Y94331250D03*
X261937500Y116743750D03*
X261937500Y113443750D03*
X288131250Y35050000D03*
X288131250Y31750000D03*
X288131250Y78581250D03*
X288131250Y75281250D03*
X295275000Y97693750D03*
X295275000Y94393750D03*
X290512500Y116681250D03*
X290512500Y113381250D03*
X273843750Y59656250D03*
X273843750Y56356250D03*
X257175000Y78643750D03*
X257175000Y75343750D03*
X252412500Y97693750D03*
X252412500Y94393750D03*
X242887500Y116806250D03*
X242887500Y113506250D03*
X250825000Y40481250D03*
X250825000Y37181250D03*
X247650000Y59656250D03*
X247650000Y56356250D03*
X238125000Y78643750D03*
X238125000Y75343750D03*
X233362500Y97693750D03*
X233362500Y94393750D03*
X223837500Y116806250D03*
X223837500Y113506250D03*
X227012500Y40481250D03*
X227012500Y37181250D03*
X228600000Y59656250D03*
X228600000Y56356250D03*
X219075000Y78581250D03*
X219075000Y75281250D03*
X214312500Y97631250D03*
X214312500Y94331250D03*
X204787500Y116806250D03*
X204787500Y113506250D03*
X209550000Y59593750D03*
X209550000Y56293750D03*
X200025000Y78643750D03*
X200025000Y75343750D03*
X195262500Y97631250D03*
X195262500Y94331250D03*
X185737500Y116681250D03*
X185737500Y113381250D03*
X190500000Y59531250D03*
X190500000Y56231250D03*
X180975000Y78581250D03*
X180975000Y75281250D03*
X176212500Y97631250D03*
X176212500Y94331250D03*
X166687500Y116806250D03*
X166687500Y113506250D03*
X171450000Y59593750D03*
X171450000Y56293750D03*
X161925000Y78581250D03*
X161925000Y75281250D03*
X157162500Y97693750D03*
X157162500Y94393750D03*
X147637500Y116681250D03*
X147637500Y113381250D03*
X154781250Y40481250D03*
X154781250Y37181250D03*
X152400000Y59531250D03*
X152400000Y56231250D03*
X142875000Y78643750D03*
X142875000Y75343750D03*
X138112500Y97631250D03*
X138112500Y94331250D03*
X128587500Y116681250D03*
X128587500Y113381250D03*
X133350000Y59593750D03*
X133350000Y56293750D03*
X123825000Y78581250D03*
X123825000Y75281250D03*
X119062500Y97631250D03*
X119062500Y94331250D03*
X109537500Y116743750D03*
X109537500Y113443750D03*
X114300000Y59593750D03*
X114300000Y56293750D03*
X104775000Y78643750D03*
X104775000Y75343750D03*
X100012500Y97631250D03*
X100012500Y94331250D03*
X90487500Y116681250D03*
X90487500Y113381250D03*
X83343750Y40543750D03*
X83343750Y37243750D03*
X95250000Y59531250D03*
X95250000Y56231250D03*
X84931250Y78643750D03*
X84931250Y75343750D03*
X80962500Y97756250D03*
X80962500Y94456250D03*
X71437500Y116743750D03*
X71437500Y113443750D03*
X60325000Y40481250D03*
X60325000Y37181250D03*
X76200000Y59531250D03*
X76200000Y56231250D03*
X66675000Y78643750D03*
X66675000Y75343750D03*
X61912500Y97693750D03*
X61912500Y94393750D03*
X52387500Y116743750D03*
X52387500Y113443750D03*
X35718750Y40543750D03*
X35718750Y37243750D03*
X45243750Y59531250D03*
X45243750Y56231250D03*
X41275000Y78581250D03*
X41275000Y75281250D03*
X38100000Y97631250D03*
X38100000Y94331250D03*
X28575000Y111887000D03*
X28575000Y108587000D03*
G04 #@! TA.AperFunction,SMDPad,CuDef*
D16*
G36*
X116838255Y50176296D02*
G01*
X116862523Y50172696D01*
X116886322Y50166735D01*
X116909421Y50158470D01*
X116931600Y50147980D01*
X116952643Y50135368D01*
X116972349Y50120753D01*
X116990527Y50104277D01*
X117007003Y50086099D01*
X117021618Y50066393D01*
X117034230Y50045350D01*
X117044720Y50023171D01*
X117052985Y50000072D01*
X117058946Y49976273D01*
X117062546Y49952005D01*
X117063750Y49927501D01*
X117063750Y49277499D01*
X117062546Y49252995D01*
X117058946Y49228727D01*
X117052985Y49204928D01*
X117044720Y49181829D01*
X117034230Y49159650D01*
X117021618Y49138607D01*
X117007003Y49118901D01*
X116990527Y49100723D01*
X116972349Y49084247D01*
X116952643Y49069632D01*
X116931600Y49057020D01*
X116909421Y49046530D01*
X116886322Y49038265D01*
X116862523Y49032304D01*
X116838255Y49028704D01*
X116813751Y49027500D01*
X115913749Y49027500D01*
X115889245Y49028704D01*
X115864977Y49032304D01*
X115841178Y49038265D01*
X115818079Y49046530D01*
X115795900Y49057020D01*
X115774857Y49069632D01*
X115755151Y49084247D01*
X115736973Y49100723D01*
X115720497Y49118901D01*
X115705882Y49138607D01*
X115693270Y49159650D01*
X115682780Y49181829D01*
X115674515Y49204928D01*
X115668554Y49228727D01*
X115664954Y49252995D01*
X115663750Y49277499D01*
X115663750Y49927501D01*
X115664954Y49952005D01*
X115668554Y49976273D01*
X115674515Y50000072D01*
X115682780Y50023171D01*
X115693270Y50045350D01*
X115705882Y50066393D01*
X115720497Y50086099D01*
X115736973Y50104277D01*
X115755151Y50120753D01*
X115774857Y50135368D01*
X115795900Y50147980D01*
X115818079Y50158470D01*
X115841178Y50166735D01*
X115864977Y50172696D01*
X115889245Y50176296D01*
X115913749Y50177500D01*
X116813751Y50177500D01*
X116838255Y50176296D01*
G37*
G04 #@! TD.AperFunction*
G04 #@! TA.AperFunction,SMDPad,CuDef*
G36*
X116838255Y48126296D02*
G01*
X116862523Y48122696D01*
X116886322Y48116735D01*
X116909421Y48108470D01*
X116931600Y48097980D01*
X116952643Y48085368D01*
X116972349Y48070753D01*
X116990527Y48054277D01*
X117007003Y48036099D01*
X117021618Y48016393D01*
X117034230Y47995350D01*
X117044720Y47973171D01*
X117052985Y47950072D01*
X117058946Y47926273D01*
X117062546Y47902005D01*
X117063750Y47877501D01*
X117063750Y47227499D01*
X117062546Y47202995D01*
X117058946Y47178727D01*
X117052985Y47154928D01*
X117044720Y47131829D01*
X117034230Y47109650D01*
X117021618Y47088607D01*
X117007003Y47068901D01*
X116990527Y47050723D01*
X116972349Y47034247D01*
X116952643Y47019632D01*
X116931600Y47007020D01*
X116909421Y46996530D01*
X116886322Y46988265D01*
X116862523Y46982304D01*
X116838255Y46978704D01*
X116813751Y46977500D01*
X115913749Y46977500D01*
X115889245Y46978704D01*
X115864977Y46982304D01*
X115841178Y46988265D01*
X115818079Y46996530D01*
X115795900Y47007020D01*
X115774857Y47019632D01*
X115755151Y47034247D01*
X115736973Y47050723D01*
X115720497Y47068901D01*
X115705882Y47088607D01*
X115693270Y47109650D01*
X115682780Y47131829D01*
X115674515Y47154928D01*
X115668554Y47178727D01*
X115664954Y47202995D01*
X115663750Y47227499D01*
X115663750Y47877501D01*
X115664954Y47902005D01*
X115668554Y47926273D01*
X115674515Y47950072D01*
X115682780Y47973171D01*
X115693270Y47995350D01*
X115705882Y48016393D01*
X115720497Y48036099D01*
X115736973Y48054277D01*
X115755151Y48070753D01*
X115774857Y48085368D01*
X115795900Y48097980D01*
X115818079Y48108470D01*
X115841178Y48116735D01*
X115864977Y48122696D01*
X115889245Y48126296D01*
X115913749Y48127500D01*
X116813751Y48127500D01*
X116838255Y48126296D01*
G37*
G04 #@! TD.AperFunction*
G04 #@! TA.AperFunction,SMDPad,CuDef*
G36*
X127363255Y44355046D02*
G01*
X127387523Y44351446D01*
X127411322Y44345485D01*
X127434421Y44337220D01*
X127456600Y44326730D01*
X127477643Y44314118D01*
X127497349Y44299503D01*
X127515527Y44283027D01*
X127532003Y44264849D01*
X127546618Y44245143D01*
X127559230Y44224100D01*
X127569720Y44201921D01*
X127577985Y44178822D01*
X127583946Y44155023D01*
X127587546Y44130755D01*
X127588750Y44106251D01*
X127588750Y43206249D01*
X127587546Y43181745D01*
X127583946Y43157477D01*
X127577985Y43133678D01*
X127569720Y43110579D01*
X127559230Y43088400D01*
X127546618Y43067357D01*
X127532003Y43047651D01*
X127515527Y43029473D01*
X127497349Y43012997D01*
X127477643Y42998382D01*
X127456600Y42985770D01*
X127434421Y42975280D01*
X127411322Y42967015D01*
X127387523Y42961054D01*
X127363255Y42957454D01*
X127338751Y42956250D01*
X126688749Y42956250D01*
X126664245Y42957454D01*
X126639977Y42961054D01*
X126616178Y42967015D01*
X126593079Y42975280D01*
X126570900Y42985770D01*
X126549857Y42998382D01*
X126530151Y43012997D01*
X126511973Y43029473D01*
X126495497Y43047651D01*
X126480882Y43067357D01*
X126468270Y43088400D01*
X126457780Y43110579D01*
X126449515Y43133678D01*
X126443554Y43157477D01*
X126439954Y43181745D01*
X126438750Y43206249D01*
X126438750Y44106251D01*
X126439954Y44130755D01*
X126443554Y44155023D01*
X126449515Y44178822D01*
X126457780Y44201921D01*
X126468270Y44224100D01*
X126480882Y44245143D01*
X126495497Y44264849D01*
X126511973Y44283027D01*
X126530151Y44299503D01*
X126549857Y44314118D01*
X126570900Y44326730D01*
X126593079Y44337220D01*
X126616178Y44345485D01*
X126639977Y44351446D01*
X126664245Y44355046D01*
X126688749Y44356250D01*
X127338751Y44356250D01*
X127363255Y44355046D01*
G37*
G04 #@! TD.AperFunction*
G04 #@! TA.AperFunction,SMDPad,CuDef*
G36*
X129413255Y44355046D02*
G01*
X129437523Y44351446D01*
X129461322Y44345485D01*
X129484421Y44337220D01*
X129506600Y44326730D01*
X129527643Y44314118D01*
X129547349Y44299503D01*
X129565527Y44283027D01*
X129582003Y44264849D01*
X129596618Y44245143D01*
X129609230Y44224100D01*
X129619720Y44201921D01*
X129627985Y44178822D01*
X129633946Y44155023D01*
X129637546Y44130755D01*
X129638750Y44106251D01*
X129638750Y43206249D01*
X129637546Y43181745D01*
X129633946Y43157477D01*
X129627985Y43133678D01*
X129619720Y43110579D01*
X129609230Y43088400D01*
X129596618Y43067357D01*
X129582003Y43047651D01*
X129565527Y43029473D01*
X129547349Y43012997D01*
X129527643Y42998382D01*
X129506600Y42985770D01*
X129484421Y42975280D01*
X129461322Y42967015D01*
X129437523Y42961054D01*
X129413255Y42957454D01*
X129388751Y42956250D01*
X128738749Y42956250D01*
X128714245Y42957454D01*
X128689977Y42961054D01*
X128666178Y42967015D01*
X128643079Y42975280D01*
X128620900Y42985770D01*
X128599857Y42998382D01*
X128580151Y43012997D01*
X128561973Y43029473D01*
X128545497Y43047651D01*
X128530882Y43067357D01*
X128518270Y43088400D01*
X128507780Y43110579D01*
X128499515Y43133678D01*
X128493554Y43157477D01*
X128489954Y43181745D01*
X128488750Y43206249D01*
X128488750Y44106251D01*
X128489954Y44130755D01*
X128493554Y44155023D01*
X128499515Y44178822D01*
X128507780Y44201921D01*
X128518270Y44224100D01*
X128530882Y44245143D01*
X128545497Y44264849D01*
X128561973Y44283027D01*
X128580151Y44299503D01*
X128599857Y44314118D01*
X128620900Y44326730D01*
X128643079Y44337220D01*
X128666178Y44345485D01*
X128689977Y44351446D01*
X128714245Y44355046D01*
X128738749Y44356250D01*
X129388751Y44356250D01*
X129413255Y44355046D01*
G37*
G04 #@! TD.AperFunction*
G04 #@! TA.AperFunction,SMDPad,CuDef*
G36*
X129549255Y35465046D02*
G01*
X129573523Y35461446D01*
X129597322Y35455485D01*
X129620421Y35447220D01*
X129642600Y35436730D01*
X129663643Y35424118D01*
X129683349Y35409503D01*
X129701527Y35393027D01*
X129718003Y35374849D01*
X129732618Y35355143D01*
X129745230Y35334100D01*
X129755720Y35311921D01*
X129763985Y35288822D01*
X129769946Y35265023D01*
X129773546Y35240755D01*
X129774750Y35216251D01*
X129774750Y34316249D01*
X129773546Y34291745D01*
X129769946Y34267477D01*
X129763985Y34243678D01*
X129755720Y34220579D01*
X129745230Y34198400D01*
X129732618Y34177357D01*
X129718003Y34157651D01*
X129701527Y34139473D01*
X129683349Y34122997D01*
X129663643Y34108382D01*
X129642600Y34095770D01*
X129620421Y34085280D01*
X129597322Y34077015D01*
X129573523Y34071054D01*
X129549255Y34067454D01*
X129524751Y34066250D01*
X128874749Y34066250D01*
X128850245Y34067454D01*
X128825977Y34071054D01*
X128802178Y34077015D01*
X128779079Y34085280D01*
X128756900Y34095770D01*
X128735857Y34108382D01*
X128716151Y34122997D01*
X128697973Y34139473D01*
X128681497Y34157651D01*
X128666882Y34177357D01*
X128654270Y34198400D01*
X128643780Y34220579D01*
X128635515Y34243678D01*
X128629554Y34267477D01*
X128625954Y34291745D01*
X128624750Y34316249D01*
X128624750Y35216251D01*
X128625954Y35240755D01*
X128629554Y35265023D01*
X128635515Y35288822D01*
X128643780Y35311921D01*
X128654270Y35334100D01*
X128666882Y35355143D01*
X128681497Y35374849D01*
X128697973Y35393027D01*
X128716151Y35409503D01*
X128735857Y35424118D01*
X128756900Y35436730D01*
X128779079Y35447220D01*
X128802178Y35455485D01*
X128825977Y35461446D01*
X128850245Y35465046D01*
X128874749Y35466250D01*
X129524751Y35466250D01*
X129549255Y35465046D01*
G37*
G04 #@! TD.AperFunction*
G04 #@! TA.AperFunction,SMDPad,CuDef*
G36*
X127499255Y35465046D02*
G01*
X127523523Y35461446D01*
X127547322Y35455485D01*
X127570421Y35447220D01*
X127592600Y35436730D01*
X127613643Y35424118D01*
X127633349Y35409503D01*
X127651527Y35393027D01*
X127668003Y35374849D01*
X127682618Y35355143D01*
X127695230Y35334100D01*
X127705720Y35311921D01*
X127713985Y35288822D01*
X127719946Y35265023D01*
X127723546Y35240755D01*
X127724750Y35216251D01*
X127724750Y34316249D01*
X127723546Y34291745D01*
X127719946Y34267477D01*
X127713985Y34243678D01*
X127705720Y34220579D01*
X127695230Y34198400D01*
X127682618Y34177357D01*
X127668003Y34157651D01*
X127651527Y34139473D01*
X127633349Y34122997D01*
X127613643Y34108382D01*
X127592600Y34095770D01*
X127570421Y34085280D01*
X127547322Y34077015D01*
X127523523Y34071054D01*
X127499255Y34067454D01*
X127474751Y34066250D01*
X126824749Y34066250D01*
X126800245Y34067454D01*
X126775977Y34071054D01*
X126752178Y34077015D01*
X126729079Y34085280D01*
X126706900Y34095770D01*
X126685857Y34108382D01*
X126666151Y34122997D01*
X126647973Y34139473D01*
X126631497Y34157651D01*
X126616882Y34177357D01*
X126604270Y34198400D01*
X126593780Y34220579D01*
X126585515Y34243678D01*
X126579554Y34267477D01*
X126575954Y34291745D01*
X126574750Y34316249D01*
X126574750Y35216251D01*
X126575954Y35240755D01*
X126579554Y35265023D01*
X126585515Y35288822D01*
X126593780Y35311921D01*
X126604270Y35334100D01*
X126616882Y35355143D01*
X126631497Y35374849D01*
X126647973Y35393027D01*
X126666151Y35409503D01*
X126685857Y35424118D01*
X126706900Y35436730D01*
X126729079Y35447220D01*
X126752178Y35455485D01*
X126775977Y35461446D01*
X126800245Y35465046D01*
X126824749Y35466250D01*
X127474751Y35466250D01*
X127499255Y35465046D01*
G37*
G04 #@! TD.AperFunction*
G04 #@! TA.AperFunction,SMDPad,CuDef*
G36*
X122172255Y31008296D02*
G01*
X122196523Y31004696D01*
X122220322Y30998735D01*
X122243421Y30990470D01*
X122265600Y30979980D01*
X122286643Y30967368D01*
X122306349Y30952753D01*
X122324527Y30936277D01*
X122341003Y30918099D01*
X122355618Y30898393D01*
X122368230Y30877350D01*
X122378720Y30855171D01*
X122386985Y30832072D01*
X122392946Y30808273D01*
X122396546Y30784005D01*
X122397750Y30759501D01*
X122397750Y30109499D01*
X122396546Y30084995D01*
X122392946Y30060727D01*
X122386985Y30036928D01*
X122378720Y30013829D01*
X122368230Y29991650D01*
X122355618Y29970607D01*
X122341003Y29950901D01*
X122324527Y29932723D01*
X122306349Y29916247D01*
X122286643Y29901632D01*
X122265600Y29889020D01*
X122243421Y29878530D01*
X122220322Y29870265D01*
X122196523Y29864304D01*
X122172255Y29860704D01*
X122147751Y29859500D01*
X121247749Y29859500D01*
X121223245Y29860704D01*
X121198977Y29864304D01*
X121175178Y29870265D01*
X121152079Y29878530D01*
X121129900Y29889020D01*
X121108857Y29901632D01*
X121089151Y29916247D01*
X121070973Y29932723D01*
X121054497Y29950901D01*
X121039882Y29970607D01*
X121027270Y29991650D01*
X121016780Y30013829D01*
X121008515Y30036928D01*
X121002554Y30060727D01*
X120998954Y30084995D01*
X120997750Y30109499D01*
X120997750Y30759501D01*
X120998954Y30784005D01*
X121002554Y30808273D01*
X121008515Y30832072D01*
X121016780Y30855171D01*
X121027270Y30877350D01*
X121039882Y30898393D01*
X121054497Y30918099D01*
X121070973Y30936277D01*
X121089151Y30952753D01*
X121108857Y30967368D01*
X121129900Y30979980D01*
X121152079Y30990470D01*
X121175178Y30998735D01*
X121198977Y31004696D01*
X121223245Y31008296D01*
X121247749Y31009500D01*
X122147751Y31009500D01*
X122172255Y31008296D01*
G37*
G04 #@! TD.AperFunction*
G04 #@! TA.AperFunction,SMDPad,CuDef*
G36*
X122172255Y28958296D02*
G01*
X122196523Y28954696D01*
X122220322Y28948735D01*
X122243421Y28940470D01*
X122265600Y28929980D01*
X122286643Y28917368D01*
X122306349Y28902753D01*
X122324527Y28886277D01*
X122341003Y28868099D01*
X122355618Y28848393D01*
X122368230Y28827350D01*
X122378720Y28805171D01*
X122386985Y28782072D01*
X122392946Y28758273D01*
X122396546Y28734005D01*
X122397750Y28709501D01*
X122397750Y28059499D01*
X122396546Y28034995D01*
X122392946Y28010727D01*
X122386985Y27986928D01*
X122378720Y27963829D01*
X122368230Y27941650D01*
X122355618Y27920607D01*
X122341003Y27900901D01*
X122324527Y27882723D01*
X122306349Y27866247D01*
X122286643Y27851632D01*
X122265600Y27839020D01*
X122243421Y27828530D01*
X122220322Y27820265D01*
X122196523Y27814304D01*
X122172255Y27810704D01*
X122147751Y27809500D01*
X121247749Y27809500D01*
X121223245Y27810704D01*
X121198977Y27814304D01*
X121175178Y27820265D01*
X121152079Y27828530D01*
X121129900Y27839020D01*
X121108857Y27851632D01*
X121089151Y27866247D01*
X121070973Y27882723D01*
X121054497Y27900901D01*
X121039882Y27920607D01*
X121027270Y27941650D01*
X121016780Y27963829D01*
X121008515Y27986928D01*
X121002554Y28010727D01*
X120998954Y28034995D01*
X120997750Y28059499D01*
X120997750Y28709501D01*
X120998954Y28734005D01*
X121002554Y28758273D01*
X121008515Y28782072D01*
X121016780Y28805171D01*
X121027270Y28827350D01*
X121039882Y28848393D01*
X121054497Y28868099D01*
X121070973Y28886277D01*
X121089151Y28902753D01*
X121108857Y28917368D01*
X121129900Y28929980D01*
X121152079Y28940470D01*
X121175178Y28948735D01*
X121198977Y28954696D01*
X121223245Y28958296D01*
X121247749Y28959500D01*
X122147751Y28959500D01*
X122172255Y28958296D01*
G37*
G04 #@! TD.AperFunction*
G04 #@! TA.AperFunction,SMDPad,CuDef*
G36*
X124680505Y30990296D02*
G01*
X124704773Y30986696D01*
X124728572Y30980735D01*
X124751671Y30972470D01*
X124773850Y30961980D01*
X124794893Y30949368D01*
X124814599Y30934753D01*
X124832777Y30918277D01*
X124849253Y30900099D01*
X124863868Y30880393D01*
X124876480Y30859350D01*
X124886970Y30837171D01*
X124895235Y30814072D01*
X124901196Y30790273D01*
X124904796Y30766005D01*
X124906000Y30741501D01*
X124906000Y30091499D01*
X124904796Y30066995D01*
X124901196Y30042727D01*
X124895235Y30018928D01*
X124886970Y29995829D01*
X124876480Y29973650D01*
X124863868Y29952607D01*
X124849253Y29932901D01*
X124832777Y29914723D01*
X124814599Y29898247D01*
X124794893Y29883632D01*
X124773850Y29871020D01*
X124751671Y29860530D01*
X124728572Y29852265D01*
X124704773Y29846304D01*
X124680505Y29842704D01*
X124656001Y29841500D01*
X123755999Y29841500D01*
X123731495Y29842704D01*
X123707227Y29846304D01*
X123683428Y29852265D01*
X123660329Y29860530D01*
X123638150Y29871020D01*
X123617107Y29883632D01*
X123597401Y29898247D01*
X123579223Y29914723D01*
X123562747Y29932901D01*
X123548132Y29952607D01*
X123535520Y29973650D01*
X123525030Y29995829D01*
X123516765Y30018928D01*
X123510804Y30042727D01*
X123507204Y30066995D01*
X123506000Y30091499D01*
X123506000Y30741501D01*
X123507204Y30766005D01*
X123510804Y30790273D01*
X123516765Y30814072D01*
X123525030Y30837171D01*
X123535520Y30859350D01*
X123548132Y30880393D01*
X123562747Y30900099D01*
X123579223Y30918277D01*
X123597401Y30934753D01*
X123617107Y30949368D01*
X123638150Y30961980D01*
X123660329Y30972470D01*
X123683428Y30980735D01*
X123707227Y30986696D01*
X123731495Y30990296D01*
X123755999Y30991500D01*
X124656001Y30991500D01*
X124680505Y30990296D01*
G37*
G04 #@! TD.AperFunction*
G04 #@! TA.AperFunction,SMDPad,CuDef*
G36*
X124680505Y28940296D02*
G01*
X124704773Y28936696D01*
X124728572Y28930735D01*
X124751671Y28922470D01*
X124773850Y28911980D01*
X124794893Y28899368D01*
X124814599Y28884753D01*
X124832777Y28868277D01*
X124849253Y28850099D01*
X124863868Y28830393D01*
X124876480Y28809350D01*
X124886970Y28787171D01*
X124895235Y28764072D01*
X124901196Y28740273D01*
X124904796Y28716005D01*
X124906000Y28691501D01*
X124906000Y28041499D01*
X124904796Y28016995D01*
X124901196Y27992727D01*
X124895235Y27968928D01*
X124886970Y27945829D01*
X124876480Y27923650D01*
X124863868Y27902607D01*
X124849253Y27882901D01*
X124832777Y27864723D01*
X124814599Y27848247D01*
X124794893Y27833632D01*
X124773850Y27821020D01*
X124751671Y27810530D01*
X124728572Y27802265D01*
X124704773Y27796304D01*
X124680505Y27792704D01*
X124656001Y27791500D01*
X123755999Y27791500D01*
X123731495Y27792704D01*
X123707227Y27796304D01*
X123683428Y27802265D01*
X123660329Y27810530D01*
X123638150Y27821020D01*
X123617107Y27833632D01*
X123597401Y27848247D01*
X123579223Y27864723D01*
X123562747Y27882901D01*
X123548132Y27902607D01*
X123535520Y27923650D01*
X123525030Y27945829D01*
X123516765Y27968928D01*
X123510804Y27992727D01*
X123507204Y28016995D01*
X123506000Y28041499D01*
X123506000Y28691501D01*
X123507204Y28716005D01*
X123510804Y28740273D01*
X123516765Y28764072D01*
X123525030Y28787171D01*
X123535520Y28809350D01*
X123548132Y28830393D01*
X123562747Y28850099D01*
X123579223Y28868277D01*
X123597401Y28884753D01*
X123617107Y28899368D01*
X123638150Y28911980D01*
X123660329Y28922470D01*
X123683428Y28930735D01*
X123707227Y28936696D01*
X123731495Y28940296D01*
X123755999Y28941500D01*
X124656001Y28941500D01*
X124680505Y28940296D01*
G37*
G04 #@! TD.AperFunction*
G04 #@! TA.AperFunction,SMDPad,CuDef*
G36*
X127125255Y30999296D02*
G01*
X127149523Y30995696D01*
X127173322Y30989735D01*
X127196421Y30981470D01*
X127218600Y30970980D01*
X127239643Y30958368D01*
X127259349Y30943753D01*
X127277527Y30927277D01*
X127294003Y30909099D01*
X127308618Y30889393D01*
X127321230Y30868350D01*
X127331720Y30846171D01*
X127339985Y30823072D01*
X127345946Y30799273D01*
X127349546Y30775005D01*
X127350750Y30750501D01*
X127350750Y30100499D01*
X127349546Y30075995D01*
X127345946Y30051727D01*
X127339985Y30027928D01*
X127331720Y30004829D01*
X127321230Y29982650D01*
X127308618Y29961607D01*
X127294003Y29941901D01*
X127277527Y29923723D01*
X127259349Y29907247D01*
X127239643Y29892632D01*
X127218600Y29880020D01*
X127196421Y29869530D01*
X127173322Y29861265D01*
X127149523Y29855304D01*
X127125255Y29851704D01*
X127100751Y29850500D01*
X126200749Y29850500D01*
X126176245Y29851704D01*
X126151977Y29855304D01*
X126128178Y29861265D01*
X126105079Y29869530D01*
X126082900Y29880020D01*
X126061857Y29892632D01*
X126042151Y29907247D01*
X126023973Y29923723D01*
X126007497Y29941901D01*
X125992882Y29961607D01*
X125980270Y29982650D01*
X125969780Y30004829D01*
X125961515Y30027928D01*
X125955554Y30051727D01*
X125951954Y30075995D01*
X125950750Y30100499D01*
X125950750Y30750501D01*
X125951954Y30775005D01*
X125955554Y30799273D01*
X125961515Y30823072D01*
X125969780Y30846171D01*
X125980270Y30868350D01*
X125992882Y30889393D01*
X126007497Y30909099D01*
X126023973Y30927277D01*
X126042151Y30943753D01*
X126061857Y30958368D01*
X126082900Y30970980D01*
X126105079Y30981470D01*
X126128178Y30989735D01*
X126151977Y30995696D01*
X126176245Y30999296D01*
X126200749Y31000500D01*
X127100751Y31000500D01*
X127125255Y30999296D01*
G37*
G04 #@! TD.AperFunction*
G04 #@! TA.AperFunction,SMDPad,CuDef*
G36*
X127125255Y28949296D02*
G01*
X127149523Y28945696D01*
X127173322Y28939735D01*
X127196421Y28931470D01*
X127218600Y28920980D01*
X127239643Y28908368D01*
X127259349Y28893753D01*
X127277527Y28877277D01*
X127294003Y28859099D01*
X127308618Y28839393D01*
X127321230Y28818350D01*
X127331720Y28796171D01*
X127339985Y28773072D01*
X127345946Y28749273D01*
X127349546Y28725005D01*
X127350750Y28700501D01*
X127350750Y28050499D01*
X127349546Y28025995D01*
X127345946Y28001727D01*
X127339985Y27977928D01*
X127331720Y27954829D01*
X127321230Y27932650D01*
X127308618Y27911607D01*
X127294003Y27891901D01*
X127277527Y27873723D01*
X127259349Y27857247D01*
X127239643Y27842632D01*
X127218600Y27830020D01*
X127196421Y27819530D01*
X127173322Y27811265D01*
X127149523Y27805304D01*
X127125255Y27801704D01*
X127100751Y27800500D01*
X126200749Y27800500D01*
X126176245Y27801704D01*
X126151977Y27805304D01*
X126128178Y27811265D01*
X126105079Y27819530D01*
X126082900Y27830020D01*
X126061857Y27842632D01*
X126042151Y27857247D01*
X126023973Y27873723D01*
X126007497Y27891901D01*
X125992882Y27911607D01*
X125980270Y27932650D01*
X125969780Y27954829D01*
X125961515Y27977928D01*
X125955554Y28001727D01*
X125951954Y28025995D01*
X125950750Y28050499D01*
X125950750Y28700501D01*
X125951954Y28725005D01*
X125955554Y28749273D01*
X125961515Y28773072D01*
X125969780Y28796171D01*
X125980270Y28818350D01*
X125992882Y28839393D01*
X126007497Y28859099D01*
X126023973Y28877277D01*
X126042151Y28893753D01*
X126061857Y28908368D01*
X126082900Y28920980D01*
X126105079Y28931470D01*
X126128178Y28939735D01*
X126151977Y28945696D01*
X126176245Y28949296D01*
X126200749Y28950500D01*
X127100751Y28950500D01*
X127125255Y28949296D01*
G37*
G04 #@! TD.AperFunction*
G04 #@! TA.AperFunction,SMDPad,CuDef*
G36*
X129411255Y31008296D02*
G01*
X129435523Y31004696D01*
X129459322Y30998735D01*
X129482421Y30990470D01*
X129504600Y30979980D01*
X129525643Y30967368D01*
X129545349Y30952753D01*
X129563527Y30936277D01*
X129580003Y30918099D01*
X129594618Y30898393D01*
X129607230Y30877350D01*
X129617720Y30855171D01*
X129625985Y30832072D01*
X129631946Y30808273D01*
X129635546Y30784005D01*
X129636750Y30759501D01*
X129636750Y30109499D01*
X129635546Y30084995D01*
X129631946Y30060727D01*
X129625985Y30036928D01*
X129617720Y30013829D01*
X129607230Y29991650D01*
X129594618Y29970607D01*
X129580003Y29950901D01*
X129563527Y29932723D01*
X129545349Y29916247D01*
X129525643Y29901632D01*
X129504600Y29889020D01*
X129482421Y29878530D01*
X129459322Y29870265D01*
X129435523Y29864304D01*
X129411255Y29860704D01*
X129386751Y29859500D01*
X128486749Y29859500D01*
X128462245Y29860704D01*
X128437977Y29864304D01*
X128414178Y29870265D01*
X128391079Y29878530D01*
X128368900Y29889020D01*
X128347857Y29901632D01*
X128328151Y29916247D01*
X128309973Y29932723D01*
X128293497Y29950901D01*
X128278882Y29970607D01*
X128266270Y29991650D01*
X128255780Y30013829D01*
X128247515Y30036928D01*
X128241554Y30060727D01*
X128237954Y30084995D01*
X128236750Y30109499D01*
X128236750Y30759501D01*
X128237954Y30784005D01*
X128241554Y30808273D01*
X128247515Y30832072D01*
X128255780Y30855171D01*
X128266270Y30877350D01*
X128278882Y30898393D01*
X128293497Y30918099D01*
X128309973Y30936277D01*
X128328151Y30952753D01*
X128347857Y30967368D01*
X128368900Y30979980D01*
X128391079Y30990470D01*
X128414178Y30998735D01*
X128437977Y31004696D01*
X128462245Y31008296D01*
X128486749Y31009500D01*
X129386751Y31009500D01*
X129411255Y31008296D01*
G37*
G04 #@! TD.AperFunction*
G04 #@! TA.AperFunction,SMDPad,CuDef*
G36*
X129411255Y28958296D02*
G01*
X129435523Y28954696D01*
X129459322Y28948735D01*
X129482421Y28940470D01*
X129504600Y28929980D01*
X129525643Y28917368D01*
X129545349Y28902753D01*
X129563527Y28886277D01*
X129580003Y28868099D01*
X129594618Y28848393D01*
X129607230Y28827350D01*
X129617720Y28805171D01*
X129625985Y28782072D01*
X129631946Y28758273D01*
X129635546Y28734005D01*
X129636750Y28709501D01*
X129636750Y28059499D01*
X129635546Y28034995D01*
X129631946Y28010727D01*
X129625985Y27986928D01*
X129617720Y27963829D01*
X129607230Y27941650D01*
X129594618Y27920607D01*
X129580003Y27900901D01*
X129563527Y27882723D01*
X129545349Y27866247D01*
X129525643Y27851632D01*
X129504600Y27839020D01*
X129482421Y27828530D01*
X129459322Y27820265D01*
X129435523Y27814304D01*
X129411255Y27810704D01*
X129386751Y27809500D01*
X128486749Y27809500D01*
X128462245Y27810704D01*
X128437977Y27814304D01*
X128414178Y27820265D01*
X128391079Y27828530D01*
X128368900Y27839020D01*
X128347857Y27851632D01*
X128328151Y27866247D01*
X128309973Y27882723D01*
X128293497Y27900901D01*
X128278882Y27920607D01*
X128266270Y27941650D01*
X128255780Y27963829D01*
X128247515Y27986928D01*
X128241554Y28010727D01*
X128237954Y28034995D01*
X128236750Y28059499D01*
X128236750Y28709501D01*
X128237954Y28734005D01*
X128241554Y28758273D01*
X128247515Y28782072D01*
X128255780Y28805171D01*
X128266270Y28827350D01*
X128278882Y28848393D01*
X128293497Y28868099D01*
X128309973Y28886277D01*
X128328151Y28902753D01*
X128347857Y28917368D01*
X128368900Y28929980D01*
X128391079Y28940470D01*
X128414178Y28948735D01*
X128437977Y28954696D01*
X128462245Y28958296D01*
X128486749Y28959500D01*
X129386751Y28959500D01*
X129411255Y28958296D01*
G37*
G04 #@! TD.AperFunction*
D22*
X135636000Y34544000D03*
X135636000Y30353000D03*
X117983000Y49657000D03*
X126904750Y45402500D03*
X113376001Y42129001D03*
X104648000Y41275000D03*
X109093000Y43434000D03*
X78867000Y52070000D03*
X51037691Y102724001D03*
X124968000Y40259000D03*
X128047750Y42354500D03*
X100076000Y54610000D03*
X100076000Y56515000D03*
X104267000Y102997000D03*
X104267000Y67056000D03*
X107188000Y73660000D03*
X107188000Y75438000D03*
X98933000Y54610000D03*
X98933000Y56515000D03*
X97790000Y54610000D03*
X97790000Y56515000D03*
X110871000Y27813000D03*
X110871000Y28829000D03*
X110871000Y29845000D03*
X110871000Y30861000D03*
X103060500Y49212500D03*
X103060500Y54673500D03*
X110871000Y31877000D03*
X106172000Y46736000D03*
X108981394Y49641606D03*
X132207000Y28067000D03*
X132207000Y27051000D03*
X132207000Y26035000D03*
X191293750Y54768750D03*
X208756250Y53721000D03*
X227584000Y52832000D03*
X254127000Y53086000D03*
X250444000Y34163000D03*
X287274000Y30353000D03*
X305320739Y29603739D03*
X34417000Y115824000D03*
X34290000Y112014000D03*
X110109000Y47244000D03*
X70231000Y90932000D03*
X50419000Y90932000D03*
X41275000Y94488000D03*
X34925000Y119888000D03*
X35433000Y112014000D03*
X110109000Y48387000D03*
X70231000Y92075000D03*
X50419000Y92075000D03*
X42545000Y94488000D03*
X151003000Y34290000D03*
X146558000Y28575000D03*
X107383616Y37269384D03*
X106573740Y32659740D03*
D23*
X126950750Y40504250D02*
X126950750Y40654250D01*
X129250750Y37754250D02*
X129250750Y38204250D01*
X126659750Y30434500D02*
X126650750Y30425500D01*
X128936750Y30434500D02*
X126659750Y30434500D01*
X124215000Y30425500D02*
X124206000Y30416500D01*
X126650750Y30425500D02*
X124215000Y30425500D01*
X121715750Y30416500D02*
X121697750Y30434500D01*
X124206000Y30416500D02*
X121715750Y30416500D01*
X121697750Y33259250D02*
X121172750Y33784250D01*
X121172750Y33784250D02*
X120643750Y33784250D01*
X121697750Y30434500D02*
X121697750Y33259250D01*
X109939750Y36284250D02*
X110943750Y36284250D01*
X108689500Y36284250D02*
X109277500Y36284250D01*
X108300750Y35895500D02*
X108689500Y36284250D01*
X107600750Y35895500D02*
X108300750Y35895500D01*
X129250750Y37904250D02*
X129250750Y37754250D01*
X126950750Y40204250D02*
X129250750Y37904250D01*
X126950750Y40654250D02*
X126950750Y40204250D01*
X126950750Y43593250D02*
X127013750Y43656250D01*
X126950750Y40654250D02*
X126950750Y43593250D01*
X129250750Y34817250D02*
X129199750Y34766250D01*
X129250750Y37754250D02*
X129250750Y34817250D01*
X129199750Y30697500D02*
X128936750Y30434500D01*
X123347750Y41084250D02*
X122343750Y41084250D01*
X125366750Y41084250D02*
X123347750Y41084250D01*
X125796750Y40654250D02*
X125366750Y41084250D01*
X126950750Y40654250D02*
X125796750Y40654250D01*
X115843750Y46188250D02*
X115843750Y45184250D01*
X115336740Y46695260D02*
X115843750Y46188250D01*
X115663750Y49602500D02*
X115336740Y49275490D01*
X115336740Y49275490D02*
X115336740Y46695260D01*
X116363750Y49602500D02*
X115663750Y49602500D01*
X110892500Y42735500D02*
X110943750Y42684250D01*
X126904750Y43765250D02*
X127013750Y43656250D01*
X126904750Y45402500D02*
X126904750Y43765250D01*
X109277500Y36284250D02*
X109939750Y36284250D01*
X117928500Y49602500D02*
X117983000Y49657000D01*
X116363750Y49602500D02*
X117928500Y49602500D01*
X111947750Y42684250D02*
X110943750Y42684250D01*
X112823712Y42684250D02*
X111947750Y42684250D01*
X113376001Y37902899D02*
X113376001Y42129001D01*
X113376001Y42131961D02*
X112823712Y42684250D01*
X111757352Y36284250D02*
X113376001Y37902899D01*
X110943750Y36284250D02*
X111757352Y36284250D01*
X113376001Y42129001D02*
X113376001Y42131961D01*
X129231500Y34798000D02*
X129199750Y34766250D01*
X135612750Y34567250D02*
X135636000Y34544000D01*
X135612750Y40778500D02*
X135612750Y34567250D01*
X129018250Y30353000D02*
X128936750Y30434500D01*
X135636000Y30353000D02*
X129018250Y30353000D01*
X38993000Y118944000D02*
X37898000Y117849000D01*
X38993000Y119264000D02*
X38993000Y118944000D01*
X30353000Y118944000D02*
X31448000Y117849000D01*
X30353000Y119264000D02*
X30353000Y118944000D01*
X36812000Y113139000D02*
X36830000Y113157000D01*
X33020000Y113139000D02*
X36812000Y113139000D01*
X31682001Y116135999D02*
X31448000Y116370000D01*
X31682001Y113776999D02*
X31682001Y116135999D01*
X32320000Y113139000D02*
X31682001Y113776999D01*
X31448000Y116370000D02*
X31448000Y117849000D01*
X33020000Y113139000D02*
X32320000Y113139000D01*
X25101288Y123444000D02*
X30353000Y123444000D01*
X19117999Y117460711D02*
X25101288Y123444000D01*
X23920538Y35895500D02*
X19177000Y40639038D01*
X107600750Y35895500D02*
X23920538Y35895500D01*
X19177000Y40639038D02*
X19177000Y40640000D01*
X19177000Y40640000D02*
X19117999Y40698039D01*
X19117999Y40698039D02*
X19117999Y117460711D01*
D24*
X124188000Y28384500D02*
X124206000Y28366500D01*
X126659750Y28384500D02*
X126650750Y28375500D01*
X128936750Y28384500D02*
X126659750Y28384500D01*
X124215000Y28375500D02*
X124206000Y28366500D01*
X126650750Y28375500D02*
X124215000Y28375500D01*
X121715750Y28366500D02*
X121697750Y28384500D01*
X124206000Y28366500D02*
X121715750Y28366500D01*
X119843750Y32653250D02*
X119843750Y33784250D01*
X119843750Y29538500D02*
X119843750Y32653250D01*
X120997750Y28384500D02*
X119843750Y29538500D01*
X121697750Y28384500D02*
X120997750Y28384500D01*
X112874750Y43484250D02*
X112074750Y43484250D01*
X112074750Y43484250D02*
X110943750Y43484250D01*
X113443750Y44053250D02*
X112874750Y43484250D01*
X113443750Y45184250D02*
X113443750Y44053250D01*
X117443750Y44053250D02*
X116874750Y43484250D01*
X117443750Y45184250D02*
X117443750Y44053250D01*
X116874750Y43484250D02*
X112874750Y43484250D01*
X119843750Y40515250D02*
X116874750Y43484250D01*
X119843750Y33784250D02*
X119843750Y40515250D01*
X121212750Y41884250D02*
X119843750Y40515250D01*
X122343750Y41884250D02*
X121212750Y41884250D01*
X123474750Y41884250D02*
X122343750Y41884250D01*
X124745750Y43155250D02*
X123474750Y41884250D01*
X124745750Y45012500D02*
X124745750Y43155250D01*
X117105750Y40515250D02*
X119843750Y40515250D01*
X112074750Y35484250D02*
X117105750Y40515250D01*
X110943750Y35484250D02*
X112074750Y35484250D01*
X109143250Y43484250D02*
X109093000Y43434000D01*
X110943750Y43484250D02*
X109143250Y43484250D01*
X89662000Y41275000D02*
X78867000Y52070000D01*
X104648000Y41275000D02*
X89662000Y41275000D01*
X50472006Y102724001D02*
X51037691Y102724001D01*
X48782499Y102724001D02*
X50472006Y102724001D01*
X44323000Y107183500D02*
X48782499Y102724001D01*
X44323000Y107896000D02*
X44323000Y107183500D01*
D23*
X126950750Y34965250D02*
X127149750Y34766250D01*
X126950750Y37754250D02*
X126950750Y34965250D01*
X123347750Y39484250D02*
X122343750Y39484250D01*
X124066750Y39484250D02*
X123347750Y39484250D01*
X125796750Y37754250D02*
X124066750Y39484250D01*
X126950750Y37754250D02*
X125796750Y37754250D01*
X129250750Y43469250D02*
X129063750Y43656250D01*
X122432500Y40195500D02*
X122343750Y40284250D01*
X129250750Y41151500D02*
X129250750Y40654250D01*
X128047750Y42354500D02*
X129250750Y41151500D01*
X129063750Y40841250D02*
X129250750Y40654250D01*
X129063750Y43656250D02*
X129063750Y40841250D01*
X124942750Y40284250D02*
X124968000Y40259000D01*
X122343750Y40284250D02*
X124942750Y40284250D01*
X116643750Y47272500D02*
X116643750Y45184250D01*
X116363750Y47552500D02*
X116643750Y47272500D01*
X28575000Y118918750D02*
X28575000Y111887000D01*
X27900000Y119593750D02*
X28575000Y118918750D01*
X290736750Y113157000D02*
X290512500Y113381250D01*
X242950000Y112739750D02*
X242887500Y112802250D01*
X261083500Y112739750D02*
X242950000Y112739750D01*
X261787500Y113443750D02*
X261083500Y112739750D01*
X261937500Y113443750D02*
X261787500Y113443750D01*
X223866901Y112772849D02*
X223837500Y112802250D01*
X223837500Y112802250D02*
X223837500Y113506250D01*
X242858099Y112772849D02*
X223866901Y112772849D01*
X242887500Y112802250D02*
X242858099Y112772849D01*
X242887500Y113506250D02*
X242887500Y112802250D01*
X222250099Y112772849D02*
X204816901Y112772849D01*
X222983500Y113506250D02*
X222250099Y112772849D01*
X204816901Y112772849D02*
X204787500Y112802250D01*
X223837500Y113506250D02*
X222983500Y113506250D01*
X186591500Y113381250D02*
X185737500Y113381250D01*
X187199901Y112772849D02*
X186591500Y113381250D01*
X204758099Y112772849D02*
X187199901Y112772849D01*
X204787500Y112802250D02*
X204758099Y112772849D01*
X204787500Y113506250D02*
X204787500Y112802250D01*
X166812500Y112677250D02*
X166687500Y112802250D01*
X184883500Y112677250D02*
X166812500Y112677250D01*
X185587500Y113381250D02*
X184883500Y112677250D01*
X166687500Y112802250D02*
X166687500Y113506250D01*
X185737500Y113381250D02*
X185587500Y113381250D01*
X148491500Y113381250D02*
X147637500Y113381250D01*
X165100099Y112772849D02*
X149099901Y112772849D01*
X165833500Y113506250D02*
X165100099Y112772849D01*
X149099901Y112772849D02*
X148491500Y113381250D01*
X166687500Y113506250D02*
X165833500Y113506250D01*
X129441500Y113381250D02*
X128587500Y113381250D01*
X130049901Y112772849D02*
X129441500Y113381250D01*
X146175099Y112772849D02*
X130049901Y112772849D01*
X146783500Y113381250D02*
X146175099Y112772849D01*
X147637500Y113381250D02*
X146783500Y113381250D01*
X111062401Y112772849D02*
X110391500Y113443750D01*
X127125099Y112772849D02*
X111062401Y112772849D01*
X127733500Y113381250D02*
X127125099Y112772849D01*
X110391500Y113443750D02*
X109537500Y113443750D01*
X91341500Y113381250D02*
X90487500Y113381250D01*
X91949901Y112772849D02*
X91341500Y113381250D01*
X102714033Y112772849D02*
X91949901Y112772849D01*
X103384934Y113443750D02*
X102714033Y112772849D01*
X109537500Y113443750D02*
X103384934Y113443750D01*
X89025099Y112772849D02*
X72962401Y112772849D01*
X72291500Y113443750D02*
X71437500Y113443750D01*
X89633500Y113381250D02*
X89025099Y112772849D01*
X72962401Y112772849D02*
X72291500Y113443750D01*
X90487500Y113381250D02*
X89633500Y113381250D01*
X53912401Y112772849D02*
X53241500Y113443750D01*
X64614033Y112772849D02*
X53912401Y112772849D01*
X65284934Y113443750D02*
X64614033Y112772849D01*
X53241500Y113443750D02*
X52387500Y113443750D01*
X71437500Y113443750D02*
X65284934Y113443750D01*
X128587500Y113381250D02*
X127733500Y113381250D01*
X111062401Y110358086D02*
X111062401Y112772849D01*
X104267000Y103562685D02*
X111062401Y110358086D01*
X104267000Y102997000D02*
X104267000Y103562685D01*
X100076000Y54044315D02*
X100076000Y54610000D01*
X100076000Y51138398D02*
X100076000Y54044315D01*
X110130148Y41084250D02*
X100076000Y51138398D01*
X110943750Y41084250D02*
X110130148Y41084250D01*
X100076000Y62865000D02*
X104267000Y67056000D01*
X100076000Y56515000D02*
X100076000Y62865000D01*
X263462401Y112772849D02*
X262791500Y113443750D01*
X262791500Y113443750D02*
X261937500Y113443750D01*
X289658500Y113381250D02*
X289050099Y112772849D01*
X289050099Y112772849D02*
X263462401Y112772849D01*
X290512500Y113381250D02*
X289658500Y113381250D01*
X329487349Y112790349D02*
X291957401Y112790349D01*
X291366500Y113381250D02*
X290512500Y113381250D01*
X291957401Y112790349D02*
X291366500Y113381250D01*
X329854000Y113157000D02*
X329487349Y112790349D01*
X330708000Y113157000D02*
X329854000Y113157000D01*
X52387500Y112739750D02*
X52387500Y113443750D01*
X30429990Y109587990D02*
X49235740Y109587990D01*
X49235740Y109587990D02*
X52387500Y112739750D01*
X29429000Y108587000D02*
X30429990Y109587990D01*
X28575000Y108587000D02*
X29429000Y108587000D01*
X35575000Y97631250D02*
X38100000Y97631250D01*
X32662500Y100543750D02*
X35575000Y97631250D01*
X61058500Y94393750D02*
X61912500Y94393750D01*
X60387599Y93722849D02*
X61058500Y94393750D01*
X39562401Y93722849D02*
X60387599Y93722849D01*
X38954000Y94331250D02*
X39562401Y93722849D01*
X38100000Y94331250D02*
X38954000Y94331250D01*
X80933099Y93722849D02*
X80962500Y93752250D01*
X63437401Y93722849D02*
X80933099Y93722849D01*
X80962500Y93752250D02*
X80962500Y94456250D01*
X62766500Y94393750D02*
X63437401Y93722849D01*
X61912500Y94393750D02*
X62766500Y94393750D01*
X99158500Y94331250D02*
X100012500Y94331250D01*
X82549901Y93722849D02*
X98550099Y93722849D01*
X81816500Y94456250D02*
X82549901Y93722849D01*
X80962500Y94456250D02*
X81816500Y94456250D01*
X117600099Y93722849D02*
X118208500Y94331250D01*
X101474901Y93722849D02*
X117600099Y93722849D01*
X100866500Y94331250D02*
X101474901Y93722849D01*
X118208500Y94331250D02*
X119062500Y94331250D01*
X100012500Y94331250D02*
X100866500Y94331250D01*
X136650099Y93722849D02*
X137258500Y94331250D01*
X137258500Y94331250D02*
X138112500Y94331250D01*
X120524901Y93722849D02*
X136650099Y93722849D01*
X119916500Y94331250D02*
X120524901Y93722849D01*
X119062500Y94331250D02*
X119916500Y94331250D01*
X156308500Y94393750D02*
X157162500Y94393750D01*
X155637599Y93722849D02*
X156308500Y94393750D01*
X138966500Y94331250D02*
X139574901Y93722849D01*
X139574901Y93722849D02*
X155637599Y93722849D01*
X138112500Y94331250D02*
X138966500Y94331250D01*
X158687401Y93722849D02*
X174750099Y93722849D01*
X174750099Y93722849D02*
X175358500Y94331250D01*
X158016500Y94393750D02*
X158687401Y93722849D01*
X175358500Y94331250D02*
X176212500Y94331250D01*
X157162500Y94393750D02*
X158016500Y94393750D01*
X194408500Y94331250D02*
X195262500Y94331250D01*
X193800099Y93722849D02*
X194408500Y94331250D01*
X177674901Y93722849D02*
X193800099Y93722849D01*
X177066500Y94331250D02*
X177674901Y93722849D01*
X176212500Y94331250D02*
X177066500Y94331250D01*
X213458500Y94331250D02*
X214312500Y94331250D01*
X196724901Y93722849D02*
X212850099Y93722849D01*
X212850099Y93722849D02*
X213458500Y94331250D01*
X196116500Y94331250D02*
X196724901Y93722849D01*
X195262500Y94331250D02*
X196116500Y94331250D01*
X232508500Y94393750D02*
X233362500Y94393750D01*
X231837599Y93722849D02*
X232508500Y94393750D01*
X215774901Y93722849D02*
X231837599Y93722849D01*
X215166500Y94331250D02*
X215774901Y93722849D01*
X214312500Y94331250D02*
X215166500Y94331250D01*
X251558500Y94393750D02*
X252412500Y94393750D01*
X234887401Y93722849D02*
X250887599Y93722849D01*
X234216500Y94393750D02*
X234887401Y93722849D01*
X250887599Y93722849D02*
X251558500Y94393750D01*
X233362500Y94393750D02*
X234216500Y94393750D01*
X270608500Y94331250D02*
X271462500Y94331250D01*
X270000099Y93722849D02*
X270608500Y94331250D01*
X253937401Y93722849D02*
X270000099Y93722849D01*
X253266500Y94393750D02*
X253937401Y93722849D01*
X252412500Y94393750D02*
X253266500Y94393750D01*
X271462500Y94331250D02*
X271612500Y94331250D01*
X110130148Y40284250D02*
X110943750Y40284250D01*
X98933000Y54610000D02*
X98933000Y51481398D01*
X98933000Y51481398D02*
X110130148Y40284250D01*
X98550099Y93722849D02*
X99158500Y94331250D01*
X98933000Y65405000D02*
X107188000Y73660000D01*
X98933000Y56515000D02*
X98933000Y65405000D01*
X107188000Y88009750D02*
X101474901Y93722849D01*
X107188000Y75438000D02*
X107188000Y88009750D01*
X272924901Y93722849D02*
X272316500Y94331250D01*
X272316500Y94331250D02*
X271462500Y94331250D01*
X293750099Y93722849D02*
X272924901Y93722849D01*
X294421000Y94393750D02*
X293750099Y93722849D01*
X295275000Y94393750D02*
X294421000Y94393750D01*
X296129000Y94393750D02*
X295275000Y94393750D01*
X296782401Y93740349D02*
X296129000Y94393750D01*
X329487349Y93740349D02*
X296782401Y93740349D01*
X330108000Y94361000D02*
X329487349Y93740349D01*
X330962000Y94361000D02*
X330108000Y94361000D01*
X37956250Y78581250D02*
X41275000Y78581250D01*
X35043750Y81493750D02*
X37956250Y78581250D01*
X257237500Y74577250D02*
X257175000Y74639750D01*
X287277250Y74577250D02*
X257237500Y74577250D01*
X287981250Y75281250D02*
X287277250Y74577250D01*
X257175000Y74639750D02*
X257175000Y75343750D01*
X288131250Y75281250D02*
X287981250Y75281250D01*
X238979000Y75343750D02*
X238125000Y75343750D01*
X239649901Y74672849D02*
X238979000Y75343750D01*
X255650099Y74672849D02*
X239649901Y74672849D01*
X256321000Y75343750D02*
X255650099Y74672849D01*
X257175000Y75343750D02*
X256321000Y75343750D01*
X200879000Y75343750D02*
X200025000Y75343750D01*
X201549901Y74672849D02*
X200879000Y75343750D01*
X217612599Y74672849D02*
X201549901Y74672849D01*
X218221000Y75281250D02*
X217612599Y74672849D01*
X219075000Y75281250D02*
X218221000Y75281250D01*
X181829000Y75281250D02*
X180975000Y75281250D01*
X199171000Y75343750D02*
X198500099Y74672849D01*
X182437401Y74672849D02*
X181829000Y75281250D01*
X198500099Y74672849D02*
X182437401Y74672849D01*
X200025000Y75343750D02*
X199171000Y75343750D01*
X162779000Y75281250D02*
X161925000Y75281250D01*
X163387401Y74672849D02*
X162779000Y75281250D01*
X180121000Y75281250D02*
X179512599Y74672849D01*
X179512599Y74672849D02*
X163387401Y74672849D01*
X180975000Y75281250D02*
X180121000Y75281250D01*
X143729000Y75343750D02*
X142875000Y75343750D01*
X144399901Y74672849D02*
X143729000Y75343750D01*
X161071000Y75281250D02*
X160462599Y74672849D01*
X160462599Y74672849D02*
X144399901Y74672849D01*
X161925000Y75281250D02*
X161071000Y75281250D01*
X125287401Y74672849D02*
X124679000Y75281250D01*
X124679000Y75281250D02*
X123825000Y75281250D01*
X141350099Y74672849D02*
X125287401Y74672849D01*
X142021000Y75343750D02*
X141350099Y74672849D01*
X142875000Y75343750D02*
X142021000Y75343750D01*
X122971000Y74577250D02*
X104837500Y74577250D01*
X104837500Y74577250D02*
X104775000Y74639750D01*
X123675000Y75281250D02*
X122971000Y74577250D01*
X104775000Y74639750D02*
X104775000Y75343750D01*
X123825000Y75281250D02*
X123675000Y75281250D01*
X86489250Y74639750D02*
X85785250Y75343750D01*
X85785250Y75343750D02*
X84931250Y75343750D01*
X103921000Y74639750D02*
X86489250Y74639750D01*
X104775000Y75343750D02*
X104625000Y75343750D01*
X83406349Y74672849D02*
X67948151Y74672849D01*
X84931250Y75343750D02*
X84077250Y75343750D01*
X84077250Y75343750D02*
X83406349Y74672849D01*
X67529000Y75343750D02*
X66675000Y75343750D01*
X67948151Y74924599D02*
X67529000Y75343750D01*
X67948151Y74672849D02*
X67948151Y74924599D01*
X42129000Y75281250D02*
X41275000Y75281250D01*
X42737401Y74672849D02*
X42129000Y75281250D01*
X65150099Y74672849D02*
X42737401Y74672849D01*
X65821000Y75343750D02*
X65150099Y74672849D01*
X66675000Y75343750D02*
X65821000Y75343750D01*
X104625000Y75343750D02*
X103937500Y74656250D01*
X103937500Y74656250D02*
X103921000Y74639750D01*
X237271000Y75343750D02*
X238125000Y75343750D01*
X236600099Y74672849D02*
X237271000Y75343750D01*
X220537401Y74672849D02*
X236600099Y74672849D01*
X219929000Y75281250D02*
X220537401Y74672849D01*
X219075000Y75281250D02*
X219929000Y75281250D01*
X110130148Y39484250D02*
X110943750Y39484250D01*
X97790000Y68508750D02*
X103937500Y74656250D01*
X97790000Y56515000D02*
X97790000Y68508750D01*
X109939750Y39484250D02*
X110943750Y39484250D01*
X97790000Y51634000D02*
X109939750Y39484250D01*
X97790000Y54610000D02*
X97790000Y51634000D01*
X288985250Y75281250D02*
X288131250Y75281250D01*
X289576151Y74690349D02*
X288985250Y75281250D01*
X329485349Y74690349D02*
X289576151Y74690349D01*
X329981000Y75186000D02*
X329485349Y74690349D01*
X330835000Y75186000D02*
X329981000Y75186000D01*
X44389750Y59531250D02*
X45243750Y59531250D01*
X42718750Y59531250D02*
X44389750Y59531250D01*
X39806250Y62443750D02*
X42718750Y59531250D01*
X75346000Y56231250D02*
X76200000Y56231250D01*
X74737599Y55622849D02*
X75346000Y56231250D01*
X46706151Y55622849D02*
X74737599Y55622849D01*
X46097750Y56231250D02*
X46706151Y55622849D01*
X45243750Y56231250D02*
X46097750Y56231250D01*
X94396000Y56231250D02*
X95250000Y56231250D01*
X93787599Y55622849D02*
X94396000Y56231250D01*
X77054000Y56231250D02*
X77662401Y55622849D01*
X77662401Y55622849D02*
X93787599Y55622849D01*
X76200000Y56231250D02*
X77054000Y56231250D01*
X113446000Y56293750D02*
X114300000Y56293750D01*
X96712401Y55622849D02*
X112775099Y55622849D01*
X112775099Y55622849D02*
X113446000Y56293750D01*
X96104000Y56231250D02*
X96712401Y55622849D01*
X115824901Y55622849D02*
X131825099Y55622849D01*
X115154000Y56293750D02*
X115824901Y55622849D01*
X132496000Y56293750D02*
X133350000Y56293750D01*
X131825099Y55622849D02*
X132496000Y56293750D01*
X114300000Y56293750D02*
X115154000Y56293750D01*
X150937599Y55622849D02*
X151546000Y56231250D01*
X134874901Y55622849D02*
X150937599Y55622849D01*
X134204000Y56293750D02*
X134874901Y55622849D01*
X151546000Y56231250D02*
X152400000Y56231250D01*
X133350000Y56293750D02*
X134204000Y56293750D01*
X169925099Y55622849D02*
X170596000Y56293750D01*
X170596000Y56293750D02*
X171450000Y56293750D01*
X153862401Y55622849D02*
X169925099Y55622849D01*
X153254000Y56231250D02*
X153862401Y55622849D01*
X152400000Y56231250D02*
X153254000Y56231250D01*
X189646000Y56231250D02*
X190500000Y56231250D01*
X172304000Y56293750D02*
X172974901Y55622849D01*
X189037599Y55622849D02*
X189646000Y56231250D01*
X172974901Y55622849D02*
X189037599Y55622849D01*
X171450000Y56293750D02*
X172304000Y56293750D01*
X208696000Y56293750D02*
X209550000Y56293750D01*
X191962401Y55622849D02*
X208025099Y55622849D01*
X191354000Y56231250D02*
X191962401Y55622849D01*
X208025099Y55622849D02*
X208696000Y56293750D01*
X190500000Y56231250D02*
X191354000Y56231250D01*
X228600000Y55652250D02*
X228600000Y56356250D01*
X228570599Y55622849D02*
X228600000Y55652250D01*
X211074901Y55622849D02*
X228570599Y55622849D01*
X210404000Y56293750D02*
X211074901Y55622849D01*
X209550000Y56293750D02*
X210404000Y56293750D01*
X247650000Y55652250D02*
X247650000Y56356250D01*
X230187401Y55622849D02*
X247620599Y55622849D01*
X247620599Y55622849D02*
X247650000Y55652250D01*
X229454000Y56356250D02*
X230187401Y55622849D01*
X228600000Y56356250D02*
X229454000Y56356250D01*
X273814349Y55622849D02*
X273843750Y55652250D01*
X249237401Y55622849D02*
X273814349Y55622849D01*
X248504000Y56356250D02*
X249237401Y55622849D01*
X247650000Y56356250D02*
X248504000Y56356250D01*
X96104000Y56231250D02*
X95250000Y56231250D01*
X96712401Y51911599D02*
X96712401Y55622849D01*
X109939750Y38684250D02*
X96712401Y51911599D01*
X110943750Y38684250D02*
X109939750Y38684250D01*
X278686151Y50809849D02*
X273843750Y55652250D01*
X273843750Y55652250D02*
X273843750Y56356250D01*
X305668349Y50809849D02*
X278686151Y50809849D01*
X306327250Y51468750D02*
X305668349Y50809849D01*
X307181250Y51468750D02*
X306327250Y51468750D01*
X330835000Y55176000D02*
X330835000Y56261000D01*
X307181250Y51468750D02*
X327127750Y51468750D01*
X327127750Y51468750D02*
X330835000Y55176000D01*
X33131250Y40543750D02*
X35718750Y40543750D01*
X30281250Y43393750D02*
X33131250Y40543750D01*
X49800000Y116743750D02*
X52387500Y116743750D01*
X46950000Y119593750D02*
X49800000Y116743750D01*
X59325000Y97693750D02*
X61912500Y97693750D01*
X56475000Y100543750D02*
X59325000Y97693750D01*
X64087500Y78643750D02*
X66675000Y78643750D01*
X61237500Y81493750D02*
X64087500Y78643750D01*
X73675000Y59531250D02*
X76200000Y59531250D01*
X70762500Y62443750D02*
X73675000Y59531250D01*
X57006250Y40481250D02*
X60325000Y40481250D01*
X54093750Y43393750D02*
X57006250Y40481250D01*
X68850000Y116743750D02*
X71437500Y116743750D01*
X66000000Y119593750D02*
X68850000Y116743750D01*
X78312500Y97756250D02*
X80962500Y97756250D01*
X75525000Y100543750D02*
X78312500Y97756250D01*
X83137500Y78643750D02*
X84931250Y78643750D01*
X80287500Y81493750D02*
X83137500Y78643750D01*
X92725000Y59531250D02*
X95250000Y59531250D01*
X89812500Y62443750D02*
X92725000Y59531250D01*
X80756250Y40543750D02*
X83343750Y40543750D01*
X77906250Y43393750D02*
X80756250Y40543750D01*
X87962500Y116681250D02*
X90487500Y116681250D01*
X85050000Y119593750D02*
X87962500Y116681250D01*
X97487500Y97631250D02*
X100012500Y97631250D01*
X94575000Y100543750D02*
X97487500Y97631250D01*
X102187500Y78643750D02*
X104775000Y78643750D01*
X99337500Y81493750D02*
X102187500Y78643750D01*
X111712500Y59593750D02*
X114269250Y59593750D01*
X108862500Y62443750D02*
X111712500Y59593750D01*
X114269250Y59593750D02*
X114300000Y59593750D01*
X106950000Y116743750D02*
X109537500Y116743750D01*
X104100000Y119593750D02*
X106950000Y116743750D01*
X116537500Y97631250D02*
X119062500Y97631250D01*
X113625000Y100543750D02*
X116537500Y97631250D01*
X121300000Y78581250D02*
X123825000Y78581250D01*
X118387500Y81493750D02*
X121300000Y78581250D01*
X130762500Y59593750D02*
X133350000Y59593750D01*
X127912500Y62443750D02*
X130762500Y59593750D01*
X126062500Y116681250D02*
X128587500Y116681250D01*
X123150000Y119593750D02*
X126062500Y116681250D01*
X135587500Y97631250D02*
X138112500Y97631250D01*
X132675000Y100543750D02*
X135587500Y97631250D01*
X140287500Y78643750D02*
X142875000Y78643750D01*
X137437500Y81493750D02*
X140287500Y78643750D01*
X149875000Y59531250D02*
X152400000Y59531250D01*
X146962500Y62443750D02*
X149875000Y59531250D01*
X152256250Y40481250D02*
X154781250Y40481250D01*
X149343750Y43393750D02*
X152256250Y40481250D01*
X145112500Y116681250D02*
X147637500Y116681250D01*
X142200000Y119593750D02*
X145112500Y116681250D01*
X154575000Y97693750D02*
X157162500Y97693750D01*
X151725000Y100543750D02*
X154575000Y97693750D01*
X159400000Y78581250D02*
X161925000Y78581250D01*
X156487500Y81493750D02*
X159400000Y78581250D01*
X168862500Y59593750D02*
X171450000Y59593750D01*
X166012500Y62443750D02*
X168862500Y59593750D01*
X164037500Y116806250D02*
X166687500Y116806250D01*
X161250000Y119593750D02*
X164037500Y116806250D01*
X173687500Y97631250D02*
X176212500Y97631250D01*
X170775000Y100543750D02*
X173687500Y97631250D01*
X178450000Y78581250D02*
X180625750Y78581250D01*
X175537500Y81493750D02*
X178450000Y78581250D01*
X187975000Y59531250D02*
X190500000Y59531250D01*
X185062500Y62443750D02*
X187975000Y59531250D01*
X183212500Y116681250D02*
X185737500Y116681250D01*
X180300000Y119593750D02*
X183212500Y116681250D01*
X192737500Y97631250D02*
X195262500Y97631250D01*
X189825000Y100543750D02*
X192737500Y97631250D01*
X197437500Y78643750D02*
X200025000Y78643750D01*
X194587500Y81493750D02*
X197437500Y78643750D01*
X206962500Y59593750D02*
X209550000Y59593750D01*
X204112500Y62443750D02*
X206962500Y59593750D01*
X202137500Y116806250D02*
X204787500Y116806250D01*
X199350000Y119593750D02*
X202137500Y116806250D01*
X211787500Y97631250D02*
X214312500Y97631250D01*
X208875000Y100543750D02*
X211787500Y97631250D01*
X216550000Y78581250D02*
X219075000Y78581250D01*
X213637500Y81493750D02*
X216550000Y78581250D01*
X225950000Y59656250D02*
X228600000Y59656250D01*
X223162500Y62443750D02*
X225950000Y59656250D01*
X223693750Y40481250D02*
X227012500Y40481250D01*
X220781250Y43393750D02*
X223693750Y40481250D01*
X221187500Y116806250D02*
X223837500Y116806250D01*
X218400000Y119593750D02*
X221187500Y116806250D01*
X230775000Y97693750D02*
X233362500Y97693750D01*
X227925000Y100543750D02*
X230775000Y97693750D01*
X235537500Y78643750D02*
X238125000Y78643750D01*
X232687500Y81493750D02*
X235537500Y78643750D01*
X245000000Y59656250D02*
X247650000Y59656250D01*
X242212500Y62443750D02*
X245000000Y59656250D01*
X247506250Y40481250D02*
X250825000Y40481250D01*
X244593750Y43393750D02*
X247506250Y40481250D01*
X240237500Y116806250D02*
X242887500Y116806250D01*
X237450000Y119593750D02*
X240237500Y116806250D01*
X250266500Y100543750D02*
X246975000Y100543750D01*
X252412500Y98397750D02*
X250266500Y100543750D01*
X252412500Y97693750D02*
X252412500Y98397750D01*
X254587500Y78643750D02*
X257175000Y78643750D01*
X251737500Y81493750D02*
X254587500Y78643750D01*
D24*
X35619557Y120678501D02*
X37123000Y119175058D01*
X33674599Y120678501D02*
X35619557Y120678501D01*
X37123000Y119175058D02*
X37123000Y117849000D01*
X32382499Y119386401D02*
X33674599Y120678501D01*
X32382499Y118869499D02*
X32382499Y119386401D01*
X32223000Y118710000D02*
X32382499Y118869499D01*
X32223000Y117849000D02*
X32223000Y118710000D01*
X41719808Y110871000D02*
X43448000Y110871000D01*
X43448000Y110871000D02*
X44323000Y110871000D01*
X38104499Y115701191D02*
X38104499Y114486309D01*
X37572191Y116233499D02*
X38104499Y115701191D01*
X38104499Y114486309D02*
X41719808Y110871000D01*
X37285599Y116233499D02*
X37572191Y116233499D01*
X37123000Y116396098D02*
X37285599Y116233499D01*
X37123000Y117849000D02*
X37123000Y116396098D01*
D23*
X116643750Y33784250D02*
X116643750Y32938183D01*
X110871000Y27813000D02*
X110871000Y27813000D01*
X111518567Y27813000D02*
X116643750Y32938183D01*
X110871000Y27813000D02*
X111518567Y27813000D01*
X115843750Y33784250D02*
X115843750Y32780250D01*
X111892500Y28829000D02*
X115843750Y32780250D01*
X110871000Y28829000D02*
X111892500Y28829000D01*
X115043750Y33784250D02*
X115043750Y32780250D01*
X112108500Y29845000D02*
X115043750Y32780250D01*
X110871000Y29845000D02*
X112108500Y29845000D01*
X112261102Y30988000D02*
X111436685Y30988000D01*
X114243750Y32970648D02*
X112261102Y30988000D01*
X111436685Y30988000D02*
X110871000Y30988000D01*
X114243750Y33784250D02*
X114243750Y32970648D01*
X103060500Y49778185D02*
X103060500Y54673500D01*
X103060500Y49212500D02*
X103060500Y49778185D01*
X111436685Y31877000D02*
X110871000Y31877000D01*
X113443750Y32970648D02*
X112350102Y31877000D01*
X112350102Y31877000D02*
X111436685Y31877000D01*
X113443750Y33784250D02*
X113443750Y32970648D01*
X105952393Y46612605D02*
X108981394Y49641606D01*
X132207000Y28067000D02*
X131953000Y28067000D01*
X119043750Y29447482D02*
X121059232Y27432000D01*
X119043750Y33784250D02*
X119043750Y29447482D01*
X121059232Y27432000D02*
X131006315Y27432000D01*
X131641315Y28067000D02*
X132207000Y28067000D01*
X131006315Y27432000D02*
X131641315Y28067000D01*
X118243750Y32780250D02*
X118243750Y33784250D01*
X118243750Y29605415D02*
X118243750Y32780250D01*
X121198164Y26651001D02*
X118243750Y29605415D01*
X131807001Y26651001D02*
X121198164Y26651001D01*
X132207000Y27051000D02*
X131807001Y26651001D01*
X117443750Y32780250D02*
X117443750Y33784250D01*
X117443750Y29763349D02*
X117443750Y32780250D01*
X121172099Y26035000D02*
X117443750Y29763349D01*
X132207000Y26035000D02*
X121172099Y26035000D01*
X124618750Y54768750D02*
X191293750Y54768750D01*
X118243750Y45184250D02*
X118243750Y48393750D01*
X118243750Y48393750D02*
X124618750Y54768750D01*
X119043750Y46188250D02*
X119043750Y45184250D01*
X119043750Y47041817D02*
X119043750Y46188250D01*
X125722933Y53721000D02*
X119043750Y47041817D01*
X208756250Y53721000D02*
X125722933Y53721000D01*
X119843750Y46188250D02*
X119883500Y46228000D01*
X119843750Y45184250D02*
X119843750Y46188250D01*
X119843750Y46188250D02*
X119843750Y47199750D01*
X119843750Y47199750D02*
X125603000Y52959000D01*
X227584000Y52832000D02*
X227584000Y52832000D01*
X125730000Y52832000D02*
X227584000Y52832000D01*
X125603000Y52959000D02*
X125730000Y52832000D01*
X168719500Y51593750D02*
X252412500Y51593750D01*
X168497250Y51816000D02*
X168719500Y51593750D01*
X120643750Y45184250D02*
X120643750Y46856750D01*
X254127000Y53086000D02*
X252412500Y51593750D01*
X120643750Y46856750D02*
X125476000Y51816000D01*
X125476000Y51816000D02*
X168497250Y51816000D01*
X151351961Y33562999D02*
X152002723Y34213761D01*
X152002723Y34213761D02*
X250393239Y34213761D01*
X126711068Y33562999D02*
X151351961Y33562999D01*
X123189817Y37084250D02*
X126711068Y33562999D01*
X122343750Y37084250D02*
X123189817Y37084250D01*
X123347750Y36284250D02*
X123698000Y35934000D01*
X122343750Y36284250D02*
X123347750Y36284250D01*
X123698000Y35934000D02*
X123698000Y34243066D01*
X123698000Y34243066D02*
X126105317Y31835749D01*
X287274000Y30353000D02*
X287274000Y30353000D01*
X286708315Y30353000D02*
X287274000Y30353000D01*
X253178038Y30353000D02*
X286708315Y30353000D01*
X249771287Y33759751D02*
X253178038Y30353000D01*
X194031167Y31835749D02*
X195955169Y33759751D01*
X195955169Y33759751D02*
X249771287Y33759751D01*
X126105317Y31835749D02*
X194031167Y31835749D01*
X122343750Y35484250D02*
X122343750Y34955250D01*
X122343750Y34955250D02*
X125917261Y31381739D01*
X305320739Y29603739D02*
X305320739Y29603739D01*
X196409179Y29603739D02*
X287794739Y29603739D01*
X125917261Y31381739D02*
X194631179Y31381739D01*
X287667739Y29603739D02*
X287794739Y29603739D01*
X194631179Y31381739D02*
X196409179Y29603739D01*
X287794739Y29603739D02*
X305320739Y29603739D01*
X34671000Y115824000D02*
X34923000Y116076000D01*
X34163000Y115824000D02*
X34417000Y115824000D01*
X33923000Y117849000D02*
X33923000Y116064000D01*
X34923000Y116076000D02*
X34923000Y117849000D01*
X33923000Y116064000D02*
X34163000Y115824000D01*
X34417000Y115824000D02*
X34671000Y115824000D01*
X34290000Y111760000D02*
X33020000Y110490000D01*
X34290000Y112014000D02*
X34290000Y111760000D01*
X41275000Y94488000D02*
X41275000Y94615000D01*
X50984685Y90932000D02*
X70231000Y90932000D01*
X50419000Y90932000D02*
X50984685Y90932000D01*
X113188000Y47244000D02*
X110674685Y47244000D01*
X114243750Y46188250D02*
X113188000Y47244000D01*
X110674685Y47244000D02*
X110109000Y47244000D01*
X114243750Y45184250D02*
X114243750Y46188250D01*
X41275000Y99610000D02*
X41275000Y95053685D01*
X33020000Y107865000D02*
X41275000Y99610000D01*
X41275000Y95053685D02*
X41275000Y94488000D01*
X33020000Y108440000D02*
X33020000Y107865000D01*
X34423000Y119640000D02*
X34423000Y117849000D01*
X34671000Y119888000D02*
X34423000Y119640000D01*
X35423000Y117849000D02*
X35423000Y119624000D01*
X35159000Y119888000D02*
X34925000Y119888000D01*
X35423000Y119624000D02*
X35159000Y119888000D01*
X34925000Y119888000D02*
X34671000Y119888000D01*
X35433000Y111905000D02*
X36830000Y110508000D01*
X35433000Y112014000D02*
X35433000Y111905000D01*
X69665315Y92075000D02*
X50419000Y92075000D01*
X70231000Y92075000D02*
X69665315Y92075000D01*
X112845000Y48387000D02*
X110674685Y48387000D01*
X110674685Y48387000D02*
X110109000Y48387000D01*
X115043750Y46188250D02*
X112845000Y48387000D01*
X115043750Y45184250D02*
X115043750Y46188250D01*
X42545000Y102168000D02*
X42545000Y95053685D01*
X36830000Y107883000D02*
X42545000Y102168000D01*
X42545000Y95053685D02*
X42545000Y94488000D01*
X36830000Y108458000D02*
X36830000Y107883000D01*
X124045750Y47062500D02*
X121062750Y44079500D01*
X124745750Y47062500D02*
X124045750Y47062500D01*
X121339750Y42684250D02*
X122343750Y42684250D01*
X121062750Y42961250D02*
X121339750Y42684250D01*
X121062750Y44079500D02*
X121062750Y42961250D01*
X131828750Y47062500D02*
X131912750Y46978500D01*
X124745750Y47062500D02*
X131828750Y47062500D01*
X112582500Y33845500D02*
X112643750Y33784250D01*
X107600750Y33845500D02*
X112582500Y33845500D01*
X249971000Y36477250D02*
X228571750Y36477250D01*
X250825000Y37181250D02*
X250675000Y37181250D01*
X250675000Y37181250D02*
X249971000Y36477250D01*
X227867750Y37181250D02*
X227012500Y37181250D01*
X228571750Y36477250D02*
X227867750Y37181250D01*
X227012500Y37181250D02*
X226862500Y37181250D01*
X36572750Y37243750D02*
X35718750Y37243750D01*
X37243651Y36572849D02*
X36572750Y37243750D01*
X58862599Y36572849D02*
X37243651Y36572849D01*
X59471000Y37181250D02*
X58862599Y36572849D01*
X60325000Y37181250D02*
X59471000Y37181250D01*
X227012500Y37181250D02*
X227012500Y37306250D01*
X155635250Y37181250D02*
X154781250Y37181250D01*
X156339250Y36477250D02*
X155635250Y37181250D01*
X226183500Y36477250D02*
X156339250Y36477250D01*
X227012500Y37306250D02*
X226183500Y36477250D01*
X61179000Y37181250D02*
X60325000Y37181250D01*
X61787401Y36572849D02*
X61179000Y37181250D01*
X81818849Y36572849D02*
X61787401Y36572849D01*
X82489750Y37243750D02*
X81818849Y36572849D01*
X83343750Y37243750D02*
X82489750Y37243750D01*
X107998482Y37884250D02*
X107383616Y37269384D01*
X110943750Y37884250D02*
X107998482Y37884250D01*
X109939750Y37884250D02*
X110943750Y37884250D01*
X83343750Y37243750D02*
X85202750Y37243750D01*
X85843250Y37884250D02*
X109939750Y37884250D01*
X85202750Y37243750D02*
X85843250Y37884250D01*
X143290999Y25307999D02*
X146558000Y28575000D01*
X106573740Y32659740D02*
X106573740Y31034298D01*
X112300039Y25307999D02*
X143290999Y25307999D01*
X106573740Y31034298D02*
X112300039Y25307999D01*
X153894250Y37181250D02*
X151003000Y34290000D01*
X154781250Y37181250D02*
X153894250Y37181250D01*
X250825000Y36477250D02*
X250825000Y37181250D01*
X256164651Y31137599D02*
X250825000Y36477250D01*
X286664849Y31137599D02*
X256164651Y31137599D01*
X287277250Y31750000D02*
X286664849Y31137599D01*
X288131250Y31750000D02*
X287277250Y31750000D01*
X289597651Y31137599D02*
X288985250Y31750000D01*
X305365599Y31137599D02*
X289597651Y31137599D01*
X306486000Y32258000D02*
X305365599Y31137599D01*
X288985250Y31750000D02*
X288131250Y31750000D01*
X307340000Y32258000D02*
X306486000Y32258000D01*
X308641651Y31810349D02*
X324959349Y31810349D01*
X308194000Y32258000D02*
X308641651Y31810349D01*
X325409000Y32260000D02*
X326263000Y32260000D01*
X324959349Y31810349D02*
X325409000Y32260000D01*
X307340000Y32258000D02*
X308194000Y32258000D01*
X271193750Y59656250D02*
X273843750Y59656250D01*
X268406250Y62443750D02*
X271193750Y59656250D01*
X287987500Y116681250D02*
X290512500Y116681250D01*
X285075000Y119593750D02*
X287987500Y116681250D01*
X292687500Y97693750D02*
X295275000Y97693750D01*
X289837500Y100543750D02*
X292687500Y97693750D01*
X285606250Y78581250D02*
X288131250Y78581250D01*
X282693750Y81493750D02*
X285606250Y78581250D01*
X286948500Y35050000D02*
X282787750Y39210750D01*
X288131250Y35050000D02*
X286948500Y35050000D01*
X259350000Y116743750D02*
X261937500Y116743750D01*
X256500000Y119593750D02*
X259350000Y116743750D01*
X268937500Y97631250D02*
X271462500Y97631250D01*
X266025000Y100543750D02*
X268937500Y97631250D01*
X304605750Y54768750D02*
X307181250Y54768750D01*
X301743750Y57630750D02*
X304605750Y54768750D01*
X302363750Y38631250D02*
X301743750Y38631250D01*
X305437000Y35558000D02*
X302363750Y38631250D01*
X307340000Y35558000D02*
X305437000Y35558000D01*
X325556250Y120151250D02*
X325596250Y120191250D01*
X325556250Y119611250D02*
X325556250Y120151250D01*
X326699750Y119611250D02*
X325556250Y119611250D01*
X329854000Y116457000D02*
X326699750Y119611250D01*
X330708000Y116457000D02*
X329854000Y116457000D01*
X326176250Y100561250D02*
X325556250Y100561250D01*
X329076500Y97661000D02*
X326176250Y100561250D01*
X330962000Y97661000D02*
X329076500Y97661000D01*
X329201500Y78486000D02*
X325596250Y82091250D01*
X330835000Y78486000D02*
X329201500Y78486000D01*
X329059500Y59561000D02*
X325596750Y63023750D01*
X330835000Y59561000D02*
X329059500Y59561000D01*
X321733500Y38631250D02*
X320793750Y38631250D01*
X322337750Y38631250D02*
X320793750Y38631250D01*
X325409000Y35560000D02*
X322337750Y38631250D01*
X326263000Y35560000D02*
X325409000Y35560000D01*
X36423000Y116370000D02*
X36423000Y117849000D01*
X36423000Y116358000D02*
X36423000Y116370000D01*
X36830000Y115951000D02*
X36423000Y116358000D01*
X36830000Y115207000D02*
X36830000Y115951000D01*
X33423000Y116370000D02*
X33423000Y117849000D01*
X33020000Y115764000D02*
X33423000Y116167000D01*
X33423000Y116167000D02*
X33423000Y116370000D01*
X33020000Y115189000D02*
X33020000Y115764000D01*
G36*
X106388390Y36967486D02*
G01*
X106421518Y36887509D01*
X106370213Y36824994D01*
X106311248Y36714680D01*
X106274938Y36594982D01*
X106262678Y36470500D01*
X106265750Y36181250D01*
X106424500Y36022500D01*
X107473750Y36022500D01*
X107473750Y36042500D01*
X107727750Y36042500D01*
X107727750Y36022500D01*
X108777000Y36022500D01*
X108935750Y36181250D01*
X108938822Y36470500D01*
X108926562Y36594982D01*
X108890252Y36714680D01*
X108831287Y36824994D01*
X108751935Y36921685D01*
X108655244Y37001037D01*
X108544930Y37060002D01*
X108425232Y37096312D01*
X108404866Y37098318D01*
X108409626Y37122250D01*
X109555678Y37122250D01*
X109555678Y36809250D01*
X109567938Y36684768D01*
X109568296Y36683587D01*
X109558750Y36570000D01*
X109650833Y36477917D01*
X109663213Y36454756D01*
X109742565Y36358065D01*
X109832509Y36284250D01*
X109742565Y36210435D01*
X109663213Y36113744D01*
X109650833Y36090583D01*
X109558750Y35998500D01*
X109568296Y35884913D01*
X109567938Y35883732D01*
X109555678Y35759250D01*
X109555678Y35209250D01*
X109567938Y35084768D01*
X109604248Y34965070D01*
X109663213Y34854756D01*
X109742565Y34758065D01*
X109839256Y34678713D01*
X109949570Y34619748D01*
X109989946Y34607500D01*
X108819295Y34607500D01*
X108789155Y34663887D01*
X108678712Y34798462D01*
X108672156Y34803842D01*
X108751935Y34869315D01*
X108831287Y34966006D01*
X108890252Y35076320D01*
X108926562Y35196018D01*
X108938822Y35320500D01*
X108935750Y35609750D01*
X108777000Y35768500D01*
X107727750Y35768500D01*
X107727750Y35748500D01*
X107473750Y35748500D01*
X107473750Y35768500D01*
X106424500Y35768500D01*
X106265750Y35609750D01*
X106262678Y35320500D01*
X106274938Y35196018D01*
X106311248Y35076320D01*
X106370213Y34966006D01*
X106449565Y34869315D01*
X106529344Y34803842D01*
X106522788Y34798462D01*
X106412345Y34663887D01*
X106330278Y34510351D01*
X106279742Y34343755D01*
X106262678Y34170501D01*
X106262678Y33651170D01*
X106083484Y33576945D01*
X105913966Y33463677D01*
X105769803Y33319514D01*
X105656535Y33149996D01*
X105578514Y32961638D01*
X105538740Y32761679D01*
X105538740Y32557801D01*
X105578514Y32357842D01*
X105656535Y32169484D01*
X105769803Y31999966D01*
X105811740Y31958029D01*
X105811741Y31071731D01*
X105808054Y31034298D01*
X105822767Y30884920D01*
X105866339Y30741283D01*
X105937095Y30608906D01*
X105983387Y30552500D01*
X106032319Y30492876D01*
X106061389Y30469019D01*
X111264158Y25266250D01*
X103142786Y25266250D01*
X103197675Y37122250D01*
X106357606Y37122250D01*
X106388390Y36967486D01*
G37*
X106388390Y36967486D02*
X106421518Y36887509D01*
X106370213Y36824994D01*
X106311248Y36714680D01*
X106274938Y36594982D01*
X106262678Y36470500D01*
X106265750Y36181250D01*
X106424500Y36022500D01*
X107473750Y36022500D01*
X107473750Y36042500D01*
X107727750Y36042500D01*
X107727750Y36022500D01*
X108777000Y36022500D01*
X108935750Y36181250D01*
X108938822Y36470500D01*
X108926562Y36594982D01*
X108890252Y36714680D01*
X108831287Y36824994D01*
X108751935Y36921685D01*
X108655244Y37001037D01*
X108544930Y37060002D01*
X108425232Y37096312D01*
X108404866Y37098318D01*
X108409626Y37122250D01*
X109555678Y37122250D01*
X109555678Y36809250D01*
X109567938Y36684768D01*
X109568296Y36683587D01*
X109558750Y36570000D01*
X109650833Y36477917D01*
X109663213Y36454756D01*
X109742565Y36358065D01*
X109832509Y36284250D01*
X109742565Y36210435D01*
X109663213Y36113744D01*
X109650833Y36090583D01*
X109558750Y35998500D01*
X109568296Y35884913D01*
X109567938Y35883732D01*
X109555678Y35759250D01*
X109555678Y35209250D01*
X109567938Y35084768D01*
X109604248Y34965070D01*
X109663213Y34854756D01*
X109742565Y34758065D01*
X109839256Y34678713D01*
X109949570Y34619748D01*
X109989946Y34607500D01*
X108819295Y34607500D01*
X108789155Y34663887D01*
X108678712Y34798462D01*
X108672156Y34803842D01*
X108751935Y34869315D01*
X108831287Y34966006D01*
X108890252Y35076320D01*
X108926562Y35196018D01*
X108938822Y35320500D01*
X108935750Y35609750D01*
X108777000Y35768500D01*
X107727750Y35768500D01*
X107727750Y35748500D01*
X107473750Y35748500D01*
X107473750Y35768500D01*
X106424500Y35768500D01*
X106265750Y35609750D01*
X106262678Y35320500D01*
X106274938Y35196018D01*
X106311248Y35076320D01*
X106370213Y34966006D01*
X106449565Y34869315D01*
X106529344Y34803842D01*
X106522788Y34798462D01*
X106412345Y34663887D01*
X106330278Y34510351D01*
X106279742Y34343755D01*
X106262678Y34170501D01*
X106262678Y33651170D01*
X106083484Y33576945D01*
X105913966Y33463677D01*
X105769803Y33319514D01*
X105656535Y33149996D01*
X105578514Y32961638D01*
X105538740Y32761679D01*
X105538740Y32557801D01*
X105578514Y32357842D01*
X105656535Y32169484D01*
X105769803Y31999966D01*
X105811740Y31958029D01*
X105811741Y31071731D01*
X105808054Y31034298D01*
X105822767Y30884920D01*
X105866339Y30741283D01*
X105937095Y30608906D01*
X105983387Y30552500D01*
X106032319Y30492876D01*
X106061389Y30469019D01*
X111264158Y25266250D01*
X103142786Y25266250D01*
X103197675Y37122250D01*
X106357606Y37122250D01*
X106388390Y36967486D01*
G36*
X121593750Y34571178D02*
G01*
X121685019Y34571178D01*
X121707105Y34529858D01*
X121752989Y34473949D01*
X121802329Y34413828D01*
X121831399Y34389971D01*
X124594111Y31627259D01*
X124491750Y31626500D01*
X124333000Y31467750D01*
X124333000Y30543500D01*
X125382250Y30543500D01*
X125432875Y30594125D01*
X125474500Y30552500D01*
X126523750Y30552500D01*
X126523750Y30572500D01*
X126777750Y30572500D01*
X126777750Y30552500D01*
X127827000Y30552500D01*
X127836000Y30561500D01*
X128809750Y30561500D01*
X128809750Y30581500D01*
X129063750Y30581500D01*
X129063750Y30561500D01*
X130113000Y30561500D01*
X130171239Y30619739D01*
X137497228Y30619739D01*
X137518389Y26069999D01*
X133242000Y26069999D01*
X133242000Y26136939D01*
X133202226Y26336898D01*
X133124205Y26525256D01*
X133112349Y26543000D01*
X133124205Y26560744D01*
X133202226Y26749102D01*
X133242000Y26949061D01*
X133242000Y27152939D01*
X133202226Y27352898D01*
X133124205Y27541256D01*
X133112349Y27559000D01*
X133124205Y27576744D01*
X133202226Y27765102D01*
X133242000Y27965061D01*
X133242000Y28168939D01*
X133202226Y28368898D01*
X133124205Y28557256D01*
X133010937Y28726774D01*
X132866774Y28870937D01*
X132697256Y28984205D01*
X132508898Y29062226D01*
X132308939Y29102000D01*
X132105061Y29102000D01*
X131905102Y29062226D01*
X131716744Y28984205D01*
X131547226Y28870937D01*
X131494517Y28818228D01*
X131491937Y28817974D01*
X131348300Y28774402D01*
X131286679Y28741465D01*
X131215922Y28703645D01*
X131173534Y28668857D01*
X131099893Y28608422D01*
X131076031Y28579346D01*
X130690685Y28194000D01*
X130274822Y28194000D01*
X130274822Y28709501D01*
X130257758Y28882755D01*
X130207222Y29049351D01*
X130125155Y29202887D01*
X130014712Y29337462D01*
X130008156Y29342842D01*
X130087935Y29408315D01*
X130167287Y29505006D01*
X130226252Y29615320D01*
X130262562Y29735018D01*
X130274822Y29859500D01*
X130271750Y30148750D01*
X130113000Y30307500D01*
X129063750Y30307500D01*
X129063750Y30287500D01*
X128809750Y30287500D01*
X128809750Y30307500D01*
X127760500Y30307500D01*
X127751500Y30298500D01*
X126777750Y30298500D01*
X126777750Y30278500D01*
X126523750Y30278500D01*
X126523750Y30298500D01*
X125474500Y30298500D01*
X125423875Y30247875D01*
X125382250Y30289500D01*
X124333000Y30289500D01*
X124333000Y30269500D01*
X124079000Y30269500D01*
X124079000Y30289500D01*
X123029750Y30289500D01*
X122960875Y30220625D01*
X122874000Y30307500D01*
X121824750Y30307500D01*
X121824750Y30287500D01*
X121570750Y30287500D01*
X121570750Y30307500D01*
X121550750Y30307500D01*
X121550750Y30561500D01*
X121570750Y30561500D01*
X121570750Y31485750D01*
X121824750Y31485750D01*
X121824750Y30561500D01*
X122874000Y30561500D01*
X122942875Y30630375D01*
X123029750Y30543500D01*
X124079000Y30543500D01*
X124079000Y31467750D01*
X123920250Y31626500D01*
X123506000Y31629572D01*
X123381518Y31617312D01*
X123261820Y31581002D01*
X123151506Y31522037D01*
X123054815Y31442685D01*
X122975463Y31345994D01*
X122956686Y31310865D01*
X122928287Y31363994D01*
X122848935Y31460685D01*
X122752244Y31540037D01*
X122641930Y31599002D01*
X122522232Y31635312D01*
X122397750Y31647572D01*
X121983500Y31644500D01*
X121824750Y31485750D01*
X121570750Y31485750D01*
X121412000Y31644500D01*
X120997750Y31647572D01*
X120873268Y31635312D01*
X120753570Y31599002D01*
X120669250Y31553931D01*
X120669250Y32399250D01*
X120770752Y32399250D01*
X120770752Y32557998D01*
X120929500Y32399250D01*
X121046381Y32409073D01*
X121165895Y32445985D01*
X121275911Y32505504D01*
X121372201Y32585342D01*
X121451066Y32682432D01*
X121509474Y32793042D01*
X121545180Y32912921D01*
X121556814Y33037463D01*
X121553750Y33498500D01*
X121395000Y33657250D01*
X120770750Y33657250D01*
X120770750Y33637250D01*
X120756822Y33637250D01*
X120756822Y33931250D01*
X120770750Y33931250D01*
X120770750Y33911250D01*
X121395000Y33911250D01*
X121553750Y34070000D01*
X121556814Y34531037D01*
X121552686Y34575222D01*
X121593750Y34571178D01*
G37*
X121593750Y34571178D02*
X121685019Y34571178D01*
X121707105Y34529858D01*
X121752989Y34473949D01*
X121802329Y34413828D01*
X121831399Y34389971D01*
X124594111Y31627259D01*
X124491750Y31626500D01*
X124333000Y31467750D01*
X124333000Y30543500D01*
X125382250Y30543500D01*
X125432875Y30594125D01*
X125474500Y30552500D01*
X126523750Y30552500D01*
X126523750Y30572500D01*
X126777750Y30572500D01*
X126777750Y30552500D01*
X127827000Y30552500D01*
X127836000Y30561500D01*
X128809750Y30561500D01*
X128809750Y30581500D01*
X129063750Y30581500D01*
X129063750Y30561500D01*
X130113000Y30561500D01*
X130171239Y30619739D01*
X137497228Y30619739D01*
X137518389Y26069999D01*
X133242000Y26069999D01*
X133242000Y26136939D01*
X133202226Y26336898D01*
X133124205Y26525256D01*
X133112349Y26543000D01*
X133124205Y26560744D01*
X133202226Y26749102D01*
X133242000Y26949061D01*
X133242000Y27152939D01*
X133202226Y27352898D01*
X133124205Y27541256D01*
X133112349Y27559000D01*
X133124205Y27576744D01*
X133202226Y27765102D01*
X133242000Y27965061D01*
X133242000Y28168939D01*
X133202226Y28368898D01*
X133124205Y28557256D01*
X133010937Y28726774D01*
X132866774Y28870937D01*
X132697256Y28984205D01*
X132508898Y29062226D01*
X132308939Y29102000D01*
X132105061Y29102000D01*
X131905102Y29062226D01*
X131716744Y28984205D01*
X131547226Y28870937D01*
X131494517Y28818228D01*
X131491937Y28817974D01*
X131348300Y28774402D01*
X131286679Y28741465D01*
X131215922Y28703645D01*
X131173534Y28668857D01*
X131099893Y28608422D01*
X131076031Y28579346D01*
X130690685Y28194000D01*
X130274822Y28194000D01*
X130274822Y28709501D01*
X130257758Y28882755D01*
X130207222Y29049351D01*
X130125155Y29202887D01*
X130014712Y29337462D01*
X130008156Y29342842D01*
X130087935Y29408315D01*
X130167287Y29505006D01*
X130226252Y29615320D01*
X130262562Y29735018D01*
X130274822Y29859500D01*
X130271750Y30148750D01*
X130113000Y30307500D01*
X129063750Y30307500D01*
X129063750Y30287500D01*
X128809750Y30287500D01*
X128809750Y30307500D01*
X127760500Y30307500D01*
X127751500Y30298500D01*
X126777750Y30298500D01*
X126777750Y30278500D01*
X126523750Y30278500D01*
X126523750Y30298500D01*
X125474500Y30298500D01*
X125423875Y30247875D01*
X125382250Y30289500D01*
X124333000Y30289500D01*
X124333000Y30269500D01*
X124079000Y30269500D01*
X124079000Y30289500D01*
X123029750Y30289500D01*
X122960875Y30220625D01*
X122874000Y30307500D01*
X121824750Y30307500D01*
X121824750Y30287500D01*
X121570750Y30287500D01*
X121570750Y30307500D01*
X121550750Y30307500D01*
X121550750Y30561500D01*
X121570750Y30561500D01*
X121570750Y31485750D01*
X121824750Y31485750D01*
X121824750Y30561500D01*
X122874000Y30561500D01*
X122942875Y30630375D01*
X123029750Y30543500D01*
X124079000Y30543500D01*
X124079000Y31467750D01*
X123920250Y31626500D01*
X123506000Y31629572D01*
X123381518Y31617312D01*
X123261820Y31581002D01*
X123151506Y31522037D01*
X123054815Y31442685D01*
X122975463Y31345994D01*
X122956686Y31310865D01*
X122928287Y31363994D01*
X122848935Y31460685D01*
X122752244Y31540037D01*
X122641930Y31599002D01*
X122522232Y31635312D01*
X122397750Y31647572D01*
X121983500Y31644500D01*
X121824750Y31485750D01*
X121570750Y31485750D01*
X121412000Y31644500D01*
X120997750Y31647572D01*
X120873268Y31635312D01*
X120753570Y31599002D01*
X120669250Y31553931D01*
X120669250Y32399250D01*
X120770752Y32399250D01*
X120770752Y32557998D01*
X120929500Y32399250D01*
X121046381Y32409073D01*
X121165895Y32445985D01*
X121275911Y32505504D01*
X121372201Y32585342D01*
X121451066Y32682432D01*
X121509474Y32793042D01*
X121545180Y32912921D01*
X121556814Y33037463D01*
X121553750Y33498500D01*
X121395000Y33657250D01*
X120770750Y33657250D01*
X120770750Y33637250D01*
X120756822Y33637250D01*
X120756822Y33931250D01*
X120770750Y33931250D01*
X120770750Y33911250D01*
X121395000Y33911250D01*
X121553750Y34070000D01*
X121556814Y34531037D01*
X121552686Y34575222D01*
X121593750Y34571178D01*
G36*
X134694203Y48397504D02*
G01*
X134611565Y48329685D01*
X134532213Y48232994D01*
X134473248Y48122680D01*
X134436938Y48002982D01*
X134424678Y47878500D01*
X134424678Y46078500D01*
X134436938Y45954018D01*
X134473248Y45834320D01*
X134532213Y45724006D01*
X134611565Y45627315D01*
X134708256Y45547963D01*
X134818570Y45488998D01*
X134938268Y45452688D01*
X135062750Y45440428D01*
X136162750Y45440428D01*
X136287232Y45452688D01*
X136406930Y45488998D01*
X136517244Y45547963D01*
X136613935Y45627315D01*
X136693287Y45724006D01*
X136752252Y45834320D01*
X136788562Y45954018D01*
X136800822Y46078500D01*
X136800822Y47878500D01*
X136788562Y48002982D01*
X136752252Y48122680D01*
X136693287Y48232994D01*
X136613935Y48329685D01*
X136539594Y48390695D01*
X137414587Y48387466D01*
X137479994Y34324999D01*
X130410903Y34324999D01*
X130409750Y34480500D01*
X130251000Y34639250D01*
X129326750Y34639250D01*
X129326750Y34619250D01*
X129072750Y34619250D01*
X129072750Y34639250D01*
X129052750Y34639250D01*
X129052750Y34893250D01*
X129072750Y34893250D01*
X129072750Y35942500D01*
X129326750Y35942500D01*
X129326750Y34893250D01*
X130251000Y34893250D01*
X130409750Y35052000D01*
X130412822Y35466250D01*
X130400562Y35590732D01*
X130364252Y35710430D01*
X130305287Y35820744D01*
X130225935Y35917435D01*
X130129244Y35996787D01*
X130018930Y36055752D01*
X129981774Y36067023D01*
X130150750Y36066178D01*
X130275232Y36078438D01*
X130394930Y36114748D01*
X130505244Y36173713D01*
X130601935Y36253065D01*
X130681287Y36349756D01*
X130740252Y36460070D01*
X130776562Y36579768D01*
X130788822Y36704250D01*
X130785750Y37468500D01*
X130627000Y37627250D01*
X129377750Y37627250D01*
X129377750Y36228000D01*
X129504300Y36101450D01*
X129485500Y36101250D01*
X129326750Y35942500D01*
X129072750Y35942500D01*
X128946095Y36069155D01*
X128965000Y36069250D01*
X129123750Y36228000D01*
X129123750Y37627250D01*
X129103750Y37627250D01*
X129103750Y37881250D01*
X129123750Y37881250D01*
X129123750Y37901250D01*
X129377750Y37901250D01*
X129377750Y37881250D01*
X130627000Y37881250D01*
X130785750Y38040000D01*
X130788822Y38804250D01*
X130776562Y38928732D01*
X130740252Y39048430D01*
X130681287Y39158744D01*
X130643941Y39204250D01*
X130681287Y39249756D01*
X130740252Y39360070D01*
X130776562Y39479768D01*
X130788822Y39604250D01*
X130788822Y39605184D01*
X130832213Y39524006D01*
X130911565Y39427315D01*
X131008256Y39347963D01*
X131118570Y39288998D01*
X131238268Y39252688D01*
X131362750Y39240428D01*
X132462750Y39240428D01*
X132587232Y39252688D01*
X132706930Y39288998D01*
X132817244Y39347963D01*
X132913935Y39427315D01*
X132993287Y39524006D01*
X133052252Y39634320D01*
X133088562Y39754018D01*
X133100822Y39878500D01*
X134424678Y39878500D01*
X134436938Y39754018D01*
X134473248Y39634320D01*
X134532213Y39524006D01*
X134611565Y39427315D01*
X134708256Y39347963D01*
X134818570Y39288998D01*
X134938268Y39252688D01*
X135062750Y39240428D01*
X135327000Y39243500D01*
X135485750Y39402250D01*
X135485750Y40651500D01*
X135739750Y40651500D01*
X135739750Y39402250D01*
X135898500Y39243500D01*
X136162750Y39240428D01*
X136287232Y39252688D01*
X136406930Y39288998D01*
X136517244Y39347963D01*
X136613935Y39427315D01*
X136693287Y39524006D01*
X136752252Y39634320D01*
X136788562Y39754018D01*
X136800822Y39878500D01*
X136797750Y40492750D01*
X136639000Y40651500D01*
X135739750Y40651500D01*
X135485750Y40651500D01*
X134586500Y40651500D01*
X134427750Y40492750D01*
X134424678Y39878500D01*
X133100822Y39878500D01*
X133100822Y41678500D01*
X134424678Y41678500D01*
X134427750Y41064250D01*
X134586500Y40905500D01*
X135485750Y40905500D01*
X135485750Y42154750D01*
X135739750Y42154750D01*
X135739750Y40905500D01*
X136639000Y40905500D01*
X136797750Y41064250D01*
X136800822Y41678500D01*
X136788562Y41802982D01*
X136752252Y41922680D01*
X136693287Y42032994D01*
X136613935Y42129685D01*
X136517244Y42209037D01*
X136406930Y42268002D01*
X136287232Y42304312D01*
X136162750Y42316572D01*
X135898500Y42313500D01*
X135739750Y42154750D01*
X135485750Y42154750D01*
X135327000Y42313500D01*
X135062750Y42316572D01*
X134938268Y42304312D01*
X134818570Y42268002D01*
X134708256Y42209037D01*
X134611565Y42129685D01*
X134532213Y42032994D01*
X134473248Y41922680D01*
X134436938Y41802982D01*
X134424678Y41678500D01*
X133100822Y41678500D01*
X133088562Y41802982D01*
X133052252Y41922680D01*
X132993287Y42032994D01*
X132913935Y42129685D01*
X132817244Y42209037D01*
X132706930Y42268002D01*
X132587232Y42304312D01*
X132462750Y42316572D01*
X131362750Y42316572D01*
X131238268Y42304312D01*
X131118570Y42268002D01*
X131008256Y42209037D01*
X130911565Y42129685D01*
X130832213Y42032994D01*
X130773248Y41922680D01*
X130760656Y41881168D01*
X130740252Y41948430D01*
X130681287Y42058744D01*
X130601935Y42155435D01*
X130505244Y42234787D01*
X130394930Y42293752D01*
X130275232Y42330062D01*
X130150750Y42342322D01*
X129825750Y42342322D01*
X129825750Y42437705D01*
X129882137Y42467845D01*
X130016712Y42578288D01*
X130127155Y42712863D01*
X130209222Y42866399D01*
X130259758Y43032995D01*
X130276822Y43206249D01*
X130276822Y44106251D01*
X130259758Y44279505D01*
X130209222Y44446101D01*
X130127155Y44599637D01*
X130016712Y44734212D01*
X129882137Y44844655D01*
X129728601Y44926722D01*
X129562005Y44977258D01*
X129388751Y44994322D01*
X128738749Y44994322D01*
X128565495Y44977258D01*
X128398899Y44926722D01*
X128245363Y44844655D01*
X128110788Y44734212D01*
X128105408Y44727656D01*
X128039935Y44807435D01*
X127943244Y44886787D01*
X127832930Y44945752D01*
X127713232Y44982062D01*
X127588750Y44994322D01*
X127299500Y44991250D01*
X127140750Y44832500D01*
X127140750Y43783250D01*
X127160750Y43783250D01*
X127160750Y43529250D01*
X127140750Y43529250D01*
X127140750Y43509250D01*
X126886750Y43509250D01*
X126886750Y43529250D01*
X125962500Y43529250D01*
X125803750Y43370500D01*
X125800678Y42956250D01*
X125812938Y42831768D01*
X125849248Y42712070D01*
X125908213Y42601756D01*
X125987565Y42505065D01*
X126084256Y42425713D01*
X126194570Y42366748D01*
X126278852Y42341181D01*
X126050750Y42342322D01*
X125926268Y42330062D01*
X125806570Y42293752D01*
X125696256Y42234787D01*
X125599565Y42155435D01*
X125520213Y42058744D01*
X125461248Y41948430D01*
X125424938Y41828732D01*
X125412678Y41704250D01*
X125414728Y41194235D01*
X125269898Y41254226D01*
X125069939Y41294000D01*
X124866061Y41294000D01*
X124666102Y41254226D01*
X124477744Y41176205D01*
X124308226Y41062937D01*
X124291539Y41046250D01*
X123501294Y41046250D01*
X123489196Y41056179D01*
X123515300Y41058750D01*
X123515303Y41058750D01*
X123636576Y41070694D01*
X123792184Y41117897D01*
X123935592Y41194551D01*
X124061291Y41297709D01*
X124087148Y41329216D01*
X125300789Y42542856D01*
X125332291Y42568709D01*
X125404255Y42656398D01*
X125435448Y42694406D01*
X125444890Y42712070D01*
X125512103Y42837816D01*
X125559306Y42993424D01*
X125571250Y43114697D01*
X125571250Y43114706D01*
X125575243Y43155249D01*
X125571250Y43195792D01*
X125571250Y43886083D01*
X125689137Y43949095D01*
X125803004Y44042544D01*
X125803750Y43942000D01*
X125962500Y43783250D01*
X126886750Y43783250D01*
X126886750Y44832500D01*
X126728000Y44991250D01*
X126438750Y44994322D01*
X126314268Y44982062D01*
X126194570Y44945752D01*
X126084256Y44886787D01*
X126083822Y44886431D01*
X126083822Y45337501D01*
X126066758Y45510755D01*
X126016222Y45677351D01*
X125934155Y45830887D01*
X125823712Y45965462D01*
X125735934Y46037500D01*
X125823712Y46109538D01*
X125934155Y46244113D01*
X125964295Y46300500D01*
X130724678Y46300500D01*
X130724678Y46078500D01*
X130736938Y45954018D01*
X130773248Y45834320D01*
X130832213Y45724006D01*
X130911565Y45627315D01*
X131008256Y45547963D01*
X131118570Y45488998D01*
X131238268Y45452688D01*
X131362750Y45440428D01*
X132462750Y45440428D01*
X132587232Y45452688D01*
X132706930Y45488998D01*
X132817244Y45547963D01*
X132913935Y45627315D01*
X132993287Y45724006D01*
X133052252Y45834320D01*
X133088562Y45954018D01*
X133100822Y46078500D01*
X133100822Y47878500D01*
X133088562Y48002982D01*
X133052252Y48122680D01*
X132993287Y48232994D01*
X132913935Y48329685D01*
X132822883Y48404410D01*
X134694203Y48397504D01*
G37*
X134694203Y48397504D02*
X134611565Y48329685D01*
X134532213Y48232994D01*
X134473248Y48122680D01*
X134436938Y48002982D01*
X134424678Y47878500D01*
X134424678Y46078500D01*
X134436938Y45954018D01*
X134473248Y45834320D01*
X134532213Y45724006D01*
X134611565Y45627315D01*
X134708256Y45547963D01*
X134818570Y45488998D01*
X134938268Y45452688D01*
X135062750Y45440428D01*
X136162750Y45440428D01*
X136287232Y45452688D01*
X136406930Y45488998D01*
X136517244Y45547963D01*
X136613935Y45627315D01*
X136693287Y45724006D01*
X136752252Y45834320D01*
X136788562Y45954018D01*
X136800822Y46078500D01*
X136800822Y47878500D01*
X136788562Y48002982D01*
X136752252Y48122680D01*
X136693287Y48232994D01*
X136613935Y48329685D01*
X136539594Y48390695D01*
X137414587Y48387466D01*
X137479994Y34324999D01*
X130410903Y34324999D01*
X130409750Y34480500D01*
X130251000Y34639250D01*
X129326750Y34639250D01*
X129326750Y34619250D01*
X129072750Y34619250D01*
X129072750Y34639250D01*
X129052750Y34639250D01*
X129052750Y34893250D01*
X129072750Y34893250D01*
X129072750Y35942500D01*
X129326750Y35942500D01*
X129326750Y34893250D01*
X130251000Y34893250D01*
X130409750Y35052000D01*
X130412822Y35466250D01*
X130400562Y35590732D01*
X130364252Y35710430D01*
X130305287Y35820744D01*
X130225935Y35917435D01*
X130129244Y35996787D01*
X130018930Y36055752D01*
X129981774Y36067023D01*
X130150750Y36066178D01*
X130275232Y36078438D01*
X130394930Y36114748D01*
X130505244Y36173713D01*
X130601935Y36253065D01*
X130681287Y36349756D01*
X130740252Y36460070D01*
X130776562Y36579768D01*
X130788822Y36704250D01*
X130785750Y37468500D01*
X130627000Y37627250D01*
X129377750Y37627250D01*
X129377750Y36228000D01*
X129504300Y36101450D01*
X129485500Y36101250D01*
X129326750Y35942500D01*
X129072750Y35942500D01*
X128946095Y36069155D01*
X128965000Y36069250D01*
X129123750Y36228000D01*
X129123750Y37627250D01*
X129103750Y37627250D01*
X129103750Y37881250D01*
X129123750Y37881250D01*
X129123750Y37901250D01*
X129377750Y37901250D01*
X129377750Y37881250D01*
X130627000Y37881250D01*
X130785750Y38040000D01*
X130788822Y38804250D01*
X130776562Y38928732D01*
X130740252Y39048430D01*
X130681287Y39158744D01*
X130643941Y39204250D01*
X130681287Y39249756D01*
X130740252Y39360070D01*
X130776562Y39479768D01*
X130788822Y39604250D01*
X130788822Y39605184D01*
X130832213Y39524006D01*
X130911565Y39427315D01*
X131008256Y39347963D01*
X131118570Y39288998D01*
X131238268Y39252688D01*
X131362750Y39240428D01*
X132462750Y39240428D01*
X132587232Y39252688D01*
X132706930Y39288998D01*
X132817244Y39347963D01*
X132913935Y39427315D01*
X132993287Y39524006D01*
X133052252Y39634320D01*
X133088562Y39754018D01*
X133100822Y39878500D01*
X134424678Y39878500D01*
X134436938Y39754018D01*
X134473248Y39634320D01*
X134532213Y39524006D01*
X134611565Y39427315D01*
X134708256Y39347963D01*
X134818570Y39288998D01*
X134938268Y39252688D01*
X135062750Y39240428D01*
X135327000Y39243500D01*
X135485750Y39402250D01*
X135485750Y40651500D01*
X135739750Y40651500D01*
X135739750Y39402250D01*
X135898500Y39243500D01*
X136162750Y39240428D01*
X136287232Y39252688D01*
X136406930Y39288998D01*
X136517244Y39347963D01*
X136613935Y39427315D01*
X136693287Y39524006D01*
X136752252Y39634320D01*
X136788562Y39754018D01*
X136800822Y39878500D01*
X136797750Y40492750D01*
X136639000Y40651500D01*
X135739750Y40651500D01*
X135485750Y40651500D01*
X134586500Y40651500D01*
X134427750Y40492750D01*
X134424678Y39878500D01*
X133100822Y39878500D01*
X133100822Y41678500D01*
X134424678Y41678500D01*
X134427750Y41064250D01*
X134586500Y40905500D01*
X135485750Y40905500D01*
X135485750Y42154750D01*
X135739750Y42154750D01*
X135739750Y40905500D01*
X136639000Y40905500D01*
X136797750Y41064250D01*
X136800822Y41678500D01*
X136788562Y41802982D01*
X136752252Y41922680D01*
X136693287Y42032994D01*
X136613935Y42129685D01*
X136517244Y42209037D01*
X136406930Y42268002D01*
X136287232Y42304312D01*
X136162750Y42316572D01*
X135898500Y42313500D01*
X135739750Y42154750D01*
X135485750Y42154750D01*
X135327000Y42313500D01*
X135062750Y42316572D01*
X134938268Y42304312D01*
X134818570Y42268002D01*
X134708256Y42209037D01*
X134611565Y42129685D01*
X134532213Y42032994D01*
X134473248Y41922680D01*
X134436938Y41802982D01*
X134424678Y41678500D01*
X133100822Y41678500D01*
X133088562Y41802982D01*
X133052252Y41922680D01*
X132993287Y42032994D01*
X132913935Y42129685D01*
X132817244Y42209037D01*
X132706930Y42268002D01*
X132587232Y42304312D01*
X132462750Y42316572D01*
X131362750Y42316572D01*
X131238268Y42304312D01*
X131118570Y42268002D01*
X131008256Y42209037D01*
X130911565Y42129685D01*
X130832213Y42032994D01*
X130773248Y41922680D01*
X130760656Y41881168D01*
X130740252Y41948430D01*
X130681287Y42058744D01*
X130601935Y42155435D01*
X130505244Y42234787D01*
X130394930Y42293752D01*
X130275232Y42330062D01*
X130150750Y42342322D01*
X129825750Y42342322D01*
X129825750Y42437705D01*
X129882137Y42467845D01*
X130016712Y42578288D01*
X130127155Y42712863D01*
X130209222Y42866399D01*
X130259758Y43032995D01*
X130276822Y43206249D01*
X130276822Y44106251D01*
X130259758Y44279505D01*
X130209222Y44446101D01*
X130127155Y44599637D01*
X130016712Y44734212D01*
X129882137Y44844655D01*
X129728601Y44926722D01*
X129562005Y44977258D01*
X129388751Y44994322D01*
X128738749Y44994322D01*
X128565495Y44977258D01*
X128398899Y44926722D01*
X128245363Y44844655D01*
X128110788Y44734212D01*
X128105408Y44727656D01*
X128039935Y44807435D01*
X127943244Y44886787D01*
X127832930Y44945752D01*
X127713232Y44982062D01*
X127588750Y44994322D01*
X127299500Y44991250D01*
X127140750Y44832500D01*
X127140750Y43783250D01*
X127160750Y43783250D01*
X127160750Y43529250D01*
X127140750Y43529250D01*
X127140750Y43509250D01*
X126886750Y43509250D01*
X126886750Y43529250D01*
X125962500Y43529250D01*
X125803750Y43370500D01*
X125800678Y42956250D01*
X125812938Y42831768D01*
X125849248Y42712070D01*
X125908213Y42601756D01*
X125987565Y42505065D01*
X126084256Y42425713D01*
X126194570Y42366748D01*
X126278852Y42341181D01*
X126050750Y42342322D01*
X125926268Y42330062D01*
X125806570Y42293752D01*
X125696256Y42234787D01*
X125599565Y42155435D01*
X125520213Y42058744D01*
X125461248Y41948430D01*
X125424938Y41828732D01*
X125412678Y41704250D01*
X125414728Y41194235D01*
X125269898Y41254226D01*
X125069939Y41294000D01*
X124866061Y41294000D01*
X124666102Y41254226D01*
X124477744Y41176205D01*
X124308226Y41062937D01*
X124291539Y41046250D01*
X123501294Y41046250D01*
X123489196Y41056179D01*
X123515300Y41058750D01*
X123515303Y41058750D01*
X123636576Y41070694D01*
X123792184Y41117897D01*
X123935592Y41194551D01*
X124061291Y41297709D01*
X124087148Y41329216D01*
X125300789Y42542856D01*
X125332291Y42568709D01*
X125404255Y42656398D01*
X125435448Y42694406D01*
X125444890Y42712070D01*
X125512103Y42837816D01*
X125559306Y42993424D01*
X125571250Y43114697D01*
X125571250Y43114706D01*
X125575243Y43155249D01*
X125571250Y43195792D01*
X125571250Y43886083D01*
X125689137Y43949095D01*
X125803004Y44042544D01*
X125803750Y43942000D01*
X125962500Y43783250D01*
X126886750Y43783250D01*
X126886750Y44832500D01*
X126728000Y44991250D01*
X126438750Y44994322D01*
X126314268Y44982062D01*
X126194570Y44945752D01*
X126084256Y44886787D01*
X126083822Y44886431D01*
X126083822Y45337501D01*
X126066758Y45510755D01*
X126016222Y45677351D01*
X125934155Y45830887D01*
X125823712Y45965462D01*
X125735934Y46037500D01*
X125823712Y46109538D01*
X125934155Y46244113D01*
X125964295Y46300500D01*
X130724678Y46300500D01*
X130724678Y46078500D01*
X130736938Y45954018D01*
X130773248Y45834320D01*
X130832213Y45724006D01*
X130911565Y45627315D01*
X131008256Y45547963D01*
X131118570Y45488998D01*
X131238268Y45452688D01*
X131362750Y45440428D01*
X132462750Y45440428D01*
X132587232Y45452688D01*
X132706930Y45488998D01*
X132817244Y45547963D01*
X132913935Y45627315D01*
X132993287Y45724006D01*
X133052252Y45834320D01*
X133088562Y45954018D01*
X133100822Y46078500D01*
X133100822Y47878500D01*
X133088562Y48002982D01*
X133052252Y48122680D01*
X132993287Y48232994D01*
X132913935Y48329685D01*
X132822883Y48404410D01*
X134694203Y48397504D01*
G36*
X112874750Y42654756D02*
G01*
X112915300Y42658750D01*
X116532818Y42658750D01*
X117850817Y41340750D01*
X117146292Y41340750D01*
X117105749Y41344743D01*
X117065206Y41340750D01*
X117065197Y41340750D01*
X116943924Y41328806D01*
X116788316Y41281603D01*
X116656696Y41211250D01*
X116644906Y41204948D01*
X116588783Y41158889D01*
X116519209Y41101791D01*
X116493359Y41070292D01*
X112331822Y36908754D01*
X112331822Y37359250D01*
X112319562Y37483732D01*
X112319405Y37484250D01*
X112319562Y37484768D01*
X112331822Y37609250D01*
X112331822Y38159250D01*
X112319562Y38283732D01*
X112319405Y38284250D01*
X112319562Y38284768D01*
X112331822Y38409250D01*
X112331822Y38959250D01*
X112319562Y39083732D01*
X112319405Y39084250D01*
X112319562Y39084768D01*
X112331822Y39209250D01*
X112331822Y39759250D01*
X112319562Y39883732D01*
X112319405Y39884250D01*
X112319562Y39884768D01*
X112331822Y40009250D01*
X112331822Y40559250D01*
X112319562Y40683732D01*
X112319405Y40684250D01*
X112319562Y40684768D01*
X112331822Y40809250D01*
X112331822Y41359250D01*
X112319562Y41483732D01*
X112319405Y41484250D01*
X112319562Y41484768D01*
X112331822Y41609250D01*
X112331822Y42159250D01*
X112319562Y42283732D01*
X112319204Y42284913D01*
X112328750Y42398500D01*
X112236667Y42490583D01*
X112224287Y42513744D01*
X112188584Y42557248D01*
X112328750Y42557248D01*
X112328750Y42658750D01*
X112834200Y42658750D01*
X112874750Y42654756D01*
G37*
X112874750Y42654756D02*
X112915300Y42658750D01*
X116532818Y42658750D01*
X117850817Y41340750D01*
X117146292Y41340750D01*
X117105749Y41344743D01*
X117065206Y41340750D01*
X117065197Y41340750D01*
X116943924Y41328806D01*
X116788316Y41281603D01*
X116656696Y41211250D01*
X116644906Y41204948D01*
X116588783Y41158889D01*
X116519209Y41101791D01*
X116493359Y41070292D01*
X112331822Y36908754D01*
X112331822Y37359250D01*
X112319562Y37483732D01*
X112319405Y37484250D01*
X112319562Y37484768D01*
X112331822Y37609250D01*
X112331822Y38159250D01*
X112319562Y38283732D01*
X112319405Y38284250D01*
X112319562Y38284768D01*
X112331822Y38409250D01*
X112331822Y38959250D01*
X112319562Y39083732D01*
X112319405Y39084250D01*
X112319562Y39084768D01*
X112331822Y39209250D01*
X112331822Y39759250D01*
X112319562Y39883732D01*
X112319405Y39884250D01*
X112319562Y39884768D01*
X112331822Y40009250D01*
X112331822Y40559250D01*
X112319562Y40683732D01*
X112319405Y40684250D01*
X112319562Y40684768D01*
X112331822Y40809250D01*
X112331822Y41359250D01*
X112319562Y41483732D01*
X112319405Y41484250D01*
X112319562Y41484768D01*
X112331822Y41609250D01*
X112331822Y42159250D01*
X112319562Y42283732D01*
X112319204Y42284913D01*
X112328750Y42398500D01*
X112236667Y42490583D01*
X112224287Y42513744D01*
X112188584Y42557248D01*
X112328750Y42557248D01*
X112328750Y42658750D01*
X112834200Y42658750D01*
X112874750Y42654756D01*
G36*
X126886748Y42321250D02*
G01*
X127012750Y42321250D01*
X127012750Y42252561D01*
X127052524Y42052602D01*
X127077750Y41991701D01*
X127077750Y40781250D01*
X127097750Y40781250D01*
X127097750Y40527250D01*
X127077750Y40527250D01*
X127077750Y40507250D01*
X126823750Y40507250D01*
X126823750Y40527250D01*
X126803750Y40527250D01*
X126803750Y40781250D01*
X126823750Y40781250D01*
X126823750Y42180500D01*
X126683473Y42320777D01*
X126728000Y42321250D01*
X126886748Y42479998D01*
X126886748Y42321250D01*
G37*
X126886748Y42321250D02*
X127012750Y42321250D01*
X127012750Y42252561D01*
X127052524Y42052602D01*
X127077750Y41991701D01*
X127077750Y40781250D01*
X127097750Y40781250D01*
X127097750Y40527250D01*
X127077750Y40527250D01*
X127077750Y40507250D01*
X126823750Y40507250D01*
X126823750Y40527250D01*
X126803750Y40527250D01*
X126803750Y40781250D01*
X126823750Y40781250D01*
X126823750Y42180500D01*
X126683473Y42320777D01*
X126728000Y42321250D01*
X126886748Y42479998D01*
X126886748Y42321250D01*
M02*
