G04 #@! TF.GenerationSoftware,KiCad,Pcbnew,(5.1.5)-3*
G04 #@! TF.CreationDate,2020-02-18T21:35:31-05:00*
G04 #@! TF.ProjectId,Keyboard PCB,4b657962-6f61-4726-9420-5043422e6b69,rev?*
G04 #@! TF.SameCoordinates,Original*
G04 #@! TF.FileFunction,Copper,L1,Top*
G04 #@! TF.FilePolarity,Positive*
%FSLAX46Y46*%
G04 Gerber Fmt 4.6, Leading zero omitted, Abs format (unit mm)*
G04 Created by KiCad (PCBNEW (5.1.5)-3) date 2020-02-18 21:35:31*
%MOMM*%
%LPD*%
G04 APERTURE LIST*
%ADD10C,2.250000*%
%ADD11C,2.250000*%
%ADD12O,1.000000X2.100000*%
%ADD13O,1.000000X1.600000*%
%ADD14C,0.800000*%
%ADD15C,0.254000*%
%ADD16C,0.381000*%
G04 APERTURE END LIST*
D10*
X41950000Y119093750D03*
D11*
X40640000Y117633750D02*
X41950002Y119093750D01*
D10*
X46990000Y120173750D03*
D11*
X46950000Y119593750D02*
X46990000Y120173750D01*
D12*
X30353000Y119264000D03*
X38993000Y119264000D03*
D13*
X30353000Y123444000D03*
X38993000Y123444000D03*
D10*
X22900000Y119093750D03*
D11*
X21590000Y117633750D02*
X22900002Y119093750D01*
D10*
X27940000Y120173750D03*
D11*
X27900000Y119593750D02*
X27940000Y120173750D01*
D10*
X315793750Y38131250D03*
D11*
X314483750Y36671250D02*
X315793752Y38131250D01*
D10*
X320833750Y39211250D03*
D11*
X320793750Y38631250D02*
X320833750Y39211250D01*
D10*
X320556750Y61943750D03*
D11*
X319246750Y60483750D02*
X320556752Y61943750D01*
D10*
X325596750Y63023750D03*
D11*
X325556750Y62443750D02*
X325596750Y63023750D01*
D10*
X103862500Y61943750D03*
D11*
X102552500Y60483750D02*
X103862502Y61943750D01*
D10*
X108902500Y63023750D03*
D11*
X108862500Y62443750D02*
X108902500Y63023750D01*
D10*
X84812500Y61943750D03*
D11*
X83502500Y60483750D02*
X84812502Y61943750D01*
D10*
X89852500Y63023750D03*
D11*
X89812500Y62443750D02*
X89852500Y63023750D01*
D10*
X122912500Y61943750D03*
D11*
X121602500Y60483750D02*
X122912502Y61943750D01*
D10*
X127952500Y63023750D03*
D11*
X127912500Y62443750D02*
X127952500Y63023750D01*
D10*
X144343750Y42893750D03*
D11*
X143033750Y41433750D02*
X144343752Y42893750D01*
D10*
X149383750Y43973750D03*
D11*
X149343750Y43393750D02*
X149383750Y43973750D01*
D10*
X277747750Y38130750D03*
D11*
X276437750Y36670750D02*
X277747752Y38130750D01*
D10*
X282787750Y39210750D03*
D11*
X282747750Y38630750D02*
X282787750Y39210750D01*
D10*
X320556250Y81011250D03*
D11*
X319246250Y79551250D02*
X320556252Y81011250D01*
D10*
X325596250Y82091250D03*
D11*
X325556250Y81511250D02*
X325596250Y82091250D01*
D10*
X320556250Y100061250D03*
D11*
X319246250Y98601250D02*
X320556252Y100061250D01*
D10*
X325596250Y101141250D03*
D11*
X325556250Y100561250D02*
X325596250Y101141250D01*
D10*
X320556250Y119111250D03*
D11*
X319246250Y117651250D02*
X320556252Y119111250D01*
D10*
X325596250Y120191250D03*
D11*
X325556250Y119611250D02*
X325596250Y120191250D01*
D10*
X296743750Y38131250D03*
D11*
X295433750Y36671250D02*
X296743752Y38131250D01*
D10*
X301783750Y39211250D03*
D11*
X301743750Y38631250D02*
X301783750Y39211250D01*
D10*
X296743750Y57130750D03*
D11*
X295433750Y55670750D02*
X296743752Y57130750D01*
D10*
X301783750Y58210750D03*
D11*
X301743750Y57630750D02*
X301783750Y58210750D01*
D10*
X261025000Y100043750D03*
D11*
X259715000Y98583750D02*
X261025002Y100043750D01*
D10*
X266065000Y101123750D03*
D11*
X266025000Y100543750D02*
X266065000Y101123750D01*
D10*
X251500000Y119093750D03*
D11*
X250190000Y117633750D02*
X251500002Y119093750D01*
D10*
X256540000Y120173750D03*
D11*
X256500000Y119593750D02*
X256540000Y120173750D01*
D10*
X277693750Y80993750D03*
D11*
X276383750Y79533750D02*
X277693752Y80993750D01*
D10*
X282733750Y82073750D03*
D11*
X282693750Y81493750D02*
X282733750Y82073750D01*
D10*
X284837500Y100043750D03*
D11*
X283527500Y98583750D02*
X284837502Y100043750D01*
D10*
X289877500Y101123750D03*
D11*
X289837500Y100543750D02*
X289877500Y101123750D01*
D10*
X280075000Y119093750D03*
D11*
X278765000Y117633750D02*
X280075002Y119093750D01*
D10*
X285115000Y120173750D03*
D11*
X285075000Y119593750D02*
X285115000Y120173750D01*
D10*
X263406250Y61943750D03*
D11*
X262096250Y60483750D02*
X263406252Y61943750D01*
D10*
X268446250Y63023750D03*
D11*
X268406250Y62443750D02*
X268446250Y63023750D01*
D10*
X246737500Y80993750D03*
D11*
X245427500Y79533750D02*
X246737502Y80993750D01*
D10*
X251777500Y82073750D03*
D11*
X251737500Y81493750D02*
X251777500Y82073750D01*
D10*
X241975000Y100043750D03*
D11*
X240665000Y98583750D02*
X241975002Y100043750D01*
D10*
X247015000Y101123750D03*
D11*
X246975000Y100543750D02*
X247015000Y101123750D01*
D10*
X232450000Y119093750D03*
D11*
X231140000Y117633750D02*
X232450002Y119093750D01*
D10*
X237490000Y120173750D03*
D11*
X237450000Y119593750D02*
X237490000Y120173750D01*
D10*
X239593750Y42893750D03*
D11*
X238283750Y41433750D02*
X239593752Y42893750D01*
D10*
X244633750Y43973750D03*
D11*
X244593750Y43393750D02*
X244633750Y43973750D01*
D10*
X237212500Y61943750D03*
D11*
X235902500Y60483750D02*
X237212502Y61943750D01*
D10*
X242252500Y63023750D03*
D11*
X242212500Y62443750D02*
X242252500Y63023750D01*
D10*
X227687500Y80993750D03*
D11*
X226377500Y79533750D02*
X227687502Y80993750D01*
D10*
X232727500Y82073750D03*
D11*
X232687500Y81493750D02*
X232727500Y82073750D01*
D10*
X222925000Y100043750D03*
D11*
X221615000Y98583750D02*
X222925002Y100043750D01*
D10*
X227965000Y101123750D03*
D11*
X227925000Y100543750D02*
X227965000Y101123750D01*
D10*
X213400000Y119093750D03*
D11*
X212090000Y117633750D02*
X213400002Y119093750D01*
D10*
X218440000Y120173750D03*
D11*
X218400000Y119593750D02*
X218440000Y120173750D01*
D10*
X215781250Y42893750D03*
D11*
X214471250Y41433750D02*
X215781252Y42893750D01*
D10*
X220821250Y43973750D03*
D11*
X220781250Y43393750D02*
X220821250Y43973750D01*
D10*
X218162500Y61943750D03*
D11*
X216852500Y60483750D02*
X218162502Y61943750D01*
D10*
X223202500Y63023750D03*
D11*
X223162500Y62443750D02*
X223202500Y63023750D01*
D10*
X208637500Y80993750D03*
D11*
X207327500Y79533750D02*
X208637502Y80993750D01*
D10*
X213677500Y82073750D03*
D11*
X213637500Y81493750D02*
X213677500Y82073750D01*
D10*
X203875000Y100043750D03*
D11*
X202565000Y98583750D02*
X203875002Y100043750D01*
D10*
X208915000Y101123750D03*
D11*
X208875000Y100543750D02*
X208915000Y101123750D01*
D10*
X194350000Y119093750D03*
D11*
X193040000Y117633750D02*
X194350002Y119093750D01*
D10*
X199390000Y120173750D03*
D11*
X199350000Y119593750D02*
X199390000Y120173750D01*
D10*
X199112500Y61943750D03*
D11*
X197802500Y60483750D02*
X199112502Y61943750D01*
D10*
X204152500Y63023750D03*
D11*
X204112500Y62443750D02*
X204152500Y63023750D01*
D10*
X189587500Y80993750D03*
D11*
X188277500Y79533750D02*
X189587502Y80993750D01*
D10*
X194627500Y82073750D03*
D11*
X194587500Y81493750D02*
X194627500Y82073750D01*
D10*
X184825000Y100043750D03*
D11*
X183515000Y98583750D02*
X184825002Y100043750D01*
D10*
X189865000Y101123750D03*
D11*
X189825000Y100543750D02*
X189865000Y101123750D01*
D10*
X175300000Y119093750D03*
D11*
X173990000Y117633750D02*
X175300002Y119093750D01*
D10*
X180340000Y120173750D03*
D11*
X180300000Y119593750D02*
X180340000Y120173750D01*
D10*
X180062500Y61943750D03*
D11*
X178752500Y60483750D02*
X180062502Y61943750D01*
D10*
X185102500Y63023750D03*
D11*
X185062500Y62443750D02*
X185102500Y63023750D01*
D10*
X170537500Y80993750D03*
D11*
X169227500Y79533750D02*
X170537502Y80993750D01*
D10*
X175577500Y82073750D03*
D11*
X175537500Y81493750D02*
X175577500Y82073750D01*
D10*
X165775000Y100043750D03*
D11*
X164465000Y98583750D02*
X165775002Y100043750D01*
D10*
X170815000Y101123750D03*
D11*
X170775000Y100543750D02*
X170815000Y101123750D01*
D10*
X156250000Y119093750D03*
D11*
X154940000Y117633750D02*
X156250002Y119093750D01*
D10*
X161290000Y120173750D03*
D11*
X161250000Y119593750D02*
X161290000Y120173750D01*
D10*
X161012500Y61943750D03*
D11*
X159702500Y60483750D02*
X161012502Y61943750D01*
D10*
X166052500Y63023750D03*
D11*
X166012500Y62443750D02*
X166052500Y63023750D01*
D10*
X151487500Y80993750D03*
D11*
X150177500Y79533750D02*
X151487502Y80993750D01*
D10*
X156527500Y82073750D03*
D11*
X156487500Y81493750D02*
X156527500Y82073750D01*
D10*
X146725000Y100043750D03*
D11*
X145415000Y98583750D02*
X146725002Y100043750D01*
D10*
X151765000Y101123750D03*
D11*
X151725000Y100543750D02*
X151765000Y101123750D01*
D10*
X137200000Y119093750D03*
D11*
X135890000Y117633750D02*
X137200002Y119093750D01*
D10*
X142240000Y120173750D03*
D11*
X142200000Y119593750D02*
X142240000Y120173750D01*
D10*
X142089500Y61943750D03*
D11*
X140779500Y60483750D02*
X142089502Y61943750D01*
D10*
X147129500Y63023750D03*
D11*
X147089500Y62443750D02*
X147129500Y63023750D01*
D10*
X132437500Y80993750D03*
D11*
X131127500Y79533750D02*
X132437502Y80993750D01*
D10*
X137477500Y82073750D03*
D11*
X137437500Y81493750D02*
X137477500Y82073750D01*
D10*
X127675000Y100043750D03*
D11*
X126365000Y98583750D02*
X127675002Y100043750D01*
D10*
X132715000Y101123750D03*
D11*
X132675000Y100543750D02*
X132715000Y101123750D01*
D10*
X118150000Y119093750D03*
D11*
X116840000Y117633750D02*
X118150002Y119093750D01*
D10*
X123190000Y120173750D03*
D11*
X123150000Y119593750D02*
X123190000Y120173750D01*
D10*
X113387500Y80993750D03*
D11*
X112077500Y79533750D02*
X113387502Y80993750D01*
D10*
X118427500Y82073750D03*
D11*
X118387500Y81493750D02*
X118427500Y82073750D01*
D10*
X108625000Y100043750D03*
D11*
X107315000Y98583750D02*
X108625002Y100043750D01*
D10*
X113665000Y101123750D03*
D11*
X113625000Y100543750D02*
X113665000Y101123750D01*
D10*
X99100000Y119093750D03*
D11*
X97790000Y117633750D02*
X99100002Y119093750D01*
D10*
X104140000Y120173750D03*
D11*
X104100000Y119593750D02*
X104140000Y120173750D01*
D10*
X94337500Y80993750D03*
D11*
X93027500Y79533750D02*
X94337502Y80993750D01*
D10*
X99377500Y82073750D03*
D11*
X99337500Y81493750D02*
X99377500Y82073750D01*
D10*
X89575000Y100043750D03*
D11*
X88265000Y98583750D02*
X89575002Y100043750D01*
D10*
X94615000Y101123750D03*
D11*
X94575000Y100543750D02*
X94615000Y101123750D01*
D10*
X80050000Y119093750D03*
D11*
X78740000Y117633750D02*
X80050002Y119093750D01*
D10*
X85090000Y120173750D03*
D11*
X85050000Y119593750D02*
X85090000Y120173750D01*
D10*
X72906250Y42893750D03*
D11*
X71596250Y41433750D02*
X72906252Y42893750D01*
D10*
X77946250Y43973750D03*
D11*
X77906250Y43393750D02*
X77946250Y43973750D01*
D10*
X75287500Y80993750D03*
D11*
X73977500Y79533750D02*
X75287502Y80993750D01*
D10*
X80327500Y82073750D03*
D11*
X80287500Y81493750D02*
X80327500Y82073750D01*
D10*
X70525000Y100043750D03*
D11*
X69215000Y98583750D02*
X70525002Y100043750D01*
D10*
X75565000Y101123750D03*
D11*
X75525000Y100543750D02*
X75565000Y101123750D01*
D10*
X61000000Y119093750D03*
D11*
X59690000Y117633750D02*
X61000002Y119093750D01*
D10*
X66040000Y120173750D03*
D11*
X66000000Y119593750D02*
X66040000Y120173750D01*
D10*
X49093750Y42893750D03*
D11*
X47783750Y41433750D02*
X49093752Y42893750D01*
D10*
X54133750Y43973750D03*
D11*
X54093750Y43393750D02*
X54133750Y43973750D01*
D10*
X65762500Y61943750D03*
D11*
X64452500Y60483750D02*
X65762502Y61943750D01*
D10*
X70802500Y63023750D03*
D11*
X70762500Y62443750D02*
X70802500Y63023750D01*
D10*
X56237500Y80993750D03*
D11*
X54927500Y79533750D02*
X56237502Y80993750D01*
D10*
X61277500Y82073750D03*
D11*
X61237500Y81493750D02*
X61277500Y82073750D01*
D10*
X51475000Y100043750D03*
D11*
X50165000Y98583750D02*
X51475002Y100043750D01*
D10*
X56515000Y101123750D03*
D11*
X56475000Y100543750D02*
X56515000Y101123750D01*
D10*
X25281250Y42893750D03*
D11*
X23971250Y41433750D02*
X25281252Y42893750D01*
D10*
X30321250Y43973750D03*
D11*
X30281250Y43393750D02*
X30321250Y43973750D01*
D10*
X34806250Y61943750D03*
D11*
X33496250Y60483750D02*
X34806252Y61943750D01*
D10*
X39846250Y63023750D03*
D11*
X39806250Y62443750D02*
X39846250Y63023750D01*
D10*
X30043750Y80993750D03*
D11*
X28733750Y79533750D02*
X30043752Y80993750D01*
D10*
X35083750Y82073750D03*
D11*
X35043750Y81493750D02*
X35083750Y82073750D01*
D10*
X27662500Y100043750D03*
D11*
X26352500Y98583750D02*
X27662502Y100043750D01*
D10*
X32702500Y101123750D03*
D11*
X32662500Y100543750D02*
X32702500Y101123750D01*
D14*
X135636000Y34544000D03*
X135636000Y30353000D03*
X117983000Y49657000D03*
X126904750Y45402500D03*
X113376001Y42129001D03*
X104648000Y41275000D03*
X109093000Y43434000D03*
X78867000Y52070000D03*
X51037691Y102724001D03*
X124968000Y40259000D03*
X128047750Y42354500D03*
X100076000Y54610000D03*
X100076000Y56515000D03*
X104267000Y102997000D03*
X104267000Y67056000D03*
X107188000Y73660000D03*
X107188000Y75438000D03*
X98933000Y54610000D03*
X98933000Y56515000D03*
X97790000Y54610000D03*
X97790000Y56515000D03*
X110871000Y27813000D03*
X110871000Y28829000D03*
X110871000Y29845000D03*
X110871000Y30861000D03*
X103060500Y49212500D03*
X103060500Y54673500D03*
X110871000Y31877000D03*
X106172000Y46736000D03*
X108981394Y49641606D03*
X132207000Y28067000D03*
X132207000Y27051000D03*
X132207000Y26035000D03*
X191293750Y54768750D03*
X208756250Y53721000D03*
X227584000Y52832000D03*
X254127000Y53086000D03*
X250444000Y34163000D03*
X287274000Y30353000D03*
X305320739Y29603739D03*
X34417000Y115824000D03*
X34290000Y112014000D03*
X110109000Y47244000D03*
X70231000Y90932000D03*
X50419000Y90932000D03*
X41275000Y94488000D03*
X34925000Y119888000D03*
X35433000Y112014000D03*
X110109000Y48387000D03*
X70231000Y92075000D03*
X50419000Y92075000D03*
X42545000Y94488000D03*
X151003000Y34290000D03*
X146558000Y28575000D03*
X107383616Y37269384D03*
X106573740Y32659740D03*
D15*
X117983000Y49657000D02*
X124206000Y49657000D01*
X126904750Y46958250D02*
X126904750Y45402500D01*
X124206000Y49657000D02*
X126904750Y46958250D01*
X113376001Y45050001D02*
X117983000Y49657000D01*
X113376001Y42129001D02*
X113376001Y45050001D01*
X135636000Y30918685D02*
X135636000Y34544000D01*
X135636000Y30353000D02*
X135636000Y30918685D01*
X30353000Y119264000D02*
X30353000Y123444000D01*
X38239000Y123444000D02*
X30353000Y123444000D01*
X38993000Y123444000D02*
X38239000Y123444000D01*
X38993000Y122390000D02*
X38993000Y119264000D01*
X38993000Y123444000D02*
X38993000Y122390000D01*
D16*
X57789499Y87804693D02*
X78867000Y66727192D01*
X57789499Y95972193D02*
X57789499Y87804693D01*
X51037691Y102724001D02*
X51037691Y102724001D01*
X78867000Y66727192D02*
X78867000Y52070000D01*
X78867000Y52070000D02*
X78867000Y52070000D01*
X106934000Y41275000D02*
X109093000Y43434000D01*
X104648000Y41275000D02*
X106934000Y41275000D01*
X51037691Y102724001D02*
X57789499Y95972193D01*
D15*
X127063500Y42354500D02*
X128047750Y42354500D01*
X124968000Y40259000D02*
X127063500Y42354500D01*
X104267000Y102997000D02*
X104267000Y102997000D01*
X104267000Y102997000D02*
X104267000Y67056000D01*
X100076000Y54610000D02*
X100076000Y56515000D01*
X107188000Y73660000D02*
X107188000Y75438000D01*
X98933000Y54610000D02*
X98933000Y56515000D01*
X97790000Y56515000D02*
X97790000Y54610000D01*
X23079099Y115477901D02*
X23079099Y101857151D01*
X23079099Y101857151D02*
X26352500Y98583750D01*
X21590000Y116967000D02*
X23079099Y115477901D01*
X21590000Y117633750D02*
X21590000Y116967000D01*
X28733750Y82303750D02*
X28733750Y79533750D01*
X26352500Y84685000D02*
X28733750Y82303750D01*
X26352500Y98583750D02*
X26352500Y84685000D01*
X28733750Y65246250D02*
X33496250Y60483750D01*
X28733750Y79533750D02*
X28733750Y65246250D01*
X27689151Y45301651D02*
X26406249Y44018749D01*
X27689151Y55185613D02*
X27689151Y45301651D01*
X26406249Y44018749D02*
X25281250Y42893750D01*
X31649289Y59145751D02*
X27689151Y55185613D01*
X32602751Y59145751D02*
X31649289Y59145751D01*
X33496250Y60039250D02*
X32602751Y59145751D01*
X33496250Y60483750D02*
X33496250Y60039250D01*
X37205066Y27813000D02*
X110871000Y27813000D01*
X23971250Y41433750D02*
X23971250Y38760816D01*
X34919066Y27813000D02*
X37205066Y27813000D01*
X23971250Y38760816D02*
X34919066Y27813000D01*
X50684740Y42893750D02*
X49093750Y42893750D01*
X64452500Y56661510D02*
X50684740Y42893750D01*
X64452500Y60483750D02*
X64452500Y56661510D01*
X56416599Y77695401D02*
X56416599Y68519651D01*
X56416599Y68519651D02*
X64452500Y60483750D01*
X54927500Y79184500D02*
X56416599Y77695401D01*
X54927500Y79533750D02*
X54927500Y79184500D01*
X51654099Y82807151D02*
X54927500Y79533750D01*
X51654099Y95538901D02*
X51654099Y82807151D01*
X50165000Y97028000D02*
X51654099Y95538901D01*
X50165000Y98583750D02*
X50165000Y97028000D01*
X42129099Y106619651D02*
X50165000Y98583750D01*
X42129099Y115223901D02*
X42129099Y106619651D01*
X40640000Y116713000D02*
X42129099Y115223901D01*
X40640000Y117633750D02*
X40640000Y116713000D01*
X47783750Y35463788D02*
X47783750Y41433750D01*
X110871000Y28829000D02*
X54418538Y28829000D01*
X54418538Y28829000D02*
X47783750Y35463788D01*
X59690000Y110878750D02*
X70525000Y100043750D01*
X59690000Y117633750D02*
X59690000Y110878750D01*
X69215000Y87066250D02*
X75287500Y80993750D01*
X69215000Y98583750D02*
X69215000Y87066250D01*
X83687501Y63068749D02*
X84812500Y61943750D01*
X75466599Y71289651D02*
X83687501Y63068749D01*
X75466599Y76425401D02*
X75466599Y71289651D01*
X73977500Y77914500D02*
X75466599Y76425401D01*
X73977500Y79533750D02*
X73977500Y77914500D01*
X71596250Y41583750D02*
X71596250Y41433750D01*
X83502500Y53490000D02*
X71596250Y41583750D01*
X83502500Y60483750D02*
X83502500Y53490000D01*
X71596250Y41433750D02*
X71596250Y39148712D01*
X83185962Y29845000D02*
X110871000Y29845000D01*
X71596250Y39148712D02*
X80899962Y29845000D01*
X80899962Y29845000D02*
X83185962Y29845000D01*
X88265000Y101353750D02*
X88265000Y98583750D01*
X78740000Y110878750D02*
X88265000Y101353750D01*
X78740000Y117633750D02*
X78740000Y110878750D01*
X93212501Y82118749D02*
X94337500Y80993750D01*
X89754099Y85577151D02*
X93212501Y82118749D01*
X88265000Y97663000D02*
X89754099Y96173901D01*
X89754099Y96173901D02*
X89754099Y85577151D01*
X88265000Y98583750D02*
X88265000Y97663000D01*
X94516599Y68519651D02*
X102552500Y60483750D01*
X94516599Y77695401D02*
X94516599Y68519651D01*
X93027500Y79184500D02*
X94516599Y77695401D01*
X93027500Y79533750D02*
X93027500Y79184500D01*
X103124000Y59912250D02*
X102552500Y60483750D01*
X103060500Y59975750D02*
X102552500Y60483750D01*
X103060500Y33083500D02*
X103060500Y49212500D01*
X110871000Y30988000D02*
X105156000Y30988000D01*
X105156000Y30988000D02*
X103060500Y33083500D01*
X103060500Y54673500D02*
X103060500Y59975750D01*
X97790000Y110878750D02*
X108625000Y100043750D01*
X97790000Y117633750D02*
X97790000Y110878750D01*
X108804099Y97157783D02*
X108804099Y82807151D01*
X108804099Y82807151D02*
X112077500Y79533750D01*
X107378132Y98583750D02*
X108804099Y97157783D01*
X107315000Y98583750D02*
X107378132Y98583750D01*
X121787501Y63068749D02*
X122912500Y61943750D01*
X113566599Y71289651D02*
X121787501Y63068749D01*
X113566599Y78076401D02*
X113566599Y71289651D01*
X112109250Y79533750D02*
X113566599Y78076401D01*
X112077500Y79533750D02*
X112109250Y79533750D01*
X121602500Y60483750D02*
X121093538Y60483750D01*
X103920999Y44484999D02*
X106172000Y46736000D01*
X103920999Y33239001D02*
X103920999Y44484999D01*
X110871000Y31877000D02*
X105283000Y31877000D01*
X105283000Y31877000D02*
X103920999Y33239001D01*
X119823538Y60483750D02*
X108981394Y49641606D01*
X121602500Y60483750D02*
X119823538Y60483750D01*
X116840000Y108108750D02*
X126365000Y98583750D01*
X116840000Y117633750D02*
X116840000Y108108750D01*
X127854099Y82807151D02*
X131127500Y79533750D01*
X127854099Y96427901D02*
X127854099Y82807151D01*
X126365000Y97917000D02*
X127854099Y96427901D01*
X126365000Y98583750D02*
X126365000Y97917000D01*
X140837501Y63068749D02*
X141962500Y61943750D01*
X132616599Y71289651D02*
X140837501Y63068749D01*
X131127500Y78549500D02*
X132616599Y77060401D01*
X132616599Y77060401D02*
X132616599Y71289651D01*
X131127500Y79533750D02*
X131127500Y78549500D01*
X142524788Y41433750D02*
X143033750Y41433750D01*
X143033750Y30130750D02*
X143033750Y41433750D01*
X132207000Y28067000D02*
X140970000Y28067000D01*
X140970000Y28067000D02*
X143033750Y30130750D01*
X140779500Y43688000D02*
X140779500Y60483750D01*
X143033750Y41433750D02*
X140779500Y43688000D01*
X137379099Y115223901D02*
X137379099Y106619651D01*
X135890000Y116713000D02*
X137379099Y115223901D01*
X137379099Y106619651D02*
X145415000Y98583750D01*
X135890000Y117633750D02*
X135890000Y116713000D01*
X145415000Y87066250D02*
X151487500Y80993750D01*
X145415000Y98583750D02*
X145415000Y87066250D01*
X151666599Y71289651D02*
X159887501Y63068749D01*
X151666599Y76552401D02*
X151666599Y71289651D01*
X150177500Y78041500D02*
X151666599Y76552401D01*
X159887501Y63068749D02*
X161012500Y61943750D01*
X150177500Y79533750D02*
X150177500Y78041500D01*
X159193538Y60483750D02*
X159702500Y60483750D01*
X159702500Y44893538D02*
X159702500Y60483750D01*
X132207000Y27051000D02*
X141859962Y27051000D01*
X141859962Y27051000D02*
X159702500Y44893538D01*
X164465000Y101353750D02*
X164465000Y98583750D01*
X154940000Y110878750D02*
X164465000Y101353750D01*
X154940000Y117633750D02*
X154940000Y110878750D01*
X165954099Y85577151D02*
X169412501Y82118749D01*
X165954099Y96427901D02*
X165954099Y85577151D01*
X169412501Y82118749D02*
X170537500Y80993750D01*
X164465000Y97917000D02*
X165954099Y96427901D01*
X164465000Y98583750D02*
X164465000Y97917000D01*
X169227500Y70008750D02*
X178752500Y60483750D01*
X169227500Y79533750D02*
X169227500Y70008750D01*
X178752500Y57434788D02*
X178752500Y60483750D01*
X147352712Y26035000D02*
X178752500Y57434788D01*
X132207000Y26035000D02*
X147352712Y26035000D01*
X173990000Y108108750D02*
X183515000Y98583750D01*
X173990000Y117633750D02*
X173990000Y108108750D01*
X183515000Y84296250D02*
X188277500Y79533750D01*
X183515000Y98583750D02*
X183515000Y84296250D01*
X188277500Y70008750D02*
X197802500Y60483750D01*
X188277500Y79533750D02*
X188277500Y70008750D01*
X197293538Y60483750D02*
X197802500Y60483750D01*
X197135750Y60483750D02*
X197802500Y60483750D01*
X197008750Y60483750D02*
X191293750Y54768750D01*
X197802500Y60483750D02*
X197008750Y60483750D01*
X194529099Y106619651D02*
X202565000Y98583750D01*
X194529099Y115096901D02*
X194529099Y106619651D01*
X193040000Y116586000D02*
X194529099Y115096901D01*
X193040000Y117633750D02*
X193040000Y116586000D01*
X204054099Y96427901D02*
X204054099Y82807151D01*
X202565000Y97917000D02*
X204054099Y96427901D01*
X204054099Y82807151D02*
X207327500Y79533750D01*
X202565000Y98583750D02*
X202565000Y97917000D01*
X208816599Y76679401D02*
X208816599Y68519651D01*
X207327500Y78168500D02*
X208816599Y76679401D01*
X208816599Y68519651D02*
X216852500Y60483750D01*
X207327500Y79533750D02*
X207327500Y78168500D01*
X216906249Y60430001D02*
X216906249Y44018749D01*
X216906249Y44018749D02*
X215781250Y42893750D01*
X216852500Y60483750D02*
X216906249Y60430001D01*
X216343538Y60483750D02*
X216852500Y60483750D01*
X215519000Y60483750D02*
X216852500Y60483750D01*
X208756250Y53721000D02*
X215519000Y60483750D01*
X212090000Y108108750D02*
X221615000Y98583750D01*
X212090000Y117633750D02*
X212090000Y108108750D01*
X223104099Y82807151D02*
X226377500Y79533750D01*
X223104099Y95919901D02*
X223104099Y82807151D01*
X221615000Y97409000D02*
X223104099Y95919901D01*
X221615000Y98583750D02*
X221615000Y97409000D01*
X235902500Y67843816D02*
X235902500Y60483750D01*
X226377500Y77368816D02*
X235902500Y67843816D01*
X226377500Y79533750D02*
X226377500Y77368816D01*
X237391599Y45095901D02*
X238468751Y44018749D01*
X235902500Y58864500D02*
X237391599Y57375401D01*
X238468751Y44018749D02*
X239593750Y42893750D01*
X235902500Y60483750D02*
X235902500Y58864500D01*
X237391599Y57375401D02*
X237391599Y45095901D01*
X235235750Y60483750D02*
X235902500Y60483750D01*
X227584000Y52832000D02*
X235235750Y60483750D01*
X240665000Y101353750D02*
X240665000Y98583750D01*
X231140000Y110878750D02*
X240665000Y101353750D01*
X231140000Y117633750D02*
X231140000Y110878750D01*
X242154099Y82807151D02*
X245427500Y79533750D01*
X242154099Y97157783D02*
X242154099Y82807151D01*
X240728132Y98583750D02*
X242154099Y97157783D01*
X240665000Y98583750D02*
X240728132Y98583750D01*
X245427500Y77152500D02*
X262096250Y60483750D01*
X245427500Y79533750D02*
X245427500Y77152500D01*
X261587288Y60483750D02*
X262096250Y60483750D01*
X261524750Y60483750D02*
X262096250Y60483750D01*
X254127000Y53086000D02*
X261524750Y60483750D01*
X251679099Y106619651D02*
X259715000Y98583750D01*
X251679099Y114842901D02*
X251679099Y106619651D01*
X250190000Y116332000D02*
X251679099Y114842901D01*
X250190000Y117633750D02*
X250190000Y116332000D01*
X259715000Y96202500D02*
X276383750Y79533750D01*
X259715000Y98583750D02*
X259715000Y96202500D01*
X273911749Y77570711D02*
X273911749Y41683251D01*
X276383750Y79533750D02*
X275874788Y79533750D01*
X275874788Y79533750D02*
X273911749Y77570711D01*
X276044500Y39550500D02*
X276044500Y37458500D01*
X273911749Y41683251D02*
X276044500Y39550500D01*
X252951750Y36670750D02*
X276437750Y36670750D01*
X250444000Y34163000D02*
X252951750Y36670750D01*
X278765000Y106116250D02*
X284837500Y100043750D01*
X278765000Y117633750D02*
X278765000Y106116250D01*
X295094500Y58099490D02*
X295094500Y56508500D01*
X295094500Y69210934D02*
X295094500Y58099490D01*
X285016599Y79288835D02*
X295094500Y69210934D01*
X285016599Y95856401D02*
X285016599Y79288835D01*
X283527500Y97345500D02*
X285016599Y95856401D01*
X283527500Y98583750D02*
X283527500Y97345500D01*
X293592250Y36671250D02*
X295433750Y36671250D01*
X287274000Y30353000D02*
X293592250Y36671250D01*
X295433750Y36671250D02*
X295433750Y55670750D01*
X319771250Y99911250D02*
X318461250Y98601250D01*
X319771250Y80861250D02*
X318461250Y79551250D01*
X319771250Y61811250D02*
X318461250Y60501250D01*
X318737788Y60483750D02*
X319246750Y60483750D01*
X314483750Y56229712D02*
X318737788Y60483750D01*
X314483750Y36671250D02*
X314483750Y56229712D01*
X319246750Y79550750D02*
X319246250Y79551250D01*
X319246750Y60483750D02*
X319246750Y79550750D01*
X319246250Y79551250D02*
X319246250Y98601250D01*
X319246250Y98601250D02*
X319246250Y117651250D01*
X312388250Y36671250D02*
X314483750Y36671250D01*
X305320739Y29603739D02*
X312388250Y36671250D01*
X34417000Y115824000D02*
X34417000Y112522000D01*
X34417000Y112522000D02*
X34417000Y112141000D01*
X34417000Y112141000D02*
X34290000Y112014000D01*
X34290000Y112014000D02*
X34290000Y112014000D01*
X84074000Y90932000D02*
X70231000Y90932000D01*
X87376000Y87630000D02*
X84074000Y90932000D01*
X87376000Y61722000D02*
X87376000Y87630000D01*
X109543315Y47244000D02*
X103358326Y53428989D01*
X88871401Y60226599D02*
X87376000Y61722000D01*
X110109000Y47244000D02*
X109543315Y47244000D01*
X103358326Y53428989D02*
X94486232Y53428989D01*
X88871401Y60226599D02*
X89506401Y60226599D01*
X90736489Y57178732D02*
X94486232Y53428989D01*
X90736489Y58996511D02*
X90736489Y57178732D01*
X89506401Y60226599D02*
X90736489Y58996511D01*
X44831000Y90932000D02*
X50419000Y90932000D01*
X41275000Y94488000D02*
X44831000Y90932000D01*
X35324999Y119488001D02*
X35324999Y112540999D01*
X34925000Y119888000D02*
X35324999Y119488001D01*
X35324999Y112540999D02*
X35324999Y112249001D01*
X35324999Y112249001D02*
X35324999Y112122001D01*
X35324999Y112122001D02*
X35433000Y112014000D01*
X35433000Y112014000D02*
X35433000Y112014000D01*
X44958000Y92075000D02*
X42545000Y94488000D01*
X50419000Y92075000D02*
X44958000Y92075000D01*
X83820000Y92075000D02*
X70231000Y92075000D01*
X91304501Y61882567D02*
X91304501Y75667787D01*
X91190499Y61768565D02*
X91304501Y61882567D01*
X91304501Y75667787D02*
X88646000Y78326288D01*
X109160038Y48387000D02*
X103664039Y53882999D01*
X103664039Y53882999D02*
X94674289Y53882999D01*
X110109000Y48387000D02*
X109160038Y48387000D01*
X94674289Y53882999D02*
X91190499Y57366789D01*
X91190499Y57366789D02*
X91190499Y61768565D01*
X88646000Y78326288D02*
X88646000Y89916000D01*
X86487000Y92075000D02*
X83820000Y92075000D01*
X88646000Y89916000D02*
X86487000Y92075000D01*
X106573740Y36459508D02*
X107383616Y37269384D01*
X106573740Y32659740D02*
X106573740Y36459508D01*
X151003000Y33020000D02*
X151003000Y34290000D01*
X146558000Y28575000D02*
X151003000Y33020000D01*
G36*
X107338647Y48371037D02*
G01*
X108978036Y46731648D01*
X109001893Y46702578D01*
X109117923Y46607355D01*
X109250300Y46536598D01*
X109393937Y46493026D01*
X109396517Y46492772D01*
X109449226Y46440063D01*
X109618744Y46326795D01*
X109807102Y46248774D01*
X110007061Y46209000D01*
X110210939Y46209000D01*
X110410898Y46248774D01*
X110599256Y46326795D01*
X110768774Y46440063D01*
X110912937Y46584226D01*
X111026205Y46753744D01*
X111104226Y46942102D01*
X111144000Y47142061D01*
X111144000Y47345939D01*
X111104226Y47545898D01*
X111026205Y47734256D01*
X110971920Y47815500D01*
X111026205Y47896744D01*
X111104226Y48085102D01*
X111144000Y48285061D01*
X111144000Y48357047D01*
X137415183Y48260462D01*
X137597638Y28829000D01*
X132908711Y28829000D01*
X132866774Y28870937D01*
X132697256Y28984205D01*
X132508898Y29062226D01*
X132308939Y29102000D01*
X132105061Y29102000D01*
X131905102Y29062226D01*
X131716744Y28984205D01*
X131547226Y28870937D01*
X131403063Y28726774D01*
X131289795Y28557256D01*
X131211774Y28368898D01*
X131172000Y28168939D01*
X131172000Y27965061D01*
X131211774Y27765102D01*
X131289795Y27576744D01*
X131301651Y27559000D01*
X131289795Y27541256D01*
X131211774Y27352898D01*
X131172000Y27152939D01*
X131172000Y26949061D01*
X131211774Y26749102D01*
X131289795Y26560744D01*
X131301651Y26543000D01*
X131289795Y26525256D01*
X131211774Y26336898D01*
X131172000Y26136939D01*
X131172000Y25933061D01*
X131211774Y25733102D01*
X131289795Y25544744D01*
X131403063Y25375226D01*
X131512039Y25266250D01*
X103124000Y25266250D01*
X103124000Y27051000D01*
X110169289Y27051000D01*
X110211226Y27009063D01*
X110380744Y26895795D01*
X110569102Y26817774D01*
X110769061Y26778000D01*
X110972939Y26778000D01*
X111172898Y26817774D01*
X111361256Y26895795D01*
X111530774Y27009063D01*
X111674937Y27153226D01*
X111788205Y27322744D01*
X111866226Y27511102D01*
X111906000Y27711061D01*
X111906000Y27914939D01*
X111866226Y28114898D01*
X111788205Y28303256D01*
X111776349Y28321000D01*
X111788205Y28338744D01*
X111866226Y28527102D01*
X111906000Y28727061D01*
X111906000Y28930939D01*
X111866226Y29130898D01*
X111788205Y29319256D01*
X111776349Y29337000D01*
X111788205Y29354744D01*
X111866226Y29543102D01*
X111906000Y29743061D01*
X111906000Y29946939D01*
X111866226Y30146898D01*
X111788205Y30335256D01*
X111776349Y30353000D01*
X111788205Y30370744D01*
X111866226Y30559102D01*
X111906000Y30759061D01*
X111906000Y30962939D01*
X111866226Y31162898D01*
X111788205Y31351256D01*
X111776349Y31369000D01*
X111788205Y31386744D01*
X111866226Y31575102D01*
X111906000Y31775061D01*
X111906000Y31978939D01*
X111866226Y32178898D01*
X111788205Y32367256D01*
X111674937Y32536774D01*
X111530774Y32680937D01*
X111361256Y32794205D01*
X111172898Y32872226D01*
X110972939Y32912000D01*
X110769061Y32912000D01*
X110569102Y32872226D01*
X110380744Y32794205D01*
X110211226Y32680937D01*
X110169289Y32639000D01*
X107608740Y32639000D01*
X107608740Y32761679D01*
X107568966Y32961638D01*
X107490945Y33149996D01*
X107377677Y33319514D01*
X107335740Y33361451D01*
X107335740Y36143878D01*
X107426246Y36234384D01*
X107485555Y36234384D01*
X107685514Y36274158D01*
X107873872Y36352179D01*
X108043390Y36465447D01*
X108187553Y36609610D01*
X108300821Y36779128D01*
X108378842Y36967486D01*
X108418616Y37167445D01*
X108418616Y37371323D01*
X108378842Y37571282D01*
X108300821Y37759640D01*
X108187553Y37929158D01*
X108043390Y38073321D01*
X107873872Y38186589D01*
X107685514Y38264610D01*
X107485555Y38304384D01*
X107281677Y38304384D01*
X107081718Y38264610D01*
X106893360Y38186589D01*
X106723842Y38073321D01*
X106579679Y37929158D01*
X106466411Y37759640D01*
X106388390Y37571282D01*
X106348616Y37371323D01*
X106348616Y37312014D01*
X106061389Y37024787D01*
X106032319Y37000930D01*
X106008462Y36971860D01*
X106008461Y36971859D01*
X105937095Y36884900D01*
X105866339Y36752523D01*
X105822767Y36608886D01*
X105808054Y36459508D01*
X105811741Y36422075D01*
X105811740Y33361451D01*
X105769803Y33319514D01*
X105656535Y33149996D01*
X105578514Y32961638D01*
X105538740Y32761679D01*
X105538740Y32698891D01*
X104682999Y33554631D01*
X104682999Y40240000D01*
X104749939Y40240000D01*
X104949898Y40279774D01*
X105138256Y40357795D01*
X105142961Y40360939D01*
X123933000Y40360939D01*
X123933000Y40157061D01*
X123972774Y39957102D01*
X124050795Y39768744D01*
X124164063Y39599226D01*
X124308226Y39455063D01*
X124477744Y39341795D01*
X124666102Y39263774D01*
X124866061Y39224000D01*
X125069939Y39224000D01*
X125269898Y39263774D01*
X125458256Y39341795D01*
X125627774Y39455063D01*
X125771937Y39599226D01*
X125885205Y39768744D01*
X125963226Y39957102D01*
X126003000Y40157061D01*
X126003000Y40216370D01*
X127362585Y41575955D01*
X127387976Y41550563D01*
X127557494Y41437295D01*
X127745852Y41359274D01*
X127945811Y41319500D01*
X128149689Y41319500D01*
X128349648Y41359274D01*
X128538006Y41437295D01*
X128707524Y41550563D01*
X128851687Y41694726D01*
X128964955Y41864244D01*
X129042976Y42052602D01*
X129082750Y42252561D01*
X129082750Y42456439D01*
X129042976Y42656398D01*
X128964955Y42844756D01*
X128851687Y43014274D01*
X128707524Y43158437D01*
X128538006Y43271705D01*
X128349648Y43349726D01*
X128149689Y43389500D01*
X127945811Y43389500D01*
X127745852Y43349726D01*
X127557494Y43271705D01*
X127387976Y43158437D01*
X127346039Y43116500D01*
X127100923Y43116500D01*
X127063500Y43120186D01*
X127026077Y43116500D01*
X127026074Y43116500D01*
X126914122Y43105474D01*
X126770485Y43061902D01*
X126708864Y43028965D01*
X126638107Y42991145D01*
X126616189Y42973157D01*
X126522078Y42895922D01*
X126498216Y42866846D01*
X124925370Y41294000D01*
X124866061Y41294000D01*
X124666102Y41254226D01*
X124477744Y41176205D01*
X124308226Y41062937D01*
X124164063Y40918774D01*
X124050795Y40749256D01*
X123972774Y40560898D01*
X123933000Y40360939D01*
X105142961Y40360939D01*
X105275503Y40449500D01*
X106893450Y40449500D01*
X106934000Y40445506D01*
X106974550Y40449500D01*
X106974553Y40449500D01*
X107095826Y40461444D01*
X107251434Y40508647D01*
X107394842Y40585301D01*
X107520541Y40688459D01*
X107546398Y40719966D01*
X109233004Y42406572D01*
X109394898Y42438774D01*
X109583256Y42516795D01*
X109752774Y42630063D01*
X109896937Y42774226D01*
X110010205Y42943744D01*
X110088226Y43132102D01*
X110128000Y43332061D01*
X110128000Y43535939D01*
X110088226Y43735898D01*
X110010205Y43924256D01*
X109896937Y44093774D01*
X109752774Y44237937D01*
X109583256Y44351205D01*
X109394898Y44429226D01*
X109194939Y44469000D01*
X108991061Y44469000D01*
X108791102Y44429226D01*
X108602744Y44351205D01*
X108433226Y44237937D01*
X108289063Y44093774D01*
X108175795Y43924256D01*
X108097774Y43735898D01*
X108065572Y43574004D01*
X106592068Y42100500D01*
X105275503Y42100500D01*
X105138256Y42192205D01*
X104949898Y42270226D01*
X104749939Y42310000D01*
X104682999Y42310000D01*
X104682999Y44169369D01*
X106214631Y45701000D01*
X106273939Y45701000D01*
X106473898Y45740774D01*
X106662256Y45818795D01*
X106831774Y45932063D01*
X106975937Y46076226D01*
X107089205Y46245744D01*
X107167226Y46434102D01*
X107207000Y46634061D01*
X107207000Y46837939D01*
X107167226Y47037898D01*
X107089205Y47226256D01*
X106975937Y47395774D01*
X106831774Y47539937D01*
X106662256Y47653205D01*
X106473898Y47731226D01*
X106273939Y47771000D01*
X106070061Y47771000D01*
X105870102Y47731226D01*
X105681744Y47653205D01*
X105512226Y47539937D01*
X105368063Y47395774D01*
X105254795Y47226256D01*
X105176774Y47037898D01*
X105137000Y46837939D01*
X105137000Y46778631D01*
X103822500Y45464130D01*
X103822500Y48383964D01*
X107338647Y48371037D01*
G37*
X107338647Y48371037D02*
X108978036Y46731648D01*
X109001893Y46702578D01*
X109117923Y46607355D01*
X109250300Y46536598D01*
X109393937Y46493026D01*
X109396517Y46492772D01*
X109449226Y46440063D01*
X109618744Y46326795D01*
X109807102Y46248774D01*
X110007061Y46209000D01*
X110210939Y46209000D01*
X110410898Y46248774D01*
X110599256Y46326795D01*
X110768774Y46440063D01*
X110912937Y46584226D01*
X111026205Y46753744D01*
X111104226Y46942102D01*
X111144000Y47142061D01*
X111144000Y47345939D01*
X111104226Y47545898D01*
X111026205Y47734256D01*
X110971920Y47815500D01*
X111026205Y47896744D01*
X111104226Y48085102D01*
X111144000Y48285061D01*
X111144000Y48357047D01*
X137415183Y48260462D01*
X137597638Y28829000D01*
X132908711Y28829000D01*
X132866774Y28870937D01*
X132697256Y28984205D01*
X132508898Y29062226D01*
X132308939Y29102000D01*
X132105061Y29102000D01*
X131905102Y29062226D01*
X131716744Y28984205D01*
X131547226Y28870937D01*
X131403063Y28726774D01*
X131289795Y28557256D01*
X131211774Y28368898D01*
X131172000Y28168939D01*
X131172000Y27965061D01*
X131211774Y27765102D01*
X131289795Y27576744D01*
X131301651Y27559000D01*
X131289795Y27541256D01*
X131211774Y27352898D01*
X131172000Y27152939D01*
X131172000Y26949061D01*
X131211774Y26749102D01*
X131289795Y26560744D01*
X131301651Y26543000D01*
X131289795Y26525256D01*
X131211774Y26336898D01*
X131172000Y26136939D01*
X131172000Y25933061D01*
X131211774Y25733102D01*
X131289795Y25544744D01*
X131403063Y25375226D01*
X131512039Y25266250D01*
X103124000Y25266250D01*
X103124000Y27051000D01*
X110169289Y27051000D01*
X110211226Y27009063D01*
X110380744Y26895795D01*
X110569102Y26817774D01*
X110769061Y26778000D01*
X110972939Y26778000D01*
X111172898Y26817774D01*
X111361256Y26895795D01*
X111530774Y27009063D01*
X111674937Y27153226D01*
X111788205Y27322744D01*
X111866226Y27511102D01*
X111906000Y27711061D01*
X111906000Y27914939D01*
X111866226Y28114898D01*
X111788205Y28303256D01*
X111776349Y28321000D01*
X111788205Y28338744D01*
X111866226Y28527102D01*
X111906000Y28727061D01*
X111906000Y28930939D01*
X111866226Y29130898D01*
X111788205Y29319256D01*
X111776349Y29337000D01*
X111788205Y29354744D01*
X111866226Y29543102D01*
X111906000Y29743061D01*
X111906000Y29946939D01*
X111866226Y30146898D01*
X111788205Y30335256D01*
X111776349Y30353000D01*
X111788205Y30370744D01*
X111866226Y30559102D01*
X111906000Y30759061D01*
X111906000Y30962939D01*
X111866226Y31162898D01*
X111788205Y31351256D01*
X111776349Y31369000D01*
X111788205Y31386744D01*
X111866226Y31575102D01*
X111906000Y31775061D01*
X111906000Y31978939D01*
X111866226Y32178898D01*
X111788205Y32367256D01*
X111674937Y32536774D01*
X111530774Y32680937D01*
X111361256Y32794205D01*
X111172898Y32872226D01*
X110972939Y32912000D01*
X110769061Y32912000D01*
X110569102Y32872226D01*
X110380744Y32794205D01*
X110211226Y32680937D01*
X110169289Y32639000D01*
X107608740Y32639000D01*
X107608740Y32761679D01*
X107568966Y32961638D01*
X107490945Y33149996D01*
X107377677Y33319514D01*
X107335740Y33361451D01*
X107335740Y36143878D01*
X107426246Y36234384D01*
X107485555Y36234384D01*
X107685514Y36274158D01*
X107873872Y36352179D01*
X108043390Y36465447D01*
X108187553Y36609610D01*
X108300821Y36779128D01*
X108378842Y36967486D01*
X108418616Y37167445D01*
X108418616Y37371323D01*
X108378842Y37571282D01*
X108300821Y37759640D01*
X108187553Y37929158D01*
X108043390Y38073321D01*
X107873872Y38186589D01*
X107685514Y38264610D01*
X107485555Y38304384D01*
X107281677Y38304384D01*
X107081718Y38264610D01*
X106893360Y38186589D01*
X106723842Y38073321D01*
X106579679Y37929158D01*
X106466411Y37759640D01*
X106388390Y37571282D01*
X106348616Y37371323D01*
X106348616Y37312014D01*
X106061389Y37024787D01*
X106032319Y37000930D01*
X106008462Y36971860D01*
X106008461Y36971859D01*
X105937095Y36884900D01*
X105866339Y36752523D01*
X105822767Y36608886D01*
X105808054Y36459508D01*
X105811741Y36422075D01*
X105811740Y33361451D01*
X105769803Y33319514D01*
X105656535Y33149996D01*
X105578514Y32961638D01*
X105538740Y32761679D01*
X105538740Y32698891D01*
X104682999Y33554631D01*
X104682999Y40240000D01*
X104749939Y40240000D01*
X104949898Y40279774D01*
X105138256Y40357795D01*
X105142961Y40360939D01*
X123933000Y40360939D01*
X123933000Y40157061D01*
X123972774Y39957102D01*
X124050795Y39768744D01*
X124164063Y39599226D01*
X124308226Y39455063D01*
X124477744Y39341795D01*
X124666102Y39263774D01*
X124866061Y39224000D01*
X125069939Y39224000D01*
X125269898Y39263774D01*
X125458256Y39341795D01*
X125627774Y39455063D01*
X125771937Y39599226D01*
X125885205Y39768744D01*
X125963226Y39957102D01*
X126003000Y40157061D01*
X126003000Y40216370D01*
X127362585Y41575955D01*
X127387976Y41550563D01*
X127557494Y41437295D01*
X127745852Y41359274D01*
X127945811Y41319500D01*
X128149689Y41319500D01*
X128349648Y41359274D01*
X128538006Y41437295D01*
X128707524Y41550563D01*
X128851687Y41694726D01*
X128964955Y41864244D01*
X129042976Y42052602D01*
X129082750Y42252561D01*
X129082750Y42456439D01*
X129042976Y42656398D01*
X128964955Y42844756D01*
X128851687Y43014274D01*
X128707524Y43158437D01*
X128538006Y43271705D01*
X128349648Y43349726D01*
X128149689Y43389500D01*
X127945811Y43389500D01*
X127745852Y43349726D01*
X127557494Y43271705D01*
X127387976Y43158437D01*
X127346039Y43116500D01*
X127100923Y43116500D01*
X127063500Y43120186D01*
X127026077Y43116500D01*
X127026074Y43116500D01*
X126914122Y43105474D01*
X126770485Y43061902D01*
X126708864Y43028965D01*
X126638107Y42991145D01*
X126616189Y42973157D01*
X126522078Y42895922D01*
X126498216Y42866846D01*
X124925370Y41294000D01*
X124866061Y41294000D01*
X124666102Y41254226D01*
X124477744Y41176205D01*
X124308226Y41062937D01*
X124164063Y40918774D01*
X124050795Y40749256D01*
X123972774Y40560898D01*
X123933000Y40360939D01*
X105142961Y40360939D01*
X105275503Y40449500D01*
X106893450Y40449500D01*
X106934000Y40445506D01*
X106974550Y40449500D01*
X106974553Y40449500D01*
X107095826Y40461444D01*
X107251434Y40508647D01*
X107394842Y40585301D01*
X107520541Y40688459D01*
X107546398Y40719966D01*
X109233004Y42406572D01*
X109394898Y42438774D01*
X109583256Y42516795D01*
X109752774Y42630063D01*
X109896937Y42774226D01*
X110010205Y42943744D01*
X110088226Y43132102D01*
X110128000Y43332061D01*
X110128000Y43535939D01*
X110088226Y43735898D01*
X110010205Y43924256D01*
X109896937Y44093774D01*
X109752774Y44237937D01*
X109583256Y44351205D01*
X109394898Y44429226D01*
X109194939Y44469000D01*
X108991061Y44469000D01*
X108791102Y44429226D01*
X108602744Y44351205D01*
X108433226Y44237937D01*
X108289063Y44093774D01*
X108175795Y43924256D01*
X108097774Y43735898D01*
X108065572Y43574004D01*
X106592068Y42100500D01*
X105275503Y42100500D01*
X105138256Y42192205D01*
X104949898Y42270226D01*
X104749939Y42310000D01*
X104682999Y42310000D01*
X104682999Y44169369D01*
X106214631Y45701000D01*
X106273939Y45701000D01*
X106473898Y45740774D01*
X106662256Y45818795D01*
X106831774Y45932063D01*
X106975937Y46076226D01*
X107089205Y46245744D01*
X107167226Y46434102D01*
X107207000Y46634061D01*
X107207000Y46837939D01*
X107167226Y47037898D01*
X107089205Y47226256D01*
X106975937Y47395774D01*
X106831774Y47539937D01*
X106662256Y47653205D01*
X106473898Y47731226D01*
X106273939Y47771000D01*
X106070061Y47771000D01*
X105870102Y47731226D01*
X105681744Y47653205D01*
X105512226Y47539937D01*
X105368063Y47395774D01*
X105254795Y47226256D01*
X105176774Y47037898D01*
X105137000Y46837939D01*
X105137000Y46778631D01*
X103822500Y45464130D01*
X103822500Y48383964D01*
X107338647Y48371037D01*
M02*
