M48
; DRILL file {KiCad (5.1.5)-3} date 2/18/2020 9:35:37 PM
; FORMAT={-:-/ absolute / inch / decimal}
; #@! TF.CreationDate,2020-02-18T21:35:37-05:00
; #@! TF.GenerationSoftware,Kicad,Pcbnew,(5.1.5)-3
; #@! TF.FileFunction,NonPlated,1,2,NPTH
FMAT,2
INCH
T1C0.0256
T2C0.0689
T3C0.1200
T4C0.1570
%
G90
G05
T1
X1.2513Y4.7163
X1.4789Y4.7163
T2
X12.3312Y1.3438
X12.7312Y1.3438
X12.5187Y3.0319
X12.9187Y3.0319
X4.3625Y3.0312
X4.7625Y3.0312
X2.4875Y2.2812
X2.8875Y2.2812
X9.6125Y3.0312
X10.0125Y3.0312
X10.2687Y2.2812
X10.6687Y2.2812
X8.3937Y1.5312
X8.7937Y1.5312
X6.6125Y3.0312
X7.0125Y3.0312
X5.3Y4.5312
X5.7Y4.5312
X7.175Y3.7812
X7.575Y3.7812
X3.2375Y2.2812
X3.6375Y2.2812
X5.5812Y1.5312
X5.9813Y1.5312
X4.175Y3.7812
X4.575Y3.7812
X1.0813Y3.0312
X1.4812Y3.0312
X2.1125Y3.0312
X2.5125Y3.0312
X8.675Y3.7812
X9.075Y3.7812
X10.8312Y3.0312
X11.2312Y3.0312
X6.9875Y2.2812
X7.3875Y2.2812
X4.925Y3.7812
X5.325Y3.7812
X0.8Y4.5312
X1.2Y4.5312
X1.2688Y2.2812
X1.6687Y2.2812
X1.925Y3.7812
X2.325Y3.7812
X2.675Y3.7812
X3.075Y3.7812
X11.1125Y3.7812
X11.5125Y3.7812
X9.8Y4.5312
X10.2Y4.5312
X6.8Y4.5312
X7.2Y4.5312
X5.4925Y2.2812
X5.8925Y2.2812
X1.8313Y1.5312
X2.2312Y1.5312
X0.8937Y1.5312
X1.2937Y1.5312
X3.05Y4.5312
X3.45Y4.5312
X0.9875Y3.7812
X1.3875Y3.7812
X8.8625Y3.0312
X9.2625Y3.0312
X10.175Y3.7812
X10.575Y3.7812
X1.55Y4.5312
X1.95Y4.5312
X7.3625Y3.0312
X7.7625Y3.0312
X5.675Y3.7812
X6.075Y3.7812
X3.9875Y2.2812
X4.3875Y2.2812
X2.8625Y3.0312
X3.2625Y3.0312
X3.8Y4.5312
X4.2Y4.5312
X3.425Y3.7812
X3.825Y3.7812
X8.3Y4.5312
X8.7Y4.5312
X9.2375Y2.2812
X9.6375Y2.2812
X11.5812Y2.0918
X11.9812Y2.0918
X7.7375Y2.2812
X8.1375Y2.2812
X7.925Y3.7812
X8.325Y3.7812
X5.8625Y3.0312
X6.2625Y3.0312
X10.8334Y1.3437
X11.2334Y1.3437
X12.5187Y4.5319
X12.9187Y4.5319
X2.3Y4.5312
X2.7Y4.5312
X4.55Y4.5312
X4.95Y4.5312
X9.05Y4.5312
X9.45Y4.5312
X9.425Y3.7812
X9.825Y3.7812
X11.5812Y1.3438
X11.9812Y1.3438
X7.55Y4.5312
X7.95Y4.5312
X5.1125Y3.0312
X5.5125Y3.0312
X6.05Y4.5312
X6.45Y4.5312
X4.7375Y2.2812
X5.1375Y2.2812
X12.5187Y3.7819
X12.9187Y3.7819
X3.6125Y3.0312
X4.0125Y3.0312
X2.7687Y1.5312
X3.1687Y1.5312
X9.3312Y1.5312
X9.7312Y1.5312
X10.925Y4.5312
X11.325Y4.5312
X8.4875Y2.2812
X8.8875Y2.2812
X8.1125Y3.0312
X8.5125Y3.0312
X6.2375Y2.2812
X6.6375Y2.2812
X6.425Y3.7812
X6.825Y3.7812
X12.5188Y2.2812
X12.9188Y2.2812
T3
X10.655Y4.8062
X11.595Y4.8062
X3.8127Y1.2562
X7.7497Y1.2562
X10.5612Y3.3062
X11.5012Y3.3062
X0.9988Y2.5562
X1.9387Y2.5562
T4
X6.4375Y2.2812
X6.625Y3.7812
X12.7188Y2.2812
X12.5312Y1.3438
X12.7188Y3.0319
X4.5625Y3.0312
X2.6875Y2.2812
X9.8125Y3.0312
X10.4688Y2.2812
X8.5938Y1.5312
X6.8125Y3.0312
X5.5Y4.5312
X7.375Y3.7812
X3.4375Y2.2812
X3.8127Y1.8562
X5.7812Y1.5312
X7.7497Y1.8562
X4.375Y3.7812
X1.2812Y3.0312
X2.3125Y3.0312
X8.875Y3.7812
X10.5612Y2.7062
X11.0312Y3.0312
X11.5012Y2.7062
X7.1875Y2.2812
X5.125Y3.7812
X1.0Y4.5312
X0.9988Y1.9563
X1.4688Y2.2812
X1.9387Y1.9563
X2.125Y3.7812
X2.875Y3.7812
X11.3125Y3.7812
X10.0Y4.5312
X7.0Y4.5312
X5.6925Y2.2812
X2.0312Y1.5312
X1.0938Y1.5312
X3.25Y4.5312
X1.1875Y3.7812
X9.0625Y3.0312
X10.375Y3.7812
X1.75Y4.5312
X7.5625Y3.0312
X5.875Y3.7812
X4.1875Y2.2812
X3.0625Y3.0312
X4.0Y4.5312
X3.625Y3.7812
X8.5Y4.5312
X9.4375Y2.2812
X11.7812Y2.0918
X7.9375Y2.2812
X8.125Y3.7812
X6.0625Y3.0312
X11.0334Y1.3437
X12.7188Y4.5319
X2.5Y4.5312
X4.75Y4.5312
X9.25Y4.5312
X9.625Y3.7812
X11.7812Y1.3438
X7.75Y4.5312
X5.3125Y3.0312
X6.25Y4.5312
X4.9375Y2.2812
X12.7188Y3.7819
X3.8125Y3.0312
X2.9688Y1.5312
X9.5312Y1.5312
X10.655Y4.2062
X11.125Y4.5312
X11.595Y4.2062
X8.6875Y2.2812
X8.3125Y3.0312
T0
M30
