G04 #@! TF.GenerationSoftware,KiCad,Pcbnew,(5.1.5)-3*
G04 #@! TF.CreationDate,2020-02-18T21:35:31-05:00*
G04 #@! TF.ProjectId,Keyboard PCB,4b657962-6f61-4726-9420-5043422e6b69,rev?*
G04 #@! TF.SameCoordinates,Original*
G04 #@! TF.FileFunction,Legend,Bot*
G04 #@! TF.FilePolarity,Positive*
%FSLAX46Y46*%
G04 Gerber Fmt 4.6, Leading zero omitted, Abs format (unit mm)*
G04 Created by KiCad (PCBNEW (5.1.5)-3) date 2020-02-18 21:35:31*
%MOMM*%
%LPD*%
G04 APERTURE LIST*
%ADD10C,0.120000*%
%ADD11C,0.150000*%
%ADD12C,1.852000*%
%ADD13C,2.352000*%
%ADD14C,4.089800*%
%ADD15C,2.352000*%
%ADD16R,0.702000X2.552000*%
%ADD17R,0.402000X2.552000*%
%ADD18C,0.752000*%
%ADD19C,0.100000*%
%ADD20C,3.150000*%
%ADD21R,1.602000X0.652000*%
%ADD22R,0.652000X1.602000*%
%ADD23R,1.902000X2.202000*%
%ADD24R,1.202000X1.902000*%
%ADD25R,1.302000X1.002000*%
G04 APERTURE END LIST*
D10*
X33730000Y114425252D02*
X33730000Y113902748D01*
X32310000Y114425252D02*
X32310000Y113902748D01*
X37540000Y114443252D02*
X37540000Y113920748D01*
X36120000Y114443252D02*
X36120000Y113920748D01*
D11*
X112043750Y44659250D02*
X112043750Y45934250D01*
X111468750Y34309250D02*
X111468750Y34984250D01*
X121818750Y34309250D02*
X121818750Y34984250D01*
X121818750Y44659250D02*
X121818750Y43984250D01*
X111468750Y44659250D02*
X111468750Y43984250D01*
X121818750Y44659250D02*
X121143750Y44659250D01*
X121818750Y34309250D02*
X121143750Y34309250D01*
X111468750Y34309250D02*
X112143750Y34309250D01*
X111468750Y44659250D02*
X112043750Y44659250D01*
D10*
X125850750Y36504250D02*
X125850750Y41904250D01*
X130350750Y36504250D02*
X125850750Y36504250D01*
D11*
X131162750Y46478500D02*
X131162750Y41278500D01*
X131162750Y41278500D02*
X136362750Y41278500D01*
X136362750Y41278500D02*
X136362750Y46478500D01*
X136362750Y46478500D02*
X131162750Y46478500D01*
X134762750Y43878500D02*
G75*
G03X134762750Y43878500I-1000000J0D01*
G01*
D10*
X108310750Y35131752D02*
X108310750Y34609248D01*
X106890750Y35131752D02*
X106890750Y34609248D01*
X124035750Y45776248D02*
X124035750Y46298752D01*
X125455750Y45776248D02*
X125455750Y46298752D01*
X36120000Y109221748D02*
X36120000Y109744252D01*
X37540000Y109221748D02*
X37540000Y109744252D01*
X32310000Y109203748D02*
X32310000Y109726252D01*
X33730000Y109203748D02*
X33730000Y109726252D01*
X43413000Y108781436D02*
X43413000Y109985564D01*
X45233000Y108781436D02*
X45233000Y109985564D01*
X327263000Y31660000D02*
X327263000Y35560000D01*
X325263000Y31660000D02*
X325263000Y35560000D01*
X327263000Y31660000D02*
X325263000Y31660000D01*
X331835000Y55661000D02*
X331835000Y59561000D01*
X329835000Y55661000D02*
X329835000Y59561000D01*
X331835000Y55661000D02*
X329835000Y55661000D01*
X331835000Y74586000D02*
X331835000Y78486000D01*
X329835000Y74586000D02*
X329835000Y78486000D01*
X331835000Y74586000D02*
X329835000Y74586000D01*
X331962000Y93761000D02*
X331962000Y97661000D01*
X329962000Y93761000D02*
X329962000Y97661000D01*
X331962000Y93761000D02*
X329962000Y93761000D01*
X331708000Y112557000D02*
X331708000Y116457000D01*
X329708000Y112557000D02*
X329708000Y116457000D01*
X331708000Y112557000D02*
X329708000Y112557000D01*
X308340000Y31658000D02*
X308340000Y35558000D01*
X306340000Y31658000D02*
X306340000Y35558000D01*
X308340000Y31658000D02*
X306340000Y31658000D01*
X308181250Y50868750D02*
X308181250Y54768750D01*
X306181250Y50868750D02*
X306181250Y54768750D01*
X308181250Y50868750D02*
X306181250Y50868750D01*
X272462500Y93731250D02*
X272462500Y97631250D01*
X270462500Y93731250D02*
X270462500Y97631250D01*
X272462500Y93731250D02*
X270462500Y93731250D01*
X262937500Y112843750D02*
X262937500Y116743750D01*
X260937500Y112843750D02*
X260937500Y116743750D01*
X262937500Y112843750D02*
X260937500Y112843750D01*
X289131250Y31150000D02*
X289131250Y35050000D01*
X287131250Y31150000D02*
X287131250Y35050000D01*
X289131250Y31150000D02*
X287131250Y31150000D01*
X289131250Y74681250D02*
X289131250Y78581250D01*
X287131250Y74681250D02*
X287131250Y78581250D01*
X289131250Y74681250D02*
X287131250Y74681250D01*
X296275000Y93793750D02*
X296275000Y97693750D01*
X294275000Y93793750D02*
X294275000Y97693750D01*
X296275000Y93793750D02*
X294275000Y93793750D01*
X291512500Y112781250D02*
X291512500Y116681250D01*
X289512500Y112781250D02*
X289512500Y116681250D01*
X291512500Y112781250D02*
X289512500Y112781250D01*
X274843750Y55756250D02*
X274843750Y59656250D01*
X272843750Y55756250D02*
X272843750Y59656250D01*
X274843750Y55756250D02*
X272843750Y55756250D01*
X258175000Y74743750D02*
X258175000Y78643750D01*
X256175000Y74743750D02*
X256175000Y78643750D01*
X258175000Y74743750D02*
X256175000Y74743750D01*
X253412500Y93793750D02*
X253412500Y97693750D01*
X251412500Y93793750D02*
X251412500Y97693750D01*
X253412500Y93793750D02*
X251412500Y93793750D01*
X243887500Y112906250D02*
X243887500Y116806250D01*
X241887500Y112906250D02*
X241887500Y116806250D01*
X243887500Y112906250D02*
X241887500Y112906250D01*
X251825000Y36581250D02*
X251825000Y40481250D01*
X249825000Y36581250D02*
X249825000Y40481250D01*
X251825000Y36581250D02*
X249825000Y36581250D01*
X248650000Y55756250D02*
X248650000Y59656250D01*
X246650000Y55756250D02*
X246650000Y59656250D01*
X248650000Y55756250D02*
X246650000Y55756250D01*
X239125000Y74743750D02*
X239125000Y78643750D01*
X237125000Y74743750D02*
X237125000Y78643750D01*
X239125000Y74743750D02*
X237125000Y74743750D01*
X234362500Y93793750D02*
X234362500Y97693750D01*
X232362500Y93793750D02*
X232362500Y97693750D01*
X234362500Y93793750D02*
X232362500Y93793750D01*
X224837500Y112906250D02*
X224837500Y116806250D01*
X222837500Y112906250D02*
X222837500Y116806250D01*
X224837500Y112906250D02*
X222837500Y112906250D01*
X228012500Y36581250D02*
X228012500Y40481250D01*
X226012500Y36581250D02*
X226012500Y40481250D01*
X228012500Y36581250D02*
X226012500Y36581250D01*
X229600000Y55756250D02*
X229600000Y59656250D01*
X227600000Y55756250D02*
X227600000Y59656250D01*
X229600000Y55756250D02*
X227600000Y55756250D01*
X220075000Y74681250D02*
X220075000Y78581250D01*
X218075000Y74681250D02*
X218075000Y78581250D01*
X220075000Y74681250D02*
X218075000Y74681250D01*
X215312500Y93731250D02*
X215312500Y97631250D01*
X213312500Y93731250D02*
X213312500Y97631250D01*
X215312500Y93731250D02*
X213312500Y93731250D01*
X205787500Y112906250D02*
X205787500Y116806250D01*
X203787500Y112906250D02*
X203787500Y116806250D01*
X205787500Y112906250D02*
X203787500Y112906250D01*
X210550000Y55693750D02*
X210550000Y59593750D01*
X208550000Y55693750D02*
X208550000Y59593750D01*
X210550000Y55693750D02*
X208550000Y55693750D01*
X201025000Y74743750D02*
X201025000Y78643750D01*
X199025000Y74743750D02*
X199025000Y78643750D01*
X201025000Y74743750D02*
X199025000Y74743750D01*
X196262500Y93731250D02*
X196262500Y97631250D01*
X194262500Y93731250D02*
X194262500Y97631250D01*
X196262500Y93731250D02*
X194262500Y93731250D01*
X186737500Y112781250D02*
X186737500Y116681250D01*
X184737500Y112781250D02*
X184737500Y116681250D01*
X186737500Y112781250D02*
X184737500Y112781250D01*
X191500000Y55631250D02*
X191500000Y59531250D01*
X189500000Y55631250D02*
X189500000Y59531250D01*
X191500000Y55631250D02*
X189500000Y55631250D01*
X181975000Y74681250D02*
X181975000Y78581250D01*
X179975000Y74681250D02*
X179975000Y78581250D01*
X181975000Y74681250D02*
X179975000Y74681250D01*
X177212500Y93731250D02*
X177212500Y97631250D01*
X175212500Y93731250D02*
X175212500Y97631250D01*
X177212500Y93731250D02*
X175212500Y93731250D01*
X167687500Y112906250D02*
X167687500Y116806250D01*
X165687500Y112906250D02*
X165687500Y116806250D01*
X167687500Y112906250D02*
X165687500Y112906250D01*
X172450000Y55693750D02*
X172450000Y59593750D01*
X170450000Y55693750D02*
X170450000Y59593750D01*
X172450000Y55693750D02*
X170450000Y55693750D01*
X162925000Y74681250D02*
X162925000Y78581250D01*
X160925000Y74681250D02*
X160925000Y78581250D01*
X162925000Y74681250D02*
X160925000Y74681250D01*
X158162500Y93793750D02*
X158162500Y97693750D01*
X156162500Y93793750D02*
X156162500Y97693750D01*
X158162500Y93793750D02*
X156162500Y93793750D01*
X148637500Y112781250D02*
X148637500Y116681250D01*
X146637500Y112781250D02*
X146637500Y116681250D01*
X148637500Y112781250D02*
X146637500Y112781250D01*
X155781250Y36581250D02*
X155781250Y40481250D01*
X153781250Y36581250D02*
X153781250Y40481250D01*
X155781250Y36581250D02*
X153781250Y36581250D01*
X153400000Y55631250D02*
X153400000Y59531250D01*
X151400000Y55631250D02*
X151400000Y59531250D01*
X153400000Y55631250D02*
X151400000Y55631250D01*
X143875000Y74743750D02*
X143875000Y78643750D01*
X141875000Y74743750D02*
X141875000Y78643750D01*
X143875000Y74743750D02*
X141875000Y74743750D01*
X139112500Y93731250D02*
X139112500Y97631250D01*
X137112500Y93731250D02*
X137112500Y97631250D01*
X139112500Y93731250D02*
X137112500Y93731250D01*
X129587500Y112781250D02*
X129587500Y116681250D01*
X127587500Y112781250D02*
X127587500Y116681250D01*
X129587500Y112781250D02*
X127587500Y112781250D01*
X134350000Y55693750D02*
X134350000Y59593750D01*
X132350000Y55693750D02*
X132350000Y59593750D01*
X134350000Y55693750D02*
X132350000Y55693750D01*
X124825000Y74681250D02*
X124825000Y78581250D01*
X122825000Y74681250D02*
X122825000Y78581250D01*
X124825000Y74681250D02*
X122825000Y74681250D01*
X120062500Y93731250D02*
X120062500Y97631250D01*
X118062500Y93731250D02*
X118062500Y97631250D01*
X120062500Y93731250D02*
X118062500Y93731250D01*
X110537500Y112843750D02*
X110537500Y116743750D01*
X108537500Y112843750D02*
X108537500Y116743750D01*
X110537500Y112843750D02*
X108537500Y112843750D01*
X115300000Y55693750D02*
X115300000Y59593750D01*
X113300000Y55693750D02*
X113300000Y59593750D01*
X115300000Y55693750D02*
X113300000Y55693750D01*
X105775000Y74743750D02*
X105775000Y78643750D01*
X103775000Y74743750D02*
X103775000Y78643750D01*
X105775000Y74743750D02*
X103775000Y74743750D01*
X101012500Y93731250D02*
X101012500Y97631250D01*
X99012500Y93731250D02*
X99012500Y97631250D01*
X101012500Y93731250D02*
X99012500Y93731250D01*
X91487500Y112781250D02*
X91487500Y116681250D01*
X89487500Y112781250D02*
X89487500Y116681250D01*
X91487500Y112781250D02*
X89487500Y112781250D01*
X84343750Y36643750D02*
X84343750Y40543750D01*
X82343750Y36643750D02*
X82343750Y40543750D01*
X84343750Y36643750D02*
X82343750Y36643750D01*
X96250000Y55631250D02*
X96250000Y59531250D01*
X94250000Y55631250D02*
X94250000Y59531250D01*
X96250000Y55631250D02*
X94250000Y55631250D01*
X85931250Y74743750D02*
X85931250Y78643750D01*
X83931250Y74743750D02*
X83931250Y78643750D01*
X85931250Y74743750D02*
X83931250Y74743750D01*
X81962500Y93856250D02*
X81962500Y97756250D01*
X79962500Y93856250D02*
X79962500Y97756250D01*
X81962500Y93856250D02*
X79962500Y93856250D01*
X72437500Y112843750D02*
X72437500Y116743750D01*
X70437500Y112843750D02*
X70437500Y116743750D01*
X72437500Y112843750D02*
X70437500Y112843750D01*
X61325000Y36581250D02*
X61325000Y40481250D01*
X59325000Y36581250D02*
X59325000Y40481250D01*
X61325000Y36581250D02*
X59325000Y36581250D01*
X77200000Y55631250D02*
X77200000Y59531250D01*
X75200000Y55631250D02*
X75200000Y59531250D01*
X77200000Y55631250D02*
X75200000Y55631250D01*
X67675000Y74743750D02*
X67675000Y78643750D01*
X65675000Y74743750D02*
X65675000Y78643750D01*
X67675000Y74743750D02*
X65675000Y74743750D01*
X62912500Y93793750D02*
X62912500Y97693750D01*
X60912500Y93793750D02*
X60912500Y97693750D01*
X62912500Y93793750D02*
X60912500Y93793750D01*
X53387500Y112843750D02*
X53387500Y116743750D01*
X51387500Y112843750D02*
X51387500Y116743750D01*
X53387500Y112843750D02*
X51387500Y112843750D01*
X36718750Y36643750D02*
X36718750Y40543750D01*
X34718750Y36643750D02*
X34718750Y40543750D01*
X36718750Y36643750D02*
X34718750Y36643750D01*
X46243750Y55631250D02*
X46243750Y59531250D01*
X44243750Y55631250D02*
X44243750Y59531250D01*
X46243750Y55631250D02*
X44243750Y55631250D01*
X42275000Y74681250D02*
X42275000Y78581250D01*
X40275000Y74681250D02*
X40275000Y78581250D01*
X42275000Y74681250D02*
X40275000Y74681250D01*
X39100000Y93731250D02*
X39100000Y97631250D01*
X37100000Y93731250D02*
X37100000Y97631250D01*
X39100000Y93731250D02*
X37100000Y93731250D01*
X29575000Y107987000D02*
X29575000Y111887000D01*
X27575000Y107987000D02*
X27575000Y111887000D01*
X29575000Y107987000D02*
X27575000Y107987000D01*
X115653750Y48316248D02*
X115653750Y48838752D01*
X117073750Y48316248D02*
X117073750Y48838752D01*
X128300002Y42946250D02*
X127777498Y42946250D01*
X128300002Y44366250D02*
X127777498Y44366250D01*
X127913498Y35476250D02*
X128436002Y35476250D01*
X127913498Y34056250D02*
X128436002Y34056250D01*
X120987750Y29148248D02*
X120987750Y29670752D01*
X122407750Y29148248D02*
X122407750Y29670752D01*
X123496000Y29130248D02*
X123496000Y29652752D01*
X124916000Y29130248D02*
X124916000Y29652752D01*
X125940750Y29139248D02*
X125940750Y29661752D01*
X127360750Y29139248D02*
X127360750Y29661752D01*
X128226750Y29148248D02*
X128226750Y29670752D01*
X129646750Y29148248D02*
X129646750Y29670752D01*
D11*
X36411095Y116391619D02*
X36411095Y115582095D01*
X36363476Y115486857D01*
X36315857Y115439238D01*
X36220619Y115391619D01*
X36030142Y115391619D01*
X35934904Y115439238D01*
X35887285Y115486857D01*
X35839666Y115582095D01*
X35839666Y116391619D01*
X35411095Y115439238D02*
X35268238Y115391619D01*
X35030142Y115391619D01*
X34934904Y115439238D01*
X34887285Y115486857D01*
X34839666Y115582095D01*
X34839666Y115677333D01*
X34887285Y115772571D01*
X34934904Y115820190D01*
X35030142Y115867809D01*
X35220619Y115915428D01*
X35315857Y115963047D01*
X35363476Y116010666D01*
X35411095Y116105904D01*
X35411095Y116201142D01*
X35363476Y116296380D01*
X35315857Y116344000D01*
X35220619Y116391619D01*
X34982523Y116391619D01*
X34839666Y116344000D01*
X34077761Y115915428D02*
X33934904Y115867809D01*
X33887285Y115820190D01*
X33839666Y115724952D01*
X33839666Y115582095D01*
X33887285Y115486857D01*
X33934904Y115439238D01*
X34030142Y115391619D01*
X34411095Y115391619D01*
X34411095Y116391619D01*
X34077761Y116391619D01*
X33982523Y116344000D01*
X33934904Y116296380D01*
X33887285Y116201142D01*
X33887285Y116105904D01*
X33934904Y116010666D01*
X33982523Y115963047D01*
X34077761Y115915428D01*
X34411095Y115915428D01*
X32887285Y115391619D02*
X33458714Y115391619D01*
X33172999Y115391619D02*
X33172999Y116391619D01*
X33268238Y116248761D01*
X33363476Y116153523D01*
X33458714Y116105904D01*
X31822380Y114330666D02*
X31346190Y114664000D01*
X31822380Y114902095D02*
X30822380Y114902095D01*
X30822380Y114521142D01*
X30870000Y114425904D01*
X30917619Y114378285D01*
X31012857Y114330666D01*
X31155714Y114330666D01*
X31250952Y114378285D01*
X31298571Y114425904D01*
X31346190Y114521142D01*
X31346190Y114902095D01*
X30822380Y113473523D02*
X30822380Y113664000D01*
X30870000Y113759238D01*
X30917619Y113806857D01*
X31060476Y113902095D01*
X31250952Y113949714D01*
X31631904Y113949714D01*
X31727142Y113902095D01*
X31774761Y113854476D01*
X31822380Y113759238D01*
X31822380Y113568761D01*
X31774761Y113473523D01*
X31727142Y113425904D01*
X31631904Y113378285D01*
X31393809Y113378285D01*
X31298571Y113425904D01*
X31250952Y113473523D01*
X31203333Y113568761D01*
X31203333Y113759238D01*
X31250952Y113854476D01*
X31298571Y113902095D01*
X31393809Y113949714D01*
X35632380Y114348666D02*
X35156190Y114682000D01*
X35632380Y114920095D02*
X34632380Y114920095D01*
X34632380Y114539142D01*
X34680000Y114443904D01*
X34727619Y114396285D01*
X34822857Y114348666D01*
X34965714Y114348666D01*
X35060952Y114396285D01*
X35108571Y114443904D01*
X35156190Y114539142D01*
X35156190Y114920095D01*
X34632380Y113443904D02*
X34632380Y113920095D01*
X35108571Y113967714D01*
X35060952Y113920095D01*
X35013333Y113824857D01*
X35013333Y113586761D01*
X35060952Y113491523D01*
X35108571Y113443904D01*
X35203809Y113396285D01*
X35441904Y113396285D01*
X35537142Y113443904D01*
X35584761Y113491523D01*
X35632380Y113586761D01*
X35632380Y113824857D01*
X35584761Y113920095D01*
X35537142Y113967714D01*
X108646130Y40246154D02*
X109455654Y40246154D01*
X109550892Y40198535D01*
X109598511Y40150916D01*
X109646130Y40055678D01*
X109646130Y39865202D01*
X109598511Y39769964D01*
X109550892Y39722345D01*
X109455654Y39674726D01*
X108646130Y39674726D01*
X109646130Y38674726D02*
X109646130Y39246154D01*
X109646130Y38960440D02*
X108646130Y38960440D01*
X108788988Y39055678D01*
X108884226Y39150916D01*
X108931845Y39246154D01*
X131126940Y39680440D02*
X131603130Y39680440D01*
X130603130Y40013773D02*
X131126940Y39680440D01*
X130603130Y39347107D01*
X131603130Y38489964D02*
X131603130Y39061392D01*
X131603130Y38775678D02*
X130603130Y38775678D01*
X130745988Y38870916D01*
X130841226Y38966154D01*
X130888845Y39061392D01*
X138231511Y45211833D02*
X138279130Y45068976D01*
X138279130Y44830880D01*
X138231511Y44735642D01*
X138183892Y44688023D01*
X138088654Y44640404D01*
X137993416Y44640404D01*
X137898178Y44688023D01*
X137850559Y44735642D01*
X137802940Y44830880D01*
X137755321Y45021357D01*
X137707702Y45116595D01*
X137660083Y45164214D01*
X137564845Y45211833D01*
X137469607Y45211833D01*
X137374369Y45164214D01*
X137326750Y45116595D01*
X137279130Y45021357D01*
X137279130Y44783261D01*
X137326750Y44640404D01*
X137279130Y44307071D02*
X138279130Y44068976D01*
X137564845Y43878500D01*
X138279130Y43688023D01*
X137279130Y43449928D01*
X138279130Y42545166D02*
X138279130Y43116595D01*
X138279130Y42830880D02*
X137279130Y42830880D01*
X137421988Y42926119D01*
X137517226Y43021357D01*
X137564845Y43116595D01*
X106403130Y35037166D02*
X105926940Y35370500D01*
X106403130Y35608595D02*
X105403130Y35608595D01*
X105403130Y35227642D01*
X105450750Y35132404D01*
X105498369Y35084785D01*
X105593607Y35037166D01*
X105736464Y35037166D01*
X105831702Y35084785D01*
X105879321Y35132404D01*
X105926940Y35227642D01*
X105926940Y35608595D01*
X105736464Y34180023D02*
X106403130Y34180023D01*
X105355511Y34418119D02*
X106069797Y34656214D01*
X106069797Y34037166D01*
X126848130Y46204166D02*
X126371940Y46537500D01*
X126848130Y46775595D02*
X125848130Y46775595D01*
X125848130Y46394642D01*
X125895750Y46299404D01*
X125943369Y46251785D01*
X126038607Y46204166D01*
X126181464Y46204166D01*
X126276702Y46251785D01*
X126324321Y46299404D01*
X126371940Y46394642D01*
X126371940Y46775595D01*
X125848130Y45870833D02*
X125848130Y45251785D01*
X126229083Y45585119D01*
X126229083Y45442261D01*
X126276702Y45347023D01*
X126324321Y45299404D01*
X126419559Y45251785D01*
X126657654Y45251785D01*
X126752892Y45299404D01*
X126800511Y45347023D01*
X126848130Y45442261D01*
X126848130Y45727976D01*
X126800511Y45823214D01*
X126752892Y45870833D01*
X38932380Y109649666D02*
X38456190Y109983000D01*
X38932380Y110221095D02*
X37932380Y110221095D01*
X37932380Y109840142D01*
X37980000Y109744904D01*
X38027619Y109697285D01*
X38122857Y109649666D01*
X38265714Y109649666D01*
X38360952Y109697285D01*
X38408571Y109744904D01*
X38456190Y109840142D01*
X38456190Y110221095D01*
X38027619Y109268714D02*
X37980000Y109221095D01*
X37932380Y109125857D01*
X37932380Y108887761D01*
X37980000Y108792523D01*
X38027619Y108744904D01*
X38122857Y108697285D01*
X38218095Y108697285D01*
X38360952Y108744904D01*
X38932380Y109316333D01*
X38932380Y108697285D01*
X35122380Y109631666D02*
X34646190Y109965000D01*
X35122380Y110203095D02*
X34122380Y110203095D01*
X34122380Y109822142D01*
X34170000Y109726904D01*
X34217619Y109679285D01*
X34312857Y109631666D01*
X34455714Y109631666D01*
X34550952Y109679285D01*
X34598571Y109726904D01*
X34646190Y109822142D01*
X34646190Y110203095D01*
X35122380Y108679285D02*
X35122380Y109250714D01*
X35122380Y108965000D02*
X34122380Y108965000D01*
X34265238Y109060238D01*
X34360476Y109155476D01*
X34408095Y109250714D01*
X46071571Y109716833D02*
X46071571Y110050166D01*
X46595380Y110050166D02*
X45595380Y110050166D01*
X45595380Y109573976D01*
X46595380Y108669214D02*
X46595380Y109240642D01*
X46595380Y108954928D02*
X45595380Y108954928D01*
X45738238Y109050166D01*
X45833476Y109145404D01*
X45881095Y109240642D01*
X328715380Y35124285D02*
X327715380Y35124285D01*
X327715380Y34886190D01*
X327763000Y34743333D01*
X327858238Y34648095D01*
X327953476Y34600476D01*
X328143952Y34552857D01*
X328286809Y34552857D01*
X328477285Y34600476D01*
X328572523Y34648095D01*
X328667761Y34743333D01*
X328715380Y34886190D01*
X328715380Y35124285D01*
X327715380Y33695714D02*
X327715380Y33886190D01*
X327763000Y33981428D01*
X327810619Y34029047D01*
X327953476Y34124285D01*
X328143952Y34171904D01*
X328524904Y34171904D01*
X328620142Y34124285D01*
X328667761Y34076666D01*
X328715380Y33981428D01*
X328715380Y33790952D01*
X328667761Y33695714D01*
X328620142Y33648095D01*
X328524904Y33600476D01*
X328286809Y33600476D01*
X328191571Y33648095D01*
X328143952Y33695714D01*
X328096333Y33790952D01*
X328096333Y33981428D01*
X328143952Y34076666D01*
X328191571Y34124285D01*
X328286809Y34171904D01*
X327715380Y33267142D02*
X327715380Y32600476D01*
X328715380Y33029047D01*
X333287380Y59125285D02*
X332287380Y59125285D01*
X332287380Y58887190D01*
X332335000Y58744333D01*
X332430238Y58649095D01*
X332525476Y58601476D01*
X332715952Y58553857D01*
X332858809Y58553857D01*
X333049285Y58601476D01*
X333144523Y58649095D01*
X333239761Y58744333D01*
X333287380Y58887190D01*
X333287380Y59125285D01*
X332287380Y57696714D02*
X332287380Y57887190D01*
X332335000Y57982428D01*
X332382619Y58030047D01*
X332525476Y58125285D01*
X332715952Y58172904D01*
X333096904Y58172904D01*
X333192142Y58125285D01*
X333239761Y58077666D01*
X333287380Y57982428D01*
X333287380Y57791952D01*
X333239761Y57696714D01*
X333192142Y57649095D01*
X333096904Y57601476D01*
X332858809Y57601476D01*
X332763571Y57649095D01*
X332715952Y57696714D01*
X332668333Y57791952D01*
X332668333Y57982428D01*
X332715952Y58077666D01*
X332763571Y58125285D01*
X332858809Y58172904D01*
X332287380Y56744333D02*
X332287380Y56934809D01*
X332335000Y57030047D01*
X332382619Y57077666D01*
X332525476Y57172904D01*
X332715952Y57220523D01*
X333096904Y57220523D01*
X333192142Y57172904D01*
X333239761Y57125285D01*
X333287380Y57030047D01*
X333287380Y56839571D01*
X333239761Y56744333D01*
X333192142Y56696714D01*
X333096904Y56649095D01*
X332858809Y56649095D01*
X332763571Y56696714D01*
X332715952Y56744333D01*
X332668333Y56839571D01*
X332668333Y57030047D01*
X332715952Y57125285D01*
X332763571Y57172904D01*
X332858809Y57220523D01*
X333287380Y78050285D02*
X332287380Y78050285D01*
X332287380Y77812190D01*
X332335000Y77669333D01*
X332430238Y77574095D01*
X332525476Y77526476D01*
X332715952Y77478857D01*
X332858809Y77478857D01*
X333049285Y77526476D01*
X333144523Y77574095D01*
X333239761Y77669333D01*
X333287380Y77812190D01*
X333287380Y78050285D01*
X332287380Y76621714D02*
X332287380Y76812190D01*
X332335000Y76907428D01*
X332382619Y76955047D01*
X332525476Y77050285D01*
X332715952Y77097904D01*
X333096904Y77097904D01*
X333192142Y77050285D01*
X333239761Y77002666D01*
X333287380Y76907428D01*
X333287380Y76716952D01*
X333239761Y76621714D01*
X333192142Y76574095D01*
X333096904Y76526476D01*
X332858809Y76526476D01*
X332763571Y76574095D01*
X332715952Y76621714D01*
X332668333Y76716952D01*
X332668333Y76907428D01*
X332715952Y77002666D01*
X332763571Y77050285D01*
X332858809Y77097904D01*
X332287380Y75621714D02*
X332287380Y76097904D01*
X332763571Y76145523D01*
X332715952Y76097904D01*
X332668333Y76002666D01*
X332668333Y75764571D01*
X332715952Y75669333D01*
X332763571Y75621714D01*
X332858809Y75574095D01*
X333096904Y75574095D01*
X333192142Y75621714D01*
X333239761Y75669333D01*
X333287380Y75764571D01*
X333287380Y76002666D01*
X333239761Y76097904D01*
X333192142Y76145523D01*
X333414380Y97225285D02*
X332414380Y97225285D01*
X332414380Y96987190D01*
X332462000Y96844333D01*
X332557238Y96749095D01*
X332652476Y96701476D01*
X332842952Y96653857D01*
X332985809Y96653857D01*
X333176285Y96701476D01*
X333271523Y96749095D01*
X333366761Y96844333D01*
X333414380Y96987190D01*
X333414380Y97225285D01*
X332414380Y95796714D02*
X332414380Y95987190D01*
X332462000Y96082428D01*
X332509619Y96130047D01*
X332652476Y96225285D01*
X332842952Y96272904D01*
X333223904Y96272904D01*
X333319142Y96225285D01*
X333366761Y96177666D01*
X333414380Y96082428D01*
X333414380Y95891952D01*
X333366761Y95796714D01*
X333319142Y95749095D01*
X333223904Y95701476D01*
X332985809Y95701476D01*
X332890571Y95749095D01*
X332842952Y95796714D01*
X332795333Y95891952D01*
X332795333Y96082428D01*
X332842952Y96177666D01*
X332890571Y96225285D01*
X332985809Y96272904D01*
X332747714Y94844333D02*
X333414380Y94844333D01*
X332366761Y95082428D02*
X333081047Y95320523D01*
X333081047Y94701476D01*
X333160380Y116021285D02*
X332160380Y116021285D01*
X332160380Y115783190D01*
X332208000Y115640333D01*
X332303238Y115545095D01*
X332398476Y115497476D01*
X332588952Y115449857D01*
X332731809Y115449857D01*
X332922285Y115497476D01*
X333017523Y115545095D01*
X333112761Y115640333D01*
X333160380Y115783190D01*
X333160380Y116021285D01*
X332160380Y114592714D02*
X332160380Y114783190D01*
X332208000Y114878428D01*
X332255619Y114926047D01*
X332398476Y115021285D01*
X332588952Y115068904D01*
X332969904Y115068904D01*
X333065142Y115021285D01*
X333112761Y114973666D01*
X333160380Y114878428D01*
X333160380Y114687952D01*
X333112761Y114592714D01*
X333065142Y114545095D01*
X332969904Y114497476D01*
X332731809Y114497476D01*
X332636571Y114545095D01*
X332588952Y114592714D01*
X332541333Y114687952D01*
X332541333Y114878428D01*
X332588952Y114973666D01*
X332636571Y115021285D01*
X332731809Y115068904D01*
X332160380Y114164142D02*
X332160380Y113545095D01*
X332541333Y113878428D01*
X332541333Y113735571D01*
X332588952Y113640333D01*
X332636571Y113592714D01*
X332731809Y113545095D01*
X332969904Y113545095D01*
X333065142Y113592714D01*
X333112761Y113640333D01*
X333160380Y113735571D01*
X333160380Y114021285D01*
X333112761Y114116523D01*
X333065142Y114164142D01*
X309792380Y35122285D02*
X308792380Y35122285D01*
X308792380Y34884190D01*
X308840000Y34741333D01*
X308935238Y34646095D01*
X309030476Y34598476D01*
X309220952Y34550857D01*
X309363809Y34550857D01*
X309554285Y34598476D01*
X309649523Y34646095D01*
X309744761Y34741333D01*
X309792380Y34884190D01*
X309792380Y35122285D01*
X308792380Y33693714D02*
X308792380Y33884190D01*
X308840000Y33979428D01*
X308887619Y34027047D01*
X309030476Y34122285D01*
X309220952Y34169904D01*
X309601904Y34169904D01*
X309697142Y34122285D01*
X309744761Y34074666D01*
X309792380Y33979428D01*
X309792380Y33788952D01*
X309744761Y33693714D01*
X309697142Y33646095D01*
X309601904Y33598476D01*
X309363809Y33598476D01*
X309268571Y33646095D01*
X309220952Y33693714D01*
X309173333Y33788952D01*
X309173333Y33979428D01*
X309220952Y34074666D01*
X309268571Y34122285D01*
X309363809Y34169904D01*
X308887619Y33217523D02*
X308840000Y33169904D01*
X308792380Y33074666D01*
X308792380Y32836571D01*
X308840000Y32741333D01*
X308887619Y32693714D01*
X308982857Y32646095D01*
X309078095Y32646095D01*
X309220952Y32693714D01*
X309792380Y33265142D01*
X309792380Y32646095D01*
X309633630Y54333035D02*
X308633630Y54333035D01*
X308633630Y54094940D01*
X308681250Y53952083D01*
X308776488Y53856845D01*
X308871726Y53809226D01*
X309062202Y53761607D01*
X309205059Y53761607D01*
X309395535Y53809226D01*
X309490773Y53856845D01*
X309586011Y53952083D01*
X309633630Y54094940D01*
X309633630Y54333035D01*
X308633630Y52904464D02*
X308633630Y53094940D01*
X308681250Y53190178D01*
X308728869Y53237797D01*
X308871726Y53333035D01*
X309062202Y53380654D01*
X309443154Y53380654D01*
X309538392Y53333035D01*
X309586011Y53285416D01*
X309633630Y53190178D01*
X309633630Y52999702D01*
X309586011Y52904464D01*
X309538392Y52856845D01*
X309443154Y52809226D01*
X309205059Y52809226D01*
X309109821Y52856845D01*
X309062202Y52904464D01*
X309014583Y52999702D01*
X309014583Y53190178D01*
X309062202Y53285416D01*
X309109821Y53333035D01*
X309205059Y53380654D01*
X309633630Y51856845D02*
X309633630Y52428273D01*
X309633630Y52142559D02*
X308633630Y52142559D01*
X308776488Y52237797D01*
X308871726Y52333035D01*
X308919345Y52428273D01*
X273914880Y97195535D02*
X272914880Y97195535D01*
X272914880Y96957440D01*
X272962500Y96814583D01*
X273057738Y96719345D01*
X273152976Y96671726D01*
X273343452Y96624107D01*
X273486309Y96624107D01*
X273676785Y96671726D01*
X273772023Y96719345D01*
X273867261Y96814583D01*
X273914880Y96957440D01*
X273914880Y97195535D01*
X272914880Y95766964D02*
X272914880Y95957440D01*
X272962500Y96052678D01*
X273010119Y96100297D01*
X273152976Y96195535D01*
X273343452Y96243154D01*
X273724404Y96243154D01*
X273819642Y96195535D01*
X273867261Y96147916D01*
X273914880Y96052678D01*
X273914880Y95862202D01*
X273867261Y95766964D01*
X273819642Y95719345D01*
X273724404Y95671726D01*
X273486309Y95671726D01*
X273391071Y95719345D01*
X273343452Y95766964D01*
X273295833Y95862202D01*
X273295833Y96052678D01*
X273343452Y96147916D01*
X273391071Y96195535D01*
X273486309Y96243154D01*
X272914880Y95052678D02*
X272914880Y94957440D01*
X272962500Y94862202D01*
X273010119Y94814583D01*
X273105357Y94766964D01*
X273295833Y94719345D01*
X273533928Y94719345D01*
X273724404Y94766964D01*
X273819642Y94814583D01*
X273867261Y94862202D01*
X273914880Y94957440D01*
X273914880Y95052678D01*
X273867261Y95147916D01*
X273819642Y95195535D01*
X273724404Y95243154D01*
X273533928Y95290773D01*
X273295833Y95290773D01*
X273105357Y95243154D01*
X273010119Y95195535D01*
X272962500Y95147916D01*
X272914880Y95052678D01*
X264389880Y116308035D02*
X263389880Y116308035D01*
X263389880Y116069940D01*
X263437500Y115927083D01*
X263532738Y115831845D01*
X263627976Y115784226D01*
X263818452Y115736607D01*
X263961309Y115736607D01*
X264151785Y115784226D01*
X264247023Y115831845D01*
X264342261Y115927083D01*
X264389880Y116069940D01*
X264389880Y116308035D01*
X263389880Y114831845D02*
X263389880Y115308035D01*
X263866071Y115355654D01*
X263818452Y115308035D01*
X263770833Y115212797D01*
X263770833Y114974702D01*
X263818452Y114879464D01*
X263866071Y114831845D01*
X263961309Y114784226D01*
X264199404Y114784226D01*
X264294642Y114831845D01*
X264342261Y114879464D01*
X264389880Y114974702D01*
X264389880Y115212797D01*
X264342261Y115308035D01*
X264294642Y115355654D01*
X264389880Y114308035D02*
X264389880Y114117559D01*
X264342261Y114022321D01*
X264294642Y113974702D01*
X264151785Y113879464D01*
X263961309Y113831845D01*
X263580357Y113831845D01*
X263485119Y113879464D01*
X263437500Y113927083D01*
X263389880Y114022321D01*
X263389880Y114212797D01*
X263437500Y114308035D01*
X263485119Y114355654D01*
X263580357Y114403273D01*
X263818452Y114403273D01*
X263913690Y114355654D01*
X263961309Y114308035D01*
X264008928Y114212797D01*
X264008928Y114022321D01*
X263961309Y113927083D01*
X263913690Y113879464D01*
X263818452Y113831845D01*
X290583630Y34614285D02*
X289583630Y34614285D01*
X289583630Y34376190D01*
X289631250Y34233333D01*
X289726488Y34138095D01*
X289821726Y34090476D01*
X290012202Y34042857D01*
X290155059Y34042857D01*
X290345535Y34090476D01*
X290440773Y34138095D01*
X290536011Y34233333D01*
X290583630Y34376190D01*
X290583630Y34614285D01*
X289583630Y33138095D02*
X289583630Y33614285D01*
X290059821Y33661904D01*
X290012202Y33614285D01*
X289964583Y33519047D01*
X289964583Y33280952D01*
X290012202Y33185714D01*
X290059821Y33138095D01*
X290155059Y33090476D01*
X290393154Y33090476D01*
X290488392Y33138095D01*
X290536011Y33185714D01*
X290583630Y33280952D01*
X290583630Y33519047D01*
X290536011Y33614285D01*
X290488392Y33661904D01*
X290012202Y32519047D02*
X289964583Y32614285D01*
X289916964Y32661904D01*
X289821726Y32709523D01*
X289774107Y32709523D01*
X289678869Y32661904D01*
X289631250Y32614285D01*
X289583630Y32519047D01*
X289583630Y32328571D01*
X289631250Y32233333D01*
X289678869Y32185714D01*
X289774107Y32138095D01*
X289821726Y32138095D01*
X289916964Y32185714D01*
X289964583Y32233333D01*
X290012202Y32328571D01*
X290012202Y32519047D01*
X290059821Y32614285D01*
X290107440Y32661904D01*
X290202678Y32709523D01*
X290393154Y32709523D01*
X290488392Y32661904D01*
X290536011Y32614285D01*
X290583630Y32519047D01*
X290583630Y32328571D01*
X290536011Y32233333D01*
X290488392Y32185714D01*
X290393154Y32138095D01*
X290202678Y32138095D01*
X290107440Y32185714D01*
X290059821Y32233333D01*
X290012202Y32328571D01*
X290583630Y78145535D02*
X289583630Y78145535D01*
X289583630Y77907440D01*
X289631250Y77764583D01*
X289726488Y77669345D01*
X289821726Y77621726D01*
X290012202Y77574107D01*
X290155059Y77574107D01*
X290345535Y77621726D01*
X290440773Y77669345D01*
X290536011Y77764583D01*
X290583630Y77907440D01*
X290583630Y78145535D01*
X289583630Y76669345D02*
X289583630Y77145535D01*
X290059821Y77193154D01*
X290012202Y77145535D01*
X289964583Y77050297D01*
X289964583Y76812202D01*
X290012202Y76716964D01*
X290059821Y76669345D01*
X290155059Y76621726D01*
X290393154Y76621726D01*
X290488392Y76669345D01*
X290536011Y76716964D01*
X290583630Y76812202D01*
X290583630Y77050297D01*
X290536011Y77145535D01*
X290488392Y77193154D01*
X289583630Y76288392D02*
X289583630Y75621726D01*
X290583630Y76050297D01*
X297727380Y97258035D02*
X296727380Y97258035D01*
X296727380Y97019940D01*
X296775000Y96877083D01*
X296870238Y96781845D01*
X296965476Y96734226D01*
X297155952Y96686607D01*
X297298809Y96686607D01*
X297489285Y96734226D01*
X297584523Y96781845D01*
X297679761Y96877083D01*
X297727380Y97019940D01*
X297727380Y97258035D01*
X296727380Y95781845D02*
X296727380Y96258035D01*
X297203571Y96305654D01*
X297155952Y96258035D01*
X297108333Y96162797D01*
X297108333Y95924702D01*
X297155952Y95829464D01*
X297203571Y95781845D01*
X297298809Y95734226D01*
X297536904Y95734226D01*
X297632142Y95781845D01*
X297679761Y95829464D01*
X297727380Y95924702D01*
X297727380Y96162797D01*
X297679761Y96258035D01*
X297632142Y96305654D01*
X296727380Y94877083D02*
X296727380Y95067559D01*
X296775000Y95162797D01*
X296822619Y95210416D01*
X296965476Y95305654D01*
X297155952Y95353273D01*
X297536904Y95353273D01*
X297632142Y95305654D01*
X297679761Y95258035D01*
X297727380Y95162797D01*
X297727380Y94972321D01*
X297679761Y94877083D01*
X297632142Y94829464D01*
X297536904Y94781845D01*
X297298809Y94781845D01*
X297203571Y94829464D01*
X297155952Y94877083D01*
X297108333Y94972321D01*
X297108333Y95162797D01*
X297155952Y95258035D01*
X297203571Y95305654D01*
X297298809Y95353273D01*
X292964880Y116245535D02*
X291964880Y116245535D01*
X291964880Y116007440D01*
X292012500Y115864583D01*
X292107738Y115769345D01*
X292202976Y115721726D01*
X292393452Y115674107D01*
X292536309Y115674107D01*
X292726785Y115721726D01*
X292822023Y115769345D01*
X292917261Y115864583D01*
X292964880Y116007440D01*
X292964880Y116245535D01*
X291964880Y114769345D02*
X291964880Y115245535D01*
X292441071Y115293154D01*
X292393452Y115245535D01*
X292345833Y115150297D01*
X292345833Y114912202D01*
X292393452Y114816964D01*
X292441071Y114769345D01*
X292536309Y114721726D01*
X292774404Y114721726D01*
X292869642Y114769345D01*
X292917261Y114816964D01*
X292964880Y114912202D01*
X292964880Y115150297D01*
X292917261Y115245535D01*
X292869642Y115293154D01*
X291964880Y113816964D02*
X291964880Y114293154D01*
X292441071Y114340773D01*
X292393452Y114293154D01*
X292345833Y114197916D01*
X292345833Y113959821D01*
X292393452Y113864583D01*
X292441071Y113816964D01*
X292536309Y113769345D01*
X292774404Y113769345D01*
X292869642Y113816964D01*
X292917261Y113864583D01*
X292964880Y113959821D01*
X292964880Y114197916D01*
X292917261Y114293154D01*
X292869642Y114340773D01*
X276296130Y59220535D02*
X275296130Y59220535D01*
X275296130Y58982440D01*
X275343750Y58839583D01*
X275438988Y58744345D01*
X275534226Y58696726D01*
X275724702Y58649107D01*
X275867559Y58649107D01*
X276058035Y58696726D01*
X276153273Y58744345D01*
X276248511Y58839583D01*
X276296130Y58982440D01*
X276296130Y59220535D01*
X275296130Y57744345D02*
X275296130Y58220535D01*
X275772321Y58268154D01*
X275724702Y58220535D01*
X275677083Y58125297D01*
X275677083Y57887202D01*
X275724702Y57791964D01*
X275772321Y57744345D01*
X275867559Y57696726D01*
X276105654Y57696726D01*
X276200892Y57744345D01*
X276248511Y57791964D01*
X276296130Y57887202D01*
X276296130Y58125297D01*
X276248511Y58220535D01*
X276200892Y58268154D01*
X275629464Y56839583D02*
X276296130Y56839583D01*
X275248511Y57077678D02*
X275962797Y57315773D01*
X275962797Y56696726D01*
X258722619Y75779464D02*
X259722619Y75779464D01*
X259722619Y76017559D01*
X259675000Y76160416D01*
X259579761Y76255654D01*
X259484523Y76303273D01*
X259294047Y76350892D01*
X259151190Y76350892D01*
X258960714Y76303273D01*
X258865476Y76255654D01*
X258770238Y76160416D01*
X258722619Y76017559D01*
X258722619Y75779464D01*
X259722619Y77255654D02*
X259722619Y76779464D01*
X259246428Y76731845D01*
X259294047Y76779464D01*
X259341666Y76874702D01*
X259341666Y77112797D01*
X259294047Y77208035D01*
X259246428Y77255654D01*
X259151190Y77303273D01*
X258913095Y77303273D01*
X258817857Y77255654D01*
X258770238Y77208035D01*
X258722619Y77112797D01*
X258722619Y76874702D01*
X258770238Y76779464D01*
X258817857Y76731845D01*
X259722619Y77636607D02*
X259722619Y78255654D01*
X259341666Y77922321D01*
X259341666Y78065178D01*
X259294047Y78160416D01*
X259246428Y78208035D01*
X259151190Y78255654D01*
X258913095Y78255654D01*
X258817857Y78208035D01*
X258770238Y78160416D01*
X258722619Y78065178D01*
X258722619Y77779464D01*
X258770238Y77684226D01*
X258817857Y77636607D01*
X254864880Y97258035D02*
X253864880Y97258035D01*
X253864880Y97019940D01*
X253912500Y96877083D01*
X254007738Y96781845D01*
X254102976Y96734226D01*
X254293452Y96686607D01*
X254436309Y96686607D01*
X254626785Y96734226D01*
X254722023Y96781845D01*
X254817261Y96877083D01*
X254864880Y97019940D01*
X254864880Y97258035D01*
X253864880Y95781845D02*
X253864880Y96258035D01*
X254341071Y96305654D01*
X254293452Y96258035D01*
X254245833Y96162797D01*
X254245833Y95924702D01*
X254293452Y95829464D01*
X254341071Y95781845D01*
X254436309Y95734226D01*
X254674404Y95734226D01*
X254769642Y95781845D01*
X254817261Y95829464D01*
X254864880Y95924702D01*
X254864880Y96162797D01*
X254817261Y96258035D01*
X254769642Y96305654D01*
X253960119Y95353273D02*
X253912500Y95305654D01*
X253864880Y95210416D01*
X253864880Y94972321D01*
X253912500Y94877083D01*
X253960119Y94829464D01*
X254055357Y94781845D01*
X254150595Y94781845D01*
X254293452Y94829464D01*
X254864880Y95400892D01*
X254864880Y94781845D01*
X245339880Y116370535D02*
X244339880Y116370535D01*
X244339880Y116132440D01*
X244387500Y115989583D01*
X244482738Y115894345D01*
X244577976Y115846726D01*
X244768452Y115799107D01*
X244911309Y115799107D01*
X245101785Y115846726D01*
X245197023Y115894345D01*
X245292261Y115989583D01*
X245339880Y116132440D01*
X245339880Y116370535D01*
X244339880Y114894345D02*
X244339880Y115370535D01*
X244816071Y115418154D01*
X244768452Y115370535D01*
X244720833Y115275297D01*
X244720833Y115037202D01*
X244768452Y114941964D01*
X244816071Y114894345D01*
X244911309Y114846726D01*
X245149404Y114846726D01*
X245244642Y114894345D01*
X245292261Y114941964D01*
X245339880Y115037202D01*
X245339880Y115275297D01*
X245292261Y115370535D01*
X245244642Y115418154D01*
X245339880Y113894345D02*
X245339880Y114465773D01*
X245339880Y114180059D02*
X244339880Y114180059D01*
X244482738Y114275297D01*
X244577976Y114370535D01*
X244625595Y114465773D01*
X253277380Y40045535D02*
X252277380Y40045535D01*
X252277380Y39807440D01*
X252325000Y39664583D01*
X252420238Y39569345D01*
X252515476Y39521726D01*
X252705952Y39474107D01*
X252848809Y39474107D01*
X253039285Y39521726D01*
X253134523Y39569345D01*
X253229761Y39664583D01*
X253277380Y39807440D01*
X253277380Y40045535D01*
X252277380Y38569345D02*
X252277380Y39045535D01*
X252753571Y39093154D01*
X252705952Y39045535D01*
X252658333Y38950297D01*
X252658333Y38712202D01*
X252705952Y38616964D01*
X252753571Y38569345D01*
X252848809Y38521726D01*
X253086904Y38521726D01*
X253182142Y38569345D01*
X253229761Y38616964D01*
X253277380Y38712202D01*
X253277380Y38950297D01*
X253229761Y39045535D01*
X253182142Y39093154D01*
X252277380Y37902678D02*
X252277380Y37807440D01*
X252325000Y37712202D01*
X252372619Y37664583D01*
X252467857Y37616964D01*
X252658333Y37569345D01*
X252896428Y37569345D01*
X253086904Y37616964D01*
X253182142Y37664583D01*
X253229761Y37712202D01*
X253277380Y37807440D01*
X253277380Y37902678D01*
X253229761Y37997916D01*
X253182142Y38045535D01*
X253086904Y38093154D01*
X252896428Y38140773D01*
X252658333Y38140773D01*
X252467857Y38093154D01*
X252372619Y38045535D01*
X252325000Y37997916D01*
X252277380Y37902678D01*
X250102380Y59220535D02*
X249102380Y59220535D01*
X249102380Y58982440D01*
X249150000Y58839583D01*
X249245238Y58744345D01*
X249340476Y58696726D01*
X249530952Y58649107D01*
X249673809Y58649107D01*
X249864285Y58696726D01*
X249959523Y58744345D01*
X250054761Y58839583D01*
X250102380Y58982440D01*
X250102380Y59220535D01*
X249435714Y57791964D02*
X250102380Y57791964D01*
X249054761Y58030059D02*
X249769047Y58268154D01*
X249769047Y57649107D01*
X250102380Y57220535D02*
X250102380Y57030059D01*
X250054761Y56934821D01*
X250007142Y56887202D01*
X249864285Y56791964D01*
X249673809Y56744345D01*
X249292857Y56744345D01*
X249197619Y56791964D01*
X249150000Y56839583D01*
X249102380Y56934821D01*
X249102380Y57125297D01*
X249150000Y57220535D01*
X249197619Y57268154D01*
X249292857Y57315773D01*
X249530952Y57315773D01*
X249626190Y57268154D01*
X249673809Y57220535D01*
X249721428Y57125297D01*
X249721428Y56934821D01*
X249673809Y56839583D01*
X249626190Y56791964D01*
X249530952Y56744345D01*
X240577380Y78208035D02*
X239577380Y78208035D01*
X239577380Y77969940D01*
X239625000Y77827083D01*
X239720238Y77731845D01*
X239815476Y77684226D01*
X240005952Y77636607D01*
X240148809Y77636607D01*
X240339285Y77684226D01*
X240434523Y77731845D01*
X240529761Y77827083D01*
X240577380Y77969940D01*
X240577380Y78208035D01*
X239910714Y76779464D02*
X240577380Y76779464D01*
X239529761Y77017559D02*
X240244047Y77255654D01*
X240244047Y76636607D01*
X240005952Y76112797D02*
X239958333Y76208035D01*
X239910714Y76255654D01*
X239815476Y76303273D01*
X239767857Y76303273D01*
X239672619Y76255654D01*
X239625000Y76208035D01*
X239577380Y76112797D01*
X239577380Y75922321D01*
X239625000Y75827083D01*
X239672619Y75779464D01*
X239767857Y75731845D01*
X239815476Y75731845D01*
X239910714Y75779464D01*
X239958333Y75827083D01*
X240005952Y75922321D01*
X240005952Y76112797D01*
X240053571Y76208035D01*
X240101190Y76255654D01*
X240196428Y76303273D01*
X240386904Y76303273D01*
X240482142Y76255654D01*
X240529761Y76208035D01*
X240577380Y76112797D01*
X240577380Y75922321D01*
X240529761Y75827083D01*
X240482142Y75779464D01*
X240386904Y75731845D01*
X240196428Y75731845D01*
X240101190Y75779464D01*
X240053571Y75827083D01*
X240005952Y75922321D01*
X235814880Y97258035D02*
X234814880Y97258035D01*
X234814880Y97019940D01*
X234862500Y96877083D01*
X234957738Y96781845D01*
X235052976Y96734226D01*
X235243452Y96686607D01*
X235386309Y96686607D01*
X235576785Y96734226D01*
X235672023Y96781845D01*
X235767261Y96877083D01*
X235814880Y97019940D01*
X235814880Y97258035D01*
X235148214Y95829464D02*
X235814880Y95829464D01*
X234767261Y96067559D02*
X235481547Y96305654D01*
X235481547Y95686607D01*
X234814880Y95400892D02*
X234814880Y94734226D01*
X235814880Y95162797D01*
X226289880Y116370535D02*
X225289880Y116370535D01*
X225289880Y116132440D01*
X225337500Y115989583D01*
X225432738Y115894345D01*
X225527976Y115846726D01*
X225718452Y115799107D01*
X225861309Y115799107D01*
X226051785Y115846726D01*
X226147023Y115894345D01*
X226242261Y115989583D01*
X226289880Y116132440D01*
X226289880Y116370535D01*
X225623214Y114941964D02*
X226289880Y114941964D01*
X225242261Y115180059D02*
X225956547Y115418154D01*
X225956547Y114799107D01*
X225289880Y113989583D02*
X225289880Y114180059D01*
X225337500Y114275297D01*
X225385119Y114322916D01*
X225527976Y114418154D01*
X225718452Y114465773D01*
X226099404Y114465773D01*
X226194642Y114418154D01*
X226242261Y114370535D01*
X226289880Y114275297D01*
X226289880Y114084821D01*
X226242261Y113989583D01*
X226194642Y113941964D01*
X226099404Y113894345D01*
X225861309Y113894345D01*
X225766071Y113941964D01*
X225718452Y113989583D01*
X225670833Y114084821D01*
X225670833Y114275297D01*
X225718452Y114370535D01*
X225766071Y114418154D01*
X225861309Y114465773D01*
X229464880Y40045535D02*
X228464880Y40045535D01*
X228464880Y39807440D01*
X228512500Y39664583D01*
X228607738Y39569345D01*
X228702976Y39521726D01*
X228893452Y39474107D01*
X229036309Y39474107D01*
X229226785Y39521726D01*
X229322023Y39569345D01*
X229417261Y39664583D01*
X229464880Y39807440D01*
X229464880Y40045535D01*
X228798214Y38616964D02*
X229464880Y38616964D01*
X228417261Y38855059D02*
X229131547Y39093154D01*
X229131547Y38474107D01*
X228464880Y37616964D02*
X228464880Y38093154D01*
X228941071Y38140773D01*
X228893452Y38093154D01*
X228845833Y37997916D01*
X228845833Y37759821D01*
X228893452Y37664583D01*
X228941071Y37616964D01*
X229036309Y37569345D01*
X229274404Y37569345D01*
X229369642Y37616964D01*
X229417261Y37664583D01*
X229464880Y37759821D01*
X229464880Y37997916D01*
X229417261Y38093154D01*
X229369642Y38140773D01*
X231052380Y59220535D02*
X230052380Y59220535D01*
X230052380Y58982440D01*
X230100000Y58839583D01*
X230195238Y58744345D01*
X230290476Y58696726D01*
X230480952Y58649107D01*
X230623809Y58649107D01*
X230814285Y58696726D01*
X230909523Y58744345D01*
X231004761Y58839583D01*
X231052380Y58982440D01*
X231052380Y59220535D01*
X230385714Y57791964D02*
X231052380Y57791964D01*
X230004761Y58030059D02*
X230719047Y58268154D01*
X230719047Y57649107D01*
X230385714Y56839583D02*
X231052380Y56839583D01*
X230004761Y57077678D02*
X230719047Y57315773D01*
X230719047Y56696726D01*
X221527380Y78145535D02*
X220527380Y78145535D01*
X220527380Y77907440D01*
X220575000Y77764583D01*
X220670238Y77669345D01*
X220765476Y77621726D01*
X220955952Y77574107D01*
X221098809Y77574107D01*
X221289285Y77621726D01*
X221384523Y77669345D01*
X221479761Y77764583D01*
X221527380Y77907440D01*
X221527380Y78145535D01*
X220860714Y76716964D02*
X221527380Y76716964D01*
X220479761Y76955059D02*
X221194047Y77193154D01*
X221194047Y76574107D01*
X220527380Y76288392D02*
X220527380Y75669345D01*
X220908333Y76002678D01*
X220908333Y75859821D01*
X220955952Y75764583D01*
X221003571Y75716964D01*
X221098809Y75669345D01*
X221336904Y75669345D01*
X221432142Y75716964D01*
X221479761Y75764583D01*
X221527380Y75859821D01*
X221527380Y76145535D01*
X221479761Y76240773D01*
X221432142Y76288392D01*
X216764880Y97195535D02*
X215764880Y97195535D01*
X215764880Y96957440D01*
X215812500Y96814583D01*
X215907738Y96719345D01*
X216002976Y96671726D01*
X216193452Y96624107D01*
X216336309Y96624107D01*
X216526785Y96671726D01*
X216622023Y96719345D01*
X216717261Y96814583D01*
X216764880Y96957440D01*
X216764880Y97195535D01*
X216098214Y95766964D02*
X216764880Y95766964D01*
X215717261Y96005059D02*
X216431547Y96243154D01*
X216431547Y95624107D01*
X215860119Y95290773D02*
X215812500Y95243154D01*
X215764880Y95147916D01*
X215764880Y94909821D01*
X215812500Y94814583D01*
X215860119Y94766964D01*
X215955357Y94719345D01*
X216050595Y94719345D01*
X216193452Y94766964D01*
X216764880Y95338392D01*
X216764880Y94719345D01*
X207239880Y116370535D02*
X206239880Y116370535D01*
X206239880Y116132440D01*
X206287500Y115989583D01*
X206382738Y115894345D01*
X206477976Y115846726D01*
X206668452Y115799107D01*
X206811309Y115799107D01*
X207001785Y115846726D01*
X207097023Y115894345D01*
X207192261Y115989583D01*
X207239880Y116132440D01*
X207239880Y116370535D01*
X206573214Y114941964D02*
X207239880Y114941964D01*
X206192261Y115180059D02*
X206906547Y115418154D01*
X206906547Y114799107D01*
X207239880Y113894345D02*
X207239880Y114465773D01*
X207239880Y114180059D02*
X206239880Y114180059D01*
X206382738Y114275297D01*
X206477976Y114370535D01*
X206525595Y114465773D01*
X212002380Y59158035D02*
X211002380Y59158035D01*
X211002380Y58919940D01*
X211050000Y58777083D01*
X211145238Y58681845D01*
X211240476Y58634226D01*
X211430952Y58586607D01*
X211573809Y58586607D01*
X211764285Y58634226D01*
X211859523Y58681845D01*
X211954761Y58777083D01*
X212002380Y58919940D01*
X212002380Y59158035D01*
X211335714Y57729464D02*
X212002380Y57729464D01*
X210954761Y57967559D02*
X211669047Y58205654D01*
X211669047Y57586607D01*
X211002380Y57015178D02*
X211002380Y56919940D01*
X211050000Y56824702D01*
X211097619Y56777083D01*
X211192857Y56729464D01*
X211383333Y56681845D01*
X211621428Y56681845D01*
X211811904Y56729464D01*
X211907142Y56777083D01*
X211954761Y56824702D01*
X212002380Y56919940D01*
X212002380Y57015178D01*
X211954761Y57110416D01*
X211907142Y57158035D01*
X211811904Y57205654D01*
X211621428Y57253273D01*
X211383333Y57253273D01*
X211192857Y57205654D01*
X211097619Y57158035D01*
X211050000Y57110416D01*
X211002380Y57015178D01*
X201572619Y75779464D02*
X202572619Y75779464D01*
X202572619Y76017559D01*
X202525000Y76160416D01*
X202429761Y76255654D01*
X202334523Y76303273D01*
X202144047Y76350892D01*
X202001190Y76350892D01*
X201810714Y76303273D01*
X201715476Y76255654D01*
X201620238Y76160416D01*
X201572619Y76017559D01*
X201572619Y75779464D01*
X202572619Y76684226D02*
X202572619Y77303273D01*
X202191666Y76969940D01*
X202191666Y77112797D01*
X202144047Y77208035D01*
X202096428Y77255654D01*
X202001190Y77303273D01*
X201763095Y77303273D01*
X201667857Y77255654D01*
X201620238Y77208035D01*
X201572619Y77112797D01*
X201572619Y76827083D01*
X201620238Y76731845D01*
X201667857Y76684226D01*
X201572619Y77779464D02*
X201572619Y77969940D01*
X201620238Y78065178D01*
X201667857Y78112797D01*
X201810714Y78208035D01*
X202001190Y78255654D01*
X202382142Y78255654D01*
X202477380Y78208035D01*
X202525000Y78160416D01*
X202572619Y78065178D01*
X202572619Y77874702D01*
X202525000Y77779464D01*
X202477380Y77731845D01*
X202382142Y77684226D01*
X202144047Y77684226D01*
X202048809Y77731845D01*
X202001190Y77779464D01*
X201953571Y77874702D01*
X201953571Y78065178D01*
X202001190Y78160416D01*
X202048809Y78208035D01*
X202144047Y78255654D01*
X197714880Y97195535D02*
X196714880Y97195535D01*
X196714880Y96957440D01*
X196762500Y96814583D01*
X196857738Y96719345D01*
X196952976Y96671726D01*
X197143452Y96624107D01*
X197286309Y96624107D01*
X197476785Y96671726D01*
X197572023Y96719345D01*
X197667261Y96814583D01*
X197714880Y96957440D01*
X197714880Y97195535D01*
X196714880Y96290773D02*
X196714880Y95671726D01*
X197095833Y96005059D01*
X197095833Y95862202D01*
X197143452Y95766964D01*
X197191071Y95719345D01*
X197286309Y95671726D01*
X197524404Y95671726D01*
X197619642Y95719345D01*
X197667261Y95766964D01*
X197714880Y95862202D01*
X197714880Y96147916D01*
X197667261Y96243154D01*
X197619642Y96290773D01*
X197143452Y95100297D02*
X197095833Y95195535D01*
X197048214Y95243154D01*
X196952976Y95290773D01*
X196905357Y95290773D01*
X196810119Y95243154D01*
X196762500Y95195535D01*
X196714880Y95100297D01*
X196714880Y94909821D01*
X196762500Y94814583D01*
X196810119Y94766964D01*
X196905357Y94719345D01*
X196952976Y94719345D01*
X197048214Y94766964D01*
X197095833Y94814583D01*
X197143452Y94909821D01*
X197143452Y95100297D01*
X197191071Y95195535D01*
X197238690Y95243154D01*
X197333928Y95290773D01*
X197524404Y95290773D01*
X197619642Y95243154D01*
X197667261Y95195535D01*
X197714880Y95100297D01*
X197714880Y94909821D01*
X197667261Y94814583D01*
X197619642Y94766964D01*
X197524404Y94719345D01*
X197333928Y94719345D01*
X197238690Y94766964D01*
X197191071Y94814583D01*
X197143452Y94909821D01*
X188189880Y116245535D02*
X187189880Y116245535D01*
X187189880Y116007440D01*
X187237500Y115864583D01*
X187332738Y115769345D01*
X187427976Y115721726D01*
X187618452Y115674107D01*
X187761309Y115674107D01*
X187951785Y115721726D01*
X188047023Y115769345D01*
X188142261Y115864583D01*
X188189880Y116007440D01*
X188189880Y116245535D01*
X187189880Y115340773D02*
X187189880Y114721726D01*
X187570833Y115055059D01*
X187570833Y114912202D01*
X187618452Y114816964D01*
X187666071Y114769345D01*
X187761309Y114721726D01*
X187999404Y114721726D01*
X188094642Y114769345D01*
X188142261Y114816964D01*
X188189880Y114912202D01*
X188189880Y115197916D01*
X188142261Y115293154D01*
X188094642Y115340773D01*
X187189880Y114388392D02*
X187189880Y113721726D01*
X188189880Y114150297D01*
X192952380Y59095535D02*
X191952380Y59095535D01*
X191952380Y58857440D01*
X192000000Y58714583D01*
X192095238Y58619345D01*
X192190476Y58571726D01*
X192380952Y58524107D01*
X192523809Y58524107D01*
X192714285Y58571726D01*
X192809523Y58619345D01*
X192904761Y58714583D01*
X192952380Y58857440D01*
X192952380Y59095535D01*
X191952380Y58190773D02*
X191952380Y57571726D01*
X192333333Y57905059D01*
X192333333Y57762202D01*
X192380952Y57666964D01*
X192428571Y57619345D01*
X192523809Y57571726D01*
X192761904Y57571726D01*
X192857142Y57619345D01*
X192904761Y57666964D01*
X192952380Y57762202D01*
X192952380Y58047916D01*
X192904761Y58143154D01*
X192857142Y58190773D01*
X191952380Y56714583D02*
X191952380Y56905059D01*
X192000000Y57000297D01*
X192047619Y57047916D01*
X192190476Y57143154D01*
X192380952Y57190773D01*
X192761904Y57190773D01*
X192857142Y57143154D01*
X192904761Y57095535D01*
X192952380Y57000297D01*
X192952380Y56809821D01*
X192904761Y56714583D01*
X192857142Y56666964D01*
X192761904Y56619345D01*
X192523809Y56619345D01*
X192428571Y56666964D01*
X192380952Y56714583D01*
X192333333Y56809821D01*
X192333333Y57000297D01*
X192380952Y57095535D01*
X192428571Y57143154D01*
X192523809Y57190773D01*
X183427380Y78145535D02*
X182427380Y78145535D01*
X182427380Y77907440D01*
X182475000Y77764583D01*
X182570238Y77669345D01*
X182665476Y77621726D01*
X182855952Y77574107D01*
X182998809Y77574107D01*
X183189285Y77621726D01*
X183284523Y77669345D01*
X183379761Y77764583D01*
X183427380Y77907440D01*
X183427380Y78145535D01*
X182427380Y77240773D02*
X182427380Y76621726D01*
X182808333Y76955059D01*
X182808333Y76812202D01*
X182855952Y76716964D01*
X182903571Y76669345D01*
X182998809Y76621726D01*
X183236904Y76621726D01*
X183332142Y76669345D01*
X183379761Y76716964D01*
X183427380Y76812202D01*
X183427380Y77097916D01*
X183379761Y77193154D01*
X183332142Y77240773D01*
X182427380Y75716964D02*
X182427380Y76193154D01*
X182903571Y76240773D01*
X182855952Y76193154D01*
X182808333Y76097916D01*
X182808333Y75859821D01*
X182855952Y75764583D01*
X182903571Y75716964D01*
X182998809Y75669345D01*
X183236904Y75669345D01*
X183332142Y75716964D01*
X183379761Y75764583D01*
X183427380Y75859821D01*
X183427380Y76097916D01*
X183379761Y76193154D01*
X183332142Y76240773D01*
X177760119Y94766964D02*
X178760119Y94766964D01*
X178760119Y95005059D01*
X178712500Y95147916D01*
X178617261Y95243154D01*
X178522023Y95290773D01*
X178331547Y95338392D01*
X178188690Y95338392D01*
X177998214Y95290773D01*
X177902976Y95243154D01*
X177807738Y95147916D01*
X177760119Y95005059D01*
X177760119Y94766964D01*
X178760119Y95671726D02*
X178760119Y96290773D01*
X178379166Y95957440D01*
X178379166Y96100297D01*
X178331547Y96195535D01*
X178283928Y96243154D01*
X178188690Y96290773D01*
X177950595Y96290773D01*
X177855357Y96243154D01*
X177807738Y96195535D01*
X177760119Y96100297D01*
X177760119Y95814583D01*
X177807738Y95719345D01*
X177855357Y95671726D01*
X178426785Y97147916D02*
X177760119Y97147916D01*
X178807738Y96909821D02*
X178093452Y96671726D01*
X178093452Y97290773D01*
X169139880Y116370535D02*
X168139880Y116370535D01*
X168139880Y116132440D01*
X168187500Y115989583D01*
X168282738Y115894345D01*
X168377976Y115846726D01*
X168568452Y115799107D01*
X168711309Y115799107D01*
X168901785Y115846726D01*
X168997023Y115894345D01*
X169092261Y115989583D01*
X169139880Y116132440D01*
X169139880Y116370535D01*
X168139880Y115465773D02*
X168139880Y114846726D01*
X168520833Y115180059D01*
X168520833Y115037202D01*
X168568452Y114941964D01*
X168616071Y114894345D01*
X168711309Y114846726D01*
X168949404Y114846726D01*
X169044642Y114894345D01*
X169092261Y114941964D01*
X169139880Y115037202D01*
X169139880Y115322916D01*
X169092261Y115418154D01*
X169044642Y115465773D01*
X168139880Y114513392D02*
X168139880Y113894345D01*
X168520833Y114227678D01*
X168520833Y114084821D01*
X168568452Y113989583D01*
X168616071Y113941964D01*
X168711309Y113894345D01*
X168949404Y113894345D01*
X169044642Y113941964D01*
X169092261Y113989583D01*
X169139880Y114084821D01*
X169139880Y114370535D01*
X169092261Y114465773D01*
X169044642Y114513392D01*
X173902380Y59158035D02*
X172902380Y59158035D01*
X172902380Y58919940D01*
X172950000Y58777083D01*
X173045238Y58681845D01*
X173140476Y58634226D01*
X173330952Y58586607D01*
X173473809Y58586607D01*
X173664285Y58634226D01*
X173759523Y58681845D01*
X173854761Y58777083D01*
X173902380Y58919940D01*
X173902380Y59158035D01*
X172902380Y58253273D02*
X172902380Y57634226D01*
X173283333Y57967559D01*
X173283333Y57824702D01*
X173330952Y57729464D01*
X173378571Y57681845D01*
X173473809Y57634226D01*
X173711904Y57634226D01*
X173807142Y57681845D01*
X173854761Y57729464D01*
X173902380Y57824702D01*
X173902380Y58110416D01*
X173854761Y58205654D01*
X173807142Y58253273D01*
X172997619Y57253273D02*
X172950000Y57205654D01*
X172902380Y57110416D01*
X172902380Y56872321D01*
X172950000Y56777083D01*
X172997619Y56729464D01*
X173092857Y56681845D01*
X173188095Y56681845D01*
X173330952Y56729464D01*
X173902380Y57300892D01*
X173902380Y56681845D01*
X164377380Y78145535D02*
X163377380Y78145535D01*
X163377380Y77907440D01*
X163425000Y77764583D01*
X163520238Y77669345D01*
X163615476Y77621726D01*
X163805952Y77574107D01*
X163948809Y77574107D01*
X164139285Y77621726D01*
X164234523Y77669345D01*
X164329761Y77764583D01*
X164377380Y77907440D01*
X164377380Y78145535D01*
X163377380Y77240773D02*
X163377380Y76621726D01*
X163758333Y76955059D01*
X163758333Y76812202D01*
X163805952Y76716964D01*
X163853571Y76669345D01*
X163948809Y76621726D01*
X164186904Y76621726D01*
X164282142Y76669345D01*
X164329761Y76716964D01*
X164377380Y76812202D01*
X164377380Y77097916D01*
X164329761Y77193154D01*
X164282142Y77240773D01*
X164377380Y75669345D02*
X164377380Y76240773D01*
X164377380Y75955059D02*
X163377380Y75955059D01*
X163520238Y76050297D01*
X163615476Y76145535D01*
X163663095Y76240773D01*
X159614880Y97258035D02*
X158614880Y97258035D01*
X158614880Y97019940D01*
X158662500Y96877083D01*
X158757738Y96781845D01*
X158852976Y96734226D01*
X159043452Y96686607D01*
X159186309Y96686607D01*
X159376785Y96734226D01*
X159472023Y96781845D01*
X159567261Y96877083D01*
X159614880Y97019940D01*
X159614880Y97258035D01*
X158614880Y96353273D02*
X158614880Y95734226D01*
X158995833Y96067559D01*
X158995833Y95924702D01*
X159043452Y95829464D01*
X159091071Y95781845D01*
X159186309Y95734226D01*
X159424404Y95734226D01*
X159519642Y95781845D01*
X159567261Y95829464D01*
X159614880Y95924702D01*
X159614880Y96210416D01*
X159567261Y96305654D01*
X159519642Y96353273D01*
X158614880Y95115178D02*
X158614880Y95019940D01*
X158662500Y94924702D01*
X158710119Y94877083D01*
X158805357Y94829464D01*
X158995833Y94781845D01*
X159233928Y94781845D01*
X159424404Y94829464D01*
X159519642Y94877083D01*
X159567261Y94924702D01*
X159614880Y95019940D01*
X159614880Y95115178D01*
X159567261Y95210416D01*
X159519642Y95258035D01*
X159424404Y95305654D01*
X159233928Y95353273D01*
X158995833Y95353273D01*
X158805357Y95305654D01*
X158710119Y95258035D01*
X158662500Y95210416D01*
X158614880Y95115178D01*
X150089880Y116245535D02*
X149089880Y116245535D01*
X149089880Y116007440D01*
X149137500Y115864583D01*
X149232738Y115769345D01*
X149327976Y115721726D01*
X149518452Y115674107D01*
X149661309Y115674107D01*
X149851785Y115721726D01*
X149947023Y115769345D01*
X150042261Y115864583D01*
X150089880Y116007440D01*
X150089880Y116245535D01*
X149185119Y115293154D02*
X149137500Y115245535D01*
X149089880Y115150297D01*
X149089880Y114912202D01*
X149137500Y114816964D01*
X149185119Y114769345D01*
X149280357Y114721726D01*
X149375595Y114721726D01*
X149518452Y114769345D01*
X150089880Y115340773D01*
X150089880Y114721726D01*
X150089880Y114245535D02*
X150089880Y114055059D01*
X150042261Y113959821D01*
X149994642Y113912202D01*
X149851785Y113816964D01*
X149661309Y113769345D01*
X149280357Y113769345D01*
X149185119Y113816964D01*
X149137500Y113864583D01*
X149089880Y113959821D01*
X149089880Y114150297D01*
X149137500Y114245535D01*
X149185119Y114293154D01*
X149280357Y114340773D01*
X149518452Y114340773D01*
X149613690Y114293154D01*
X149661309Y114245535D01*
X149708928Y114150297D01*
X149708928Y113959821D01*
X149661309Y113864583D01*
X149613690Y113816964D01*
X149518452Y113769345D01*
X157233630Y40045535D02*
X156233630Y40045535D01*
X156233630Y39807440D01*
X156281250Y39664583D01*
X156376488Y39569345D01*
X156471726Y39521726D01*
X156662202Y39474107D01*
X156805059Y39474107D01*
X156995535Y39521726D01*
X157090773Y39569345D01*
X157186011Y39664583D01*
X157233630Y39807440D01*
X157233630Y40045535D01*
X156328869Y39093154D02*
X156281250Y39045535D01*
X156233630Y38950297D01*
X156233630Y38712202D01*
X156281250Y38616964D01*
X156328869Y38569345D01*
X156424107Y38521726D01*
X156519345Y38521726D01*
X156662202Y38569345D01*
X157233630Y39140773D01*
X157233630Y38521726D01*
X156662202Y37950297D02*
X156614583Y38045535D01*
X156566964Y38093154D01*
X156471726Y38140773D01*
X156424107Y38140773D01*
X156328869Y38093154D01*
X156281250Y38045535D01*
X156233630Y37950297D01*
X156233630Y37759821D01*
X156281250Y37664583D01*
X156328869Y37616964D01*
X156424107Y37569345D01*
X156471726Y37569345D01*
X156566964Y37616964D01*
X156614583Y37664583D01*
X156662202Y37759821D01*
X156662202Y37950297D01*
X156709821Y38045535D01*
X156757440Y38093154D01*
X156852678Y38140773D01*
X157043154Y38140773D01*
X157138392Y38093154D01*
X157186011Y38045535D01*
X157233630Y37950297D01*
X157233630Y37759821D01*
X157186011Y37664583D01*
X157138392Y37616964D01*
X157043154Y37569345D01*
X156852678Y37569345D01*
X156757440Y37616964D01*
X156709821Y37664583D01*
X156662202Y37759821D01*
X154852380Y59095535D02*
X153852380Y59095535D01*
X153852380Y58857440D01*
X153900000Y58714583D01*
X153995238Y58619345D01*
X154090476Y58571726D01*
X154280952Y58524107D01*
X154423809Y58524107D01*
X154614285Y58571726D01*
X154709523Y58619345D01*
X154804761Y58714583D01*
X154852380Y58857440D01*
X154852380Y59095535D01*
X153947619Y58143154D02*
X153900000Y58095535D01*
X153852380Y58000297D01*
X153852380Y57762202D01*
X153900000Y57666964D01*
X153947619Y57619345D01*
X154042857Y57571726D01*
X154138095Y57571726D01*
X154280952Y57619345D01*
X154852380Y58190773D01*
X154852380Y57571726D01*
X153852380Y57238392D02*
X153852380Y56571726D01*
X154852380Y57000297D01*
X145327380Y78208035D02*
X144327380Y78208035D01*
X144327380Y77969940D01*
X144375000Y77827083D01*
X144470238Y77731845D01*
X144565476Y77684226D01*
X144755952Y77636607D01*
X144898809Y77636607D01*
X145089285Y77684226D01*
X145184523Y77731845D01*
X145279761Y77827083D01*
X145327380Y77969940D01*
X145327380Y78208035D01*
X144422619Y77255654D02*
X144375000Y77208035D01*
X144327380Y77112797D01*
X144327380Y76874702D01*
X144375000Y76779464D01*
X144422619Y76731845D01*
X144517857Y76684226D01*
X144613095Y76684226D01*
X144755952Y76731845D01*
X145327380Y77303273D01*
X145327380Y76684226D01*
X144327380Y75827083D02*
X144327380Y76017559D01*
X144375000Y76112797D01*
X144422619Y76160416D01*
X144565476Y76255654D01*
X144755952Y76303273D01*
X145136904Y76303273D01*
X145232142Y76255654D01*
X145279761Y76208035D01*
X145327380Y76112797D01*
X145327380Y75922321D01*
X145279761Y75827083D01*
X145232142Y75779464D01*
X145136904Y75731845D01*
X144898809Y75731845D01*
X144803571Y75779464D01*
X144755952Y75827083D01*
X144708333Y75922321D01*
X144708333Y76112797D01*
X144755952Y76208035D01*
X144803571Y76255654D01*
X144898809Y76303273D01*
X140564880Y97195535D02*
X139564880Y97195535D01*
X139564880Y96957440D01*
X139612500Y96814583D01*
X139707738Y96719345D01*
X139802976Y96671726D01*
X139993452Y96624107D01*
X140136309Y96624107D01*
X140326785Y96671726D01*
X140422023Y96719345D01*
X140517261Y96814583D01*
X140564880Y96957440D01*
X140564880Y97195535D01*
X139660119Y96243154D02*
X139612500Y96195535D01*
X139564880Y96100297D01*
X139564880Y95862202D01*
X139612500Y95766964D01*
X139660119Y95719345D01*
X139755357Y95671726D01*
X139850595Y95671726D01*
X139993452Y95719345D01*
X140564880Y96290773D01*
X140564880Y95671726D01*
X139564880Y94766964D02*
X139564880Y95243154D01*
X140041071Y95290773D01*
X139993452Y95243154D01*
X139945833Y95147916D01*
X139945833Y94909821D01*
X139993452Y94814583D01*
X140041071Y94766964D01*
X140136309Y94719345D01*
X140374404Y94719345D01*
X140469642Y94766964D01*
X140517261Y94814583D01*
X140564880Y94909821D01*
X140564880Y95147916D01*
X140517261Y95243154D01*
X140469642Y95290773D01*
X131039880Y116245535D02*
X130039880Y116245535D01*
X130039880Y116007440D01*
X130087500Y115864583D01*
X130182738Y115769345D01*
X130277976Y115721726D01*
X130468452Y115674107D01*
X130611309Y115674107D01*
X130801785Y115721726D01*
X130897023Y115769345D01*
X130992261Y115864583D01*
X131039880Y116007440D01*
X131039880Y116245535D01*
X130135119Y115293154D02*
X130087500Y115245535D01*
X130039880Y115150297D01*
X130039880Y114912202D01*
X130087500Y114816964D01*
X130135119Y114769345D01*
X130230357Y114721726D01*
X130325595Y114721726D01*
X130468452Y114769345D01*
X131039880Y115340773D01*
X131039880Y114721726D01*
X130373214Y113864583D02*
X131039880Y113864583D01*
X129992261Y114102678D02*
X130706547Y114340773D01*
X130706547Y113721726D01*
X135802380Y59158035D02*
X134802380Y59158035D01*
X134802380Y58919940D01*
X134850000Y58777083D01*
X134945238Y58681845D01*
X135040476Y58634226D01*
X135230952Y58586607D01*
X135373809Y58586607D01*
X135564285Y58634226D01*
X135659523Y58681845D01*
X135754761Y58777083D01*
X135802380Y58919940D01*
X135802380Y59158035D01*
X134897619Y58205654D02*
X134850000Y58158035D01*
X134802380Y58062797D01*
X134802380Y57824702D01*
X134850000Y57729464D01*
X134897619Y57681845D01*
X134992857Y57634226D01*
X135088095Y57634226D01*
X135230952Y57681845D01*
X135802380Y58253273D01*
X135802380Y57634226D01*
X134802380Y57300892D02*
X134802380Y56681845D01*
X135183333Y57015178D01*
X135183333Y56872321D01*
X135230952Y56777083D01*
X135278571Y56729464D01*
X135373809Y56681845D01*
X135611904Y56681845D01*
X135707142Y56729464D01*
X135754761Y56777083D01*
X135802380Y56872321D01*
X135802380Y57158035D01*
X135754761Y57253273D01*
X135707142Y57300892D01*
X126277380Y78145535D02*
X125277380Y78145535D01*
X125277380Y77907440D01*
X125325000Y77764583D01*
X125420238Y77669345D01*
X125515476Y77621726D01*
X125705952Y77574107D01*
X125848809Y77574107D01*
X126039285Y77621726D01*
X126134523Y77669345D01*
X126229761Y77764583D01*
X126277380Y77907440D01*
X126277380Y78145535D01*
X125372619Y77193154D02*
X125325000Y77145535D01*
X125277380Y77050297D01*
X125277380Y76812202D01*
X125325000Y76716964D01*
X125372619Y76669345D01*
X125467857Y76621726D01*
X125563095Y76621726D01*
X125705952Y76669345D01*
X126277380Y77240773D01*
X126277380Y76621726D01*
X125372619Y76240773D02*
X125325000Y76193154D01*
X125277380Y76097916D01*
X125277380Y75859821D01*
X125325000Y75764583D01*
X125372619Y75716964D01*
X125467857Y75669345D01*
X125563095Y75669345D01*
X125705952Y75716964D01*
X126277380Y76288392D01*
X126277380Y75669345D01*
X121514880Y97195535D02*
X120514880Y97195535D01*
X120514880Y96957440D01*
X120562500Y96814583D01*
X120657738Y96719345D01*
X120752976Y96671726D01*
X120943452Y96624107D01*
X121086309Y96624107D01*
X121276785Y96671726D01*
X121372023Y96719345D01*
X121467261Y96814583D01*
X121514880Y96957440D01*
X121514880Y97195535D01*
X120610119Y96243154D02*
X120562500Y96195535D01*
X120514880Y96100297D01*
X120514880Y95862202D01*
X120562500Y95766964D01*
X120610119Y95719345D01*
X120705357Y95671726D01*
X120800595Y95671726D01*
X120943452Y95719345D01*
X121514880Y96290773D01*
X121514880Y95671726D01*
X121514880Y94719345D02*
X121514880Y95290773D01*
X121514880Y95005059D02*
X120514880Y95005059D01*
X120657738Y95100297D01*
X120752976Y95195535D01*
X120800595Y95290773D01*
X111989880Y116308035D02*
X110989880Y116308035D01*
X110989880Y116069940D01*
X111037500Y115927083D01*
X111132738Y115831845D01*
X111227976Y115784226D01*
X111418452Y115736607D01*
X111561309Y115736607D01*
X111751785Y115784226D01*
X111847023Y115831845D01*
X111942261Y115927083D01*
X111989880Y116069940D01*
X111989880Y116308035D01*
X111085119Y115355654D02*
X111037500Y115308035D01*
X110989880Y115212797D01*
X110989880Y114974702D01*
X111037500Y114879464D01*
X111085119Y114831845D01*
X111180357Y114784226D01*
X111275595Y114784226D01*
X111418452Y114831845D01*
X111989880Y115403273D01*
X111989880Y114784226D01*
X110989880Y114165178D02*
X110989880Y114069940D01*
X111037500Y113974702D01*
X111085119Y113927083D01*
X111180357Y113879464D01*
X111370833Y113831845D01*
X111608928Y113831845D01*
X111799404Y113879464D01*
X111894642Y113927083D01*
X111942261Y113974702D01*
X111989880Y114069940D01*
X111989880Y114165178D01*
X111942261Y114260416D01*
X111894642Y114308035D01*
X111799404Y114355654D01*
X111608928Y114403273D01*
X111370833Y114403273D01*
X111180357Y114355654D01*
X111085119Y114308035D01*
X111037500Y114260416D01*
X110989880Y114165178D01*
X116752380Y59158035D02*
X115752380Y59158035D01*
X115752380Y58919940D01*
X115800000Y58777083D01*
X115895238Y58681845D01*
X115990476Y58634226D01*
X116180952Y58586607D01*
X116323809Y58586607D01*
X116514285Y58634226D01*
X116609523Y58681845D01*
X116704761Y58777083D01*
X116752380Y58919940D01*
X116752380Y59158035D01*
X116752380Y57634226D02*
X116752380Y58205654D01*
X116752380Y57919940D02*
X115752380Y57919940D01*
X115895238Y58015178D01*
X115990476Y58110416D01*
X116038095Y58205654D01*
X116752380Y57158035D02*
X116752380Y56967559D01*
X116704761Y56872321D01*
X116657142Y56824702D01*
X116514285Y56729464D01*
X116323809Y56681845D01*
X115942857Y56681845D01*
X115847619Y56729464D01*
X115800000Y56777083D01*
X115752380Y56872321D01*
X115752380Y57062797D01*
X115800000Y57158035D01*
X115847619Y57205654D01*
X115942857Y57253273D01*
X116180952Y57253273D01*
X116276190Y57205654D01*
X116323809Y57158035D01*
X116371428Y57062797D01*
X116371428Y56872321D01*
X116323809Y56777083D01*
X116276190Y56729464D01*
X116180952Y56681845D01*
X107227380Y78208035D02*
X106227380Y78208035D01*
X106227380Y77969940D01*
X106275000Y77827083D01*
X106370238Y77731845D01*
X106465476Y77684226D01*
X106655952Y77636607D01*
X106798809Y77636607D01*
X106989285Y77684226D01*
X107084523Y77731845D01*
X107179761Y77827083D01*
X107227380Y77969940D01*
X107227380Y78208035D01*
X107227380Y76684226D02*
X107227380Y77255654D01*
X107227380Y76969940D02*
X106227380Y76969940D01*
X106370238Y77065178D01*
X106465476Y77160416D01*
X106513095Y77255654D01*
X106655952Y76112797D02*
X106608333Y76208035D01*
X106560714Y76255654D01*
X106465476Y76303273D01*
X106417857Y76303273D01*
X106322619Y76255654D01*
X106275000Y76208035D01*
X106227380Y76112797D01*
X106227380Y75922321D01*
X106275000Y75827083D01*
X106322619Y75779464D01*
X106417857Y75731845D01*
X106465476Y75731845D01*
X106560714Y75779464D01*
X106608333Y75827083D01*
X106655952Y75922321D01*
X106655952Y76112797D01*
X106703571Y76208035D01*
X106751190Y76255654D01*
X106846428Y76303273D01*
X107036904Y76303273D01*
X107132142Y76255654D01*
X107179761Y76208035D01*
X107227380Y76112797D01*
X107227380Y75922321D01*
X107179761Y75827083D01*
X107132142Y75779464D01*
X107036904Y75731845D01*
X106846428Y75731845D01*
X106751190Y75779464D01*
X106703571Y75827083D01*
X106655952Y75922321D01*
X102464880Y97195535D02*
X101464880Y97195535D01*
X101464880Y96957440D01*
X101512500Y96814583D01*
X101607738Y96719345D01*
X101702976Y96671726D01*
X101893452Y96624107D01*
X102036309Y96624107D01*
X102226785Y96671726D01*
X102322023Y96719345D01*
X102417261Y96814583D01*
X102464880Y96957440D01*
X102464880Y97195535D01*
X102464880Y95671726D02*
X102464880Y96243154D01*
X102464880Y95957440D02*
X101464880Y95957440D01*
X101607738Y96052678D01*
X101702976Y96147916D01*
X101750595Y96243154D01*
X101464880Y95338392D02*
X101464880Y94671726D01*
X102464880Y95100297D01*
X92939880Y116245535D02*
X91939880Y116245535D01*
X91939880Y116007440D01*
X91987500Y115864583D01*
X92082738Y115769345D01*
X92177976Y115721726D01*
X92368452Y115674107D01*
X92511309Y115674107D01*
X92701785Y115721726D01*
X92797023Y115769345D01*
X92892261Y115864583D01*
X92939880Y116007440D01*
X92939880Y116245535D01*
X92939880Y114721726D02*
X92939880Y115293154D01*
X92939880Y115007440D02*
X91939880Y115007440D01*
X92082738Y115102678D01*
X92177976Y115197916D01*
X92225595Y115293154D01*
X91939880Y113864583D02*
X91939880Y114055059D01*
X91987500Y114150297D01*
X92035119Y114197916D01*
X92177976Y114293154D01*
X92368452Y114340773D01*
X92749404Y114340773D01*
X92844642Y114293154D01*
X92892261Y114245535D01*
X92939880Y114150297D01*
X92939880Y113959821D01*
X92892261Y113864583D01*
X92844642Y113816964D01*
X92749404Y113769345D01*
X92511309Y113769345D01*
X92416071Y113816964D01*
X92368452Y113864583D01*
X92320833Y113959821D01*
X92320833Y114150297D01*
X92368452Y114245535D01*
X92416071Y114293154D01*
X92511309Y114340773D01*
X85796130Y40108035D02*
X84796130Y40108035D01*
X84796130Y39869940D01*
X84843750Y39727083D01*
X84938988Y39631845D01*
X85034226Y39584226D01*
X85224702Y39536607D01*
X85367559Y39536607D01*
X85558035Y39584226D01*
X85653273Y39631845D01*
X85748511Y39727083D01*
X85796130Y39869940D01*
X85796130Y40108035D01*
X85796130Y38584226D02*
X85796130Y39155654D01*
X85796130Y38869940D02*
X84796130Y38869940D01*
X84938988Y38965178D01*
X85034226Y39060416D01*
X85081845Y39155654D01*
X84796130Y37679464D02*
X84796130Y38155654D01*
X85272321Y38203273D01*
X85224702Y38155654D01*
X85177083Y38060416D01*
X85177083Y37822321D01*
X85224702Y37727083D01*
X85272321Y37679464D01*
X85367559Y37631845D01*
X85605654Y37631845D01*
X85700892Y37679464D01*
X85748511Y37727083D01*
X85796130Y37822321D01*
X85796130Y38060416D01*
X85748511Y38155654D01*
X85700892Y38203273D01*
X97702380Y59095535D02*
X96702380Y59095535D01*
X96702380Y58857440D01*
X96750000Y58714583D01*
X96845238Y58619345D01*
X96940476Y58571726D01*
X97130952Y58524107D01*
X97273809Y58524107D01*
X97464285Y58571726D01*
X97559523Y58619345D01*
X97654761Y58714583D01*
X97702380Y58857440D01*
X97702380Y59095535D01*
X97702380Y57571726D02*
X97702380Y58143154D01*
X97702380Y57857440D02*
X96702380Y57857440D01*
X96845238Y57952678D01*
X96940476Y58047916D01*
X96988095Y58143154D01*
X97035714Y56714583D02*
X97702380Y56714583D01*
X96654761Y56952678D02*
X97369047Y57190773D01*
X97369047Y56571726D01*
X87383630Y78208035D02*
X86383630Y78208035D01*
X86383630Y77969940D01*
X86431250Y77827083D01*
X86526488Y77731845D01*
X86621726Y77684226D01*
X86812202Y77636607D01*
X86955059Y77636607D01*
X87145535Y77684226D01*
X87240773Y77731845D01*
X87336011Y77827083D01*
X87383630Y77969940D01*
X87383630Y78208035D01*
X87383630Y76684226D02*
X87383630Y77255654D01*
X87383630Y76969940D02*
X86383630Y76969940D01*
X86526488Y77065178D01*
X86621726Y77160416D01*
X86669345Y77255654D01*
X86383630Y76350892D02*
X86383630Y75731845D01*
X86764583Y76065178D01*
X86764583Y75922321D01*
X86812202Y75827083D01*
X86859821Y75779464D01*
X86955059Y75731845D01*
X87193154Y75731845D01*
X87288392Y75779464D01*
X87336011Y75827083D01*
X87383630Y75922321D01*
X87383630Y76208035D01*
X87336011Y76303273D01*
X87288392Y76350892D01*
X83414880Y97320535D02*
X82414880Y97320535D01*
X82414880Y97082440D01*
X82462500Y96939583D01*
X82557738Y96844345D01*
X82652976Y96796726D01*
X82843452Y96749107D01*
X82986309Y96749107D01*
X83176785Y96796726D01*
X83272023Y96844345D01*
X83367261Y96939583D01*
X83414880Y97082440D01*
X83414880Y97320535D01*
X83414880Y95796726D02*
X83414880Y96368154D01*
X83414880Y96082440D02*
X82414880Y96082440D01*
X82557738Y96177678D01*
X82652976Y96272916D01*
X82700595Y96368154D01*
X82510119Y95415773D02*
X82462500Y95368154D01*
X82414880Y95272916D01*
X82414880Y95034821D01*
X82462500Y94939583D01*
X82510119Y94891964D01*
X82605357Y94844345D01*
X82700595Y94844345D01*
X82843452Y94891964D01*
X83414880Y95463392D01*
X83414880Y94844345D01*
X73889880Y116308035D02*
X72889880Y116308035D01*
X72889880Y116069940D01*
X72937500Y115927083D01*
X73032738Y115831845D01*
X73127976Y115784226D01*
X73318452Y115736607D01*
X73461309Y115736607D01*
X73651785Y115784226D01*
X73747023Y115831845D01*
X73842261Y115927083D01*
X73889880Y116069940D01*
X73889880Y116308035D01*
X73889880Y114784226D02*
X73889880Y115355654D01*
X73889880Y115069940D02*
X72889880Y115069940D01*
X73032738Y115165178D01*
X73127976Y115260416D01*
X73175595Y115355654D01*
X73889880Y113831845D02*
X73889880Y114403273D01*
X73889880Y114117559D02*
X72889880Y114117559D01*
X73032738Y114212797D01*
X73127976Y114308035D01*
X73175595Y114403273D01*
X62777380Y40045535D02*
X61777380Y40045535D01*
X61777380Y39807440D01*
X61825000Y39664583D01*
X61920238Y39569345D01*
X62015476Y39521726D01*
X62205952Y39474107D01*
X62348809Y39474107D01*
X62539285Y39521726D01*
X62634523Y39569345D01*
X62729761Y39664583D01*
X62777380Y39807440D01*
X62777380Y40045535D01*
X62777380Y38521726D02*
X62777380Y39093154D01*
X62777380Y38807440D02*
X61777380Y38807440D01*
X61920238Y38902678D01*
X62015476Y38997916D01*
X62063095Y39093154D01*
X61777380Y37902678D02*
X61777380Y37807440D01*
X61825000Y37712202D01*
X61872619Y37664583D01*
X61967857Y37616964D01*
X62158333Y37569345D01*
X62396428Y37569345D01*
X62586904Y37616964D01*
X62682142Y37664583D01*
X62729761Y37712202D01*
X62777380Y37807440D01*
X62777380Y37902678D01*
X62729761Y37997916D01*
X62682142Y38045535D01*
X62586904Y38093154D01*
X62396428Y38140773D01*
X62158333Y38140773D01*
X61967857Y38093154D01*
X61872619Y38045535D01*
X61825000Y37997916D01*
X61777380Y37902678D01*
X78652380Y58619345D02*
X77652380Y58619345D01*
X77652380Y58381250D01*
X77700000Y58238392D01*
X77795238Y58143154D01*
X77890476Y58095535D01*
X78080952Y58047916D01*
X78223809Y58047916D01*
X78414285Y58095535D01*
X78509523Y58143154D01*
X78604761Y58238392D01*
X78652380Y58381250D01*
X78652380Y58619345D01*
X78652380Y57571726D02*
X78652380Y57381250D01*
X78604761Y57286011D01*
X78557142Y57238392D01*
X78414285Y57143154D01*
X78223809Y57095535D01*
X77842857Y57095535D01*
X77747619Y57143154D01*
X77700000Y57190773D01*
X77652380Y57286011D01*
X77652380Y57476488D01*
X77700000Y57571726D01*
X77747619Y57619345D01*
X77842857Y57666964D01*
X78080952Y57666964D01*
X78176190Y57619345D01*
X78223809Y57571726D01*
X78271428Y57476488D01*
X78271428Y57286011D01*
X78223809Y57190773D01*
X78176190Y57143154D01*
X78080952Y57095535D01*
X69127380Y77731845D02*
X68127380Y77731845D01*
X68127380Y77493750D01*
X68175000Y77350892D01*
X68270238Y77255654D01*
X68365476Y77208035D01*
X68555952Y77160416D01*
X68698809Y77160416D01*
X68889285Y77208035D01*
X68984523Y77255654D01*
X69079761Y77350892D01*
X69127380Y77493750D01*
X69127380Y77731845D01*
X68555952Y76588988D02*
X68508333Y76684226D01*
X68460714Y76731845D01*
X68365476Y76779464D01*
X68317857Y76779464D01*
X68222619Y76731845D01*
X68175000Y76684226D01*
X68127380Y76588988D01*
X68127380Y76398511D01*
X68175000Y76303273D01*
X68222619Y76255654D01*
X68317857Y76208035D01*
X68365476Y76208035D01*
X68460714Y76255654D01*
X68508333Y76303273D01*
X68555952Y76398511D01*
X68555952Y76588988D01*
X68603571Y76684226D01*
X68651190Y76731845D01*
X68746428Y76779464D01*
X68936904Y76779464D01*
X69032142Y76731845D01*
X69079761Y76684226D01*
X69127380Y76588988D01*
X69127380Y76398511D01*
X69079761Y76303273D01*
X69032142Y76255654D01*
X68936904Y76208035D01*
X68746428Y76208035D01*
X68651190Y76255654D01*
X68603571Y76303273D01*
X68555952Y76398511D01*
X64364880Y96781845D02*
X63364880Y96781845D01*
X63364880Y96543750D01*
X63412500Y96400892D01*
X63507738Y96305654D01*
X63602976Y96258035D01*
X63793452Y96210416D01*
X63936309Y96210416D01*
X64126785Y96258035D01*
X64222023Y96305654D01*
X64317261Y96400892D01*
X64364880Y96543750D01*
X64364880Y96781845D01*
X63364880Y95877083D02*
X63364880Y95210416D01*
X64364880Y95638988D01*
X54839880Y115831845D02*
X53839880Y115831845D01*
X53839880Y115593750D01*
X53887500Y115450892D01*
X53982738Y115355654D01*
X54077976Y115308035D01*
X54268452Y115260416D01*
X54411309Y115260416D01*
X54601785Y115308035D01*
X54697023Y115355654D01*
X54792261Y115450892D01*
X54839880Y115593750D01*
X54839880Y115831845D01*
X53839880Y114403273D02*
X53839880Y114593750D01*
X53887500Y114688988D01*
X53935119Y114736607D01*
X54077976Y114831845D01*
X54268452Y114879464D01*
X54649404Y114879464D01*
X54744642Y114831845D01*
X54792261Y114784226D01*
X54839880Y114688988D01*
X54839880Y114498511D01*
X54792261Y114403273D01*
X54744642Y114355654D01*
X54649404Y114308035D01*
X54411309Y114308035D01*
X54316071Y114355654D01*
X54268452Y114403273D01*
X54220833Y114498511D01*
X54220833Y114688988D01*
X54268452Y114784226D01*
X54316071Y114831845D01*
X54411309Y114879464D01*
X38171130Y39631845D02*
X37171130Y39631845D01*
X37171130Y39393750D01*
X37218750Y39250892D01*
X37313988Y39155654D01*
X37409226Y39108035D01*
X37599702Y39060416D01*
X37742559Y39060416D01*
X37933035Y39108035D01*
X38028273Y39155654D01*
X38123511Y39250892D01*
X38171130Y39393750D01*
X38171130Y39631845D01*
X37171130Y38155654D02*
X37171130Y38631845D01*
X37647321Y38679464D01*
X37599702Y38631845D01*
X37552083Y38536607D01*
X37552083Y38298511D01*
X37599702Y38203273D01*
X37647321Y38155654D01*
X37742559Y38108035D01*
X37980654Y38108035D01*
X38075892Y38155654D01*
X38123511Y38203273D01*
X38171130Y38298511D01*
X38171130Y38536607D01*
X38123511Y38631845D01*
X38075892Y38679464D01*
X47696130Y58619345D02*
X46696130Y58619345D01*
X46696130Y58381250D01*
X46743750Y58238392D01*
X46838988Y58143154D01*
X46934226Y58095535D01*
X47124702Y58047916D01*
X47267559Y58047916D01*
X47458035Y58095535D01*
X47553273Y58143154D01*
X47648511Y58238392D01*
X47696130Y58381250D01*
X47696130Y58619345D01*
X47029464Y57190773D02*
X47696130Y57190773D01*
X46648511Y57428869D02*
X47362797Y57666964D01*
X47362797Y57047916D01*
X43727380Y77669345D02*
X42727380Y77669345D01*
X42727380Y77431250D01*
X42775000Y77288392D01*
X42870238Y77193154D01*
X42965476Y77145535D01*
X43155952Y77097916D01*
X43298809Y77097916D01*
X43489285Y77145535D01*
X43584523Y77193154D01*
X43679761Y77288392D01*
X43727380Y77431250D01*
X43727380Y77669345D01*
X42727380Y76764583D02*
X42727380Y76145535D01*
X43108333Y76478869D01*
X43108333Y76336011D01*
X43155952Y76240773D01*
X43203571Y76193154D01*
X43298809Y76145535D01*
X43536904Y76145535D01*
X43632142Y76193154D01*
X43679761Y76240773D01*
X43727380Y76336011D01*
X43727380Y76621726D01*
X43679761Y76716964D01*
X43632142Y76764583D01*
X40552380Y96719345D02*
X39552380Y96719345D01*
X39552380Y96481250D01*
X39600000Y96338392D01*
X39695238Y96243154D01*
X39790476Y96195535D01*
X39980952Y96147916D01*
X40123809Y96147916D01*
X40314285Y96195535D01*
X40409523Y96243154D01*
X40504761Y96338392D01*
X40552380Y96481250D01*
X40552380Y96719345D01*
X39647619Y95766964D02*
X39600000Y95719345D01*
X39552380Y95624107D01*
X39552380Y95386011D01*
X39600000Y95290773D01*
X39647619Y95243154D01*
X39742857Y95195535D01*
X39838095Y95195535D01*
X39980952Y95243154D01*
X40552380Y95814583D01*
X40552380Y95195535D01*
X31027380Y110975095D02*
X30027380Y110975095D01*
X30027380Y110737000D01*
X30075000Y110594142D01*
X30170238Y110498904D01*
X30265476Y110451285D01*
X30455952Y110403666D01*
X30598809Y110403666D01*
X30789285Y110451285D01*
X30884523Y110498904D01*
X30979761Y110594142D01*
X31027380Y110737000D01*
X31027380Y110975095D01*
X31027380Y109451285D02*
X31027380Y110022714D01*
X31027380Y109737000D02*
X30027380Y109737000D01*
X30170238Y109832238D01*
X30265476Y109927476D01*
X30313095Y110022714D01*
X118370892Y48744166D02*
X118418511Y48791785D01*
X118466130Y48934642D01*
X118466130Y49029880D01*
X118418511Y49172738D01*
X118323273Y49267976D01*
X118228035Y49315595D01*
X118037559Y49363214D01*
X117894702Y49363214D01*
X117704226Y49315595D01*
X117608988Y49267976D01*
X117513750Y49172738D01*
X117466130Y49029880D01*
X117466130Y48934642D01*
X117513750Y48791785D01*
X117561369Y48744166D01*
X117466130Y48410833D02*
X117466130Y47744166D01*
X118466130Y48172738D01*
X128205416Y44949107D02*
X128253035Y44901488D01*
X128395892Y44853869D01*
X128491130Y44853869D01*
X128633988Y44901488D01*
X128729226Y44996726D01*
X128776845Y45091964D01*
X128824464Y45282440D01*
X128824464Y45425297D01*
X128776845Y45615773D01*
X128729226Y45711011D01*
X128633988Y45806250D01*
X128491130Y45853869D01*
X128395892Y45853869D01*
X128253035Y45806250D01*
X128205416Y45758630D01*
X127348273Y45853869D02*
X127538750Y45853869D01*
X127633988Y45806250D01*
X127681607Y45758630D01*
X127776845Y45615773D01*
X127824464Y45425297D01*
X127824464Y45044345D01*
X127776845Y44949107D01*
X127729226Y44901488D01*
X127633988Y44853869D01*
X127443511Y44853869D01*
X127348273Y44901488D01*
X127300654Y44949107D01*
X127253035Y45044345D01*
X127253035Y45282440D01*
X127300654Y45377678D01*
X127348273Y45425297D01*
X127443511Y45472916D01*
X127633988Y45472916D01*
X127729226Y45425297D01*
X127776845Y45377678D01*
X127824464Y45282440D01*
X128341416Y32759107D02*
X128389035Y32711488D01*
X128531892Y32663869D01*
X128627130Y32663869D01*
X128769988Y32711488D01*
X128865226Y32806726D01*
X128912845Y32901964D01*
X128960464Y33092440D01*
X128960464Y33235297D01*
X128912845Y33425773D01*
X128865226Y33521011D01*
X128769988Y33616250D01*
X128627130Y33663869D01*
X128531892Y33663869D01*
X128389035Y33616250D01*
X128341416Y33568630D01*
X127436654Y33663869D02*
X127912845Y33663869D01*
X127960464Y33187678D01*
X127912845Y33235297D01*
X127817607Y33282916D01*
X127579511Y33282916D01*
X127484273Y33235297D01*
X127436654Y33187678D01*
X127389035Y33092440D01*
X127389035Y32854345D01*
X127436654Y32759107D01*
X127484273Y32711488D01*
X127579511Y32663869D01*
X127817607Y32663869D01*
X127912845Y32711488D01*
X127960464Y32759107D01*
X123704892Y29576166D02*
X123752511Y29623785D01*
X123800130Y29766642D01*
X123800130Y29861880D01*
X123752511Y30004738D01*
X123657273Y30099976D01*
X123562035Y30147595D01*
X123371559Y30195214D01*
X123228702Y30195214D01*
X123038226Y30147595D01*
X122942988Y30099976D01*
X122847750Y30004738D01*
X122800130Y29861880D01*
X122800130Y29766642D01*
X122847750Y29623785D01*
X122895369Y29576166D01*
X123133464Y28719023D02*
X123800130Y28719023D01*
X122752511Y28957119D02*
X123466797Y29195214D01*
X123466797Y28576166D01*
X126213142Y29558166D02*
X126260761Y29605785D01*
X126308380Y29748642D01*
X126308380Y29843880D01*
X126260761Y29986738D01*
X126165523Y30081976D01*
X126070285Y30129595D01*
X125879809Y30177214D01*
X125736952Y30177214D01*
X125546476Y30129595D01*
X125451238Y30081976D01*
X125356000Y29986738D01*
X125308380Y29843880D01*
X125308380Y29748642D01*
X125356000Y29605785D01*
X125403619Y29558166D01*
X125308380Y29224833D02*
X125308380Y28605785D01*
X125689333Y28939119D01*
X125689333Y28796261D01*
X125736952Y28701023D01*
X125784571Y28653404D01*
X125879809Y28605785D01*
X126117904Y28605785D01*
X126213142Y28653404D01*
X126260761Y28701023D01*
X126308380Y28796261D01*
X126308380Y29081976D01*
X126260761Y29177214D01*
X126213142Y29224833D01*
X128657892Y29567166D02*
X128705511Y29614785D01*
X128753130Y29757642D01*
X128753130Y29852880D01*
X128705511Y29995738D01*
X128610273Y30090976D01*
X128515035Y30138595D01*
X128324559Y30186214D01*
X128181702Y30186214D01*
X127991226Y30138595D01*
X127895988Y30090976D01*
X127800750Y29995738D01*
X127753130Y29852880D01*
X127753130Y29757642D01*
X127800750Y29614785D01*
X127848369Y29567166D01*
X127848369Y29186214D02*
X127800750Y29138595D01*
X127753130Y29043357D01*
X127753130Y28805261D01*
X127800750Y28710023D01*
X127848369Y28662404D01*
X127943607Y28614785D01*
X128038845Y28614785D01*
X128181702Y28662404D01*
X128753130Y29233833D01*
X128753130Y28614785D01*
X130943892Y29576166D02*
X130991511Y29623785D01*
X131039130Y29766642D01*
X131039130Y29861880D01*
X130991511Y30004738D01*
X130896273Y30099976D01*
X130801035Y30147595D01*
X130610559Y30195214D01*
X130467702Y30195214D01*
X130277226Y30147595D01*
X130181988Y30099976D01*
X130086750Y30004738D01*
X130039130Y29861880D01*
X130039130Y29766642D01*
X130086750Y29623785D01*
X130134369Y29576166D01*
X131039130Y28623785D02*
X131039130Y29195214D01*
X131039130Y28909500D02*
X130039130Y28909500D01*
X130181988Y29004738D01*
X130277226Y29099976D01*
X130324845Y29195214D01*
%LPC*%
D12*
X49530000Y115093750D03*
X39370000Y115093750D03*
D13*
X41950000Y119093750D03*
D14*
X44450000Y115093750D03*
D15*
X40640000Y117633750D02*
X41950002Y119093750D01*
D13*
X46990000Y120173750D03*
D15*
X46950000Y119593750D02*
X46990000Y120173750D01*
D16*
X37898000Y117849000D03*
X31448000Y117849000D03*
X37123000Y117849000D03*
X32223000Y117849000D03*
D17*
X32923000Y117849000D03*
X36423000Y117849000D03*
X33423000Y117849000D03*
X35923000Y117849000D03*
X33923000Y117849000D03*
X35423000Y117849000D03*
X34923000Y117849000D03*
X34423000Y117849000D03*
D18*
X37563000Y119794000D03*
X31783000Y119794000D03*
D19*
G36*
X33525505Y113763689D02*
G01*
X33551925Y113759770D01*
X33577835Y113753280D01*
X33602983Y113744282D01*
X33627128Y113732862D01*
X33650038Y113719131D01*
X33671492Y113703220D01*
X33691282Y113685282D01*
X33709220Y113665492D01*
X33725131Y113644038D01*
X33738862Y113621128D01*
X33750282Y113596983D01*
X33759280Y113571835D01*
X33765770Y113545925D01*
X33769689Y113519505D01*
X33771000Y113492827D01*
X33771000Y112785173D01*
X33769689Y112758495D01*
X33765770Y112732075D01*
X33759280Y112706165D01*
X33750282Y112681017D01*
X33738862Y112656872D01*
X33725131Y112633962D01*
X33709220Y112612508D01*
X33691282Y112592718D01*
X33671492Y112574780D01*
X33650038Y112558869D01*
X33627128Y112545138D01*
X33602983Y112533718D01*
X33577835Y112524720D01*
X33551925Y112518230D01*
X33525505Y112514311D01*
X33498827Y112513000D01*
X32541173Y112513000D01*
X32514495Y112514311D01*
X32488075Y112518230D01*
X32462165Y112524720D01*
X32437017Y112533718D01*
X32412872Y112545138D01*
X32389962Y112558869D01*
X32368508Y112574780D01*
X32348718Y112592718D01*
X32330780Y112612508D01*
X32314869Y112633962D01*
X32301138Y112656872D01*
X32289718Y112681017D01*
X32280720Y112706165D01*
X32274230Y112732075D01*
X32270311Y112758495D01*
X32269000Y112785173D01*
X32269000Y113492827D01*
X32270311Y113519505D01*
X32274230Y113545925D01*
X32280720Y113571835D01*
X32289718Y113596983D01*
X32301138Y113621128D01*
X32314869Y113644038D01*
X32330780Y113665492D01*
X32348718Y113685282D01*
X32368508Y113703220D01*
X32389962Y113719131D01*
X32412872Y113732862D01*
X32437017Y113744282D01*
X32462165Y113753280D01*
X32488075Y113759770D01*
X32514495Y113763689D01*
X32541173Y113765000D01*
X33498827Y113765000D01*
X33525505Y113763689D01*
G37*
G36*
X33525505Y115813689D02*
G01*
X33551925Y115809770D01*
X33577835Y115803280D01*
X33602983Y115794282D01*
X33627128Y115782862D01*
X33650038Y115769131D01*
X33671492Y115753220D01*
X33691282Y115735282D01*
X33709220Y115715492D01*
X33725131Y115694038D01*
X33738862Y115671128D01*
X33750282Y115646983D01*
X33759280Y115621835D01*
X33765770Y115595925D01*
X33769689Y115569505D01*
X33771000Y115542827D01*
X33771000Y114835173D01*
X33769689Y114808495D01*
X33765770Y114782075D01*
X33759280Y114756165D01*
X33750282Y114731017D01*
X33738862Y114706872D01*
X33725131Y114683962D01*
X33709220Y114662508D01*
X33691282Y114642718D01*
X33671492Y114624780D01*
X33650038Y114608869D01*
X33627128Y114595138D01*
X33602983Y114583718D01*
X33577835Y114574720D01*
X33551925Y114568230D01*
X33525505Y114564311D01*
X33498827Y114563000D01*
X32541173Y114563000D01*
X32514495Y114564311D01*
X32488075Y114568230D01*
X32462165Y114574720D01*
X32437017Y114583718D01*
X32412872Y114595138D01*
X32389962Y114608869D01*
X32368508Y114624780D01*
X32348718Y114642718D01*
X32330780Y114662508D01*
X32314869Y114683962D01*
X32301138Y114706872D01*
X32289718Y114731017D01*
X32280720Y114756165D01*
X32274230Y114782075D01*
X32270311Y114808495D01*
X32269000Y114835173D01*
X32269000Y115542827D01*
X32270311Y115569505D01*
X32274230Y115595925D01*
X32280720Y115621835D01*
X32289718Y115646983D01*
X32301138Y115671128D01*
X32314869Y115694038D01*
X32330780Y115715492D01*
X32348718Y115735282D01*
X32368508Y115753220D01*
X32389962Y115769131D01*
X32412872Y115782862D01*
X32437017Y115794282D01*
X32462165Y115803280D01*
X32488075Y115809770D01*
X32514495Y115813689D01*
X32541173Y115815000D01*
X33498827Y115815000D01*
X33525505Y115813689D01*
G37*
G36*
X37335505Y113781689D02*
G01*
X37361925Y113777770D01*
X37387835Y113771280D01*
X37412983Y113762282D01*
X37437128Y113750862D01*
X37460038Y113737131D01*
X37481492Y113721220D01*
X37501282Y113703282D01*
X37519220Y113683492D01*
X37535131Y113662038D01*
X37548862Y113639128D01*
X37560282Y113614983D01*
X37569280Y113589835D01*
X37575770Y113563925D01*
X37579689Y113537505D01*
X37581000Y113510827D01*
X37581000Y112803173D01*
X37579689Y112776495D01*
X37575770Y112750075D01*
X37569280Y112724165D01*
X37560282Y112699017D01*
X37548862Y112674872D01*
X37535131Y112651962D01*
X37519220Y112630508D01*
X37501282Y112610718D01*
X37481492Y112592780D01*
X37460038Y112576869D01*
X37437128Y112563138D01*
X37412983Y112551718D01*
X37387835Y112542720D01*
X37361925Y112536230D01*
X37335505Y112532311D01*
X37308827Y112531000D01*
X36351173Y112531000D01*
X36324495Y112532311D01*
X36298075Y112536230D01*
X36272165Y112542720D01*
X36247017Y112551718D01*
X36222872Y112563138D01*
X36199962Y112576869D01*
X36178508Y112592780D01*
X36158718Y112610718D01*
X36140780Y112630508D01*
X36124869Y112651962D01*
X36111138Y112674872D01*
X36099718Y112699017D01*
X36090720Y112724165D01*
X36084230Y112750075D01*
X36080311Y112776495D01*
X36079000Y112803173D01*
X36079000Y113510827D01*
X36080311Y113537505D01*
X36084230Y113563925D01*
X36090720Y113589835D01*
X36099718Y113614983D01*
X36111138Y113639128D01*
X36124869Y113662038D01*
X36140780Y113683492D01*
X36158718Y113703282D01*
X36178508Y113721220D01*
X36199962Y113737131D01*
X36222872Y113750862D01*
X36247017Y113762282D01*
X36272165Y113771280D01*
X36298075Y113777770D01*
X36324495Y113781689D01*
X36351173Y113783000D01*
X37308827Y113783000D01*
X37335505Y113781689D01*
G37*
G36*
X37335505Y115831689D02*
G01*
X37361925Y115827770D01*
X37387835Y115821280D01*
X37412983Y115812282D01*
X37437128Y115800862D01*
X37460038Y115787131D01*
X37481492Y115771220D01*
X37501282Y115753282D01*
X37519220Y115733492D01*
X37535131Y115712038D01*
X37548862Y115689128D01*
X37560282Y115664983D01*
X37569280Y115639835D01*
X37575770Y115613925D01*
X37579689Y115587505D01*
X37581000Y115560827D01*
X37581000Y114853173D01*
X37579689Y114826495D01*
X37575770Y114800075D01*
X37569280Y114774165D01*
X37560282Y114749017D01*
X37548862Y114724872D01*
X37535131Y114701962D01*
X37519220Y114680508D01*
X37501282Y114660718D01*
X37481492Y114642780D01*
X37460038Y114626869D01*
X37437128Y114613138D01*
X37412983Y114601718D01*
X37387835Y114592720D01*
X37361925Y114586230D01*
X37335505Y114582311D01*
X37308827Y114581000D01*
X36351173Y114581000D01*
X36324495Y114582311D01*
X36298075Y114586230D01*
X36272165Y114592720D01*
X36247017Y114601718D01*
X36222872Y114613138D01*
X36199962Y114626869D01*
X36178508Y114642780D01*
X36158718Y114660718D01*
X36140780Y114680508D01*
X36124869Y114701962D01*
X36111138Y114724872D01*
X36099718Y114749017D01*
X36090720Y114774165D01*
X36084230Y114800075D01*
X36080311Y114826495D01*
X36079000Y114853173D01*
X36079000Y115560827D01*
X36080311Y115587505D01*
X36084230Y115613925D01*
X36090720Y115639835D01*
X36099718Y115664983D01*
X36111138Y115689128D01*
X36124869Y115712038D01*
X36140780Y115733492D01*
X36158718Y115753282D01*
X36178508Y115771220D01*
X36199962Y115787131D01*
X36222872Y115800862D01*
X36247017Y115812282D01*
X36272165Y115821280D01*
X36298075Y115827770D01*
X36324495Y115831689D01*
X36351173Y115833000D01*
X37308827Y115833000D01*
X37335505Y115831689D01*
G37*
D12*
X30480000Y115093750D03*
X20320000Y115093750D03*
D13*
X22900000Y119093750D03*
D14*
X25400000Y115093750D03*
D15*
X21590000Y117633750D02*
X22900002Y119093750D01*
D13*
X27940000Y120173750D03*
D15*
X27900000Y119593750D02*
X27940000Y120173750D01*
D12*
X323373750Y34131250D03*
X313213750Y34131250D03*
D13*
X315793750Y38131250D03*
D14*
X318293750Y34131250D03*
D15*
X314483750Y36671250D02*
X315793752Y38131250D01*
D13*
X320833750Y39211250D03*
D15*
X320793750Y38631250D02*
X320833750Y39211250D01*
D12*
X328136750Y57943750D03*
X317976750Y57943750D03*
D13*
X320556750Y61943750D03*
D14*
X323056750Y57943750D03*
D15*
X319246750Y60483750D02*
X320556752Y61943750D01*
D13*
X325596750Y63023750D03*
D15*
X325556750Y62443750D02*
X325596750Y63023750D01*
D12*
X111442500Y57943750D03*
X101282500Y57943750D03*
D13*
X103862500Y61943750D03*
D14*
X106362500Y57943750D03*
D15*
X102552500Y60483750D02*
X103862502Y61943750D01*
D13*
X108902500Y63023750D03*
D15*
X108862500Y62443750D02*
X108902500Y63023750D01*
D12*
X92392500Y57943750D03*
X82232500Y57943750D03*
D13*
X84812500Y61943750D03*
D14*
X87312500Y57943750D03*
D15*
X83502500Y60483750D02*
X84812502Y61943750D01*
D13*
X89852500Y63023750D03*
D15*
X89812500Y62443750D02*
X89852500Y63023750D01*
D12*
X130492500Y57943750D03*
X120332500Y57943750D03*
D13*
X122912500Y61943750D03*
D14*
X125412500Y57943750D03*
D15*
X121602500Y60483750D02*
X122912502Y61943750D01*
D13*
X127952500Y63023750D03*
D15*
X127912500Y62443750D02*
X127952500Y63023750D01*
D14*
X196843650Y47148750D03*
X96843850Y47148750D03*
D20*
X196843650Y31908750D03*
X96843850Y31908750D03*
D12*
X151923750Y38893750D03*
X141763750Y38893750D03*
D13*
X144343750Y42893750D03*
D14*
X146843750Y38893750D03*
D15*
X143033750Y41433750D02*
X144343752Y42893750D01*
D13*
X149383750Y43973750D03*
D15*
X149343750Y43393750D02*
X149383750Y43973750D01*
D21*
X110943750Y43484250D03*
X110943750Y42684250D03*
X110943750Y41884250D03*
X110943750Y41084250D03*
X110943750Y40284250D03*
X110943750Y39484250D03*
X110943750Y38684250D03*
X110943750Y37884250D03*
X110943750Y37084250D03*
X110943750Y36284250D03*
X110943750Y35484250D03*
D22*
X112643750Y33784250D03*
X113443750Y33784250D03*
X114243750Y33784250D03*
X115043750Y33784250D03*
X115843750Y33784250D03*
X116643750Y33784250D03*
X117443750Y33784250D03*
X118243750Y33784250D03*
X119043750Y33784250D03*
X119843750Y33784250D03*
X120643750Y33784250D03*
D21*
X122343750Y35484250D03*
X122343750Y36284250D03*
X122343750Y37084250D03*
X122343750Y37884250D03*
X122343750Y38684250D03*
X122343750Y39484250D03*
X122343750Y40284250D03*
X122343750Y41084250D03*
X122343750Y41884250D03*
X122343750Y42684250D03*
X122343750Y43484250D03*
D22*
X120643750Y45184250D03*
X119843750Y45184250D03*
X119043750Y45184250D03*
X118243750Y45184250D03*
X117443750Y45184250D03*
X116643750Y45184250D03*
X115843750Y45184250D03*
X115043750Y45184250D03*
X114243750Y45184250D03*
X113443750Y45184250D03*
X112643750Y45184250D03*
D12*
X285327750Y34130750D03*
X275167750Y34130750D03*
D13*
X277747750Y38130750D03*
D14*
X280247750Y34130750D03*
D15*
X276437750Y36670750D02*
X277747752Y38130750D01*
D13*
X282787750Y39210750D03*
D15*
X282747750Y38630750D02*
X282787750Y39210750D01*
D23*
X129250750Y37754250D03*
X129250750Y40654250D03*
X126950750Y40654250D03*
X126950750Y37754250D03*
D24*
X135612750Y46978500D03*
X131912750Y40778500D03*
X131912750Y46978500D03*
X135612750Y40778500D03*
D19*
G36*
X108106255Y34470189D02*
G01*
X108132675Y34466270D01*
X108158585Y34459780D01*
X108183733Y34450782D01*
X108207878Y34439362D01*
X108230788Y34425631D01*
X108252242Y34409720D01*
X108272032Y34391782D01*
X108289970Y34371992D01*
X108305881Y34350538D01*
X108319612Y34327628D01*
X108331032Y34303483D01*
X108340030Y34278335D01*
X108346520Y34252425D01*
X108350439Y34226005D01*
X108351750Y34199327D01*
X108351750Y33491673D01*
X108350439Y33464995D01*
X108346520Y33438575D01*
X108340030Y33412665D01*
X108331032Y33387517D01*
X108319612Y33363372D01*
X108305881Y33340462D01*
X108289970Y33319008D01*
X108272032Y33299218D01*
X108252242Y33281280D01*
X108230788Y33265369D01*
X108207878Y33251638D01*
X108183733Y33240218D01*
X108158585Y33231220D01*
X108132675Y33224730D01*
X108106255Y33220811D01*
X108079577Y33219500D01*
X107121923Y33219500D01*
X107095245Y33220811D01*
X107068825Y33224730D01*
X107042915Y33231220D01*
X107017767Y33240218D01*
X106993622Y33251638D01*
X106970712Y33265369D01*
X106949258Y33281280D01*
X106929468Y33299218D01*
X106911530Y33319008D01*
X106895619Y33340462D01*
X106881888Y33363372D01*
X106870468Y33387517D01*
X106861470Y33412665D01*
X106854980Y33438575D01*
X106851061Y33464995D01*
X106849750Y33491673D01*
X106849750Y34199327D01*
X106851061Y34226005D01*
X106854980Y34252425D01*
X106861470Y34278335D01*
X106870468Y34303483D01*
X106881888Y34327628D01*
X106895619Y34350538D01*
X106911530Y34371992D01*
X106929468Y34391782D01*
X106949258Y34409720D01*
X106970712Y34425631D01*
X106993622Y34439362D01*
X107017767Y34450782D01*
X107042915Y34459780D01*
X107068825Y34466270D01*
X107095245Y34470189D01*
X107121923Y34471500D01*
X108079577Y34471500D01*
X108106255Y34470189D01*
G37*
G36*
X108106255Y36520189D02*
G01*
X108132675Y36516270D01*
X108158585Y36509780D01*
X108183733Y36500782D01*
X108207878Y36489362D01*
X108230788Y36475631D01*
X108252242Y36459720D01*
X108272032Y36441782D01*
X108289970Y36421992D01*
X108305881Y36400538D01*
X108319612Y36377628D01*
X108331032Y36353483D01*
X108340030Y36328335D01*
X108346520Y36302425D01*
X108350439Y36276005D01*
X108351750Y36249327D01*
X108351750Y35541673D01*
X108350439Y35514995D01*
X108346520Y35488575D01*
X108340030Y35462665D01*
X108331032Y35437517D01*
X108319612Y35413372D01*
X108305881Y35390462D01*
X108289970Y35369008D01*
X108272032Y35349218D01*
X108252242Y35331280D01*
X108230788Y35315369D01*
X108207878Y35301638D01*
X108183733Y35290218D01*
X108158585Y35281220D01*
X108132675Y35274730D01*
X108106255Y35270811D01*
X108079577Y35269500D01*
X107121923Y35269500D01*
X107095245Y35270811D01*
X107068825Y35274730D01*
X107042915Y35281220D01*
X107017767Y35290218D01*
X106993622Y35301638D01*
X106970712Y35315369D01*
X106949258Y35331280D01*
X106929468Y35349218D01*
X106911530Y35369008D01*
X106895619Y35390462D01*
X106881888Y35413372D01*
X106870468Y35437517D01*
X106861470Y35462665D01*
X106854980Y35488575D01*
X106851061Y35514995D01*
X106849750Y35541673D01*
X106849750Y36249327D01*
X106851061Y36276005D01*
X106854980Y36302425D01*
X106861470Y36328335D01*
X106870468Y36353483D01*
X106881888Y36377628D01*
X106895619Y36400538D01*
X106911530Y36421992D01*
X106929468Y36441782D01*
X106949258Y36459720D01*
X106970712Y36475631D01*
X106993622Y36489362D01*
X107017767Y36500782D01*
X107042915Y36509780D01*
X107068825Y36516270D01*
X107095245Y36520189D01*
X107121923Y36521500D01*
X108079577Y36521500D01*
X108106255Y36520189D01*
G37*
G36*
X125251255Y47687189D02*
G01*
X125277675Y47683270D01*
X125303585Y47676780D01*
X125328733Y47667782D01*
X125352878Y47656362D01*
X125375788Y47642631D01*
X125397242Y47626720D01*
X125417032Y47608782D01*
X125434970Y47588992D01*
X125450881Y47567538D01*
X125464612Y47544628D01*
X125476032Y47520483D01*
X125485030Y47495335D01*
X125491520Y47469425D01*
X125495439Y47443005D01*
X125496750Y47416327D01*
X125496750Y46708673D01*
X125495439Y46681995D01*
X125491520Y46655575D01*
X125485030Y46629665D01*
X125476032Y46604517D01*
X125464612Y46580372D01*
X125450881Y46557462D01*
X125434970Y46536008D01*
X125417032Y46516218D01*
X125397242Y46498280D01*
X125375788Y46482369D01*
X125352878Y46468638D01*
X125328733Y46457218D01*
X125303585Y46448220D01*
X125277675Y46441730D01*
X125251255Y46437811D01*
X125224577Y46436500D01*
X124266923Y46436500D01*
X124240245Y46437811D01*
X124213825Y46441730D01*
X124187915Y46448220D01*
X124162767Y46457218D01*
X124138622Y46468638D01*
X124115712Y46482369D01*
X124094258Y46498280D01*
X124074468Y46516218D01*
X124056530Y46536008D01*
X124040619Y46557462D01*
X124026888Y46580372D01*
X124015468Y46604517D01*
X124006470Y46629665D01*
X123999980Y46655575D01*
X123996061Y46681995D01*
X123994750Y46708673D01*
X123994750Y47416327D01*
X123996061Y47443005D01*
X123999980Y47469425D01*
X124006470Y47495335D01*
X124015468Y47520483D01*
X124026888Y47544628D01*
X124040619Y47567538D01*
X124056530Y47588992D01*
X124074468Y47608782D01*
X124094258Y47626720D01*
X124115712Y47642631D01*
X124138622Y47656362D01*
X124162767Y47667782D01*
X124187915Y47676780D01*
X124213825Y47683270D01*
X124240245Y47687189D01*
X124266923Y47688500D01*
X125224577Y47688500D01*
X125251255Y47687189D01*
G37*
G36*
X125251255Y45637189D02*
G01*
X125277675Y45633270D01*
X125303585Y45626780D01*
X125328733Y45617782D01*
X125352878Y45606362D01*
X125375788Y45592631D01*
X125397242Y45576720D01*
X125417032Y45558782D01*
X125434970Y45538992D01*
X125450881Y45517538D01*
X125464612Y45494628D01*
X125476032Y45470483D01*
X125485030Y45445335D01*
X125491520Y45419425D01*
X125495439Y45393005D01*
X125496750Y45366327D01*
X125496750Y44658673D01*
X125495439Y44631995D01*
X125491520Y44605575D01*
X125485030Y44579665D01*
X125476032Y44554517D01*
X125464612Y44530372D01*
X125450881Y44507462D01*
X125434970Y44486008D01*
X125417032Y44466218D01*
X125397242Y44448280D01*
X125375788Y44432369D01*
X125352878Y44418638D01*
X125328733Y44407218D01*
X125303585Y44398220D01*
X125277675Y44391730D01*
X125251255Y44387811D01*
X125224577Y44386500D01*
X124266923Y44386500D01*
X124240245Y44387811D01*
X124213825Y44391730D01*
X124187915Y44398220D01*
X124162767Y44407218D01*
X124138622Y44418638D01*
X124115712Y44432369D01*
X124094258Y44448280D01*
X124074468Y44466218D01*
X124056530Y44486008D01*
X124040619Y44507462D01*
X124026888Y44530372D01*
X124015468Y44554517D01*
X124006470Y44579665D01*
X123999980Y44605575D01*
X123996061Y44631995D01*
X123994750Y44658673D01*
X123994750Y45366327D01*
X123996061Y45393005D01*
X123999980Y45419425D01*
X124006470Y45445335D01*
X124015468Y45470483D01*
X124026888Y45494628D01*
X124040619Y45517538D01*
X124056530Y45538992D01*
X124074468Y45558782D01*
X124094258Y45576720D01*
X124115712Y45592631D01*
X124138622Y45606362D01*
X124162767Y45617782D01*
X124187915Y45626780D01*
X124213825Y45633270D01*
X124240245Y45637189D01*
X124266923Y45638500D01*
X125224577Y45638500D01*
X125251255Y45637189D01*
G37*
G36*
X37335505Y111132689D02*
G01*
X37361925Y111128770D01*
X37387835Y111122280D01*
X37412983Y111113282D01*
X37437128Y111101862D01*
X37460038Y111088131D01*
X37481492Y111072220D01*
X37501282Y111054282D01*
X37519220Y111034492D01*
X37535131Y111013038D01*
X37548862Y110990128D01*
X37560282Y110965983D01*
X37569280Y110940835D01*
X37575770Y110914925D01*
X37579689Y110888505D01*
X37581000Y110861827D01*
X37581000Y110154173D01*
X37579689Y110127495D01*
X37575770Y110101075D01*
X37569280Y110075165D01*
X37560282Y110050017D01*
X37548862Y110025872D01*
X37535131Y110002962D01*
X37519220Y109981508D01*
X37501282Y109961718D01*
X37481492Y109943780D01*
X37460038Y109927869D01*
X37437128Y109914138D01*
X37412983Y109902718D01*
X37387835Y109893720D01*
X37361925Y109887230D01*
X37335505Y109883311D01*
X37308827Y109882000D01*
X36351173Y109882000D01*
X36324495Y109883311D01*
X36298075Y109887230D01*
X36272165Y109893720D01*
X36247017Y109902718D01*
X36222872Y109914138D01*
X36199962Y109927869D01*
X36178508Y109943780D01*
X36158718Y109961718D01*
X36140780Y109981508D01*
X36124869Y110002962D01*
X36111138Y110025872D01*
X36099718Y110050017D01*
X36090720Y110075165D01*
X36084230Y110101075D01*
X36080311Y110127495D01*
X36079000Y110154173D01*
X36079000Y110861827D01*
X36080311Y110888505D01*
X36084230Y110914925D01*
X36090720Y110940835D01*
X36099718Y110965983D01*
X36111138Y110990128D01*
X36124869Y111013038D01*
X36140780Y111034492D01*
X36158718Y111054282D01*
X36178508Y111072220D01*
X36199962Y111088131D01*
X36222872Y111101862D01*
X36247017Y111113282D01*
X36272165Y111122280D01*
X36298075Y111128770D01*
X36324495Y111132689D01*
X36351173Y111134000D01*
X37308827Y111134000D01*
X37335505Y111132689D01*
G37*
G36*
X37335505Y109082689D02*
G01*
X37361925Y109078770D01*
X37387835Y109072280D01*
X37412983Y109063282D01*
X37437128Y109051862D01*
X37460038Y109038131D01*
X37481492Y109022220D01*
X37501282Y109004282D01*
X37519220Y108984492D01*
X37535131Y108963038D01*
X37548862Y108940128D01*
X37560282Y108915983D01*
X37569280Y108890835D01*
X37575770Y108864925D01*
X37579689Y108838505D01*
X37581000Y108811827D01*
X37581000Y108104173D01*
X37579689Y108077495D01*
X37575770Y108051075D01*
X37569280Y108025165D01*
X37560282Y108000017D01*
X37548862Y107975872D01*
X37535131Y107952962D01*
X37519220Y107931508D01*
X37501282Y107911718D01*
X37481492Y107893780D01*
X37460038Y107877869D01*
X37437128Y107864138D01*
X37412983Y107852718D01*
X37387835Y107843720D01*
X37361925Y107837230D01*
X37335505Y107833311D01*
X37308827Y107832000D01*
X36351173Y107832000D01*
X36324495Y107833311D01*
X36298075Y107837230D01*
X36272165Y107843720D01*
X36247017Y107852718D01*
X36222872Y107864138D01*
X36199962Y107877869D01*
X36178508Y107893780D01*
X36158718Y107911718D01*
X36140780Y107931508D01*
X36124869Y107952962D01*
X36111138Y107975872D01*
X36099718Y108000017D01*
X36090720Y108025165D01*
X36084230Y108051075D01*
X36080311Y108077495D01*
X36079000Y108104173D01*
X36079000Y108811827D01*
X36080311Y108838505D01*
X36084230Y108864925D01*
X36090720Y108890835D01*
X36099718Y108915983D01*
X36111138Y108940128D01*
X36124869Y108963038D01*
X36140780Y108984492D01*
X36158718Y109004282D01*
X36178508Y109022220D01*
X36199962Y109038131D01*
X36222872Y109051862D01*
X36247017Y109063282D01*
X36272165Y109072280D01*
X36298075Y109078770D01*
X36324495Y109082689D01*
X36351173Y109084000D01*
X37308827Y109084000D01*
X37335505Y109082689D01*
G37*
G36*
X33525505Y111114689D02*
G01*
X33551925Y111110770D01*
X33577835Y111104280D01*
X33602983Y111095282D01*
X33627128Y111083862D01*
X33650038Y111070131D01*
X33671492Y111054220D01*
X33691282Y111036282D01*
X33709220Y111016492D01*
X33725131Y110995038D01*
X33738862Y110972128D01*
X33750282Y110947983D01*
X33759280Y110922835D01*
X33765770Y110896925D01*
X33769689Y110870505D01*
X33771000Y110843827D01*
X33771000Y110136173D01*
X33769689Y110109495D01*
X33765770Y110083075D01*
X33759280Y110057165D01*
X33750282Y110032017D01*
X33738862Y110007872D01*
X33725131Y109984962D01*
X33709220Y109963508D01*
X33691282Y109943718D01*
X33671492Y109925780D01*
X33650038Y109909869D01*
X33627128Y109896138D01*
X33602983Y109884718D01*
X33577835Y109875720D01*
X33551925Y109869230D01*
X33525505Y109865311D01*
X33498827Y109864000D01*
X32541173Y109864000D01*
X32514495Y109865311D01*
X32488075Y109869230D01*
X32462165Y109875720D01*
X32437017Y109884718D01*
X32412872Y109896138D01*
X32389962Y109909869D01*
X32368508Y109925780D01*
X32348718Y109943718D01*
X32330780Y109963508D01*
X32314869Y109984962D01*
X32301138Y110007872D01*
X32289718Y110032017D01*
X32280720Y110057165D01*
X32274230Y110083075D01*
X32270311Y110109495D01*
X32269000Y110136173D01*
X32269000Y110843827D01*
X32270311Y110870505D01*
X32274230Y110896925D01*
X32280720Y110922835D01*
X32289718Y110947983D01*
X32301138Y110972128D01*
X32314869Y110995038D01*
X32330780Y111016492D01*
X32348718Y111036282D01*
X32368508Y111054220D01*
X32389962Y111070131D01*
X32412872Y111083862D01*
X32437017Y111095282D01*
X32462165Y111104280D01*
X32488075Y111110770D01*
X32514495Y111114689D01*
X32541173Y111116000D01*
X33498827Y111116000D01*
X33525505Y111114689D01*
G37*
G36*
X33525505Y109064689D02*
G01*
X33551925Y109060770D01*
X33577835Y109054280D01*
X33602983Y109045282D01*
X33627128Y109033862D01*
X33650038Y109020131D01*
X33671492Y109004220D01*
X33691282Y108986282D01*
X33709220Y108966492D01*
X33725131Y108945038D01*
X33738862Y108922128D01*
X33750282Y108897983D01*
X33759280Y108872835D01*
X33765770Y108846925D01*
X33769689Y108820505D01*
X33771000Y108793827D01*
X33771000Y108086173D01*
X33769689Y108059495D01*
X33765770Y108033075D01*
X33759280Y108007165D01*
X33750282Y107982017D01*
X33738862Y107957872D01*
X33725131Y107934962D01*
X33709220Y107913508D01*
X33691282Y107893718D01*
X33671492Y107875780D01*
X33650038Y107859869D01*
X33627128Y107846138D01*
X33602983Y107834718D01*
X33577835Y107825720D01*
X33551925Y107819230D01*
X33525505Y107815311D01*
X33498827Y107814000D01*
X32541173Y107814000D01*
X32514495Y107815311D01*
X32488075Y107819230D01*
X32462165Y107825720D01*
X32437017Y107834718D01*
X32412872Y107846138D01*
X32389962Y107859869D01*
X32368508Y107875780D01*
X32348718Y107893718D01*
X32330780Y107913508D01*
X32314869Y107934962D01*
X32301138Y107957872D01*
X32289718Y107982017D01*
X32280720Y108007165D01*
X32274230Y108033075D01*
X32270311Y108059495D01*
X32269000Y108086173D01*
X32269000Y108793827D01*
X32270311Y108820505D01*
X32274230Y108846925D01*
X32280720Y108872835D01*
X32289718Y108897983D01*
X32301138Y108922128D01*
X32314869Y108945038D01*
X32330780Y108966492D01*
X32348718Y108986282D01*
X32368508Y109004220D01*
X32389962Y109020131D01*
X32412872Y109033862D01*
X32437017Y109045282D01*
X32462165Y109054280D01*
X32488075Y109060770D01*
X32514495Y109064689D01*
X32541173Y109066000D01*
X33498827Y109066000D01*
X33525505Y109064689D01*
G37*
D12*
X328136250Y77011250D03*
X317976250Y77011250D03*
D13*
X320556250Y81011250D03*
D14*
X323056250Y77011250D03*
D15*
X319246250Y79551250D02*
X320556252Y81011250D01*
D13*
X325596250Y82091250D03*
D15*
X325556250Y81511250D02*
X325596250Y82091250D01*
D12*
X328136250Y96061250D03*
X317976250Y96061250D03*
D13*
X320556250Y100061250D03*
D14*
X323056250Y96061250D03*
D15*
X319246250Y98601250D02*
X320556252Y100061250D01*
D13*
X325596250Y101141250D03*
D15*
X325556250Y100561250D02*
X325596250Y101141250D01*
D12*
X328136250Y115111250D03*
X317976250Y115111250D03*
D13*
X320556250Y119111250D03*
D14*
X323056250Y115111250D03*
D15*
X319246250Y117651250D02*
X320556252Y119111250D01*
D13*
X325596250Y120191250D03*
D15*
X325556250Y119611250D02*
X325596250Y120191250D01*
D12*
X304323750Y34131250D03*
X294163750Y34131250D03*
D13*
X296743750Y38131250D03*
D14*
X299243750Y34131250D03*
D15*
X295433750Y36671250D02*
X296743752Y38131250D01*
D13*
X301783750Y39211250D03*
D15*
X301743750Y38631250D02*
X301783750Y39211250D01*
D12*
X304323750Y53130750D03*
X294163750Y53130750D03*
D13*
X296743750Y57130750D03*
D14*
X299243750Y53130750D03*
D15*
X295433750Y55670750D02*
X296743752Y57130750D01*
D13*
X301783750Y58210750D03*
D15*
X301743750Y57630750D02*
X301783750Y58210750D01*
D12*
X268605000Y96043750D03*
X258445000Y96043750D03*
D13*
X261025000Y100043750D03*
D14*
X263525000Y96043750D03*
D15*
X259715000Y98583750D02*
X261025002Y100043750D01*
D13*
X266065000Y101123750D03*
D15*
X266025000Y100543750D02*
X266065000Y101123750D01*
D12*
X259080000Y115093750D03*
X248920000Y115093750D03*
D13*
X251500000Y119093750D03*
D14*
X254000000Y115093750D03*
D15*
X250190000Y117633750D02*
X251500002Y119093750D01*
D13*
X256540000Y120173750D03*
D15*
X256500000Y119593750D02*
X256540000Y120173750D01*
D14*
X292131750Y68738750D03*
X268255750Y68738750D03*
D20*
X292131750Y83978750D03*
X268255750Y83978750D03*
D12*
X285273750Y76993750D03*
X275113750Y76993750D03*
D13*
X277693750Y80993750D03*
D14*
X280193750Y76993750D03*
D15*
X276383750Y79533750D02*
X277693752Y80993750D01*
D13*
X282733750Y82073750D03*
D15*
X282693750Y81493750D02*
X282733750Y82073750D01*
D12*
X292417500Y96043750D03*
X282257500Y96043750D03*
D13*
X284837500Y100043750D03*
D14*
X287337500Y96043750D03*
D15*
X283527500Y98583750D02*
X284837502Y100043750D01*
D13*
X289877500Y101123750D03*
D15*
X289837500Y100543750D02*
X289877500Y101123750D01*
D14*
X294513000Y106838750D03*
X270637000Y106838750D03*
D20*
X294513000Y122078750D03*
X270637000Y122078750D03*
D12*
X287655000Y115093750D03*
X277495000Y115093750D03*
D13*
X280075000Y119093750D03*
D14*
X282575000Y115093750D03*
D15*
X278765000Y117633750D02*
X280075002Y119093750D01*
D13*
X285115000Y120173750D03*
D15*
X285075000Y119593750D02*
X285115000Y120173750D01*
D12*
X270986250Y57943750D03*
X260826250Y57943750D03*
D13*
X263406250Y61943750D03*
D14*
X265906250Y57943750D03*
D15*
X262096250Y60483750D02*
X263406252Y61943750D01*
D13*
X268446250Y63023750D03*
D15*
X268406250Y62443750D02*
X268446250Y63023750D01*
D12*
X254317500Y76993750D03*
X244157500Y76993750D03*
D13*
X246737500Y80993750D03*
D14*
X249237500Y76993750D03*
D15*
X245427500Y79533750D02*
X246737502Y80993750D01*
D13*
X251777500Y82073750D03*
D15*
X251737500Y81493750D02*
X251777500Y82073750D01*
D12*
X249555000Y96043750D03*
X239395000Y96043750D03*
D13*
X241975000Y100043750D03*
D14*
X244475000Y96043750D03*
D15*
X240665000Y98583750D02*
X241975002Y100043750D01*
D13*
X247015000Y101123750D03*
D15*
X246975000Y100543750D02*
X247015000Y101123750D01*
D12*
X240030000Y115093750D03*
X229870000Y115093750D03*
D13*
X232450000Y119093750D03*
D14*
X234950000Y115093750D03*
D15*
X231140000Y117633750D02*
X232450002Y119093750D01*
D13*
X237490000Y120173750D03*
D15*
X237450000Y119593750D02*
X237490000Y120173750D01*
D12*
X247173750Y38893750D03*
X237013750Y38893750D03*
D13*
X239593750Y42893750D03*
D14*
X242093750Y38893750D03*
D15*
X238283750Y41433750D02*
X239593752Y42893750D01*
D13*
X244633750Y43973750D03*
D15*
X244593750Y43393750D02*
X244633750Y43973750D01*
D12*
X244792500Y57943750D03*
X234632500Y57943750D03*
D13*
X237212500Y61943750D03*
D14*
X239712500Y57943750D03*
D15*
X235902500Y60483750D02*
X237212502Y61943750D01*
D13*
X242252500Y63023750D03*
D15*
X242212500Y62443750D02*
X242252500Y63023750D01*
D12*
X235267500Y76993750D03*
X225107500Y76993750D03*
D13*
X227687500Y80993750D03*
D14*
X230187500Y76993750D03*
D15*
X226377500Y79533750D02*
X227687502Y80993750D01*
D13*
X232727500Y82073750D03*
D15*
X232687500Y81493750D02*
X232727500Y82073750D01*
D12*
X230505000Y96043750D03*
X220345000Y96043750D03*
D13*
X222925000Y100043750D03*
D14*
X225425000Y96043750D03*
D15*
X221615000Y98583750D02*
X222925002Y100043750D01*
D13*
X227965000Y101123750D03*
D15*
X227925000Y100543750D02*
X227965000Y101123750D01*
D12*
X220980000Y115093750D03*
X210820000Y115093750D03*
D13*
X213400000Y119093750D03*
D14*
X215900000Y115093750D03*
D15*
X212090000Y117633750D02*
X213400002Y119093750D01*
D13*
X218440000Y120173750D03*
D15*
X218400000Y119593750D02*
X218440000Y120173750D01*
D12*
X223361250Y38893750D03*
X213201250Y38893750D03*
D13*
X215781250Y42893750D03*
D14*
X218281250Y38893750D03*
D15*
X214471250Y41433750D02*
X215781252Y42893750D01*
D13*
X220821250Y43973750D03*
D15*
X220781250Y43393750D02*
X220821250Y43973750D01*
D12*
X225742500Y57943750D03*
X215582500Y57943750D03*
D13*
X218162500Y61943750D03*
D14*
X220662500Y57943750D03*
D15*
X216852500Y60483750D02*
X218162502Y61943750D01*
D13*
X223202500Y63023750D03*
D15*
X223162500Y62443750D02*
X223202500Y63023750D01*
D12*
X216217500Y76993750D03*
X206057500Y76993750D03*
D13*
X208637500Y80993750D03*
D14*
X211137500Y76993750D03*
D15*
X207327500Y79533750D02*
X208637502Y80993750D01*
D13*
X213677500Y82073750D03*
D15*
X213637500Y81493750D02*
X213677500Y82073750D01*
D12*
X211455000Y96043750D03*
X201295000Y96043750D03*
D13*
X203875000Y100043750D03*
D14*
X206375000Y96043750D03*
D15*
X202565000Y98583750D02*
X203875002Y100043750D01*
D13*
X208915000Y101123750D03*
D15*
X208875000Y100543750D02*
X208915000Y101123750D01*
D12*
X201930000Y115093750D03*
X191770000Y115093750D03*
D13*
X194350000Y119093750D03*
D14*
X196850000Y115093750D03*
D15*
X193040000Y117633750D02*
X194350002Y119093750D01*
D13*
X199390000Y120173750D03*
D15*
X199350000Y119593750D02*
X199390000Y120173750D01*
D12*
X206692500Y57943750D03*
X196532500Y57943750D03*
D13*
X199112500Y61943750D03*
D14*
X201612500Y57943750D03*
D15*
X197802500Y60483750D02*
X199112502Y61943750D01*
D13*
X204152500Y63023750D03*
D15*
X204112500Y62443750D02*
X204152500Y63023750D01*
D12*
X197167500Y76993750D03*
X187007500Y76993750D03*
D13*
X189587500Y80993750D03*
D14*
X192087500Y76993750D03*
D15*
X188277500Y79533750D02*
X189587502Y80993750D01*
D13*
X194627500Y82073750D03*
D15*
X194587500Y81493750D02*
X194627500Y82073750D01*
D12*
X192405000Y96043750D03*
X182245000Y96043750D03*
D13*
X184825000Y100043750D03*
D14*
X187325000Y96043750D03*
D15*
X183515000Y98583750D02*
X184825002Y100043750D01*
D13*
X189865000Y101123750D03*
D15*
X189825000Y100543750D02*
X189865000Y101123750D01*
D12*
X182880000Y115093750D03*
X172720000Y115093750D03*
D13*
X175300000Y119093750D03*
D14*
X177800000Y115093750D03*
D15*
X173990000Y117633750D02*
X175300002Y119093750D01*
D13*
X180340000Y120173750D03*
D15*
X180300000Y119593750D02*
X180340000Y120173750D01*
D12*
X187642500Y57943750D03*
X177482500Y57943750D03*
D13*
X180062500Y61943750D03*
D14*
X182562500Y57943750D03*
D15*
X178752500Y60483750D02*
X180062502Y61943750D01*
D13*
X185102500Y63023750D03*
D15*
X185062500Y62443750D02*
X185102500Y63023750D01*
D12*
X178117500Y76993750D03*
X167957500Y76993750D03*
D13*
X170537500Y80993750D03*
D14*
X173037500Y76993750D03*
D15*
X169227500Y79533750D02*
X170537502Y80993750D01*
D13*
X175577500Y82073750D03*
D15*
X175537500Y81493750D02*
X175577500Y82073750D01*
D12*
X173355000Y96043750D03*
X163195000Y96043750D03*
D13*
X165775000Y100043750D03*
D14*
X168275000Y96043750D03*
D15*
X164465000Y98583750D02*
X165775002Y100043750D01*
D13*
X170815000Y101123750D03*
D15*
X170775000Y100543750D02*
X170815000Y101123750D01*
D12*
X163830000Y115093750D03*
X153670000Y115093750D03*
D13*
X156250000Y119093750D03*
D14*
X158750000Y115093750D03*
D15*
X154940000Y117633750D02*
X156250002Y119093750D01*
D13*
X161290000Y120173750D03*
D15*
X161250000Y119593750D02*
X161290000Y120173750D01*
D12*
X168592500Y57943750D03*
X158432500Y57943750D03*
D13*
X161012500Y61943750D03*
D14*
X163512500Y57943750D03*
D15*
X159702500Y60483750D02*
X161012502Y61943750D01*
D13*
X166052500Y63023750D03*
D15*
X166012500Y62443750D02*
X166052500Y63023750D01*
D12*
X159067500Y76993750D03*
X148907500Y76993750D03*
D13*
X151487500Y80993750D03*
D14*
X153987500Y76993750D03*
D15*
X150177500Y79533750D02*
X151487502Y80993750D01*
D13*
X156527500Y82073750D03*
D15*
X156487500Y81493750D02*
X156527500Y82073750D01*
D12*
X154305000Y96043750D03*
X144145000Y96043750D03*
D13*
X146725000Y100043750D03*
D14*
X149225000Y96043750D03*
D15*
X145415000Y98583750D02*
X146725002Y100043750D01*
D13*
X151765000Y101123750D03*
D15*
X151725000Y100543750D02*
X151765000Y101123750D01*
D12*
X144780000Y115093750D03*
X134620000Y115093750D03*
D13*
X137200000Y119093750D03*
D14*
X139700000Y115093750D03*
D15*
X135890000Y117633750D02*
X137200002Y119093750D01*
D13*
X142240000Y120173750D03*
D15*
X142200000Y119593750D02*
X142240000Y120173750D01*
D12*
X149669500Y57943750D03*
X139509500Y57943750D03*
D13*
X142089500Y61943750D03*
D14*
X144589500Y57943750D03*
D15*
X140779500Y60483750D02*
X142089502Y61943750D01*
D13*
X147129500Y63023750D03*
D15*
X147089500Y62443750D02*
X147129500Y63023750D01*
D12*
X140017500Y76993750D03*
X129857500Y76993750D03*
D13*
X132437500Y80993750D03*
D14*
X134937500Y76993750D03*
D15*
X131127500Y79533750D02*
X132437502Y80993750D01*
D13*
X137477500Y82073750D03*
D15*
X137437500Y81493750D02*
X137477500Y82073750D01*
D12*
X135255000Y96043750D03*
X125095000Y96043750D03*
D13*
X127675000Y100043750D03*
D14*
X130175000Y96043750D03*
D15*
X126365000Y98583750D02*
X127675002Y100043750D01*
D13*
X132715000Y101123750D03*
D15*
X132675000Y100543750D02*
X132715000Y101123750D01*
D12*
X125730000Y115093750D03*
X115570000Y115093750D03*
D13*
X118150000Y119093750D03*
D14*
X120650000Y115093750D03*
D15*
X116840000Y117633750D02*
X118150002Y119093750D01*
D13*
X123190000Y120173750D03*
D15*
X123150000Y119593750D02*
X123190000Y120173750D01*
D12*
X120967500Y76993750D03*
X110807500Y76993750D03*
D13*
X113387500Y80993750D03*
D14*
X115887500Y76993750D03*
D15*
X112077500Y79533750D02*
X113387502Y80993750D01*
D13*
X118427500Y82073750D03*
D15*
X118387500Y81493750D02*
X118427500Y82073750D01*
D12*
X116205000Y96043750D03*
X106045000Y96043750D03*
D13*
X108625000Y100043750D03*
D14*
X111125000Y96043750D03*
D15*
X107315000Y98583750D02*
X108625002Y100043750D01*
D13*
X113665000Y101123750D03*
D15*
X113625000Y100543750D02*
X113665000Y101123750D01*
D12*
X106680000Y115093750D03*
X96520000Y115093750D03*
D13*
X99100000Y119093750D03*
D14*
X101600000Y115093750D03*
D15*
X97790000Y117633750D02*
X99100002Y119093750D01*
D13*
X104140000Y120173750D03*
D15*
X104100000Y119593750D02*
X104140000Y120173750D01*
D12*
X101917500Y76993750D03*
X91757500Y76993750D03*
D13*
X94337500Y80993750D03*
D14*
X96837500Y76993750D03*
D15*
X93027500Y79533750D02*
X94337502Y80993750D01*
D13*
X99377500Y82073750D03*
D15*
X99337500Y81493750D02*
X99377500Y82073750D01*
D12*
X97155000Y96043750D03*
X86995000Y96043750D03*
D13*
X89575000Y100043750D03*
D14*
X92075000Y96043750D03*
D15*
X88265000Y98583750D02*
X89575002Y100043750D01*
D13*
X94615000Y101123750D03*
D15*
X94575000Y100543750D02*
X94615000Y101123750D01*
D12*
X87630000Y115093750D03*
X77470000Y115093750D03*
D13*
X80050000Y119093750D03*
D14*
X82550000Y115093750D03*
D15*
X78740000Y117633750D02*
X80050002Y119093750D01*
D13*
X85090000Y120173750D03*
D15*
X85050000Y119593750D02*
X85090000Y120173750D01*
D12*
X80486250Y38893750D03*
X70326250Y38893750D03*
D13*
X72906250Y42893750D03*
D14*
X75406250Y38893750D03*
D15*
X71596250Y41433750D02*
X72906252Y42893750D01*
D13*
X77946250Y43973750D03*
D15*
X77906250Y43393750D02*
X77946250Y43973750D01*
D12*
X82867500Y76993750D03*
X72707500Y76993750D03*
D13*
X75287500Y80993750D03*
D14*
X77787500Y76993750D03*
D15*
X73977500Y79533750D02*
X75287502Y80993750D01*
D13*
X80327500Y82073750D03*
D15*
X80287500Y81493750D02*
X80327500Y82073750D01*
D12*
X78105000Y96043750D03*
X67945000Y96043750D03*
D13*
X70525000Y100043750D03*
D14*
X73025000Y96043750D03*
D15*
X69215000Y98583750D02*
X70525002Y100043750D01*
D13*
X75565000Y101123750D03*
D15*
X75525000Y100543750D02*
X75565000Y101123750D01*
D12*
X68580000Y115093750D03*
X58420000Y115093750D03*
D13*
X61000000Y119093750D03*
D14*
X63500000Y115093750D03*
D15*
X59690000Y117633750D02*
X61000002Y119093750D01*
D13*
X66040000Y120173750D03*
D15*
X66000000Y119593750D02*
X66040000Y120173750D01*
D12*
X56673750Y38893750D03*
X46513750Y38893750D03*
D13*
X49093750Y42893750D03*
D14*
X51593750Y38893750D03*
D15*
X47783750Y41433750D02*
X49093752Y42893750D01*
D13*
X54133750Y43973750D03*
D15*
X54093750Y43393750D02*
X54133750Y43973750D01*
D12*
X73342500Y57943750D03*
X63182500Y57943750D03*
D13*
X65762500Y61943750D03*
D14*
X68262500Y57943750D03*
D15*
X64452500Y60483750D02*
X65762502Y61943750D01*
D13*
X70802500Y63023750D03*
D15*
X70762500Y62443750D02*
X70802500Y63023750D01*
D12*
X63817500Y76993750D03*
X53657500Y76993750D03*
D13*
X56237500Y80993750D03*
D14*
X58737500Y76993750D03*
D15*
X54927500Y79533750D02*
X56237502Y80993750D01*
D13*
X61277500Y82073750D03*
D15*
X61237500Y81493750D02*
X61277500Y82073750D01*
D12*
X59055000Y96043750D03*
X48895000Y96043750D03*
D13*
X51475000Y100043750D03*
D14*
X53975000Y96043750D03*
D15*
X50165000Y98583750D02*
X51475002Y100043750D01*
D13*
X56515000Y101123750D03*
D15*
X56475000Y100543750D02*
X56515000Y101123750D01*
D12*
X32861250Y38893750D03*
X22701250Y38893750D03*
D13*
X25281250Y42893750D03*
D14*
X27781250Y38893750D03*
D15*
X23971250Y41433750D02*
X25281252Y42893750D01*
D13*
X30321250Y43973750D03*
D15*
X30281250Y43393750D02*
X30321250Y43973750D01*
D14*
X49244250Y49688750D03*
X25368250Y49688750D03*
D20*
X49244250Y64928750D03*
X25368250Y64928750D03*
D12*
X42386250Y57943750D03*
X32226250Y57943750D03*
D13*
X34806250Y61943750D03*
D14*
X37306250Y57943750D03*
D15*
X33496250Y60483750D02*
X34806252Y61943750D01*
D13*
X39846250Y63023750D03*
D15*
X39806250Y62443750D02*
X39846250Y63023750D01*
D12*
X37623750Y76993750D03*
X27463750Y76993750D03*
D13*
X30043750Y80993750D03*
D14*
X32543750Y76993750D03*
D15*
X28733750Y79533750D02*
X30043752Y80993750D01*
D13*
X35083750Y82073750D03*
D15*
X35043750Y81493750D02*
X35083750Y82073750D01*
D12*
X35242500Y96043750D03*
X25082500Y96043750D03*
D13*
X27662500Y100043750D03*
D14*
X30162500Y96043750D03*
D15*
X26352500Y98583750D02*
X27662502Y100043750D01*
D13*
X32702500Y101123750D03*
D15*
X32662500Y100543750D02*
X32702500Y101123750D01*
D19*
G36*
X45007363Y111633210D02*
G01*
X45033369Y111629352D01*
X45058871Y111622965D01*
X45083624Y111614108D01*
X45107390Y111602867D01*
X45129939Y111589352D01*
X45151056Y111573691D01*
X45170535Y111556035D01*
X45188191Y111536556D01*
X45203852Y111515439D01*
X45217367Y111492890D01*
X45228608Y111469124D01*
X45237465Y111444371D01*
X45243852Y111418869D01*
X45247710Y111392863D01*
X45249000Y111366605D01*
X45249000Y110375395D01*
X45247710Y110349137D01*
X45243852Y110323131D01*
X45237465Y110297629D01*
X45228608Y110272876D01*
X45217367Y110249110D01*
X45203852Y110226561D01*
X45188191Y110205444D01*
X45170535Y110185965D01*
X45151056Y110168309D01*
X45129939Y110152648D01*
X45107390Y110139133D01*
X45083624Y110127892D01*
X45058871Y110119035D01*
X45033369Y110112648D01*
X45007363Y110108790D01*
X44981105Y110107500D01*
X43664895Y110107500D01*
X43638637Y110108790D01*
X43612631Y110112648D01*
X43587129Y110119035D01*
X43562376Y110127892D01*
X43538610Y110139133D01*
X43516061Y110152648D01*
X43494944Y110168309D01*
X43475465Y110185965D01*
X43457809Y110205444D01*
X43442148Y110226561D01*
X43428633Y110249110D01*
X43417392Y110272876D01*
X43408535Y110297629D01*
X43402148Y110323131D01*
X43398290Y110349137D01*
X43397000Y110375395D01*
X43397000Y111366605D01*
X43398290Y111392863D01*
X43402148Y111418869D01*
X43408535Y111444371D01*
X43417392Y111469124D01*
X43428633Y111492890D01*
X43442148Y111515439D01*
X43457809Y111536556D01*
X43475465Y111556035D01*
X43494944Y111573691D01*
X43516061Y111589352D01*
X43538610Y111602867D01*
X43562376Y111614108D01*
X43587129Y111622965D01*
X43612631Y111629352D01*
X43638637Y111633210D01*
X43664895Y111634500D01*
X44981105Y111634500D01*
X45007363Y111633210D01*
G37*
G36*
X45007363Y108658210D02*
G01*
X45033369Y108654352D01*
X45058871Y108647965D01*
X45083624Y108639108D01*
X45107390Y108627867D01*
X45129939Y108614352D01*
X45151056Y108598691D01*
X45170535Y108581035D01*
X45188191Y108561556D01*
X45203852Y108540439D01*
X45217367Y108517890D01*
X45228608Y108494124D01*
X45237465Y108469371D01*
X45243852Y108443869D01*
X45247710Y108417863D01*
X45249000Y108391605D01*
X45249000Y107400395D01*
X45247710Y107374137D01*
X45243852Y107348131D01*
X45237465Y107322629D01*
X45228608Y107297876D01*
X45217367Y107274110D01*
X45203852Y107251561D01*
X45188191Y107230444D01*
X45170535Y107210965D01*
X45151056Y107193309D01*
X45129939Y107177648D01*
X45107390Y107164133D01*
X45083624Y107152892D01*
X45058871Y107144035D01*
X45033369Y107137648D01*
X45007363Y107133790D01*
X44981105Y107132500D01*
X43664895Y107132500D01*
X43638637Y107133790D01*
X43612631Y107137648D01*
X43587129Y107144035D01*
X43562376Y107152892D01*
X43538610Y107164133D01*
X43516061Y107177648D01*
X43494944Y107193309D01*
X43475465Y107210965D01*
X43457809Y107230444D01*
X43442148Y107251561D01*
X43428633Y107274110D01*
X43417392Y107297876D01*
X43408535Y107322629D01*
X43402148Y107348131D01*
X43398290Y107374137D01*
X43397000Y107400395D01*
X43397000Y108391605D01*
X43398290Y108417863D01*
X43402148Y108443869D01*
X43408535Y108469371D01*
X43417392Y108494124D01*
X43428633Y108517890D01*
X43442148Y108540439D01*
X43457809Y108561556D01*
X43475465Y108581035D01*
X43494944Y108598691D01*
X43516061Y108614352D01*
X43538610Y108627867D01*
X43562376Y108639108D01*
X43587129Y108647965D01*
X43612631Y108654352D01*
X43638637Y108658210D01*
X43664895Y108659500D01*
X44981105Y108659500D01*
X45007363Y108658210D01*
G37*
D25*
X326263000Y35560000D03*
X326263000Y32260000D03*
X330835000Y59561000D03*
X330835000Y56261000D03*
X330835000Y78486000D03*
X330835000Y75186000D03*
X330962000Y97661000D03*
X330962000Y94361000D03*
X330708000Y116457000D03*
X330708000Y113157000D03*
X307340000Y35558000D03*
X307340000Y32258000D03*
X307181250Y54768750D03*
X307181250Y51468750D03*
X271462500Y97631250D03*
X271462500Y94331250D03*
X261937500Y116743750D03*
X261937500Y113443750D03*
X288131250Y35050000D03*
X288131250Y31750000D03*
X288131250Y78581250D03*
X288131250Y75281250D03*
X295275000Y97693750D03*
X295275000Y94393750D03*
X290512500Y116681250D03*
X290512500Y113381250D03*
X273843750Y59656250D03*
X273843750Y56356250D03*
X257175000Y78643750D03*
X257175000Y75343750D03*
X252412500Y97693750D03*
X252412500Y94393750D03*
X242887500Y116806250D03*
X242887500Y113506250D03*
X250825000Y40481250D03*
X250825000Y37181250D03*
X247650000Y59656250D03*
X247650000Y56356250D03*
X238125000Y78643750D03*
X238125000Y75343750D03*
X233362500Y97693750D03*
X233362500Y94393750D03*
X223837500Y116806250D03*
X223837500Y113506250D03*
X227012500Y40481250D03*
X227012500Y37181250D03*
X228600000Y59656250D03*
X228600000Y56356250D03*
X219075000Y78581250D03*
X219075000Y75281250D03*
X214312500Y97631250D03*
X214312500Y94331250D03*
X204787500Y116806250D03*
X204787500Y113506250D03*
X209550000Y59593750D03*
X209550000Y56293750D03*
X200025000Y78643750D03*
X200025000Y75343750D03*
X195262500Y97631250D03*
X195262500Y94331250D03*
X185737500Y116681250D03*
X185737500Y113381250D03*
X190500000Y59531250D03*
X190500000Y56231250D03*
X180975000Y78581250D03*
X180975000Y75281250D03*
X176212500Y97631250D03*
X176212500Y94331250D03*
X166687500Y116806250D03*
X166687500Y113506250D03*
X171450000Y59593750D03*
X171450000Y56293750D03*
X161925000Y78581250D03*
X161925000Y75281250D03*
X157162500Y97693750D03*
X157162500Y94393750D03*
X147637500Y116681250D03*
X147637500Y113381250D03*
X154781250Y40481250D03*
X154781250Y37181250D03*
X152400000Y59531250D03*
X152400000Y56231250D03*
X142875000Y78643750D03*
X142875000Y75343750D03*
X138112500Y97631250D03*
X138112500Y94331250D03*
X128587500Y116681250D03*
X128587500Y113381250D03*
X133350000Y59593750D03*
X133350000Y56293750D03*
X123825000Y78581250D03*
X123825000Y75281250D03*
X119062500Y97631250D03*
X119062500Y94331250D03*
X109537500Y116743750D03*
X109537500Y113443750D03*
X114300000Y59593750D03*
X114300000Y56293750D03*
X104775000Y78643750D03*
X104775000Y75343750D03*
X100012500Y97631250D03*
X100012500Y94331250D03*
X90487500Y116681250D03*
X90487500Y113381250D03*
X83343750Y40543750D03*
X83343750Y37243750D03*
X95250000Y59531250D03*
X95250000Y56231250D03*
X84931250Y78643750D03*
X84931250Y75343750D03*
X80962500Y97756250D03*
X80962500Y94456250D03*
X71437500Y116743750D03*
X71437500Y113443750D03*
X60325000Y40481250D03*
X60325000Y37181250D03*
X76200000Y59531250D03*
X76200000Y56231250D03*
X66675000Y78643750D03*
X66675000Y75343750D03*
X61912500Y97693750D03*
X61912500Y94393750D03*
X52387500Y116743750D03*
X52387500Y113443750D03*
X35718750Y40543750D03*
X35718750Y37243750D03*
X45243750Y59531250D03*
X45243750Y56231250D03*
X41275000Y78581250D03*
X41275000Y75281250D03*
X38100000Y97631250D03*
X38100000Y94331250D03*
X28575000Y111887000D03*
X28575000Y108587000D03*
D19*
G36*
X116869255Y50227189D02*
G01*
X116895675Y50223270D01*
X116921585Y50216780D01*
X116946733Y50207782D01*
X116970878Y50196362D01*
X116993788Y50182631D01*
X117015242Y50166720D01*
X117035032Y50148782D01*
X117052970Y50128992D01*
X117068881Y50107538D01*
X117082612Y50084628D01*
X117094032Y50060483D01*
X117103030Y50035335D01*
X117109520Y50009425D01*
X117113439Y49983005D01*
X117114750Y49956327D01*
X117114750Y49248673D01*
X117113439Y49221995D01*
X117109520Y49195575D01*
X117103030Y49169665D01*
X117094032Y49144517D01*
X117082612Y49120372D01*
X117068881Y49097462D01*
X117052970Y49076008D01*
X117035032Y49056218D01*
X117015242Y49038280D01*
X116993788Y49022369D01*
X116970878Y49008638D01*
X116946733Y48997218D01*
X116921585Y48988220D01*
X116895675Y48981730D01*
X116869255Y48977811D01*
X116842577Y48976500D01*
X115884923Y48976500D01*
X115858245Y48977811D01*
X115831825Y48981730D01*
X115805915Y48988220D01*
X115780767Y48997218D01*
X115756622Y49008638D01*
X115733712Y49022369D01*
X115712258Y49038280D01*
X115692468Y49056218D01*
X115674530Y49076008D01*
X115658619Y49097462D01*
X115644888Y49120372D01*
X115633468Y49144517D01*
X115624470Y49169665D01*
X115617980Y49195575D01*
X115614061Y49221995D01*
X115612750Y49248673D01*
X115612750Y49956327D01*
X115614061Y49983005D01*
X115617980Y50009425D01*
X115624470Y50035335D01*
X115633468Y50060483D01*
X115644888Y50084628D01*
X115658619Y50107538D01*
X115674530Y50128992D01*
X115692468Y50148782D01*
X115712258Y50166720D01*
X115733712Y50182631D01*
X115756622Y50196362D01*
X115780767Y50207782D01*
X115805915Y50216780D01*
X115831825Y50223270D01*
X115858245Y50227189D01*
X115884923Y50228500D01*
X116842577Y50228500D01*
X116869255Y50227189D01*
G37*
G36*
X116869255Y48177189D02*
G01*
X116895675Y48173270D01*
X116921585Y48166780D01*
X116946733Y48157782D01*
X116970878Y48146362D01*
X116993788Y48132631D01*
X117015242Y48116720D01*
X117035032Y48098782D01*
X117052970Y48078992D01*
X117068881Y48057538D01*
X117082612Y48034628D01*
X117094032Y48010483D01*
X117103030Y47985335D01*
X117109520Y47959425D01*
X117113439Y47933005D01*
X117114750Y47906327D01*
X117114750Y47198673D01*
X117113439Y47171995D01*
X117109520Y47145575D01*
X117103030Y47119665D01*
X117094032Y47094517D01*
X117082612Y47070372D01*
X117068881Y47047462D01*
X117052970Y47026008D01*
X117035032Y47006218D01*
X117015242Y46988280D01*
X116993788Y46972369D01*
X116970878Y46958638D01*
X116946733Y46947218D01*
X116921585Y46938220D01*
X116895675Y46931730D01*
X116869255Y46927811D01*
X116842577Y46926500D01*
X115884923Y46926500D01*
X115858245Y46927811D01*
X115831825Y46931730D01*
X115805915Y46938220D01*
X115780767Y46947218D01*
X115756622Y46958638D01*
X115733712Y46972369D01*
X115712258Y46988280D01*
X115692468Y47006218D01*
X115674530Y47026008D01*
X115658619Y47047462D01*
X115644888Y47070372D01*
X115633468Y47094517D01*
X115624470Y47119665D01*
X115617980Y47145575D01*
X115614061Y47171995D01*
X115612750Y47198673D01*
X115612750Y47906327D01*
X115614061Y47933005D01*
X115617980Y47959425D01*
X115624470Y47985335D01*
X115633468Y48010483D01*
X115644888Y48034628D01*
X115658619Y48057538D01*
X115674530Y48078992D01*
X115692468Y48098782D01*
X115712258Y48116720D01*
X115733712Y48132631D01*
X115756622Y48146362D01*
X115780767Y48157782D01*
X115805915Y48166780D01*
X115831825Y48173270D01*
X115858245Y48177189D01*
X115884923Y48178500D01*
X116842577Y48178500D01*
X116869255Y48177189D01*
G37*
G36*
X127394255Y44405939D02*
G01*
X127420675Y44402020D01*
X127446585Y44395530D01*
X127471733Y44386532D01*
X127495878Y44375112D01*
X127518788Y44361381D01*
X127540242Y44345470D01*
X127560032Y44327532D01*
X127577970Y44307742D01*
X127593881Y44286288D01*
X127607612Y44263378D01*
X127619032Y44239233D01*
X127628030Y44214085D01*
X127634520Y44188175D01*
X127638439Y44161755D01*
X127639750Y44135077D01*
X127639750Y43177423D01*
X127638439Y43150745D01*
X127634520Y43124325D01*
X127628030Y43098415D01*
X127619032Y43073267D01*
X127607612Y43049122D01*
X127593881Y43026212D01*
X127577970Y43004758D01*
X127560032Y42984968D01*
X127540242Y42967030D01*
X127518788Y42951119D01*
X127495878Y42937388D01*
X127471733Y42925968D01*
X127446585Y42916970D01*
X127420675Y42910480D01*
X127394255Y42906561D01*
X127367577Y42905250D01*
X126659923Y42905250D01*
X126633245Y42906561D01*
X126606825Y42910480D01*
X126580915Y42916970D01*
X126555767Y42925968D01*
X126531622Y42937388D01*
X126508712Y42951119D01*
X126487258Y42967030D01*
X126467468Y42984968D01*
X126449530Y43004758D01*
X126433619Y43026212D01*
X126419888Y43049122D01*
X126408468Y43073267D01*
X126399470Y43098415D01*
X126392980Y43124325D01*
X126389061Y43150745D01*
X126387750Y43177423D01*
X126387750Y44135077D01*
X126389061Y44161755D01*
X126392980Y44188175D01*
X126399470Y44214085D01*
X126408468Y44239233D01*
X126419888Y44263378D01*
X126433619Y44286288D01*
X126449530Y44307742D01*
X126467468Y44327532D01*
X126487258Y44345470D01*
X126508712Y44361381D01*
X126531622Y44375112D01*
X126555767Y44386532D01*
X126580915Y44395530D01*
X126606825Y44402020D01*
X126633245Y44405939D01*
X126659923Y44407250D01*
X127367577Y44407250D01*
X127394255Y44405939D01*
G37*
G36*
X129444255Y44405939D02*
G01*
X129470675Y44402020D01*
X129496585Y44395530D01*
X129521733Y44386532D01*
X129545878Y44375112D01*
X129568788Y44361381D01*
X129590242Y44345470D01*
X129610032Y44327532D01*
X129627970Y44307742D01*
X129643881Y44286288D01*
X129657612Y44263378D01*
X129669032Y44239233D01*
X129678030Y44214085D01*
X129684520Y44188175D01*
X129688439Y44161755D01*
X129689750Y44135077D01*
X129689750Y43177423D01*
X129688439Y43150745D01*
X129684520Y43124325D01*
X129678030Y43098415D01*
X129669032Y43073267D01*
X129657612Y43049122D01*
X129643881Y43026212D01*
X129627970Y43004758D01*
X129610032Y42984968D01*
X129590242Y42967030D01*
X129568788Y42951119D01*
X129545878Y42937388D01*
X129521733Y42925968D01*
X129496585Y42916970D01*
X129470675Y42910480D01*
X129444255Y42906561D01*
X129417577Y42905250D01*
X128709923Y42905250D01*
X128683245Y42906561D01*
X128656825Y42910480D01*
X128630915Y42916970D01*
X128605767Y42925968D01*
X128581622Y42937388D01*
X128558712Y42951119D01*
X128537258Y42967030D01*
X128517468Y42984968D01*
X128499530Y43004758D01*
X128483619Y43026212D01*
X128469888Y43049122D01*
X128458468Y43073267D01*
X128449470Y43098415D01*
X128442980Y43124325D01*
X128439061Y43150745D01*
X128437750Y43177423D01*
X128437750Y44135077D01*
X128439061Y44161755D01*
X128442980Y44188175D01*
X128449470Y44214085D01*
X128458468Y44239233D01*
X128469888Y44263378D01*
X128483619Y44286288D01*
X128499530Y44307742D01*
X128517468Y44327532D01*
X128537258Y44345470D01*
X128558712Y44361381D01*
X128581622Y44375112D01*
X128605767Y44386532D01*
X128630915Y44395530D01*
X128656825Y44402020D01*
X128683245Y44405939D01*
X128709923Y44407250D01*
X129417577Y44407250D01*
X129444255Y44405939D01*
G37*
G36*
X129580255Y35515939D02*
G01*
X129606675Y35512020D01*
X129632585Y35505530D01*
X129657733Y35496532D01*
X129681878Y35485112D01*
X129704788Y35471381D01*
X129726242Y35455470D01*
X129746032Y35437532D01*
X129763970Y35417742D01*
X129779881Y35396288D01*
X129793612Y35373378D01*
X129805032Y35349233D01*
X129814030Y35324085D01*
X129820520Y35298175D01*
X129824439Y35271755D01*
X129825750Y35245077D01*
X129825750Y34287423D01*
X129824439Y34260745D01*
X129820520Y34234325D01*
X129814030Y34208415D01*
X129805032Y34183267D01*
X129793612Y34159122D01*
X129779881Y34136212D01*
X129763970Y34114758D01*
X129746032Y34094968D01*
X129726242Y34077030D01*
X129704788Y34061119D01*
X129681878Y34047388D01*
X129657733Y34035968D01*
X129632585Y34026970D01*
X129606675Y34020480D01*
X129580255Y34016561D01*
X129553577Y34015250D01*
X128845923Y34015250D01*
X128819245Y34016561D01*
X128792825Y34020480D01*
X128766915Y34026970D01*
X128741767Y34035968D01*
X128717622Y34047388D01*
X128694712Y34061119D01*
X128673258Y34077030D01*
X128653468Y34094968D01*
X128635530Y34114758D01*
X128619619Y34136212D01*
X128605888Y34159122D01*
X128594468Y34183267D01*
X128585470Y34208415D01*
X128578980Y34234325D01*
X128575061Y34260745D01*
X128573750Y34287423D01*
X128573750Y35245077D01*
X128575061Y35271755D01*
X128578980Y35298175D01*
X128585470Y35324085D01*
X128594468Y35349233D01*
X128605888Y35373378D01*
X128619619Y35396288D01*
X128635530Y35417742D01*
X128653468Y35437532D01*
X128673258Y35455470D01*
X128694712Y35471381D01*
X128717622Y35485112D01*
X128741767Y35496532D01*
X128766915Y35505530D01*
X128792825Y35512020D01*
X128819245Y35515939D01*
X128845923Y35517250D01*
X129553577Y35517250D01*
X129580255Y35515939D01*
G37*
G36*
X127530255Y35515939D02*
G01*
X127556675Y35512020D01*
X127582585Y35505530D01*
X127607733Y35496532D01*
X127631878Y35485112D01*
X127654788Y35471381D01*
X127676242Y35455470D01*
X127696032Y35437532D01*
X127713970Y35417742D01*
X127729881Y35396288D01*
X127743612Y35373378D01*
X127755032Y35349233D01*
X127764030Y35324085D01*
X127770520Y35298175D01*
X127774439Y35271755D01*
X127775750Y35245077D01*
X127775750Y34287423D01*
X127774439Y34260745D01*
X127770520Y34234325D01*
X127764030Y34208415D01*
X127755032Y34183267D01*
X127743612Y34159122D01*
X127729881Y34136212D01*
X127713970Y34114758D01*
X127696032Y34094968D01*
X127676242Y34077030D01*
X127654788Y34061119D01*
X127631878Y34047388D01*
X127607733Y34035968D01*
X127582585Y34026970D01*
X127556675Y34020480D01*
X127530255Y34016561D01*
X127503577Y34015250D01*
X126795923Y34015250D01*
X126769245Y34016561D01*
X126742825Y34020480D01*
X126716915Y34026970D01*
X126691767Y34035968D01*
X126667622Y34047388D01*
X126644712Y34061119D01*
X126623258Y34077030D01*
X126603468Y34094968D01*
X126585530Y34114758D01*
X126569619Y34136212D01*
X126555888Y34159122D01*
X126544468Y34183267D01*
X126535470Y34208415D01*
X126528980Y34234325D01*
X126525061Y34260745D01*
X126523750Y34287423D01*
X126523750Y35245077D01*
X126525061Y35271755D01*
X126528980Y35298175D01*
X126535470Y35324085D01*
X126544468Y35349233D01*
X126555888Y35373378D01*
X126569619Y35396288D01*
X126585530Y35417742D01*
X126603468Y35437532D01*
X126623258Y35455470D01*
X126644712Y35471381D01*
X126667622Y35485112D01*
X126691767Y35496532D01*
X126716915Y35505530D01*
X126742825Y35512020D01*
X126769245Y35515939D01*
X126795923Y35517250D01*
X127503577Y35517250D01*
X127530255Y35515939D01*
G37*
G36*
X122203255Y31059189D02*
G01*
X122229675Y31055270D01*
X122255585Y31048780D01*
X122280733Y31039782D01*
X122304878Y31028362D01*
X122327788Y31014631D01*
X122349242Y30998720D01*
X122369032Y30980782D01*
X122386970Y30960992D01*
X122402881Y30939538D01*
X122416612Y30916628D01*
X122428032Y30892483D01*
X122437030Y30867335D01*
X122443520Y30841425D01*
X122447439Y30815005D01*
X122448750Y30788327D01*
X122448750Y30080673D01*
X122447439Y30053995D01*
X122443520Y30027575D01*
X122437030Y30001665D01*
X122428032Y29976517D01*
X122416612Y29952372D01*
X122402881Y29929462D01*
X122386970Y29908008D01*
X122369032Y29888218D01*
X122349242Y29870280D01*
X122327788Y29854369D01*
X122304878Y29840638D01*
X122280733Y29829218D01*
X122255585Y29820220D01*
X122229675Y29813730D01*
X122203255Y29809811D01*
X122176577Y29808500D01*
X121218923Y29808500D01*
X121192245Y29809811D01*
X121165825Y29813730D01*
X121139915Y29820220D01*
X121114767Y29829218D01*
X121090622Y29840638D01*
X121067712Y29854369D01*
X121046258Y29870280D01*
X121026468Y29888218D01*
X121008530Y29908008D01*
X120992619Y29929462D01*
X120978888Y29952372D01*
X120967468Y29976517D01*
X120958470Y30001665D01*
X120951980Y30027575D01*
X120948061Y30053995D01*
X120946750Y30080673D01*
X120946750Y30788327D01*
X120948061Y30815005D01*
X120951980Y30841425D01*
X120958470Y30867335D01*
X120967468Y30892483D01*
X120978888Y30916628D01*
X120992619Y30939538D01*
X121008530Y30960992D01*
X121026468Y30980782D01*
X121046258Y30998720D01*
X121067712Y31014631D01*
X121090622Y31028362D01*
X121114767Y31039782D01*
X121139915Y31048780D01*
X121165825Y31055270D01*
X121192245Y31059189D01*
X121218923Y31060500D01*
X122176577Y31060500D01*
X122203255Y31059189D01*
G37*
G36*
X122203255Y29009189D02*
G01*
X122229675Y29005270D01*
X122255585Y28998780D01*
X122280733Y28989782D01*
X122304878Y28978362D01*
X122327788Y28964631D01*
X122349242Y28948720D01*
X122369032Y28930782D01*
X122386970Y28910992D01*
X122402881Y28889538D01*
X122416612Y28866628D01*
X122428032Y28842483D01*
X122437030Y28817335D01*
X122443520Y28791425D01*
X122447439Y28765005D01*
X122448750Y28738327D01*
X122448750Y28030673D01*
X122447439Y28003995D01*
X122443520Y27977575D01*
X122437030Y27951665D01*
X122428032Y27926517D01*
X122416612Y27902372D01*
X122402881Y27879462D01*
X122386970Y27858008D01*
X122369032Y27838218D01*
X122349242Y27820280D01*
X122327788Y27804369D01*
X122304878Y27790638D01*
X122280733Y27779218D01*
X122255585Y27770220D01*
X122229675Y27763730D01*
X122203255Y27759811D01*
X122176577Y27758500D01*
X121218923Y27758500D01*
X121192245Y27759811D01*
X121165825Y27763730D01*
X121139915Y27770220D01*
X121114767Y27779218D01*
X121090622Y27790638D01*
X121067712Y27804369D01*
X121046258Y27820280D01*
X121026468Y27838218D01*
X121008530Y27858008D01*
X120992619Y27879462D01*
X120978888Y27902372D01*
X120967468Y27926517D01*
X120958470Y27951665D01*
X120951980Y27977575D01*
X120948061Y28003995D01*
X120946750Y28030673D01*
X120946750Y28738327D01*
X120948061Y28765005D01*
X120951980Y28791425D01*
X120958470Y28817335D01*
X120967468Y28842483D01*
X120978888Y28866628D01*
X120992619Y28889538D01*
X121008530Y28910992D01*
X121026468Y28930782D01*
X121046258Y28948720D01*
X121067712Y28964631D01*
X121090622Y28978362D01*
X121114767Y28989782D01*
X121139915Y28998780D01*
X121165825Y29005270D01*
X121192245Y29009189D01*
X121218923Y29010500D01*
X122176577Y29010500D01*
X122203255Y29009189D01*
G37*
G36*
X124711505Y31041189D02*
G01*
X124737925Y31037270D01*
X124763835Y31030780D01*
X124788983Y31021782D01*
X124813128Y31010362D01*
X124836038Y30996631D01*
X124857492Y30980720D01*
X124877282Y30962782D01*
X124895220Y30942992D01*
X124911131Y30921538D01*
X124924862Y30898628D01*
X124936282Y30874483D01*
X124945280Y30849335D01*
X124951770Y30823425D01*
X124955689Y30797005D01*
X124957000Y30770327D01*
X124957000Y30062673D01*
X124955689Y30035995D01*
X124951770Y30009575D01*
X124945280Y29983665D01*
X124936282Y29958517D01*
X124924862Y29934372D01*
X124911131Y29911462D01*
X124895220Y29890008D01*
X124877282Y29870218D01*
X124857492Y29852280D01*
X124836038Y29836369D01*
X124813128Y29822638D01*
X124788983Y29811218D01*
X124763835Y29802220D01*
X124737925Y29795730D01*
X124711505Y29791811D01*
X124684827Y29790500D01*
X123727173Y29790500D01*
X123700495Y29791811D01*
X123674075Y29795730D01*
X123648165Y29802220D01*
X123623017Y29811218D01*
X123598872Y29822638D01*
X123575962Y29836369D01*
X123554508Y29852280D01*
X123534718Y29870218D01*
X123516780Y29890008D01*
X123500869Y29911462D01*
X123487138Y29934372D01*
X123475718Y29958517D01*
X123466720Y29983665D01*
X123460230Y30009575D01*
X123456311Y30035995D01*
X123455000Y30062673D01*
X123455000Y30770327D01*
X123456311Y30797005D01*
X123460230Y30823425D01*
X123466720Y30849335D01*
X123475718Y30874483D01*
X123487138Y30898628D01*
X123500869Y30921538D01*
X123516780Y30942992D01*
X123534718Y30962782D01*
X123554508Y30980720D01*
X123575962Y30996631D01*
X123598872Y31010362D01*
X123623017Y31021782D01*
X123648165Y31030780D01*
X123674075Y31037270D01*
X123700495Y31041189D01*
X123727173Y31042500D01*
X124684827Y31042500D01*
X124711505Y31041189D01*
G37*
G36*
X124711505Y28991189D02*
G01*
X124737925Y28987270D01*
X124763835Y28980780D01*
X124788983Y28971782D01*
X124813128Y28960362D01*
X124836038Y28946631D01*
X124857492Y28930720D01*
X124877282Y28912782D01*
X124895220Y28892992D01*
X124911131Y28871538D01*
X124924862Y28848628D01*
X124936282Y28824483D01*
X124945280Y28799335D01*
X124951770Y28773425D01*
X124955689Y28747005D01*
X124957000Y28720327D01*
X124957000Y28012673D01*
X124955689Y27985995D01*
X124951770Y27959575D01*
X124945280Y27933665D01*
X124936282Y27908517D01*
X124924862Y27884372D01*
X124911131Y27861462D01*
X124895220Y27840008D01*
X124877282Y27820218D01*
X124857492Y27802280D01*
X124836038Y27786369D01*
X124813128Y27772638D01*
X124788983Y27761218D01*
X124763835Y27752220D01*
X124737925Y27745730D01*
X124711505Y27741811D01*
X124684827Y27740500D01*
X123727173Y27740500D01*
X123700495Y27741811D01*
X123674075Y27745730D01*
X123648165Y27752220D01*
X123623017Y27761218D01*
X123598872Y27772638D01*
X123575962Y27786369D01*
X123554508Y27802280D01*
X123534718Y27820218D01*
X123516780Y27840008D01*
X123500869Y27861462D01*
X123487138Y27884372D01*
X123475718Y27908517D01*
X123466720Y27933665D01*
X123460230Y27959575D01*
X123456311Y27985995D01*
X123455000Y28012673D01*
X123455000Y28720327D01*
X123456311Y28747005D01*
X123460230Y28773425D01*
X123466720Y28799335D01*
X123475718Y28824483D01*
X123487138Y28848628D01*
X123500869Y28871538D01*
X123516780Y28892992D01*
X123534718Y28912782D01*
X123554508Y28930720D01*
X123575962Y28946631D01*
X123598872Y28960362D01*
X123623017Y28971782D01*
X123648165Y28980780D01*
X123674075Y28987270D01*
X123700495Y28991189D01*
X123727173Y28992500D01*
X124684827Y28992500D01*
X124711505Y28991189D01*
G37*
G36*
X127156255Y31050189D02*
G01*
X127182675Y31046270D01*
X127208585Y31039780D01*
X127233733Y31030782D01*
X127257878Y31019362D01*
X127280788Y31005631D01*
X127302242Y30989720D01*
X127322032Y30971782D01*
X127339970Y30951992D01*
X127355881Y30930538D01*
X127369612Y30907628D01*
X127381032Y30883483D01*
X127390030Y30858335D01*
X127396520Y30832425D01*
X127400439Y30806005D01*
X127401750Y30779327D01*
X127401750Y30071673D01*
X127400439Y30044995D01*
X127396520Y30018575D01*
X127390030Y29992665D01*
X127381032Y29967517D01*
X127369612Y29943372D01*
X127355881Y29920462D01*
X127339970Y29899008D01*
X127322032Y29879218D01*
X127302242Y29861280D01*
X127280788Y29845369D01*
X127257878Y29831638D01*
X127233733Y29820218D01*
X127208585Y29811220D01*
X127182675Y29804730D01*
X127156255Y29800811D01*
X127129577Y29799500D01*
X126171923Y29799500D01*
X126145245Y29800811D01*
X126118825Y29804730D01*
X126092915Y29811220D01*
X126067767Y29820218D01*
X126043622Y29831638D01*
X126020712Y29845369D01*
X125999258Y29861280D01*
X125979468Y29879218D01*
X125961530Y29899008D01*
X125945619Y29920462D01*
X125931888Y29943372D01*
X125920468Y29967517D01*
X125911470Y29992665D01*
X125904980Y30018575D01*
X125901061Y30044995D01*
X125899750Y30071673D01*
X125899750Y30779327D01*
X125901061Y30806005D01*
X125904980Y30832425D01*
X125911470Y30858335D01*
X125920468Y30883483D01*
X125931888Y30907628D01*
X125945619Y30930538D01*
X125961530Y30951992D01*
X125979468Y30971782D01*
X125999258Y30989720D01*
X126020712Y31005631D01*
X126043622Y31019362D01*
X126067767Y31030782D01*
X126092915Y31039780D01*
X126118825Y31046270D01*
X126145245Y31050189D01*
X126171923Y31051500D01*
X127129577Y31051500D01*
X127156255Y31050189D01*
G37*
G36*
X127156255Y29000189D02*
G01*
X127182675Y28996270D01*
X127208585Y28989780D01*
X127233733Y28980782D01*
X127257878Y28969362D01*
X127280788Y28955631D01*
X127302242Y28939720D01*
X127322032Y28921782D01*
X127339970Y28901992D01*
X127355881Y28880538D01*
X127369612Y28857628D01*
X127381032Y28833483D01*
X127390030Y28808335D01*
X127396520Y28782425D01*
X127400439Y28756005D01*
X127401750Y28729327D01*
X127401750Y28021673D01*
X127400439Y27994995D01*
X127396520Y27968575D01*
X127390030Y27942665D01*
X127381032Y27917517D01*
X127369612Y27893372D01*
X127355881Y27870462D01*
X127339970Y27849008D01*
X127322032Y27829218D01*
X127302242Y27811280D01*
X127280788Y27795369D01*
X127257878Y27781638D01*
X127233733Y27770218D01*
X127208585Y27761220D01*
X127182675Y27754730D01*
X127156255Y27750811D01*
X127129577Y27749500D01*
X126171923Y27749500D01*
X126145245Y27750811D01*
X126118825Y27754730D01*
X126092915Y27761220D01*
X126067767Y27770218D01*
X126043622Y27781638D01*
X126020712Y27795369D01*
X125999258Y27811280D01*
X125979468Y27829218D01*
X125961530Y27849008D01*
X125945619Y27870462D01*
X125931888Y27893372D01*
X125920468Y27917517D01*
X125911470Y27942665D01*
X125904980Y27968575D01*
X125901061Y27994995D01*
X125899750Y28021673D01*
X125899750Y28729327D01*
X125901061Y28756005D01*
X125904980Y28782425D01*
X125911470Y28808335D01*
X125920468Y28833483D01*
X125931888Y28857628D01*
X125945619Y28880538D01*
X125961530Y28901992D01*
X125979468Y28921782D01*
X125999258Y28939720D01*
X126020712Y28955631D01*
X126043622Y28969362D01*
X126067767Y28980782D01*
X126092915Y28989780D01*
X126118825Y28996270D01*
X126145245Y29000189D01*
X126171923Y29001500D01*
X127129577Y29001500D01*
X127156255Y29000189D01*
G37*
G36*
X129442255Y31059189D02*
G01*
X129468675Y31055270D01*
X129494585Y31048780D01*
X129519733Y31039782D01*
X129543878Y31028362D01*
X129566788Y31014631D01*
X129588242Y30998720D01*
X129608032Y30980782D01*
X129625970Y30960992D01*
X129641881Y30939538D01*
X129655612Y30916628D01*
X129667032Y30892483D01*
X129676030Y30867335D01*
X129682520Y30841425D01*
X129686439Y30815005D01*
X129687750Y30788327D01*
X129687750Y30080673D01*
X129686439Y30053995D01*
X129682520Y30027575D01*
X129676030Y30001665D01*
X129667032Y29976517D01*
X129655612Y29952372D01*
X129641881Y29929462D01*
X129625970Y29908008D01*
X129608032Y29888218D01*
X129588242Y29870280D01*
X129566788Y29854369D01*
X129543878Y29840638D01*
X129519733Y29829218D01*
X129494585Y29820220D01*
X129468675Y29813730D01*
X129442255Y29809811D01*
X129415577Y29808500D01*
X128457923Y29808500D01*
X128431245Y29809811D01*
X128404825Y29813730D01*
X128378915Y29820220D01*
X128353767Y29829218D01*
X128329622Y29840638D01*
X128306712Y29854369D01*
X128285258Y29870280D01*
X128265468Y29888218D01*
X128247530Y29908008D01*
X128231619Y29929462D01*
X128217888Y29952372D01*
X128206468Y29976517D01*
X128197470Y30001665D01*
X128190980Y30027575D01*
X128187061Y30053995D01*
X128185750Y30080673D01*
X128185750Y30788327D01*
X128187061Y30815005D01*
X128190980Y30841425D01*
X128197470Y30867335D01*
X128206468Y30892483D01*
X128217888Y30916628D01*
X128231619Y30939538D01*
X128247530Y30960992D01*
X128265468Y30980782D01*
X128285258Y30998720D01*
X128306712Y31014631D01*
X128329622Y31028362D01*
X128353767Y31039782D01*
X128378915Y31048780D01*
X128404825Y31055270D01*
X128431245Y31059189D01*
X128457923Y31060500D01*
X129415577Y31060500D01*
X129442255Y31059189D01*
G37*
G36*
X129442255Y29009189D02*
G01*
X129468675Y29005270D01*
X129494585Y28998780D01*
X129519733Y28989782D01*
X129543878Y28978362D01*
X129566788Y28964631D01*
X129588242Y28948720D01*
X129608032Y28930782D01*
X129625970Y28910992D01*
X129641881Y28889538D01*
X129655612Y28866628D01*
X129667032Y28842483D01*
X129676030Y28817335D01*
X129682520Y28791425D01*
X129686439Y28765005D01*
X129687750Y28738327D01*
X129687750Y28030673D01*
X129686439Y28003995D01*
X129682520Y27977575D01*
X129676030Y27951665D01*
X129667032Y27926517D01*
X129655612Y27902372D01*
X129641881Y27879462D01*
X129625970Y27858008D01*
X129608032Y27838218D01*
X129588242Y27820280D01*
X129566788Y27804369D01*
X129543878Y27790638D01*
X129519733Y27779218D01*
X129494585Y27770220D01*
X129468675Y27763730D01*
X129442255Y27759811D01*
X129415577Y27758500D01*
X128457923Y27758500D01*
X128431245Y27759811D01*
X128404825Y27763730D01*
X128378915Y27770220D01*
X128353767Y27779218D01*
X128329622Y27790638D01*
X128306712Y27804369D01*
X128285258Y27820280D01*
X128265468Y27838218D01*
X128247530Y27858008D01*
X128231619Y27879462D01*
X128217888Y27902372D01*
X128206468Y27926517D01*
X128197470Y27951665D01*
X128190980Y27977575D01*
X128187061Y28003995D01*
X128185750Y28030673D01*
X128185750Y28738327D01*
X128187061Y28765005D01*
X128190980Y28791425D01*
X128197470Y28817335D01*
X128206468Y28842483D01*
X128217888Y28866628D01*
X128231619Y28889538D01*
X128247530Y28910992D01*
X128265468Y28930782D01*
X128285258Y28948720D01*
X128306712Y28964631D01*
X128329622Y28978362D01*
X128353767Y28989782D01*
X128378915Y28998780D01*
X128404825Y29005270D01*
X128431245Y29009189D01*
X128457923Y29010500D01*
X129415577Y29010500D01*
X129442255Y29009189D01*
G37*
M02*
