M48
; DRILL file {KiCad (5.1.5)-3} date 2/18/2020 9:35:37 PM
; FORMAT={-:-/ absolute / inch / decimal}
; #@! TF.CreationDate,2020-02-18T21:35:37-05:00
; #@! TF.GenerationSoftware,Kicad,Pcbnew,(5.1.5)-3
; #@! TF.FileFunction,Plated,1,2,PTH
FMAT,2
INCH
T1C0.0157
T2C0.0236
T3C0.0579
%
G90
G05
T1
X1.35Y4.41
X1.355Y4.56
X1.375Y4.72
X1.395Y4.41
X1.625Y3.72
X1.675Y3.72
X1.985Y3.625
X1.985Y3.58
X2.0094Y4.0443
X2.765Y3.625
X2.765Y3.58
X3.105Y2.05
X3.85Y2.225
X3.85Y2.15
X3.895Y2.225
X3.895Y2.15
X3.94Y2.225
X3.94Y2.15
X4.0575Y2.1525
X4.0575Y1.9375
X4.105Y4.055
X4.105Y2.64
X4.12Y1.625
X4.18Y1.84
X4.1958Y1.2858
X4.22Y2.97
X4.22Y2.9
X4.2277Y1.4673
X4.2906Y1.9544
X4.295Y1.71
X4.335Y1.905
X4.335Y1.86
X4.365Y1.255
X4.365Y1.215
X4.365Y1.175
X4.365Y1.135
X4.365Y1.095
X4.4636Y1.6586
X4.645Y1.955
X4.92Y1.585
X4.9962Y1.7875
X5.0412Y1.6675
X5.205Y1.105
X5.205Y1.065
X5.205Y1.025
X5.34Y1.36
X5.34Y1.195
X5.77Y1.125
X5.945Y1.35
X7.5312Y2.1562
X8.2188Y2.115
X8.96Y2.08
X9.86Y1.345
X10.005Y2.09
X11.31Y1.195
X12.0205Y1.1655
T3
X5.9125Y3.1313
X5.9641Y3.1887
X6.1609Y3.2084
X6.1625Y3.2312
X10.8834Y1.4437
X10.935Y1.5012
X11.1318Y1.5209
X11.1334Y1.5437
X12.5687Y4.6319
X12.6203Y4.6894
X12.8172Y4.7091
X12.8187Y4.7319
X2.35Y4.6312
X2.4016Y4.6887
X2.5984Y4.7084
X2.6Y4.7313
X4.6Y4.6312
X4.6516Y4.6887
X4.8484Y4.7084
X4.85Y4.7313
X9.1Y4.6312
X9.1516Y4.6887
X9.3484Y4.7084
X9.35Y4.7313
X9.475Y3.8813
X9.5266Y3.9387
X9.7234Y3.9584
X9.725Y3.9812
X11.6312Y1.4437
X11.6828Y1.5012
X11.8797Y1.5209
X11.8812Y1.5437
X7.6Y4.6312
X7.6516Y4.6887
X7.8484Y4.7084
X7.85Y4.7313
X5.1625Y3.1313
X5.2141Y3.1887
X5.4109Y3.2084
X5.4125Y3.2312
X6.1Y4.6312
X6.1516Y4.6887
X6.3484Y4.7084
X6.35Y4.7313
X4.7875Y2.3813
X4.8391Y2.4387
X5.0359Y2.4584
X5.0375Y2.4812
X12.5687Y3.8819
X12.6203Y3.9394
X12.8172Y3.9591
X12.8187Y3.9819
X3.6625Y3.1313
X3.7141Y3.1887
X3.9109Y3.2084
X3.9125Y3.2312
X2.8188Y1.6312
X2.8703Y1.6887
X3.0672Y1.7084
X3.0688Y1.7312
X9.3812Y1.6312
X9.4328Y1.6887
X9.6297Y1.7084
X9.6312Y1.7312
X10.975Y4.6312
X11.0266Y4.6887
X11.2234Y4.7084
X11.225Y4.7313
X8.5375Y2.3813
X8.5891Y2.4387
X8.7859Y2.4584
X8.7875Y2.4812
X8.1625Y3.1313
X8.2141Y3.1887
X8.4109Y3.2084
X8.4125Y3.2312
X6.2875Y2.3813
X6.3391Y2.4387
X6.5359Y2.4584
X6.5375Y2.4812
X6.475Y3.8813
X6.5266Y3.9387
X6.7234Y3.9584
X6.725Y3.9812
X12.5688Y2.3813
X12.6203Y2.4387
X12.8172Y2.4584
X12.8188Y2.4812
X12.3812Y1.4437
X12.4328Y1.5012
X12.6297Y1.5209
X12.6312Y1.5437
X12.5687Y3.1319
X12.6203Y3.1894
X12.8172Y3.2091
X12.8187Y3.2319
X4.4125Y3.1313
X4.4641Y3.1887
X4.6609Y3.2084
X4.6625Y3.2312
X2.5375Y2.3813
X2.5891Y2.4387
X2.7859Y2.4584
X2.7875Y2.4812
X9.6625Y3.1313
X9.7141Y3.1887
X9.9109Y3.2084
X9.9125Y3.2312
X10.3187Y2.3813
X10.3703Y2.4387
X10.5672Y2.4584
X10.5687Y2.4812
X8.4437Y1.6312
X8.4953Y1.6887
X8.6922Y1.7084
X8.6937Y1.7312
X6.6625Y3.1313
X6.7141Y3.1887
X6.9109Y3.2084
X6.9125Y3.2312
X5.35Y4.6312
X5.4016Y4.6887
X5.5984Y4.7084
X5.6Y4.7313
X7.225Y3.8813
X7.2766Y3.9387
X7.4734Y3.9584
X7.475Y3.9812
X3.2875Y2.3813
X3.3391Y2.4387
X3.5359Y2.4584
X3.5375Y2.4812
X5.6312Y1.6312
X5.6828Y1.6887
X5.8797Y1.7084
X5.8812Y1.7312
X4.225Y3.8813
X4.2766Y3.9387
X4.4734Y3.9584
X4.475Y3.9812
X1.1312Y3.1313
X1.1828Y3.1887
X1.3797Y3.2084
X1.3812Y3.2312
X2.1625Y3.1313
X2.2141Y3.1887
X2.4109Y3.2084
X2.4125Y3.2312
X8.725Y3.8813
X8.7766Y3.9387
X8.9734Y3.9584
X8.975Y3.9812
X10.8812Y3.1313
X10.9328Y3.1887
X11.1297Y3.2084
X11.1312Y3.2312
X7.0375Y2.3813
X7.0891Y2.4387
X7.2859Y2.4584
X7.2875Y2.4812
X4.975Y3.8813
X5.0266Y3.9387
X5.2234Y3.9584
X5.225Y3.9812
X0.85Y4.6312
X0.9016Y4.6887
X1.0984Y4.7084
X1.1Y4.7313
X1.3187Y2.3813
X1.3703Y2.4387
X1.5672Y2.4584
X1.5687Y2.4812
X1.975Y3.8813
X2.0266Y3.9387
X2.2234Y3.9584
X2.225Y3.9812
X2.725Y3.8813
X2.7766Y3.9387
X2.9734Y3.9584
X2.975Y3.9812
X11.1625Y3.8813
X11.2141Y3.9387
X11.4109Y3.9584
X11.4125Y3.9812
X9.85Y4.6312
X9.9016Y4.6887
X10.0984Y4.7084
X10.1Y4.7313
X6.85Y4.6312
X6.9016Y4.6887
X7.0984Y4.7084
X7.1Y4.7313
X5.5425Y2.3813
X5.5941Y2.4387
X5.7909Y2.4584
X5.7925Y2.4812
X1.8812Y1.6312
X1.9328Y1.6887
X2.1297Y1.7084
X2.1313Y1.7312
X0.9437Y1.6312
X0.9953Y1.6887
X1.1922Y1.7084
X1.1937Y1.7312
X3.1Y4.6312
X3.1516Y4.6887
X3.3484Y4.7084
X3.35Y4.7313
X1.0375Y3.8813
X1.0891Y3.9387
X1.2859Y3.9584
X1.2875Y3.9812
X8.9125Y3.1313
X8.9641Y3.1887
X9.1609Y3.2084
X9.1625Y3.2312
X10.225Y3.8813
X10.2766Y3.9387
X10.4734Y3.9584
X10.475Y3.9812
X1.6Y4.6312
X1.6516Y4.6887
X1.8484Y4.7084
X1.85Y4.7313
X7.4125Y3.1313
X7.4641Y3.1887
X7.6609Y3.2084
X7.6625Y3.2312
X5.725Y3.8813
X5.7766Y3.9387
X5.9734Y3.9584
X5.975Y3.9812
X4.0375Y2.3813
X4.0891Y2.4387
X4.2859Y2.4584
X4.2875Y2.4812
X2.9125Y3.1313
X2.9641Y3.1887
X3.1609Y3.2084
X3.1625Y3.2312
X3.85Y4.6312
X3.9016Y4.6887
X4.0984Y4.7084
X4.1Y4.7313
X3.475Y3.8813
X3.5266Y3.9387
X3.7234Y3.9584
X3.725Y3.9812
X8.35Y4.6312
X8.4016Y4.6887
X8.5984Y4.7084
X8.6Y4.7313
X9.2875Y2.3813
X9.3391Y2.4387
X9.5359Y2.4584
X9.5375Y2.4812
X11.6312Y2.1918
X11.6828Y2.2492
X11.8797Y2.2689
X11.8812Y2.2918
X7.7875Y2.3813
X7.8391Y2.4387
X8.0359Y2.4584
X8.0375Y2.4812
X7.975Y3.8813
X8.0266Y3.9387
X8.2234Y3.9584
X8.225Y3.9812
T2
G00X1.195Y4.8718
M15
G01X1.195Y4.8482
M16
G05
G00X1.195Y4.7171
M15
G01X1.195Y4.6738
M16
G05
G00X1.5352Y4.8718
M15
G01X1.5352Y4.8482
M16
G05
G00X1.5352Y4.7171
M15
G01X1.5352Y4.6738
M16
G05
T0
M30
